{
    "Track0": {
        "time_signature": [
            {
                "numerator": 4,
                "denominator": 4,
                "clocks_per_click": 96,
                "notated_32nd_notes_per_beat": 8,
                "time": 0
            }
        ],
        "set_tempo": [
            {
                "tempo": 731707,
                "time": 0
            }
        ],
        "program_change": [],
        "key_signature": [],
        "note": []
    },
    "Track1": {
        "time_signature": [],
        "set_tempo": [],
        "program_change": [
            {
                "program": 0,
                "channel": 0,
                "time": 0
            }
        ],
        "key_signature": [
            {
                "key": "B",
                "time": 0
            },
            {
                "key": "C",
                "time": 0
            }
        ],
        "note": [
            {
                "type": "note_on",
                "note": 80,
                "channel": 0,
                "velocity": 93,
                "time": 1440
            },
            {
                "type": "note_off",
                "note": 80,
                "channel": 0,
                "velocity": 93,
                "time": 120
            },
            {
                "type": "note_on",
                "note": 82,
                "channel": 0,
                "velocity": 93,
                "time": 0
            },
            {
                "type": "note_off",
                "note": 82,
                "channel": 0,
                "velocity": 93,
                "time": 120
            },
            {
                "type": "note_on",
                "note": 83,
                "channel": 0,
                "velocity": 93,
                "time": 0
            },
            {
                "type": "note_off",
                "note": 83,
                "channel": 0,
                "velocity": 93,
                "time": 120
            },
            {
                "type": "note_on",
                "note": 85,
                "channel": 0,
                "velocity": 93,
                "time": 0
            },
            {
                "type": "note_off",
                "note": 85,
                "channel": 0,
                "velocity": 93,
                "time": 120
            },
            {
                "type": "note_on",
                "note": 75,
                "channel": 0,
                "velocity": 114,
                "time": 0
            },
            {
                "type": "note_on",
                "note": 83,
                "channel": 0,
                "velocity": 114,
                "time": 0
            },
            {
                "type": "note_on",
                "note": 87,
                "channel": 0,
                "velocity": 114,
                "time": 0
            },
            {
                "type": "note_off",
                "note": 75,
                "channel": 0,
                "velocity": 114,
                "time": 480
            },
            {
                "type": "note_off",
                "note": 83,
                "channel": 0,
                "velocity": 114,
                "time": 0
            },
            {
                "type": "note_off",
                "note": 87,
                "channel": 0,
                "velocity": 114,
                "time": 0
            },
            {
                "type": "note_on",
                "note": 80,
                "channel": 0,
                "velocity": 93,
                "time": 240
            },
            {
                "type": "note_off",
                "note": 80,
                "channel": 0,
                "velocity": 93,
                "time": 240
            },
            {
                "type": "note_on",
                "note": 71,
                "channel": 0,
                "velocity": 104,
                "time": 0
            },
            {
                "type": "note_on",
                "note": 75,
                "channel": 0,
                "velocity": 104,
                "time": 0
            },
            {
                "type": "note_on",
                "note": 80,
                "channel": 0,
                "velocity": 104,
                "time": 0
            },
            {
                "type": "note_on",
                "note": 83,
                "channel": 0,
                "velocity": 104,
                "time": 0
            },
            {
                "type": "note_off",
                "note": 71,
                "channel": 0,
                "velocity": 104,
                "time": 720
            },
            {
                "type": "note_off",
                "note": 75,
                "channel": 0,
                "velocity": 104,
                "time": 0
            },
            {
                "type": "note_off",
                "note": 80,
                "channel": 0,
                "velocity": 104,
                "time": 0
            },
            {
                "type": "note_off",
                "note": 83,
                "channel": 0,
                "velocity": 104,
                "time": 0
            },
            {
                "type": "note_on",
                "note": 80,
                "channel": 0,
                "velocity": 93,
                "time": 0
            },
            {
                "type": "note_off",
                "note": 80,
                "channel": 0,
                "velocity": 93,
                "time": 240
            },
            {
                "type": "note_on",
                "note": 73,
                "channel": 0,
                "velocity": 114,
                "time": 0
            },
            {
                "type": "note_on",
                "note": 82,
                "channel": 0,
                "velocity": 114,
                "time": 0
            },
            {
                "type": "note_on",
                "note": 85,
                "channel": 0,
                "velocity": 114,
                "time": 0
            },
            {
                "type": "note_off",
                "note": 73,
                "channel": 0,
                "velocity": 114,
                "time": 360
            },
            {
                "type": "note_off",
                "note": 82,
                "channel": 0,
                "velocity": 114,
                "time": 0
            },
            {
                "type": "note_off",
                "note": 85,
                "channel": 0,
                "velocity": 114,
                "time": 0
            },
            {
                "type": "note_on",
                "note": 90,
                "channel": 0,
                "velocity": 114,
                "time": 0
            },
            {
                "type": "note_off",
                "note": 90,
                "channel": 0,
                "velocity": 114,
                "time": 360
            },
            {
                "type": "note_on",
                "note": 75,
                "channel": 0,
                "velocity": 93,
                "time": 0
            },
            {
                "type": "note_on",
                "note": 78,
                "channel": 0,
                "velocity": 93,
                "time": 0
            },
            {
                "type": "note_on",
                "note": 85,
                "channel": 0,
                "velocity": 93,
                "time": 0
            },
            {
                "type": "note_off",
                "note": 75,
                "channel": 0,
                "velocity": 93,
                "time": 240
            },
            {
                "type": "note_off",
                "note": 78,
                "channel": 0,
                "velocity": 93,
                "time": 0
            },
            {
                "type": "note_off",
                "note": 85,
                "channel": 0,
                "velocity": 93,
                "time": 0
            },
            {
                "type": "note_on",
                "note": 75,
                "channel": 0,
                "velocity": 104,
                "time": 0
            },
            {
                "type": "note_on",
                "note": 83,
                "channel": 0,
                "velocity": 104,
                "time": 0
            },
            {
                "type": "note_on",
                "note": 87,
                "channel": 0,
                "velocity": 104,
                "time": 0
            },
            {
                "type": "note_off",
                "note": 75,
                "channel": 0,
                "velocity": 104,
                "time": 480
            },
            {
                "type": "note_off",
                "note": 83,
                "channel": 0,
                "velocity": 104,
                "time": 0
            },
            {
                "type": "note_off",
                "note": 87,
                "channel": 0,
                "velocity": 104,
                "time": 0
            },
            {
                "type": "note_on",
                "note": 71,
                "channel": 0,
                "velocity": 93,
                "time": 0
            },
            {
                "type": "note_on",
                "note": 75,
                "channel": 0,
                "velocity": 93,
                "time": 0
            },
            {
                "type": "note_on",
                "note": 78,
                "channel": 0,
                "velocity": 93,
                "time": 0
            },
            {
                "type": "note_off",
                "note": 71,
                "channel": 0,
                "velocity": 93,
                "time": 240
            },
            {
                "type": "note_off",
                "note": 75,
                "channel": 0,
                "velocity": 93,
                "time": 0
            },
            {
                "type": "note_off",
                "note": 78,
                "channel": 0,
                "velocity": 93,
                "time": 0
            },
            {
                "type": "note_on",
                "note": 83,
                "channel": 0,
                "velocity": 93,
                "time": 0
            },
            {
                "type": "note_off",
                "note": 83,
                "channel": 0,
                "velocity": 93,
                "time": 240
            },
            {
                "type": "note_on",
                "note": 71,
                "channel": 0,
                "velocity": 114,
                "time": 0
            },
            {
                "type": "note_on",
                "note": 75,
                "channel": 0,
                "velocity": 114,
                "time": 0
            },
            {
                "type": "note_on",
                "note": 83,
                "channel": 0,
                "velocity": 114,
                "time": 0
            },
            {
                "type": "note_off",
                "note": 71,
                "channel": 0,
                "velocity": 114,
                "time": 480
            },
            {
                "type": "note_off",
                "note": 75,
                "channel": 0,
                "velocity": 114,
                "time": 0
            },
            {
                "type": "note_off",
                "note": 83,
                "channel": 0,
                "velocity": 114,
                "time": 0
            },
            {
                "type": "note_on",
                "note": 68,
                "channel": 0,
                "velocity": 93,
                "time": 0
            },
            {
                "type": "note_off",
                "note": 68,
                "channel": 0,
                "velocity": 93,
                "time": 240
            },
            {
                "type": "note_on",
                "note": 71,
                "channel": 0,
                "velocity": 93,
                "time": 0
            },
            {
                "type": "note_off",
                "note": 71,
                "channel": 0,
                "velocity": 93,
                "time": 240
            },
            {
                "type": "note_on",
                "note": 64,
                "channel": 0,
                "velocity": 104,
                "time": 0
            },
            {
                "type": "note_on",
                "note": 71,
                "channel": 0,
                "velocity": 104,
                "time": 0
            },
            {
                "type": "note_off",
                "note": 64,
                "channel": 0,
                "velocity": 104,
                "time": 480
            },
            {
                "type": "note_off",
                "note": 71,
                "channel": 0,
                "velocity": 104,
                "time": 0
            },
            {
                "type": "note_on",
                "note": 64,
                "channel": 0,
                "velocity": 93,
                "time": 0
            },
            {
                "type": "note_off",
                "note": 64,
                "channel": 0,
                "velocity": 93,
                "time": 120
            },
            {
                "type": "note_on",
                "note": 68,
                "channel": 0,
                "velocity": 93,
                "time": 0
            },
            {
                "type": "note_off",
                "note": 68,
                "channel": 0,
                "velocity": 93,
                "time": 120
            },
            {
                "type": "note_on",
                "note": 71,
                "channel": 0,
                "velocity": 93,
                "time": 0
            },
            {
                "type": "note_off",
                "note": 71,
                "channel": 0,
                "velocity": 93,
                "time": 240
            },
            {
                "type": "note_on",
                "note": 70,
                "channel": 0,
                "velocity": 114,
                "time": 0
            },
            {
                "type": "note_on",
                "note": 73,
                "channel": 0,
                "velocity": 114,
                "time": 0
            },
            {
                "type": "note_off",
                "note": 70,
                "channel": 0,
                "velocity": 114,
                "time": 480
            },
            {
                "type": "note_off",
                "note": 73,
                "channel": 0,
                "velocity": 114,
                "time": 0
            },
            {
                "type": "note_on",
                "note": 70,
                "channel": 0,
                "velocity": 93,
                "time": 0
            },
            {
                "type": "note_on",
                "note": 78,
                "channel": 0,
                "velocity": 93,
                "time": 0
            },
            {
                "type": "note_off",
                "note": 70,
                "channel": 0,
                "velocity": 93,
                "time": 480
            },
            {
                "type": "note_off",
                "note": 78,
                "channel": 0,
                "velocity": 93,
                "time": 0
            },
            {
                "type": "note_on",
                "note": 68,
                "channel": 0,
                "velocity": 104,
                "time": 0
            },
            {
                "type": "note_on",
                "note": 71,
                "channel": 0,
                "velocity": 104,
                "time": 0
            },
            {
                "type": "note_on",
                "note": 75,
                "channel": 0,
                "velocity": 104,
                "time": 0
            },
            {
                "type": "note_off",
                "note": 68,
                "channel": 0,
                "velocity": 104,
                "time": 480
            },
            {
                "type": "note_off",
                "note": 71,
                "channel": 0,
                "velocity": 104,
                "time": 0
            },
            {
                "type": "note_off",
                "note": 75,
                "channel": 0,
                "velocity": 104,
                "time": 0
            },
            {
                "type": "note_on",
                "note": 75,
                "channel": 0,
                "velocity": 93,
                "time": 0
            },
            {
                "type": "note_off",
                "note": 75,
                "channel": 0,
                "velocity": 93,
                "time": 30
            },
            {
                "type": "note_on",
                "note": 68,
                "channel": 0,
                "velocity": 93,
                "time": 0
            },
            {
                "type": "note_on",
                "note": 80,
                "channel": 0,
                "velocity": 93,
                "time": 0
            },
            {
                "type": "note_off",
                "note": 68,
                "channel": 0,
                "velocity": 93,
                "time": 210
            },
            {
                "type": "note_off",
                "note": 80,
                "channel": 0,
                "velocity": 93,
                "time": 0
            },
            {
                "type": "note_on",
                "note": 71,
                "channel": 0,
                "velocity": 93,
                "time": 0
            },
            {
                "type": "note_off",
                "note": 71,
                "channel": 0,
                "velocity": 93,
                "time": 240
            },
            {
                "type": "note_on",
                "note": 63,
                "channel": 0,
                "velocity": 114,
                "time": 0
            },
            {
                "type": "note_on",
                "note": 68,
                "channel": 0,
                "velocity": 114,
                "time": 0
            },
            {
                "type": "note_on",
                "note": 71,
                "channel": 0,
                "velocity": 114,
                "time": 0
            },
            {
                "type": "note_off",
                "note": 63,
                "channel": 0,
                "velocity": 114,
                "time": 240
            },
            {
                "type": "note_off",
                "note": 68,
                "channel": 0,
                "velocity": 114,
                "time": 0
            },
            {
                "type": "note_off",
                "note": 71,
                "channel": 0,
                "velocity": 114,
                "time": 0
            },
            {
                "type": "note_on",
                "note": 66,
                "channel": 0,
                "velocity": 114,
                "time": 0
            },
            {
                "type": "note_off",
                "note": 66,
                "channel": 0,
                "velocity": 114,
                "time": 30
            },
            {
                "type": "note_on",
                "note": 68,
                "channel": 0,
                "velocity": 114,
                "time": 0
            },
            {
                "type": "note_off",
                "note": 68,
                "channel": 0,
                "velocity": 114,
                "time": 210
            },
            {
                "type": "note_on",
                "note": 66,
                "channel": 0,
                "velocity": 93,
                "time": 0
            },
            {
                "type": "note_off",
                "note": 66,
                "channel": 0,
                "velocity": 93,
                "time": 30
            },
            {
                "type": "note_on",
                "note": 68,
                "channel": 0,
                "velocity": 93,
                "time": 0
            },
            {
                "type": "note_off",
                "note": 68,
                "channel": 0,
                "velocity": 93,
                "time": 210
            },
            {
                "type": "note_on",
                "note": 66,
                "channel": 0,
                "velocity": 93,
                "time": 0
            },
            {
                "type": "note_off",
                "note": 66,
                "channel": 0,
                "velocity": 93,
                "time": 120
            },
            {
                "type": "note_on",
                "note": 63,
                "channel": 0,
                "velocity": 93,
                "time": 0
            },
            {
                "type": "note_off",
                "note": 63,
                "channel": 0,
                "velocity": 93,
                "time": 120
            },
            {
                "type": "note_on",
                "note": 66,
                "channel": 0,
                "velocity": 104,
                "time": 0
            },
            {
                "type": "note_on",
                "note": 68,
                "channel": 0,
                "velocity": 104,
                "time": 0
            },
            {
                "type": "note_on",
                "note": 71,
                "channel": 0,
                "velocity": 104,
                "time": 0
            },
            {
                "type": "note_off",
                "note": 66,
                "channel": 0,
                "velocity": 104,
                "time": 120
            },
            {
                "type": "note_off",
                "note": 68,
                "channel": 0,
                "velocity": 104,
                "time": 0
            },
            {
                "type": "note_off",
                "note": 71,
                "channel": 0,
                "velocity": 104,
                "time": 0
            },
            {
                "type": "note_on",
                "note": 66,
                "channel": 0,
                "velocity": 104,
                "time": 0
            },
            {
                "type": "note_off",
                "note": 66,
                "channel": 0,
                "velocity": 104,
                "time": 60
            },
            {
                "type": "note_off",
                "note": 96,
                "channel": 0,
                "velocity": 104,
                "time": 60
            },
            {
                "type": "note_on",
                "note": 68,
                "channel": 0,
                "velocity": 104,
                "time": 120
            },
            {
                "type": "note_off",
                "note": 68,
                "channel": 0,
                "velocity": 104,
                "time": 240
            },
            {
                "type": "note_on",
                "note": 66,
                "channel": 0,
                "velocity": 93,
                "time": 0
            },
            {
                "type": "note_off",
                "note": 66,
                "channel": 0,
                "velocity": 93,
                "time": 120
            },
            {
                "type": "note_on",
                "note": 66,
                "channel": 0,
                "velocity": 93,
                "time": 0
            },
            {
                "type": "note_off",
                "note": 66,
                "channel": 0,
                "velocity": 93,
                "time": 120
            },
            {
                "type": "note_on",
                "note": 63,
                "channel": 0,
                "velocity": 93,
                "time": 0
            },
            {
                "type": "note_off",
                "note": 63,
                "channel": 0,
                "velocity": 93,
                "time": 120
            },
            {
                "type": "note_on",
                "note": 66,
                "channel": 0,
                "velocity": 114,
                "time": 0
            },
            {
                "type": "note_on",
                "note": 70,
                "channel": 0,
                "velocity": 114,
                "time": 0
            },
            {
                "type": "note_on",
                "note": 73,
                "channel": 0,
                "velocity": 114,
                "time": 0
            },
            {
                "type": "note_off",
                "note": 66,
                "channel": 0,
                "velocity": 114,
                "time": 240
            },
            {
                "type": "note_off",
                "note": 70,
                "channel": 0,
                "velocity": 114,
                "time": 0
            },
            {
                "type": "note_off",
                "note": 73,
                "channel": 0,
                "velocity": 114,
                "time": 0
            },
            {
                "type": "note_on",
                "note": 66,
                "channel": 0,
                "velocity": 114,
                "time": 0
            },
            {
                "type": "note_off",
                "note": 66,
                "channel": 0,
                "velocity": 114,
                "time": 240
            },
            {
                "type": "note_on",
                "note": 66,
                "channel": 0,
                "velocity": 93,
                "time": 0
            },
            {
                "type": "note_off",
                "note": 66,
                "channel": 0,
                "velocity": 93,
                "time": 240
            },
            {
                "type": "note_on",
                "note": 66,
                "channel": 0,
                "velocity": 93,
                "time": 0
            },
            {
                "type": "note_off",
                "note": 66,
                "channel": 0,
                "velocity": 93,
                "time": 120
            },
            {
                "type": "note_on",
                "note": 63,
                "channel": 0,
                "velocity": 93,
                "time": 0
            },
            {
                "type": "note_off",
                "note": 63,
                "channel": 0,
                "velocity": 93,
                "time": 120
            },
            {
                "type": "note_on",
                "note": 66,
                "channel": 0,
                "velocity": 104,
                "time": 0
            },
            {
                "type": "note_on",
                "note": 71,
                "channel": 0,
                "velocity": 104,
                "time": 0
            },
            {
                "type": "note_on",
                "note": 75,
                "channel": 0,
                "velocity": 104,
                "time": 0
            },
            {
                "type": "note_off",
                "note": 66,
                "channel": 0,
                "velocity": 104,
                "time": 120
            },
            {
                "type": "note_off",
                "note": 71,
                "channel": 0,
                "velocity": 104,
                "time": 0
            },
            {
                "type": "note_off",
                "note": 75,
                "channel": 0,
                "velocity": 104,
                "time": 0
            },
            {
                "type": "note_on",
                "note": 66,
                "channel": 0,
                "velocity": 104,
                "time": 0
            },
            {
                "type": "note_off",
                "note": 66,
                "channel": 0,
                "velocity": 104,
                "time": 30
            },
            {
                "type": "note_on",
                "note": 68,
                "channel": 0,
                "velocity": 104,
                "time": 0
            },
            {
                "type": "note_off",
                "note": 68,
                "channel": 0,
                "velocity": 104,
                "time": 210
            },
            {
                "type": "note_on",
                "note": 66,
                "channel": 0,
                "velocity": 104,
                "time": 0
            },
            {
                "type": "note_off",
                "note": 66,
                "channel": 0,
                "velocity": 104,
                "time": 360
            },
            {
                "type": "note_on",
                "note": 66,
                "channel": 0,
                "velocity": 93,
                "time": 0
            },
            {
                "type": "note_off",
                "note": 66,
                "channel": 0,
                "velocity": 93,
                "time": 120
            },
            {
                "type": "note_on",
                "note": 63,
                "channel": 0,
                "velocity": 93,
                "time": 0
            },
            {
                "type": "note_off",
                "note": 63,
                "channel": 0,
                "velocity": 93,
                "time": 120
            },
            {
                "type": "note_on",
                "note": 66,
                "channel": 0,
                "velocity": 114,
                "time": 0
            },
            {
                "type": "note_off",
                "note": 66,
                "channel": 0,
                "velocity": 114,
                "time": 30
            },
            {
                "type": "note_on",
                "note": 59,
                "channel": 0,
                "velocity": 114,
                "time": 0
            },
            {
                "type": "note_on",
                "note": 68,
                "channel": 0,
                "velocity": 114,
                "time": 0
            },
            {
                "type": "note_on",
                "note": 71,
                "channel": 0,
                "velocity": 114,
                "time": 0
            },
            {
                "type": "note_off",
                "note": 59,
                "channel": 0,
                "velocity": 114,
                "time": 210
            },
            {
                "type": "note_off",
                "note": 68,
                "channel": 0,
                "velocity": 114,
                "time": 0
            },
            {
                "type": "note_off",
                "note": 71,
                "channel": 0,
                "velocity": 114,
                "time": 0
            },
            {
                "type": "note_on",
                "note": 68,
                "channel": 0,
                "velocity": 114,
                "time": 0
            },
            {
                "type": "note_off",
                "note": 68,
                "channel": 0,
                "velocity": 114,
                "time": 240
            },
            {
                "type": "note_on",
                "note": 68,
                "channel": 0,
                "velocity": 93,
                "time": 0
            },
            {
                "type": "note_off",
                "note": 68,
                "channel": 0,
                "velocity": 93,
                "time": 240
            },
            {
                "type": "note_on",
                "note": 66,
                "channel": 0,
                "velocity": 93,
                "time": 0
            },
            {
                "type": "note_off",
                "note": 66,
                "channel": 0,
                "velocity": 93,
                "time": 120
            },
            {
                "type": "note_on",
                "note": 63,
                "channel": 0,
                "velocity": 93,
                "time": 0
            },
            {
                "type": "note_off",
                "note": 63,
                "channel": 0,
                "velocity": 93,
                "time": 120
            },
            {
                "type": "note_on",
                "note": 66,
                "channel": 0,
                "velocity": 104,
                "time": 0
            },
            {
                "type": "note_on",
                "note": 71,
                "channel": 0,
                "velocity": 104,
                "time": 0
            },
            {
                "type": "note_off",
                "note": 66,
                "channel": 0,
                "velocity": 104,
                "time": 120
            },
            {
                "type": "note_off",
                "note": 71,
                "channel": 0,
                "velocity": 104,
                "time": 0
            },
            {
                "type": "note_on",
                "note": 66,
                "channel": 0,
                "velocity": 104,
                "time": 0
            },
            {
                "type": "note_off",
                "note": 66,
                "channel": 0,
                "velocity": 104,
                "time": 120
            },
            {
                "type": "note_on",
                "note": 66,
                "channel": 0,
                "velocity": 104,
                "time": 0
            },
            {
                "type": "note_off",
                "note": 66,
                "channel": 0,
                "velocity": 104,
                "time": 120
            },
            {
                "type": "note_on",
                "note": 68,
                "channel": 0,
                "velocity": 104,
                "time": 0
            },
            {
                "type": "note_off",
                "note": 68,
                "channel": 0,
                "velocity": 104,
                "time": 360
            },
            {
                "type": "note_on",
                "note": 66,
                "channel": 0,
                "velocity": 93,
                "time": 0
            },
            {
                "type": "note_off",
                "note": 66,
                "channel": 0,
                "velocity": 93,
                "time": 120
            },
            {
                "type": "note_on",
                "note": 63,
                "channel": 0,
                "velocity": 93,
                "time": 0
            },
            {
                "type": "note_off",
                "note": 63,
                "channel": 0,
                "velocity": 93,
                "time": 120
            },
            {
                "type": "note_on",
                "note": 66,
                "channel": 0,
                "velocity": 114,
                "time": 0
            },
            {
                "type": "note_on",
                "note": 71,
                "channel": 0,
                "velocity": 114,
                "time": 0
            },
            {
                "type": "note_on",
                "note": 73,
                "channel": 0,
                "velocity": 114,
                "time": 0
            },
            {
                "type": "note_off",
                "note": 66,
                "channel": 0,
                "velocity": 114,
                "time": 240
            },
            {
                "type": "note_off",
                "note": 71,
                "channel": 0,
                "velocity": 114,
                "time": 0
            },
            {
                "type": "note_off",
                "note": 73,
                "channel": 0,
                "velocity": 114,
                "time": 0
            },
            {
                "type": "note_on",
                "note": 66,
                "channel": 0,
                "velocity": 114,
                "time": 0
            },
            {
                "type": "note_off",
                "note": 66,
                "channel": 0,
                "velocity": 114,
                "time": 240
            },
            {
                "type": "note_on",
                "note": 66,
                "channel": 0,
                "velocity": 93,
                "time": 0
            },
            {
                "type": "note_off",
                "note": 66,
                "channel": 0,
                "velocity": 93,
                "time": 120
            },
            {
                "type": "note_on",
                "note": 66,
                "channel": 0,
                "velocity": 93,
                "time": 0
            },
            {
                "type": "note_off",
                "note": 66,
                "channel": 0,
                "velocity": 93,
                "time": 30
            },
            {
                "type": "note_on",
                "note": 68,
                "channel": 0,
                "velocity": 93,
                "time": 0
            },
            {
                "type": "note_off",
                "note": 68,
                "channel": 0,
                "velocity": 93,
                "time": 210
            },
            {
                "type": "note_on",
                "note": 66,
                "channel": 0,
                "velocity": 93,
                "time": 0
            },
            {
                "type": "note_off",
                "note": 66,
                "channel": 0,
                "velocity": 93,
                "time": 120
            },
            {
                "type": "note_on",
                "note": 66,
                "channel": 0,
                "velocity": 104,
                "time": 0
            },
            {
                "type": "note_on",
                "note": 71,
                "channel": 0,
                "velocity": 104,
                "time": 0
            },
            {
                "type": "note_on",
                "note": 75,
                "channel": 0,
                "velocity": 104,
                "time": 0
            },
            {
                "type": "note_off",
                "note": 66,
                "channel": 0,
                "velocity": 104,
                "time": 480
            },
            {
                "type": "note_off",
                "note": 71,
                "channel": 0,
                "velocity": 104,
                "time": 0
            },
            {
                "type": "note_off",
                "note": 75,
                "channel": 0,
                "velocity": 104,
                "time": 0
            },
            {
                "type": "note_on",
                "note": 75,
                "channel": 0,
                "velocity": 93,
                "time": 0
            },
            {
                "type": "note_off",
                "note": 75,
                "channel": 0,
                "velocity": 93,
                "time": 30
            },
            {
                "type": "note_on",
                "note": 71,
                "channel": 0,
                "velocity": 93,
                "time": 0
            },
            {
                "type": "note_on",
                "note": 78,
                "channel": 0,
                "velocity": 93,
                "time": 0
            },
            {
                "type": "note_off",
                "note": 71,
                "channel": 0,
                "velocity": 93,
                "time": 210
            },
            {
                "type": "note_off",
                "note": 78,
                "channel": 0,
                "velocity": 93,
                "time": 0
            },
            {
                "type": "note_on",
                "note": 70,
                "channel": 0,
                "velocity": 93,
                "time": 0
            },
            {
                "type": "note_off",
                "note": 70,
                "channel": 0,
                "velocity": 93,
                "time": 240
            },
            {
                "type": "note_on",
                "note": 68,
                "channel": 0,
                "velocity": 114,
                "time": 0
            },
            {
                "type": "note_on",
                "note": 71,
                "channel": 0,
                "velocity": 114,
                "time": 0
            },
            {
                "type": "note_on",
                "note": 75,
                "channel": 0,
                "velocity": 114,
                "time": 0
            },
            {
                "type": "note_off",
                "note": 68,
                "channel": 0,
                "velocity": 114,
                "time": 240
            },
            {
                "type": "note_off",
                "note": 71,
                "channel": 0,
                "velocity": 114,
                "time": 0
            },
            {
                "type": "note_off",
                "note": 75,
                "channel": 0,
                "velocity": 114,
                "time": 0
            },
            {
                "type": "note_on",
                "note": 66,
                "channel": 0,
                "velocity": 114,
                "time": 0
            },
            {
                "type": "note_off",
                "note": 66,
                "channel": 0,
                "velocity": 114,
                "time": 30
            },
            {
                "type": "note_on",
                "note": 68,
                "channel": 0,
                "velocity": 114,
                "time": 0
            },
            {
                "type": "note_off",
                "note": 68,
                "channel": 0,
                "velocity": 114,
                "time": 210
            },
            {
                "type": "note_on",
                "note": 66,
                "channel": 0,
                "velocity": 93,
                "time": 0
            },
            {
                "type": "note_off",
                "note": 66,
                "channel": 0,
                "velocity": 93,
                "time": 30
            },
            {
                "type": "note_on",
                "note": 68,
                "channel": 0,
                "velocity": 93,
                "time": 0
            },
            {
                "type": "note_off",
                "note": 68,
                "channel": 0,
                "velocity": 93,
                "time": 210
            },
            {
                "type": "note_on",
                "note": 66,
                "channel": 0,
                "velocity": 93,
                "time": 0
            },
            {
                "type": "note_on",
                "note": 68,
                "channel": 0,
                "velocity": 93,
                "time": 0
            },
            {
                "type": "note_on",
                "note": 75,
                "channel": 0,
                "velocity": 93,
                "time": 0
            },
            {
                "type": "note_off",
                "note": 66,
                "channel": 0,
                "velocity": 93,
                "time": 120
            },
            {
                "type": "note_off",
                "note": 68,
                "channel": 0,
                "velocity": 93,
                "time": 0
            },
            {
                "type": "note_off",
                "note": 75,
                "channel": 0,
                "velocity": 93,
                "time": 0
            },
            {
                "type": "note_on",
                "note": 63,
                "channel": 0,
                "velocity": 93,
                "time": 0
            },
            {
                "type": "note_off",
                "note": 63,
                "channel": 0,
                "velocity": 93,
                "time": 120
            },
            {
                "type": "note_on",
                "note": 64,
                "channel": 0,
                "velocity": 104,
                "time": 0
            },
            {
                "type": "note_on",
                "note": 66,
                "channel": 0,
                "velocity": 104,
                "time": 0
            },
            {
                "type": "note_on",
                "note": 71,
                "channel": 0,
                "velocity": 104,
                "time": 0
            },
            {
                "type": "note_off",
                "note": 64,
                "channel": 0,
                "velocity": 104,
                "time": 120
            },
            {
                "type": "note_off",
                "note": 66,
                "channel": 0,
                "velocity": 104,
                "time": 0
            },
            {
                "type": "note_off",
                "note": 71,
                "channel": 0,
                "velocity": 104,
                "time": 0
            },
            {
                "type": "note_on",
                "note": 66,
                "channel": 0,
                "velocity": 104,
                "time": 0
            },
            {
                "type": "note_off",
                "note": 66,
                "channel": 0,
                "velocity": 104,
                "time": 120
            },
            {
                "type": "note_on",
                "note": 66,
                "channel": 0,
                "velocity": 104,
                "time": 0
            },
            {
                "type": "note_off",
                "note": 66,
                "channel": 0,
                "velocity": 104,
                "time": 120
            },
            {
                "type": "note_on",
                "note": 68,
                "channel": 0,
                "velocity": 104,
                "time": 0
            },
            {
                "type": "note_off",
                "note": 68,
                "channel": 0,
                "velocity": 104,
                "time": 240
            },
            {
                "type": "note_on",
                "note": 66,
                "channel": 0,
                "velocity": 93,
                "time": 0
            },
            {
                "type": "note_off",
                "note": 66,
                "channel": 0,
                "velocity": 93,
                "time": 120
            },
            {
                "type": "note_on",
                "note": 66,
                "channel": 0,
                "velocity": 93,
                "time": 0
            },
            {
                "type": "note_off",
                "note": 66,
                "channel": 0,
                "velocity": 93,
                "time": 120
            },
            {
                "type": "note_on",
                "note": 63,
                "channel": 0,
                "velocity": 93,
                "time": 0
            },
            {
                "type": "note_off",
                "note": 63,
                "channel": 0,
                "velocity": 93,
                "time": 120
            },
            {
                "type": "note_on",
                "note": 66,
                "channel": 0,
                "velocity": 114,
                "time": 0
            },
            {
                "type": "note_on",
                "note": 70,
                "channel": 0,
                "velocity": 114,
                "time": 0
            },
            {
                "type": "note_on",
                "note": 73,
                "channel": 0,
                "velocity": 114,
                "time": 0
            },
            {
                "type": "note_off",
                "note": 66,
                "channel": 0,
                "velocity": 114,
                "time": 240
            },
            {
                "type": "note_off",
                "note": 70,
                "channel": 0,
                "velocity": 114,
                "time": 0
            },
            {
                "type": "note_off",
                "note": 73,
                "channel": 0,
                "velocity": 114,
                "time": 0
            },
            {
                "type": "note_on",
                "note": 66,
                "channel": 0,
                "velocity": 114,
                "time": 0
            },
            {
                "type": "note_off",
                "note": 66,
                "channel": 0,
                "velocity": 114,
                "time": 120
            },
            {
                "type": "note_on",
                "note": 70,
                "channel": 0,
                "velocity": 114,
                "time": 0
            },
            {
                "type": "note_off",
                "note": 70,
                "channel": 0,
                "velocity": 114,
                "time": 120
            },
            {
                "type": "note_on",
                "note": 66,
                "channel": 0,
                "velocity": 93,
                "time": 0
            },
            {
                "type": "note_off",
                "note": 66,
                "channel": 0,
                "velocity": 93,
                "time": 240
            },
            {
                "type": "note_on",
                "note": 66,
                "channel": 0,
                "velocity": 93,
                "time": 0
            },
            {
                "type": "note_on",
                "note": 70,
                "channel": 0,
                "velocity": 93,
                "time": 0
            },
            {
                "type": "note_off",
                "note": 66,
                "channel": 0,
                "velocity": 93,
                "time": 120
            },
            {
                "type": "note_off",
                "note": 70,
                "channel": 0,
                "velocity": 93,
                "time": 0
            },
            {
                "type": "note_on",
                "note": 63,
                "channel": 0,
                "velocity": 93,
                "time": 0
            },
            {
                "type": "note_off",
                "note": 63,
                "channel": 0,
                "velocity": 93,
                "time": 120
            },
            {
                "type": "note_on",
                "note": 66,
                "channel": 0,
                "velocity": 104,
                "time": 0
            },
            {
                "type": "note_on",
                "note": 71,
                "channel": 0,
                "velocity": 104,
                "time": 0
            },
            {
                "type": "note_on",
                "note": 75,
                "channel": 0,
                "velocity": 104,
                "time": 0
            },
            {
                "type": "note_off",
                "note": 66,
                "channel": 0,
                "velocity": 104,
                "time": 120
            },
            {
                "type": "note_off",
                "note": 71,
                "channel": 0,
                "velocity": 104,
                "time": 0
            },
            {
                "type": "note_off",
                "note": 75,
                "channel": 0,
                "velocity": 104,
                "time": 0
            },
            {
                "type": "note_on",
                "note": 66,
                "channel": 0,
                "velocity": 104,
                "time": 0
            },
            {
                "type": "note_off",
                "note": 66,
                "channel": 0,
                "velocity": 104,
                "time": 30
            },
            {
                "type": "note_on",
                "note": 68,
                "channel": 0,
                "velocity": 104,
                "time": 0
            },
            {
                "type": "note_off",
                "note": 68,
                "channel": 0,
                "velocity": 104,
                "time": 210
            },
            {
                "type": "note_on",
                "note": 66,
                "channel": 0,
                "velocity": 104,
                "time": 0
            },
            {
                "type": "note_off",
                "note": 66,
                "channel": 0,
                "velocity": 104,
                "time": 120
            },
            {
                "type": "note_on",
                "note": 83,
                "channel": 0,
                "velocity": 93,
                "time": 0
            },
            {
                "type": "note_off",
                "note": 83,
                "channel": 0,
                "velocity": 93,
                "time": 240
            },
            {
                "type": "note_on",
                "note": 66,
                "channel": 0,
                "velocity": 93,
                "time": 0
            },
            {
                "type": "note_off",
                "note": 66,
                "channel": 0,
                "velocity": 93,
                "time": 120
            },
            {
                "type": "note_on",
                "note": 66,
                "channel": 0,
                "velocity": 93,
                "time": 0
            },
            {
                "type": "note_off",
                "note": 66,
                "channel": 0,
                "velocity": 93,
                "time": 120
            },
            {
                "type": "note_on",
                "note": 68,
                "channel": 0,
                "velocity": 114,
                "time": 0
            },
            {
                "type": "note_on",
                "note": 71,
                "channel": 0,
                "velocity": 114,
                "time": 0
            },
            {
                "type": "note_on",
                "note": 75,
                "channel": 0,
                "velocity": 114,
                "time": 0
            },
            {
                "type": "note_off",
                "note": 68,
                "channel": 0,
                "velocity": 114,
                "time": 240
            },
            {
                "type": "note_off",
                "note": 71,
                "channel": 0,
                "velocity": 114,
                "time": 0
            },
            {
                "type": "note_off",
                "note": 75,
                "channel": 0,
                "velocity": 114,
                "time": 0
            },
            {
                "type": "note_on",
                "note": 68,
                "channel": 0,
                "velocity": 114,
                "time": 0
            },
            {
                "type": "note_on",
                "note": 73,
                "channel": 0,
                "velocity": 114,
                "time": 0
            },
            {
                "type": "note_off",
                "note": 68,
                "channel": 0,
                "velocity": 114,
                "time": 60
            },
            {
                "type": "note_off",
                "note": 73,
                "channel": 0,
                "velocity": 114,
                "time": 0
            },
            {
                "type": "note_on",
                "note": 75,
                "channel": 0,
                "velocity": 114,
                "time": 0
            },
            {
                "type": "note_off",
                "note": 75,
                "channel": 0,
                "velocity": 114,
                "time": 180
            },
            {
                "type": "note_on",
                "note": 66,
                "channel": 0,
                "velocity": 93,
                "time": 0
            },
            {
                "type": "note_on",
                "note": 73,
                "channel": 0,
                "velocity": 93,
                "time": 0
            },
            {
                "type": "note_off",
                "note": 66,
                "channel": 0,
                "velocity": 93,
                "time": 240
            },
            {
                "type": "note_off",
                "note": 73,
                "channel": 0,
                "velocity": 93,
                "time": 0
            },
            {
                "type": "note_on",
                "note": 68,
                "channel": 0,
                "velocity": 93,
                "time": 0
            },
            {
                "type": "note_off",
                "note": 68,
                "channel": 0,
                "velocity": 93,
                "time": 240
            },
            {
                "type": "note_on",
                "note": 66,
                "channel": 0,
                "velocity": 104,
                "time": 0
            },
            {
                "type": "note_on",
                "note": 68,
                "channel": 0,
                "velocity": 104,
                "time": 0
            },
            {
                "type": "note_on",
                "note": 71,
                "channel": 0,
                "velocity": 104,
                "time": 0
            },
            {
                "type": "note_off",
                "note": 66,
                "channel": 0,
                "velocity": 104,
                "time": 240
            },
            {
                "type": "note_off",
                "note": 68,
                "channel": 0,
                "velocity": 104,
                "time": 0
            },
            {
                "type": "note_off",
                "note": 71,
                "channel": 0,
                "velocity": 104,
                "time": 0
            },
            {
                "type": "note_on",
                "note": 66,
                "channel": 0,
                "velocity": 104,
                "time": 0
            },
            {
                "type": "note_on",
                "note": 73,
                "channel": 0,
                "velocity": 104,
                "time": 0
            },
            {
                "type": "note_off",
                "note": 66,
                "channel": 0,
                "velocity": 104,
                "time": 60
            },
            {
                "type": "note_off",
                "note": 73,
                "channel": 0,
                "velocity": 104,
                "time": 0
            },
            {
                "type": "note_on",
                "note": 68,
                "channel": 0,
                "velocity": 104,
                "time": 0
            },
            {
                "type": "note_on",
                "note": 75,
                "channel": 0,
                "velocity": 104,
                "time": 0
            },
            {
                "type": "note_off",
                "note": 68,
                "channel": 0,
                "velocity": 104,
                "time": 180
            },
            {
                "type": "note_off",
                "note": 75,
                "channel": 0,
                "velocity": 104,
                "time": 0
            },
            {
                "type": "note_on",
                "note": 66,
                "channel": 0,
                "velocity": 93,
                "time": 0
            },
            {
                "type": "note_on",
                "note": 73,
                "channel": 0,
                "velocity": 93,
                "time": 0
            },
            {
                "type": "note_on",
                "note": 78,
                "channel": 0,
                "velocity": 93,
                "time": 0
            },
            {
                "type": "note_off",
                "note": 66,
                "channel": 0,
                "velocity": 93,
                "time": 120
            },
            {
                "type": "note_off",
                "note": 73,
                "channel": 0,
                "velocity": 93,
                "time": 0
            },
            {
                "type": "note_off",
                "note": 78,
                "channel": 0,
                "velocity": 93,
                "time": 0
            },
            {
                "type": "note_on",
                "note": 63,
                "channel": 0,
                "velocity": 93,
                "time": 0
            },
            {
                "type": "note_on",
                "note": 68,
                "channel": 0,
                "velocity": 93,
                "time": 0
            },
            {
                "type": "note_off",
                "note": 63,
                "channel": 0,
                "velocity": 93,
                "time": 120
            },
            {
                "type": "note_off",
                "note": 68,
                "channel": 0,
                "velocity": 93,
                "time": 0
            },
            {
                "type": "note_on",
                "note": 63,
                "channel": 0,
                "velocity": 93,
                "time": 0
            },
            {
                "type": "note_on",
                "note": 68,
                "channel": 0,
                "velocity": 93,
                "time": 0
            },
            {
                "type": "note_off",
                "note": 63,
                "channel": 0,
                "velocity": 93,
                "time": 240
            },
            {
                "type": "note_off",
                "note": 68,
                "channel": 0,
                "velocity": 93,
                "time": 0
            },
            {
                "type": "note_on",
                "note": 63,
                "channel": 0,
                "velocity": 114,
                "time": 0
            },
            {
                "type": "note_on",
                "note": 68,
                "channel": 0,
                "velocity": 114,
                "time": 0
            },
            {
                "type": "note_on",
                "note": 73,
                "channel": 0,
                "velocity": 114,
                "time": 0
            },
            {
                "type": "note_off",
                "note": 63,
                "channel": 0,
                "velocity": 114,
                "time": 240
            },
            {
                "type": "note_off",
                "note": 68,
                "channel": 0,
                "velocity": 114,
                "time": 0
            },
            {
                "type": "note_off",
                "note": 73,
                "channel": 0,
                "velocity": 114,
                "time": 0
            },
            {
                "type": "note_on",
                "note": 66,
                "channel": 0,
                "velocity": 114,
                "time": 0
            },
            {
                "type": "note_on",
                "note": 73,
                "channel": 0,
                "velocity": 114,
                "time": 0
            },
            {
                "type": "note_off",
                "note": 66,
                "channel": 0,
                "velocity": 114,
                "time": 60
            },
            {
                "type": "note_off",
                "note": 73,
                "channel": 0,
                "velocity": 114,
                "time": 0
            },
            {
                "type": "note_on",
                "note": 68,
                "channel": 0,
                "velocity": 114,
                "time": 0
            },
            {
                "type": "note_on",
                "note": 75,
                "channel": 0,
                "velocity": 114,
                "time": 0
            },
            {
                "type": "note_off",
                "note": 68,
                "channel": 0,
                "velocity": 114,
                "time": 180
            },
            {
                "type": "note_off",
                "note": 75,
                "channel": 0,
                "velocity": 114,
                "time": 0
            },
            {
                "type": "note_on",
                "note": 68,
                "channel": 0,
                "velocity": 93,
                "time": 0
            },
            {
                "type": "note_on",
                "note": 73,
                "channel": 0,
                "velocity": 93,
                "time": 0
            },
            {
                "type": "note_off",
                "note": 68,
                "channel": 0,
                "velocity": 93,
                "time": 240
            },
            {
                "type": "note_off",
                "note": 73,
                "channel": 0,
                "velocity": 93,
                "time": 0
            },
            {
                "type": "note_on",
                "note": 66,
                "channel": 0,
                "velocity": 93,
                "time": 0
            },
            {
                "type": "note_on",
                "note": 71,
                "channel": 0,
                "velocity": 93,
                "time": 0
            },
            {
                "type": "note_off",
                "note": 66,
                "channel": 0,
                "velocity": 93,
                "time": 120
            },
            {
                "type": "note_off",
                "note": 71,
                "channel": 0,
                "velocity": 93,
                "time": 0
            },
            {
                "type": "note_on",
                "note": 68,
                "channel": 0,
                "velocity": 93,
                "time": 0
            },
            {
                "type": "note_off",
                "note": 68,
                "channel": 0,
                "velocity": 93,
                "time": 120
            },
            {
                "type": "note_on",
                "note": 68,
                "channel": 0,
                "velocity": 104,
                "time": 0
            },
            {
                "type": "note_on",
                "note": 71,
                "channel": 0,
                "velocity": 104,
                "time": 0
            },
            {
                "type": "note_off",
                "note": 68,
                "channel": 0,
                "velocity": 104,
                "time": 120
            },
            {
                "type": "note_off",
                "note": 71,
                "channel": 0,
                "velocity": 104,
                "time": 0
            },
            {
                "type": "note_on",
                "note": 80,
                "channel": 0,
                "velocity": 104,
                "time": 0
            },
            {
                "type": "note_off",
                "note": 80,
                "channel": 0,
                "velocity": 104,
                "time": 60
            },
            {
                "type": "note_on",
                "note": 78,
                "channel": 0,
                "velocity": 104,
                "time": 0
            },
            {
                "type": "note_off",
                "note": 78,
                "channel": 0,
                "velocity": 104,
                "time": 60
            },
            {
                "type": "note_on",
                "note": 75,
                "channel": 0,
                "velocity": 104,
                "time": 0
            },
            {
                "type": "note_off",
                "note": 75,
                "channel": 0,
                "velocity": 104,
                "time": 120
            },
            {
                "type": "note_on",
                "note": 73,
                "channel": 0,
                "velocity": 104,
                "time": 0
            },
            {
                "type": "note_off",
                "note": 73,
                "channel": 0,
                "velocity": 104,
                "time": 120
            },
            {
                "type": "note_on",
                "note": 68,
                "channel": 0,
                "velocity": 93,
                "time": 0
            },
            {
                "type": "note_on",
                "note": 71,
                "channel": 0,
                "velocity": 93,
                "time": 0
            },
            {
                "type": "note_off",
                "note": 68,
                "channel": 0,
                "velocity": 93,
                "time": 120
            },
            {
                "type": "note_off",
                "note": 71,
                "channel": 0,
                "velocity": 93,
                "time": 0
            },
            {
                "type": "note_on",
                "note": 75,
                "channel": 0,
                "velocity": 93,
                "time": 0
            },
            {
                "type": "note_off",
                "note": 75,
                "channel": 0,
                "velocity": 93,
                "time": 60
            },
            {
                "type": "note_on",
                "note": 73,
                "channel": 0,
                "velocity": 93,
                "time": 0
            },
            {
                "type": "note_off",
                "note": 73,
                "channel": 0,
                "velocity": 93,
                "time": 60
            },
            {
                "type": "note_on",
                "note": 71,
                "channel": 0,
                "velocity": 93,
                "time": 0
            },
            {
                "type": "note_off",
                "note": 71,
                "channel": 0,
                "velocity": 93,
                "time": 120
            },
            {
                "type": "note_on",
                "note": 75,
                "channel": 0,
                "velocity": 93,
                "time": 0
            },
            {
                "type": "note_off",
                "note": 75,
                "channel": 0,
                "velocity": 93,
                "time": 120
            },
            {
                "type": "note_on",
                "note": 63,
                "channel": 0,
                "velocity": 114,
                "time": 0
            },
            {
                "type": "note_on",
                "note": 68,
                "channel": 0,
                "velocity": 114,
                "time": 0
            },
            {
                "type": "note_on",
                "note": 71,
                "channel": 0,
                "velocity": 114,
                "time": 0
            },
            {
                "type": "note_on",
                "note": 75,
                "channel": 0,
                "velocity": 114,
                "time": 0
            },
            {
                "type": "note_off",
                "note": 63,
                "channel": 0,
                "velocity": 114,
                "time": 360
            },
            {
                "type": "note_off",
                "note": 68,
                "channel": 0,
                "velocity": 114,
                "time": 0
            },
            {
                "type": "note_off",
                "note": 71,
                "channel": 0,
                "velocity": 114,
                "time": 0
            },
            {
                "type": "note_off",
                "note": 75,
                "channel": 0,
                "velocity": 114,
                "time": 0
            },
            {
                "type": "note_on",
                "note": 66,
                "channel": 0,
                "velocity": 114,
                "time": 0
            },
            {
                "type": "note_on",
                "note": 78,
                "channel": 0,
                "velocity": 114,
                "time": 0
            },
            {
                "type": "note_off",
                "note": 66,
                "channel": 0,
                "velocity": 114,
                "time": 120
            },
            {
                "type": "note_off",
                "note": 78,
                "channel": 0,
                "velocity": 114,
                "time": 0
            },
            {
                "type": "note_on",
                "note": 68,
                "channel": 0,
                "velocity": 93,
                "time": 0
            },
            {
                "type": "note_on",
                "note": 80,
                "channel": 0,
                "velocity": 93,
                "time": 0
            },
            {
                "type": "note_off",
                "note": 68,
                "channel": 0,
                "velocity": 93,
                "time": 240
            },
            {
                "type": "note_off",
                "note": 80,
                "channel": 0,
                "velocity": 93,
                "time": 0
            },
            {
                "type": "note_on",
                "note": 66,
                "channel": 0,
                "velocity": 93,
                "time": 0
            },
            {
                "type": "note_on",
                "note": 78,
                "channel": 0,
                "velocity": 93,
                "time": 0
            },
            {
                "type": "note_off",
                "note": 66,
                "channel": 0,
                "velocity": 93,
                "time": 240
            },
            {
                "type": "note_off",
                "note": 78,
                "channel": 0,
                "velocity": 93,
                "time": 0
            },
            {
                "type": "note_on",
                "note": 68,
                "channel": 0,
                "velocity": 104,
                "time": 0
            },
            {
                "type": "note_on",
                "note": 71,
                "channel": 0,
                "velocity": 104,
                "time": 0
            },
            {
                "type": "note_on",
                "note": 80,
                "channel": 0,
                "velocity": 104,
                "time": 0
            },
            {
                "type": "note_off",
                "note": 68,
                "channel": 0,
                "velocity": 104,
                "time": 240
            },
            {
                "type": "note_off",
                "note": 71,
                "channel": 0,
                "velocity": 104,
                "time": 0
            },
            {
                "type": "note_off",
                "note": 80,
                "channel": 0,
                "velocity": 104,
                "time": 0
            },
            {
                "type": "note_on",
                "note": 66,
                "channel": 0,
                "velocity": 104,
                "time": 0
            },
            {
                "type": "note_on",
                "note": 78,
                "channel": 0,
                "velocity": 104,
                "time": 0
            },
            {
                "type": "note_off",
                "note": 66,
                "channel": 0,
                "velocity": 104,
                "time": 240
            },
            {
                "type": "note_off",
                "note": 78,
                "channel": 0,
                "velocity": 104,
                "time": 0
            },
            {
                "type": "note_on",
                "note": 63,
                "channel": 0,
                "velocity": 93,
                "time": 0
            },
            {
                "type": "note_on",
                "note": 68,
                "channel": 0,
                "velocity": 93,
                "time": 0
            },
            {
                "type": "note_on",
                "note": 71,
                "channel": 0,
                "velocity": 93,
                "time": 0
            },
            {
                "type": "note_on",
                "note": 75,
                "channel": 0,
                "velocity": 93,
                "time": 0
            },
            {
                "type": "note_off",
                "note": 63,
                "channel": 0,
                "velocity": 93,
                "time": 240
            },
            {
                "type": "note_off",
                "note": 68,
                "channel": 0,
                "velocity": 93,
                "time": 0
            },
            {
                "type": "note_off",
                "note": 71,
                "channel": 0,
                "velocity": 93,
                "time": 0
            },
            {
                "type": "note_off",
                "note": 75,
                "channel": 0,
                "velocity": 93,
                "time": 0
            },
            {
                "type": "note_on",
                "note": 71,
                "channel": 0,
                "velocity": 93,
                "time": 0
            },
            {
                "type": "note_off",
                "note": 71,
                "channel": 0,
                "velocity": 93,
                "time": 120
            },
            {
                "type": "note_on",
                "note": 71,
                "channel": 0,
                "velocity": 93,
                "time": 0
            },
            {
                "type": "note_off",
                "note": 71,
                "channel": 0,
                "velocity": 93,
                "time": 120
            },
            {
                "type": "note_on",
                "note": 61,
                "channel": 0,
                "velocity": 114,
                "time": 0
            },
            {
                "type": "note_on",
                "note": 66,
                "channel": 0,
                "velocity": 114,
                "time": 0
            },
            {
                "type": "note_on",
                "note": 70,
                "channel": 0,
                "velocity": 114,
                "time": 0
            },
            {
                "type": "note_on",
                "note": 73,
                "channel": 0,
                "velocity": 114,
                "time": 0
            },
            {
                "type": "note_off",
                "note": 61,
                "channel": 0,
                "velocity": 114,
                "time": 360
            },
            {
                "type": "note_off",
                "note": 66,
                "channel": 0,
                "velocity": 114,
                "time": 0
            },
            {
                "type": "note_off",
                "note": 70,
                "channel": 0,
                "velocity": 114,
                "time": 0
            },
            {
                "type": "note_off",
                "note": 73,
                "channel": 0,
                "velocity": 114,
                "time": 0
            },
            {
                "type": "note_on",
                "note": 63,
                "channel": 0,
                "velocity": 114,
                "time": 0
            },
            {
                "type": "note_on",
                "note": 75,
                "channel": 0,
                "velocity": 114,
                "time": 0
            },
            {
                "type": "note_off",
                "note": 63,
                "channel": 0,
                "velocity": 114,
                "time": 120
            },
            {
                "type": "note_off",
                "note": 75,
                "channel": 0,
                "velocity": 114,
                "time": 0
            },
            {
                "type": "note_on",
                "note": 66,
                "channel": 0,
                "velocity": 93,
                "time": 0
            },
            {
                "type": "note_on",
                "note": 78,
                "channel": 0,
                "velocity": 93,
                "time": 0
            },
            {
                "type": "note_off",
                "note": 66,
                "channel": 0,
                "velocity": 93,
                "time": 240
            },
            {
                "type": "note_off",
                "note": 78,
                "channel": 0,
                "velocity": 93,
                "time": 0
            },
            {
                "type": "note_on",
                "note": 63,
                "channel": 0,
                "velocity": 93,
                "time": 0
            },
            {
                "type": "note_on",
                "note": 75,
                "channel": 0,
                "velocity": 93,
                "time": 0
            },
            {
                "type": "note_off",
                "note": 63,
                "channel": 0,
                "velocity": 93,
                "time": 240
            },
            {
                "type": "note_off",
                "note": 75,
                "channel": 0,
                "velocity": 93,
                "time": 0
            },
            {
                "type": "note_on",
                "note": 66,
                "channel": 0,
                "velocity": 104,
                "time": 0
            },
            {
                "type": "note_on",
                "note": 71,
                "channel": 0,
                "velocity": 104,
                "time": 0
            },
            {
                "type": "note_on",
                "note": 75,
                "channel": 0,
                "velocity": 104,
                "time": 0
            },
            {
                "type": "note_on",
                "note": 78,
                "channel": 0,
                "velocity": 104,
                "time": 0
            },
            {
                "type": "note_off",
                "note": 66,
                "channel": 0,
                "velocity": 104,
                "time": 240
            },
            {
                "type": "note_off",
                "note": 71,
                "channel": 0,
                "velocity": 104,
                "time": 0
            },
            {
                "type": "note_off",
                "note": 75,
                "channel": 0,
                "velocity": 104,
                "time": 0
            },
            {
                "type": "note_off",
                "note": 78,
                "channel": 0,
                "velocity": 104,
                "time": 0
            },
            {
                "type": "note_on",
                "note": 66,
                "channel": 0,
                "velocity": 104,
                "time": 0
            },
            {
                "type": "note_on",
                "note": 78,
                "channel": 0,
                "velocity": 104,
                "time": 0
            },
            {
                "type": "note_off",
                "note": 66,
                "channel": 0,
                "velocity": 104,
                "time": 60
            },
            {
                "type": "note_off",
                "note": 78,
                "channel": 0,
                "velocity": 104,
                "time": 0
            },
            {
                "type": "note_on",
                "note": 68,
                "channel": 0,
                "velocity": 104,
                "time": 0
            },
            {
                "type": "note_on",
                "note": 80,
                "channel": 0,
                "velocity": 104,
                "time": 0
            },
            {
                "type": "note_off",
                "note": 68,
                "channel": 0,
                "velocity": 104,
                "time": 180
            },
            {
                "type": "note_off",
                "note": 80,
                "channel": 0,
                "velocity": 104,
                "time": 0
            },
            {
                "type": "note_on",
                "note": 66,
                "channel": 0,
                "velocity": 93,
                "time": 0
            },
            {
                "type": "note_on",
                "note": 73,
                "channel": 0,
                "velocity": 93,
                "time": 0
            },
            {
                "type": "note_on",
                "note": 78,
                "channel": 0,
                "velocity": 93,
                "time": 0
            },
            {
                "type": "note_off",
                "note": 66,
                "channel": 0,
                "velocity": 93,
                "time": 240
            },
            {
                "type": "note_off",
                "note": 73,
                "channel": 0,
                "velocity": 93,
                "time": 0
            },
            {
                "type": "note_off",
                "note": 78,
                "channel": 0,
                "velocity": 93,
                "time": 0
            },
            {
                "type": "note_on",
                "note": 63,
                "channel": 0,
                "velocity": 93,
                "time": 0
            },
            {
                "type": "note_on",
                "note": 75,
                "channel": 0,
                "velocity": 93,
                "time": 0
            },
            {
                "type": "note_off",
                "note": 63,
                "channel": 0,
                "velocity": 93,
                "time": 120
            },
            {
                "type": "note_off",
                "note": 75,
                "channel": 0,
                "velocity": 93,
                "time": 0
            },
            {
                "type": "note_on",
                "note": 78,
                "channel": 0,
                "velocity": 93,
                "time": 0
            },
            {
                "type": "note_off",
                "note": 78,
                "channel": 0,
                "velocity": 93,
                "time": 120
            },
            {
                "type": "note_on",
                "note": 63,
                "channel": 0,
                "velocity": 114,
                "time": 0
            },
            {
                "type": "note_on",
                "note": 68,
                "channel": 0,
                "velocity": 114,
                "time": 0
            },
            {
                "type": "note_on",
                "note": 75,
                "channel": 0,
                "velocity": 114,
                "time": 0
            },
            {
                "type": "note_off",
                "note": 63,
                "channel": 0,
                "velocity": 114,
                "time": 360
            },
            {
                "type": "note_off",
                "note": 68,
                "channel": 0,
                "velocity": 114,
                "time": 0
            },
            {
                "type": "note_off",
                "note": 75,
                "channel": 0,
                "velocity": 114,
                "time": 0
            },
            {
                "type": "note_on",
                "note": 66,
                "channel": 0,
                "velocity": 114,
                "time": 0
            },
            {
                "type": "note_on",
                "note": 75,
                "channel": 0,
                "velocity": 114,
                "time": 0
            },
            {
                "type": "note_on",
                "note": 78,
                "channel": 0,
                "velocity": 114,
                "time": 0
            },
            {
                "type": "note_off",
                "note": 66,
                "channel": 0,
                "velocity": 114,
                "time": 120
            },
            {
                "type": "note_off",
                "note": 75,
                "channel": 0,
                "velocity": 114,
                "time": 0
            },
            {
                "type": "note_off",
                "note": 78,
                "channel": 0,
                "velocity": 114,
                "time": 0
            },
            {
                "type": "note_on",
                "note": 63,
                "channel": 0,
                "velocity": 93,
                "time": 0
            },
            {
                "type": "note_on",
                "note": 80,
                "channel": 0,
                "velocity": 93,
                "time": 0
            },
            {
                "type": "note_off",
                "note": 63,
                "channel": 0,
                "velocity": 93,
                "time": 240
            },
            {
                "type": "note_off",
                "note": 80,
                "channel": 0,
                "velocity": 93,
                "time": 0
            },
            {
                "type": "note_on",
                "note": 66,
                "channel": 0,
                "velocity": 93,
                "time": 0
            },
            {
                "type": "note_on",
                "note": 75,
                "channel": 0,
                "velocity": 93,
                "time": 0
            },
            {
                "type": "note_on",
                "note": 78,
                "channel": 0,
                "velocity": 93,
                "time": 0
            },
            {
                "type": "note_off",
                "note": 66,
                "channel": 0,
                "velocity": 93,
                "time": 240
            },
            {
                "type": "note_off",
                "note": 75,
                "channel": 0,
                "velocity": 93,
                "time": 0
            },
            {
                "type": "note_off",
                "note": 78,
                "channel": 0,
                "velocity": 93,
                "time": 0
            },
            {
                "type": "note_on",
                "note": 68,
                "channel": 0,
                "velocity": 104,
                "time": 0
            },
            {
                "type": "note_on",
                "note": 80,
                "channel": 0,
                "velocity": 104,
                "time": 0
            },
            {
                "type": "note_off",
                "note": 68,
                "channel": 0,
                "velocity": 104,
                "time": 240
            },
            {
                "type": "note_off",
                "note": 80,
                "channel": 0,
                "velocity": 104,
                "time": 0
            },
            {
                "type": "note_on",
                "note": 66,
                "channel": 0,
                "velocity": 104,
                "time": 0
            },
            {
                "type": "note_on",
                "note": 78,
                "channel": 0,
                "velocity": 104,
                "time": 0
            },
            {
                "type": "note_off",
                "note": 66,
                "channel": 0,
                "velocity": 104,
                "time": 240
            },
            {
                "type": "note_off",
                "note": 78,
                "channel": 0,
                "velocity": 104,
                "time": 0
            },
            {
                "type": "note_on",
                "note": 63,
                "channel": 0,
                "velocity": 93,
                "time": 0
            },
            {
                "type": "note_on",
                "note": 70,
                "channel": 0,
                "velocity": 93,
                "time": 0
            },
            {
                "type": "note_on",
                "note": 75,
                "channel": 0,
                "velocity": 93,
                "time": 0
            },
            {
                "type": "note_off",
                "note": 63,
                "channel": 0,
                "velocity": 93,
                "time": 240
            },
            {
                "type": "note_off",
                "note": 70,
                "channel": 0,
                "velocity": 93,
                "time": 0
            },
            {
                "type": "note_off",
                "note": 75,
                "channel": 0,
                "velocity": 93,
                "time": 0
            },
            {
                "type": "note_on",
                "note": 68,
                "channel": 0,
                "velocity": 93,
                "time": 0
            },
            {
                "type": "note_on",
                "note": 75,
                "channel": 0,
                "velocity": 93,
                "time": 0
            },
            {
                "type": "note_off",
                "note": 68,
                "channel": 0,
                "velocity": 93,
                "time": 120
            },
            {
                "type": "note_off",
                "note": 75,
                "channel": 0,
                "velocity": 93,
                "time": 0
            },
            {
                "type": "note_on",
                "note": 75,
                "channel": 0,
                "velocity": 93,
                "time": 0
            },
            {
                "type": "note_off",
                "note": 75,
                "channel": 0,
                "velocity": 93,
                "time": 120
            },
            {
                "type": "note_on",
                "note": 61,
                "channel": 0,
                "velocity": 114,
                "time": 0
            },
            {
                "type": "note_on",
                "note": 66,
                "channel": 0,
                "velocity": 114,
                "time": 0
            },
            {
                "type": "note_on",
                "note": 73,
                "channel": 0,
                "velocity": 114,
                "time": 0
            },
            {
                "type": "note_off",
                "note": 61,
                "channel": 0,
                "velocity": 114,
                "time": 240
            },
            {
                "type": "note_off",
                "note": 66,
                "channel": 0,
                "velocity": 114,
                "time": 0
            },
            {
                "type": "note_off",
                "note": 73,
                "channel": 0,
                "velocity": 114,
                "time": 0
            },
            {
                "type": "note_on",
                "note": 63,
                "channel": 0,
                "velocity": 114,
                "time": 0
            },
            {
                "type": "note_on",
                "note": 75,
                "channel": 0,
                "velocity": 114,
                "time": 0
            },
            {
                "type": "note_off",
                "note": 63,
                "channel": 0,
                "velocity": 114,
                "time": 240
            },
            {
                "type": "note_off",
                "note": 75,
                "channel": 0,
                "velocity": 114,
                "time": 0
            },
            {
                "type": "note_on",
                "note": 66,
                "channel": 0,
                "velocity": 93,
                "time": 0
            },
            {
                "type": "note_on",
                "note": 78,
                "channel": 0,
                "velocity": 93,
                "time": 0
            },
            {
                "type": "note_off",
                "note": 66,
                "channel": 0,
                "velocity": 93,
                "time": 240
            },
            {
                "type": "note_off",
                "note": 78,
                "channel": 0,
                "velocity": 93,
                "time": 0
            },
            {
                "type": "note_on",
                "note": 66,
                "channel": 0,
                "velocity": 93,
                "time": 0
            },
            {
                "type": "note_on",
                "note": 78,
                "channel": 0,
                "velocity": 93,
                "time": 0
            },
            {
                "type": "note_off",
                "note": 66,
                "channel": 0,
                "velocity": 93,
                "time": 60
            },
            {
                "type": "note_off",
                "note": 78,
                "channel": 0,
                "velocity": 93,
                "time": 0
            },
            {
                "type": "note_on",
                "note": 68,
                "channel": 0,
                "velocity": 93,
                "time": 0
            },
            {
                "type": "note_on",
                "note": 80,
                "channel": 0,
                "velocity": 93,
                "time": 0
            },
            {
                "type": "note_off",
                "note": 68,
                "channel": 0,
                "velocity": 93,
                "time": 180
            },
            {
                "type": "note_off",
                "note": 80,
                "channel": 0,
                "velocity": 93,
                "time": 0
            },
            {
                "type": "note_on",
                "note": 66,
                "channel": 0,
                "velocity": 104,
                "time": 0
            },
            {
                "type": "note_on",
                "note": 78,
                "channel": 0,
                "velocity": 104,
                "time": 0
            },
            {
                "type": "note_off",
                "note": 66,
                "channel": 0,
                "velocity": 104,
                "time": 120
            },
            {
                "type": "note_off",
                "note": 78,
                "channel": 0,
                "velocity": 104,
                "time": 0
            },
            {
                "type": "note_on",
                "note": 63,
                "channel": 0,
                "velocity": 104,
                "time": 0
            },
            {
                "type": "note_on",
                "note": 75,
                "channel": 0,
                "velocity": 104,
                "time": 0
            },
            {
                "type": "note_off",
                "note": 63,
                "channel": 0,
                "velocity": 104,
                "time": 360
            },
            {
                "type": "note_off",
                "note": 75,
                "channel": 0,
                "velocity": 104,
                "time": 0
            },
            {
                "type": "note_on",
                "note": 71,
                "channel": 0,
                "velocity": 93,
                "time": 0
            },
            {
                "type": "note_off",
                "note": 71,
                "channel": 0,
                "velocity": 93,
                "time": 120
            },
            {
                "type": "note_on",
                "note": 73,
                "channel": 0,
                "velocity": 93,
                "time": 0
            },
            {
                "type": "note_off",
                "note": 73,
                "channel": 0,
                "velocity": 93,
                "time": 120
            },
            {
                "type": "note_on",
                "note": 66,
                "channel": 0,
                "velocity": 93,
                "time": 0
            },
            {
                "type": "note_on",
                "note": 75,
                "channel": 0,
                "velocity": 93,
                "time": 0
            },
            {
                "type": "note_off",
                "note": 66,
                "channel": 0,
                "velocity": 93,
                "time": 120
            },
            {
                "type": "note_off",
                "note": 75,
                "channel": 0,
                "velocity": 93,
                "time": 0
            },
            {
                "type": "note_on",
                "note": 78,
                "channel": 0,
                "velocity": 93,
                "time": 0
            },
            {
                "type": "note_off",
                "note": 78,
                "channel": 0,
                "velocity": 93,
                "time": 120
            },
            {
                "type": "note_on",
                "note": 63,
                "channel": 0,
                "velocity": 114,
                "time": 0
            },
            {
                "type": "note_on",
                "note": 68,
                "channel": 0,
                "velocity": 114,
                "time": 0
            },
            {
                "type": "note_on",
                "note": 71,
                "channel": 0,
                "velocity": 114,
                "time": 0
            },
            {
                "type": "note_on",
                "note": 75,
                "channel": 0,
                "velocity": 114,
                "time": 0
            },
            {
                "type": "note_off",
                "note": 63,
                "channel": 0,
                "velocity": 114,
                "time": 360
            },
            {
                "type": "note_off",
                "note": 68,
                "channel": 0,
                "velocity": 114,
                "time": 0
            },
            {
                "type": "note_off",
                "note": 71,
                "channel": 0,
                "velocity": 114,
                "time": 0
            },
            {
                "type": "note_off",
                "note": 75,
                "channel": 0,
                "velocity": 114,
                "time": 0
            },
            {
                "type": "note_on",
                "note": 66,
                "channel": 0,
                "velocity": 114,
                "time": 0
            },
            {
                "type": "note_on",
                "note": 78,
                "channel": 0,
                "velocity": 114,
                "time": 0
            },
            {
                "type": "note_off",
                "note": 66,
                "channel": 0,
                "velocity": 114,
                "time": 120
            },
            {
                "type": "note_off",
                "note": 78,
                "channel": 0,
                "velocity": 114,
                "time": 0
            },
            {
                "type": "note_on",
                "note": 68,
                "channel": 0,
                "velocity": 93,
                "time": 0
            },
            {
                "type": "note_on",
                "note": 80,
                "channel": 0,
                "velocity": 93,
                "time": 0
            },
            {
                "type": "note_off",
                "note": 68,
                "channel": 0,
                "velocity": 93,
                "time": 240
            },
            {
                "type": "note_off",
                "note": 80,
                "channel": 0,
                "velocity": 93,
                "time": 0
            },
            {
                "type": "note_on",
                "note": 66,
                "channel": 0,
                "velocity": 93,
                "time": 0
            },
            {
                "type": "note_on",
                "note": 78,
                "channel": 0,
                "velocity": 93,
                "time": 0
            },
            {
                "type": "note_off",
                "note": 66,
                "channel": 0,
                "velocity": 93,
                "time": 240
            },
            {
                "type": "note_off",
                "note": 78,
                "channel": 0,
                "velocity": 93,
                "time": 0
            },
            {
                "type": "note_on",
                "note": 68,
                "channel": 0,
                "velocity": 104,
                "time": 0
            },
            {
                "type": "note_on",
                "note": 80,
                "channel": 0,
                "velocity": 104,
                "time": 0
            },
            {
                "type": "note_off",
                "note": 68,
                "channel": 0,
                "velocity": 104,
                "time": 240
            },
            {
                "type": "note_off",
                "note": 80,
                "channel": 0,
                "velocity": 104,
                "time": 0
            },
            {
                "type": "note_on",
                "note": 66,
                "channel": 0,
                "velocity": 104,
                "time": 0
            },
            {
                "type": "note_on",
                "note": 78,
                "channel": 0,
                "velocity": 104,
                "time": 0
            },
            {
                "type": "note_off",
                "note": 66,
                "channel": 0,
                "velocity": 104,
                "time": 240
            },
            {
                "type": "note_off",
                "note": 78,
                "channel": 0,
                "velocity": 104,
                "time": 0
            },
            {
                "type": "note_on",
                "note": 63,
                "channel": 0,
                "velocity": 93,
                "time": 0
            },
            {
                "type": "note_on",
                "note": 75,
                "channel": 0,
                "velocity": 93,
                "time": 0
            },
            {
                "type": "note_off",
                "note": 63,
                "channel": 0,
                "velocity": 93,
                "time": 240
            },
            {
                "type": "note_off",
                "note": 75,
                "channel": 0,
                "velocity": 93,
                "time": 0
            },
            {
                "type": "note_on",
                "note": 78,
                "channel": 0,
                "velocity": 93,
                "time": 0
            },
            {
                "type": "note_off",
                "note": 78,
                "channel": 0,
                "velocity": 93,
                "time": 120
            },
            {
                "type": "note_on",
                "note": 75,
                "channel": 0,
                "velocity": 93,
                "time": 0
            },
            {
                "type": "note_off",
                "note": 75,
                "channel": 0,
                "velocity": 93,
                "time": 120
            },
            {
                "type": "note_on",
                "note": 61,
                "channel": 0,
                "velocity": 114,
                "time": 0
            },
            {
                "type": "note_on",
                "note": 73,
                "channel": 0,
                "velocity": 114,
                "time": 0
            },
            {
                "type": "note_off",
                "note": 61,
                "channel": 0,
                "velocity": 114,
                "time": 360
            },
            {
                "type": "note_off",
                "note": 73,
                "channel": 0,
                "velocity": 114,
                "time": 0
            },
            {
                "type": "note_on",
                "note": 63,
                "channel": 0,
                "velocity": 114,
                "time": 0
            },
            {
                "type": "note_on",
                "note": 75,
                "channel": 0,
                "velocity": 114,
                "time": 0
            },
            {
                "type": "note_off",
                "note": 63,
                "channel": 0,
                "velocity": 114,
                "time": 120
            },
            {
                "type": "note_off",
                "note": 75,
                "channel": 0,
                "velocity": 114,
                "time": 0
            },
            {
                "type": "note_on",
                "note": 66,
                "channel": 0,
                "velocity": 93,
                "time": 0
            },
            {
                "type": "note_on",
                "note": 78,
                "channel": 0,
                "velocity": 93,
                "time": 0
            },
            {
                "type": "note_off",
                "note": 66,
                "channel": 0,
                "velocity": 93,
                "time": 240
            },
            {
                "type": "note_off",
                "note": 78,
                "channel": 0,
                "velocity": 93,
                "time": 0
            },
            {
                "type": "note_on",
                "note": 63,
                "channel": 0,
                "velocity": 93,
                "time": 0
            },
            {
                "type": "note_on",
                "note": 75,
                "channel": 0,
                "velocity": 93,
                "time": 0
            },
            {
                "type": "note_off",
                "note": 63,
                "channel": 0,
                "velocity": 93,
                "time": 240
            },
            {
                "type": "note_off",
                "note": 75,
                "channel": 0,
                "velocity": 93,
                "time": 0
            },
            {
                "type": "note_on",
                "note": 66,
                "channel": 0,
                "velocity": 104,
                "time": 0
            },
            {
                "type": "note_on",
                "note": 78,
                "channel": 0,
                "velocity": 104,
                "time": 0
            },
            {
                "type": "note_off",
                "note": 66,
                "channel": 0,
                "velocity": 104,
                "time": 240
            },
            {
                "type": "note_off",
                "note": 78,
                "channel": 0,
                "velocity": 104,
                "time": 0
            },
            {
                "type": "note_on",
                "note": 66,
                "channel": 0,
                "velocity": 104,
                "time": 0
            },
            {
                "type": "note_on",
                "note": 78,
                "channel": 0,
                "velocity": 104,
                "time": 0
            },
            {
                "type": "note_off",
                "note": 66,
                "channel": 0,
                "velocity": 104,
                "time": 60
            },
            {
                "type": "note_off",
                "note": 78,
                "channel": 0,
                "velocity": 104,
                "time": 0
            },
            {
                "type": "note_on",
                "note": 68,
                "channel": 0,
                "velocity": 104,
                "time": 0
            },
            {
                "type": "note_on",
                "note": 80,
                "channel": 0,
                "velocity": 104,
                "time": 0
            },
            {
                "type": "note_off",
                "note": 68,
                "channel": 0,
                "velocity": 104,
                "time": 180
            },
            {
                "type": "note_off",
                "note": 80,
                "channel": 0,
                "velocity": 104,
                "time": 0
            },
            {
                "type": "note_on",
                "note": 66,
                "channel": 0,
                "velocity": 93,
                "time": 0
            },
            {
                "type": "note_on",
                "note": 78,
                "channel": 0,
                "velocity": 93,
                "time": 0
            },
            {
                "type": "note_off",
                "note": 66,
                "channel": 0,
                "velocity": 93,
                "time": 240
            },
            {
                "type": "note_off",
                "note": 78,
                "channel": 0,
                "velocity": 93,
                "time": 0
            },
            {
                "type": "note_on",
                "note": 63,
                "channel": 0,
                "velocity": 93,
                "time": 0
            },
            {
                "type": "note_on",
                "note": 75,
                "channel": 0,
                "velocity": 93,
                "time": 0
            },
            {
                "type": "note_off",
                "note": 63,
                "channel": 0,
                "velocity": 93,
                "time": 240
            },
            {
                "type": "note_off",
                "note": 75,
                "channel": 0,
                "velocity": 93,
                "time": 0
            },
            {
                "type": "note_on",
                "note": 63,
                "channel": 0,
                "velocity": 114,
                "time": 0
            },
            {
                "type": "note_on",
                "note": 68,
                "channel": 0,
                "velocity": 114,
                "time": 0
            },
            {
                "type": "note_on",
                "note": 75,
                "channel": 0,
                "velocity": 114,
                "time": 0
            },
            {
                "type": "note_off",
                "note": 63,
                "channel": 0,
                "velocity": 114,
                "time": 360
            },
            {
                "type": "note_off",
                "note": 68,
                "channel": 0,
                "velocity": 114,
                "time": 0
            },
            {
                "type": "note_off",
                "note": 75,
                "channel": 0,
                "velocity": 114,
                "time": 0
            },
            {
                "type": "note_on",
                "note": 66,
                "channel": 0,
                "velocity": 114,
                "time": 0
            },
            {
                "type": "note_on",
                "note": 78,
                "channel": 0,
                "velocity": 114,
                "time": 0
            },
            {
                "type": "note_off",
                "note": 66,
                "channel": 0,
                "velocity": 114,
                "time": 120
            },
            {
                "type": "note_off",
                "note": 78,
                "channel": 0,
                "velocity": 114,
                "time": 0
            },
            {
                "type": "note_on",
                "note": 68,
                "channel": 0,
                "velocity": 93,
                "time": 0
            },
            {
                "type": "note_on",
                "note": 80,
                "channel": 0,
                "velocity": 93,
                "time": 0
            },
            {
                "type": "note_off",
                "note": 68,
                "channel": 0,
                "velocity": 93,
                "time": 240
            },
            {
                "type": "note_off",
                "note": 80,
                "channel": 0,
                "velocity": 93,
                "time": 0
            },
            {
                "type": "note_on",
                "note": 66,
                "channel": 0,
                "velocity": 93,
                "time": 0
            },
            {
                "type": "note_on",
                "note": 78,
                "channel": 0,
                "velocity": 93,
                "time": 0
            },
            {
                "type": "note_off",
                "note": 66,
                "channel": 0,
                "velocity": 93,
                "time": 240
            },
            {
                "type": "note_off",
                "note": 78,
                "channel": 0,
                "velocity": 93,
                "time": 0
            },
            {
                "type": "note_on",
                "note": 68,
                "channel": 0,
                "velocity": 104,
                "time": 0
            },
            {
                "type": "note_on",
                "note": 80,
                "channel": 0,
                "velocity": 104,
                "time": 0
            },
            {
                "type": "note_off",
                "note": 68,
                "channel": 0,
                "velocity": 104,
                "time": 240
            },
            {
                "type": "note_off",
                "note": 80,
                "channel": 0,
                "velocity": 104,
                "time": 0
            },
            {
                "type": "note_on",
                "note": 66,
                "channel": 0,
                "velocity": 104,
                "time": 0
            },
            {
                "type": "note_on",
                "note": 78,
                "channel": 0,
                "velocity": 104,
                "time": 0
            },
            {
                "type": "note_off",
                "note": 66,
                "channel": 0,
                "velocity": 104,
                "time": 240
            },
            {
                "type": "note_off",
                "note": 78,
                "channel": 0,
                "velocity": 104,
                "time": 0
            },
            {
                "type": "note_on",
                "note": 63,
                "channel": 0,
                "velocity": 93,
                "time": 0
            },
            {
                "type": "note_on",
                "note": 75,
                "channel": 0,
                "velocity": 93,
                "time": 0
            },
            {
                "type": "note_off",
                "note": 63,
                "channel": 0,
                "velocity": 93,
                "time": 120
            },
            {
                "type": "note_off",
                "note": 75,
                "channel": 0,
                "velocity": 93,
                "time": 0
            },
            {
                "type": "note_on",
                "note": 73,
                "channel": 0,
                "velocity": 93,
                "time": 0
            },
            {
                "type": "note_off",
                "note": 73,
                "channel": 0,
                "velocity": 93,
                "time": 120
            },
            {
                "type": "note_on",
                "note": 75,
                "channel": 0,
                "velocity": 93,
                "time": 0
            },
            {
                "type": "note_off",
                "note": 75,
                "channel": 0,
                "velocity": 93,
                "time": 120
            },
            {
                "type": "note_on",
                "note": 78,
                "channel": 0,
                "velocity": 93,
                "time": 0
            },
            {
                "type": "note_off",
                "note": 78,
                "channel": 0,
                "velocity": 93,
                "time": 120
            },
            {
                "type": "note_on",
                "note": 61,
                "channel": 0,
                "velocity": 114,
                "time": 0
            },
            {
                "type": "note_on",
                "note": 66,
                "channel": 0,
                "velocity": 114,
                "time": 0
            },
            {
                "type": "note_on",
                "note": 73,
                "channel": 0,
                "velocity": 114,
                "time": 0
            },
            {
                "type": "note_off",
                "note": 61,
                "channel": 0,
                "velocity": 114,
                "time": 240
            },
            {
                "type": "note_off",
                "note": 66,
                "channel": 0,
                "velocity": 114,
                "time": 0
            },
            {
                "type": "note_off",
                "note": 73,
                "channel": 0,
                "velocity": 114,
                "time": 0
            },
            {
                "type": "note_on",
                "note": 61,
                "channel": 0,
                "velocity": 114,
                "time": 0
            },
            {
                "type": "note_on",
                "note": 73,
                "channel": 0,
                "velocity": 114,
                "time": 0
            },
            {
                "type": "note_off",
                "note": 61,
                "channel": 0,
                "velocity": 114,
                "time": 120
            },
            {
                "type": "note_off",
                "note": 73,
                "channel": 0,
                "velocity": 114,
                "time": 0
            },
            {
                "type": "note_on",
                "note": 63,
                "channel": 0,
                "velocity": 114,
                "time": 0
            },
            {
                "type": "note_on",
                "note": 75,
                "channel": 0,
                "velocity": 114,
                "time": 0
            },
            {
                "type": "note_off",
                "note": 63,
                "channel": 0,
                "velocity": 114,
                "time": 120
            },
            {
                "type": "note_off",
                "note": 75,
                "channel": 0,
                "velocity": 114,
                "time": 0
            },
            {
                "type": "note_on",
                "note": 61,
                "channel": 0,
                "velocity": 93,
                "time": 0
            },
            {
                "type": "note_on",
                "note": 66,
                "channel": 0,
                "velocity": 93,
                "time": 0
            },
            {
                "type": "note_on",
                "note": 73,
                "channel": 0,
                "velocity": 93,
                "time": 0
            },
            {
                "type": "note_off",
                "note": 61,
                "channel": 0,
                "velocity": 93,
                "time": 240
            },
            {
                "type": "note_off",
                "note": 66,
                "channel": 0,
                "velocity": 93,
                "time": 0
            },
            {
                "type": "note_off",
                "note": 73,
                "channel": 0,
                "velocity": 93,
                "time": 0
            },
            {
                "type": "note_on",
                "note": 59,
                "channel": 0,
                "velocity": 93,
                "time": 0
            },
            {
                "type": "note_on",
                "note": 71,
                "channel": 0,
                "velocity": 93,
                "time": 0
            },
            {
                "type": "note_off",
                "note": 59,
                "channel": 0,
                "velocity": 93,
                "time": 120
            },
            {
                "type": "note_off",
                "note": 71,
                "channel": 0,
                "velocity": 93,
                "time": 0
            },
            {
                "type": "note_on",
                "note": 56,
                "channel": 0,
                "velocity": 93,
                "time": 0
            },
            {
                "type": "note_on",
                "note": 68,
                "channel": 0,
                "velocity": 93,
                "time": 0
            },
            {
                "type": "note_off",
                "note": 56,
                "channel": 0,
                "velocity": 93,
                "time": 120
            },
            {
                "type": "note_off",
                "note": 68,
                "channel": 0,
                "velocity": 93,
                "time": 0
            },
            {
                "type": "note_on",
                "note": 56,
                "channel": 0,
                "velocity": 104,
                "time": 0
            },
            {
                "type": "note_on",
                "note": 68,
                "channel": 0,
                "velocity": 104,
                "time": 0
            },
            {
                "type": "note_off",
                "note": 56,
                "channel": 0,
                "velocity": 104,
                "time": 360
            },
            {
                "type": "note_off",
                "note": 68,
                "channel": 0,
                "velocity": 104,
                "time": 0
            },
            {
                "type": "note_on",
                "note": 75,
                "channel": 0,
                "velocity": 104,
                "time": 0
            },
            {
                "type": "note_off",
                "note": 75,
                "channel": 0,
                "velocity": 104,
                "time": 120
            },
            {
                "type": "note_on",
                "note": 68,
                "channel": 0,
                "velocity": 93,
                "time": 0
            },
            {
                "type": "note_off",
                "note": 68,
                "channel": 0,
                "velocity": 93,
                "time": 360
            },
            {
                "type": "note_on",
                "note": 71,
                "channel": 0,
                "velocity": 93,
                "time": 0
            },
            {
                "type": "note_off",
                "note": 71,
                "channel": 0,
                "velocity": 93,
                "time": 60
            },
            {
                "type": "note_on",
                "note": 73,
                "channel": 0,
                "velocity": 93,
                "time": 0
            },
            {
                "type": "note_off",
                "note": 73,
                "channel": 0,
                "velocity": 93,
                "time": 60
            },
            {
                "type": "note_on",
                "note": 63,
                "channel": 0,
                "velocity": 114,
                "time": 0
            },
            {
                "type": "note_on",
                "note": 71,
                "channel": 0,
                "velocity": 114,
                "time": 0
            },
            {
                "type": "note_on",
                "note": 75,
                "channel": 0,
                "velocity": 114,
                "time": 0
            },
            {
                "type": "note_off",
                "note": 63,
                "channel": 0,
                "velocity": 114,
                "time": 360
            },
            {
                "type": "note_off",
                "note": 71,
                "channel": 0,
                "velocity": 114,
                "time": 0
            },
            {
                "type": "note_off",
                "note": 75,
                "channel": 0,
                "velocity": 114,
                "time": 0
            },
            {
                "type": "note_on",
                "note": 78,
                "channel": 0,
                "velocity": 114,
                "time": 0
            },
            {
                "type": "note_off",
                "note": 78,
                "channel": 0,
                "velocity": 114,
                "time": 120
            },
            {
                "type": "note_on",
                "note": 80,
                "channel": 0,
                "velocity": 93,
                "time": 0
            },
            {
                "type": "note_off",
                "note": 80,
                "channel": 0,
                "velocity": 93,
                "time": 240
            },
            {
                "type": "note_on",
                "note": 78,
                "channel": 0,
                "velocity": 93,
                "time": 0
            },
            {
                "type": "note_off",
                "note": 78,
                "channel": 0,
                "velocity": 93,
                "time": 240
            },
            {
                "type": "note_on",
                "note": 71,
                "channel": 0,
                "velocity": 104,
                "time": 0
            },
            {
                "type": "note_on",
                "note": 80,
                "channel": 0,
                "velocity": 104,
                "time": 0
            },
            {
                "type": "note_off",
                "note": 71,
                "channel": 0,
                "velocity": 104,
                "time": 240
            },
            {
                "type": "note_off",
                "note": 80,
                "channel": 0,
                "velocity": 104,
                "time": 0
            },
            {
                "type": "note_on",
                "note": 78,
                "channel": 0,
                "velocity": 104,
                "time": 0
            },
            {
                "type": "note_off",
                "note": 78,
                "channel": 0,
                "velocity": 104,
                "time": 240
            },
            {
                "type": "note_on",
                "note": 80,
                "channel": 0,
                "velocity": 93,
                "time": 0
            },
            {
                "type": "note_off",
                "note": 80,
                "channel": 0,
                "velocity": 93,
                "time": 30
            },
            {
                "type": "note_on",
                "note": 78,
                "channel": 0,
                "velocity": 93,
                "time": 0
            },
            {
                "type": "note_off",
                "note": 78,
                "channel": 0,
                "velocity": 93,
                "time": 30
            },
            {
                "type": "note_on",
                "note": 75,
                "channel": 0,
                "velocity": 93,
                "time": 0
            },
            {
                "type": "note_off",
                "note": 75,
                "channel": 0,
                "velocity": 93,
                "time": 420
            },
            {
                "type": "note_on",
                "note": 61,
                "channel": 0,
                "velocity": 114,
                "time": 0
            },
            {
                "type": "note_on",
                "note": 70,
                "channel": 0,
                "velocity": 114,
                "time": 0
            },
            {
                "type": "note_on",
                "note": 73,
                "channel": 0,
                "velocity": 114,
                "time": 0
            },
            {
                "type": "note_off",
                "note": 61,
                "channel": 0,
                "velocity": 114,
                "time": 360
            },
            {
                "type": "note_off",
                "note": 70,
                "channel": 0,
                "velocity": 114,
                "time": 0
            },
            {
                "type": "note_off",
                "note": 73,
                "channel": 0,
                "velocity": 114,
                "time": 0
            },
            {
                "type": "note_on",
                "note": 75,
                "channel": 0,
                "velocity": 114,
                "time": 0
            },
            {
                "type": "note_off",
                "note": 75,
                "channel": 0,
                "velocity": 114,
                "time": 120
            },
            {
                "type": "note_on",
                "note": 66,
                "channel": 0,
                "velocity": 93,
                "time": 0
            },
            {
                "type": "note_on",
                "note": 78,
                "channel": 0,
                "velocity": 93,
                "time": 0
            },
            {
                "type": "note_off",
                "note": 66,
                "channel": 0,
                "velocity": 93,
                "time": 240
            },
            {
                "type": "note_off",
                "note": 78,
                "channel": 0,
                "velocity": 93,
                "time": 0
            },
            {
                "type": "note_on",
                "note": 64,
                "channel": 0,
                "velocity": 93,
                "time": 0
            },
            {
                "type": "note_on",
                "note": 75,
                "channel": 0,
                "velocity": 93,
                "time": 0
            },
            {
                "type": "note_off",
                "note": 64,
                "channel": 0,
                "velocity": 93,
                "time": 240
            },
            {
                "type": "note_off",
                "note": 75,
                "channel": 0,
                "velocity": 93,
                "time": 0
            },
            {
                "type": "note_on",
                "note": 63,
                "channel": 0,
                "velocity": 104,
                "time": 0
            },
            {
                "type": "note_on",
                "note": 71,
                "channel": 0,
                "velocity": 104,
                "time": 0
            },
            {
                "type": "note_on",
                "note": 75,
                "channel": 0,
                "velocity": 104,
                "time": 0
            },
            {
                "type": "note_off",
                "note": 63,
                "channel": 0,
                "velocity": 104,
                "time": 240
            },
            {
                "type": "note_off",
                "note": 71,
                "channel": 0,
                "velocity": 104,
                "time": 0
            },
            {
                "type": "note_off",
                "note": 75,
                "channel": 0,
                "velocity": 104,
                "time": 0
            },
            {
                "type": "note_on",
                "note": 78,
                "channel": 0,
                "velocity": 104,
                "time": 0
            },
            {
                "type": "note_off",
                "note": 78,
                "channel": 0,
                "velocity": 104,
                "time": 240
            },
            {
                "type": "note_on",
                "note": 66,
                "channel": 0,
                "velocity": 93,
                "time": 0
            },
            {
                "type": "note_on",
                "note": 73,
                "channel": 0,
                "velocity": 93,
                "time": 0
            },
            {
                "type": "note_on",
                "note": 75,
                "channel": 0,
                "velocity": 93,
                "time": 0
            },
            {
                "type": "note_off",
                "note": 66,
                "channel": 0,
                "velocity": 93,
                "time": 360
            },
            {
                "type": "note_off",
                "note": 73,
                "channel": 0,
                "velocity": 93,
                "time": 0
            },
            {
                "type": "note_off",
                "note": 75,
                "channel": 0,
                "velocity": 93,
                "time": 0
            },
            {
                "type": "note_on",
                "note": 71,
                "channel": 0,
                "velocity": 93,
                "time": 0
            },
            {
                "type": "note_off",
                "note": 71,
                "channel": 0,
                "velocity": 93,
                "time": 60
            },
            {
                "type": "note_on",
                "note": 73,
                "channel": 0,
                "velocity": 93,
                "time": 0
            },
            {
                "type": "note_off",
                "note": 73,
                "channel": 0,
                "velocity": 93,
                "time": 60
            },
            {
                "type": "note_on",
                "note": 66,
                "channel": 0,
                "velocity": 114,
                "time": 0
            },
            {
                "type": "note_on",
                "note": 71,
                "channel": 0,
                "velocity": 114,
                "time": 0
            },
            {
                "type": "note_on",
                "note": 75,
                "channel": 0,
                "velocity": 114,
                "time": 0
            },
            {
                "type": "note_off",
                "note": 66,
                "channel": 0,
                "velocity": 114,
                "time": 360
            },
            {
                "type": "note_off",
                "note": 71,
                "channel": 0,
                "velocity": 114,
                "time": 0
            },
            {
                "type": "note_off",
                "note": 75,
                "channel": 0,
                "velocity": 114,
                "time": 0
            },
            {
                "type": "note_on",
                "note": 78,
                "channel": 0,
                "velocity": 114,
                "time": 0
            },
            {
                "type": "note_off",
                "note": 78,
                "channel": 0,
                "velocity": 114,
                "time": 120
            },
            {
                "type": "note_on",
                "note": 80,
                "channel": 0,
                "velocity": 93,
                "time": 0
            },
            {
                "type": "note_off",
                "note": 80,
                "channel": 0,
                "velocity": 93,
                "time": 240
            },
            {
                "type": "note_on",
                "note": 78,
                "channel": 0,
                "velocity": 93,
                "time": 0
            },
            {
                "type": "note_off",
                "note": 78,
                "channel": 0,
                "velocity": 93,
                "time": 240
            },
            {
                "type": "note_on",
                "note": 80,
                "channel": 0,
                "velocity": 104,
                "time": 0
            },
            {
                "type": "note_on",
                "note": 83,
                "channel": 0,
                "velocity": 104,
                "time": 0
            },
            {
                "type": "note_off",
                "note": 80,
                "channel": 0,
                "velocity": 104,
                "time": 240
            },
            {
                "type": "note_off",
                "note": 83,
                "channel": 0,
                "velocity": 104,
                "time": 0
            },
            {
                "type": "note_on",
                "note": 78,
                "channel": 0,
                "velocity": 104,
                "time": 0
            },
            {
                "type": "note_off",
                "note": 78,
                "channel": 0,
                "velocity": 104,
                "time": 240
            },
            {
                "type": "note_on",
                "note": 75,
                "channel": 0,
                "velocity": 93,
                "time": 0
            },
            {
                "type": "note_off",
                "note": 75,
                "channel": 0,
                "velocity": 93,
                "time": 240
            },
            {
                "type": "note_on",
                "note": 73,
                "channel": 0,
                "velocity": 93,
                "time": 0
            },
            {
                "type": "note_off",
                "note": 73,
                "channel": 0,
                "velocity": 93,
                "time": 240
            },
            {
                "type": "note_on",
                "note": 70,
                "channel": 0,
                "velocity": 114,
                "time": 0
            },
            {
                "type": "note_on",
                "note": 75,
                "channel": 0,
                "velocity": 114,
                "time": 0
            },
            {
                "type": "note_off",
                "note": 70,
                "channel": 0,
                "velocity": 114,
                "time": 120
            },
            {
                "type": "note_off",
                "note": 75,
                "channel": 0,
                "velocity": 114,
                "time": 0
            },
            {
                "type": "note_on",
                "note": 78,
                "channel": 0,
                "velocity": 114,
                "time": 0
            },
            {
                "type": "note_off",
                "note": 78,
                "channel": 0,
                "velocity": 114,
                "time": 120
            },
            {
                "type": "note_on",
                "note": 75,
                "channel": 0,
                "velocity": 114,
                "time": 0
            },
            {
                "type": "note_off",
                "note": 75,
                "channel": 0,
                "velocity": 114,
                "time": 120
            },
            {
                "type": "note_on",
                "note": 73,
                "channel": 0,
                "velocity": 114,
                "time": 0
            },
            {
                "type": "note_off",
                "note": 73,
                "channel": 0,
                "velocity": 114,
                "time": 120
            },
            {
                "type": "note_on",
                "note": 66,
                "channel": 0,
                "velocity": 93,
                "time": 0
            },
            {
                "type": "note_on",
                "note": 71,
                "channel": 0,
                "velocity": 93,
                "time": 0
            },
            {
                "type": "note_off",
                "note": 66,
                "channel": 0,
                "velocity": 93,
                "time": 240
            },
            {
                "type": "note_off",
                "note": 71,
                "channel": 0,
                "velocity": 93,
                "time": 0
            },
            {
                "type": "note_on",
                "note": 73,
                "channel": 0,
                "velocity": 93,
                "time": 0
            },
            {
                "type": "note_off",
                "note": 73,
                "channel": 0,
                "velocity": 93,
                "time": 240
            },
            {
                "type": "note_on",
                "note": 71,
                "channel": 0,
                "velocity": 104,
                "time": 0
            },
            {
                "type": "note_off",
                "note": 71,
                "channel": 0,
                "velocity": 104,
                "time": 30
            },
            {
                "type": "note_on",
                "note": 63,
                "channel": 0,
                "velocity": 104,
                "time": 0
            },
            {
                "type": "note_on",
                "note": 68,
                "channel": 0,
                "velocity": 104,
                "time": 0
            },
            {
                "type": "note_off",
                "note": 63,
                "channel": 0,
                "velocity": 104,
                "time": 450
            },
            {
                "type": "note_off",
                "note": 68,
                "channel": 0,
                "velocity": 104,
                "time": 0
            },
            {
                "type": "note_on",
                "note": 71,
                "channel": 0,
                "velocity": 93,
                "time": 0
            },
            {
                "type": "note_on",
                "note": 75,
                "channel": 0,
                "velocity": 93,
                "time": 30
            },
            {
                "type": "note_on",
                "note": 80,
                "channel": 0,
                "velocity": 93,
                "time": 30
            },
            {
                "type": "note_off",
                "note": 71,
                "channel": 0,
                "velocity": 93,
                "time": 180
            },
            {
                "type": "note_off",
                "note": 75,
                "channel": 0,
                "velocity": 93,
                "time": 0
            },
            {
                "type": "note_off",
                "note": 80,
                "channel": 0,
                "velocity": 93,
                "time": 0
            },
            {
                "type": "note_on",
                "note": 71,
                "channel": 0,
                "velocity": 93,
                "time": 0
            },
            {
                "type": "note_off",
                "note": 71,
                "channel": 0,
                "velocity": 93,
                "time": 60
            },
            {
                "type": "note_off",
                "note": 96,
                "channel": 0,
                "velocity": 93,
                "time": 60
            },
            {
                "type": "note_on",
                "note": 68,
                "channel": 0,
                "velocity": 114,
                "time": 120
            },
            {
                "type": "note_on",
                "note": 71,
                "channel": 0,
                "velocity": 114,
                "time": 0
            },
            {
                "type": "note_on",
                "note": 75,
                "channel": 0,
                "velocity": 114,
                "time": 0
            },
            {
                "type": "note_off",
                "note": 68,
                "channel": 0,
                "velocity": 114,
                "time": 240
            },
            {
                "type": "note_off",
                "note": 71,
                "channel": 0,
                "velocity": 114,
                "time": 0
            },
            {
                "type": "note_off",
                "note": 75,
                "channel": 0,
                "velocity": 114,
                "time": 0
            },
            {
                "type": "note_on",
                "note": 66,
                "channel": 0,
                "velocity": 114,
                "time": 0
            },
            {
                "type": "note_off",
                "note": 66,
                "channel": 0,
                "velocity": 114,
                "time": 30
            },
            {
                "type": "note_on",
                "note": 68,
                "channel": 0,
                "velocity": 114,
                "time": 0
            },
            {
                "type": "note_off",
                "note": 68,
                "channel": 0,
                "velocity": 114,
                "time": 210
            },
            {
                "type": "note_on",
                "note": 66,
                "channel": 0,
                "velocity": 93,
                "time": 0
            },
            {
                "type": "note_off",
                "note": 66,
                "channel": 0,
                "velocity": 93,
                "time": 30
            },
            {
                "type": "note_on",
                "note": 68,
                "channel": 0,
                "velocity": 93,
                "time": 0
            },
            {
                "type": "note_off",
                "note": 68,
                "channel": 0,
                "velocity": 93,
                "time": 210
            },
            {
                "type": "note_on",
                "note": 66,
                "channel": 0,
                "velocity": 93,
                "time": 0
            },
            {
                "type": "note_off",
                "note": 66,
                "channel": 0,
                "velocity": 93,
                "time": 120
            },
            {
                "type": "note_on",
                "note": 61,
                "channel": 0,
                "velocity": 93,
                "time": 0
            },
            {
                "type": "note_off",
                "note": 61,
                "channel": 0,
                "velocity": 93,
                "time": 120
            },
            {
                "type": "note_on",
                "note": 66,
                "channel": 0,
                "velocity": 104,
                "time": 0
            },
            {
                "type": "note_off",
                "note": 66,
                "channel": 0,
                "velocity": 104,
                "time": 120
            },
            {
                "type": "note_on",
                "note": 66,
                "channel": 0,
                "velocity": 104,
                "time": 0
            },
            {
                "type": "note_off",
                "note": 66,
                "channel": 0,
                "velocity": 104,
                "time": 120
            },
            {
                "type": "note_on",
                "note": 66,
                "channel": 0,
                "velocity": 104,
                "time": 0
            },
            {
                "type": "note_off",
                "note": 66,
                "channel": 0,
                "velocity": 104,
                "time": 120
            },
            {
                "type": "note_on",
                "note": 68,
                "channel": 0,
                "velocity": 104,
                "time": 0
            },
            {
                "type": "note_off",
                "note": 68,
                "channel": 0,
                "velocity": 104,
                "time": 240
            },
            {
                "type": "note_on",
                "note": 66,
                "channel": 0,
                "velocity": 93,
                "time": 0
            },
            {
                "type": "note_off",
                "note": 66,
                "channel": 0,
                "velocity": 93,
                "time": 120
            },
            {
                "type": "note_on",
                "note": 66,
                "channel": 0,
                "velocity": 93,
                "time": 0
            },
            {
                "type": "note_off",
                "note": 66,
                "channel": 0,
                "velocity": 93,
                "time": 120
            },
            {
                "type": "note_on",
                "note": 61,
                "channel": 0,
                "velocity": 93,
                "time": 0
            },
            {
                "type": "note_off",
                "note": 61,
                "channel": 0,
                "velocity": 93,
                "time": 120
            },
            {
                "type": "note_on",
                "note": 66,
                "channel": 0,
                "velocity": 114,
                "time": 0
            },
            {
                "type": "note_on",
                "note": 70,
                "channel": 0,
                "velocity": 114,
                "time": 0
            },
            {
                "type": "note_off",
                "note": 66,
                "channel": 0,
                "velocity": 114,
                "time": 240
            },
            {
                "type": "note_off",
                "note": 70,
                "channel": 0,
                "velocity": 114,
                "time": 0
            },
            {
                "type": "note_on",
                "note": 66,
                "channel": 0,
                "velocity": 114,
                "time": 0
            },
            {
                "type": "note_off",
                "note": 66,
                "channel": 0,
                "velocity": 114,
                "time": 240
            },
            {
                "type": "note_on",
                "note": 66,
                "channel": 0,
                "velocity": 93,
                "time": 0
            },
            {
                "type": "note_off",
                "note": 66,
                "channel": 0,
                "velocity": 93,
                "time": 240
            },
            {
                "type": "note_on",
                "note": 66,
                "channel": 0,
                "velocity": 93,
                "time": 0
            },
            {
                "type": "note_off",
                "note": 66,
                "channel": 0,
                "velocity": 93,
                "time": 120
            },
            {
                "type": "note_on",
                "note": 63,
                "channel": 0,
                "velocity": 93,
                "time": 0
            },
            {
                "type": "note_off",
                "note": 63,
                "channel": 0,
                "velocity": 93,
                "time": 120
            },
            {
                "type": "note_on",
                "note": 59,
                "channel": 0,
                "velocity": 104,
                "time": 0
            },
            {
                "type": "note_on",
                "note": 66,
                "channel": 0,
                "velocity": 104,
                "time": 0
            },
            {
                "type": "note_on",
                "note": 71,
                "channel": 0,
                "velocity": 104,
                "time": 0
            },
            {
                "type": "note_off",
                "note": 59,
                "channel": 0,
                "velocity": 104,
                "time": 120
            },
            {
                "type": "note_off",
                "note": 66,
                "channel": 0,
                "velocity": 104,
                "time": 0
            },
            {
                "type": "note_off",
                "note": 71,
                "channel": 0,
                "velocity": 104,
                "time": 0
            },
            {
                "type": "note_on",
                "note": 66,
                "channel": 0,
                "velocity": 104,
                "time": 0
            },
            {
                "type": "note_off",
                "note": 66,
                "channel": 0,
                "velocity": 104,
                "time": 30
            },
            {
                "type": "note_on",
                "note": 68,
                "channel": 0,
                "velocity": 104,
                "time": 0
            },
            {
                "type": "note_off",
                "note": 68,
                "channel": 0,
                "velocity": 104,
                "time": 210
            },
            {
                "type": "note_on",
                "note": 66,
                "channel": 0,
                "velocity": 104,
                "time": 0
            },
            {
                "type": "note_off",
                "note": 66,
                "channel": 0,
                "velocity": 104,
                "time": 360
            },
            {
                "type": "note_on",
                "note": 66,
                "channel": 0,
                "velocity": 93,
                "time": 0
            },
            {
                "type": "note_on",
                "note": 75,
                "channel": 0,
                "velocity": 93,
                "time": 0
            },
            {
                "type": "note_off",
                "note": 66,
                "channel": 0,
                "velocity": 93,
                "time": 120
            },
            {
                "type": "note_off",
                "note": 75,
                "channel": 0,
                "velocity": 93,
                "time": 0
            },
            {
                "type": "note_on",
                "note": 63,
                "channel": 0,
                "velocity": 93,
                "time": 0
            },
            {
                "type": "note_off",
                "note": 63,
                "channel": 0,
                "velocity": 93,
                "time": 120
            },
            {
                "type": "note_on",
                "note": 66,
                "channel": 0,
                "velocity": 114,
                "time": 0
            },
            {
                "type": "note_off",
                "note": 66,
                "channel": 0,
                "velocity": 114,
                "time": 30
            },
            {
                "type": "note_on",
                "note": 68,
                "channel": 0,
                "velocity": 114,
                "time": 0
            },
            {
                "type": "note_on",
                "note": 71,
                "channel": 0,
                "velocity": 114,
                "time": 0
            },
            {
                "type": "note_off",
                "note": 68,
                "channel": 0,
                "velocity": 114,
                "time": 210
            },
            {
                "type": "note_off",
                "note": 71,
                "channel": 0,
                "velocity": 114,
                "time": 0
            },
            {
                "type": "note_on",
                "note": 68,
                "channel": 0,
                "velocity": 114,
                "time": 0
            },
            {
                "type": "note_off",
                "note": 68,
                "channel": 0,
                "velocity": 114,
                "time": 240
            },
            {
                "type": "note_on",
                "note": 68,
                "channel": 0,
                "velocity": 93,
                "time": 0
            },
            {
                "type": "note_off",
                "note": 68,
                "channel": 0,
                "velocity": 93,
                "time": 240
            },
            {
                "type": "note_on",
                "note": 66,
                "channel": 0,
                "velocity": 93,
                "time": 0
            },
            {
                "type": "note_off",
                "note": 66,
                "channel": 0,
                "velocity": 93,
                "time": 120
            },
            {
                "type": "note_on",
                "note": 63,
                "channel": 0,
                "velocity": 93,
                "time": 0
            },
            {
                "type": "note_off",
                "note": 63,
                "channel": 0,
                "velocity": 93,
                "time": 120
            },
            {
                "type": "note_on",
                "note": 66,
                "channel": 0,
                "velocity": 104,
                "time": 0
            },
            {
                "type": "note_on",
                "note": 71,
                "channel": 0,
                "velocity": 104,
                "time": 0
            },
            {
                "type": "note_off",
                "note": 66,
                "channel": 0,
                "velocity": 104,
                "time": 120
            },
            {
                "type": "note_off",
                "note": 71,
                "channel": 0,
                "velocity": 104,
                "time": 0
            },
            {
                "type": "note_on",
                "note": 66,
                "channel": 0,
                "velocity": 104,
                "time": 0
            },
            {
                "type": "note_off",
                "note": 66,
                "channel": 0,
                "velocity": 104,
                "time": 120
            },
            {
                "type": "note_on",
                "note": 66,
                "channel": 0,
                "velocity": 104,
                "time": 0
            },
            {
                "type": "note_off",
                "note": 66,
                "channel": 0,
                "velocity": 104,
                "time": 120
            },
            {
                "type": "note_on",
                "note": 68,
                "channel": 0,
                "velocity": 104,
                "time": 0
            },
            {
                "type": "note_off",
                "note": 68,
                "channel": 0,
                "velocity": 104,
                "time": 360
            },
            {
                "type": "note_on",
                "note": 66,
                "channel": 0,
                "velocity": 93,
                "time": 0
            },
            {
                "type": "note_off",
                "note": 66,
                "channel": 0,
                "velocity": 93,
                "time": 120
            },
            {
                "type": "note_on",
                "note": 63,
                "channel": 0,
                "velocity": 93,
                "time": 0
            },
            {
                "type": "note_off",
                "note": 63,
                "channel": 0,
                "velocity": 93,
                "time": 120
            },
            {
                "type": "note_on",
                "note": 66,
                "channel": 0,
                "velocity": 114,
                "time": 0
            },
            {
                "type": "note_on",
                "note": 70,
                "channel": 0,
                "velocity": 114,
                "time": 0
            },
            {
                "type": "note_off",
                "note": 66,
                "channel": 0,
                "velocity": 114,
                "time": 240
            },
            {
                "type": "note_off",
                "note": 70,
                "channel": 0,
                "velocity": 114,
                "time": 0
            },
            {
                "type": "note_on",
                "note": 66,
                "channel": 0,
                "velocity": 114,
                "time": 0
            },
            {
                "type": "note_off",
                "note": 66,
                "channel": 0,
                "velocity": 114,
                "time": 240
            },
            {
                "type": "note_on",
                "note": 66,
                "channel": 0,
                "velocity": 93,
                "time": 0
            },
            {
                "type": "note_off",
                "note": 66,
                "channel": 0,
                "velocity": 93,
                "time": 120
            },
            {
                "type": "note_on",
                "note": 66,
                "channel": 0,
                "velocity": 93,
                "time": 0
            },
            {
                "type": "note_off",
                "note": 66,
                "channel": 0,
                "velocity": 93,
                "time": 30
            },
            {
                "type": "note_on",
                "note": 68,
                "channel": 0,
                "velocity": 93,
                "time": 0
            },
            {
                "type": "note_off",
                "note": 68,
                "channel": 0,
                "velocity": 93,
                "time": 210
            },
            {
                "type": "note_on",
                "note": 63,
                "channel": 0,
                "velocity": 93,
                "time": 0
            },
            {
                "type": "note_on",
                "note": 66,
                "channel": 0,
                "velocity": 93,
                "time": 0
            },
            {
                "type": "note_off",
                "note": 63,
                "channel": 0,
                "velocity": 93,
                "time": 120
            },
            {
                "type": "note_off",
                "note": 66,
                "channel": 0,
                "velocity": 93,
                "time": 0
            },
            {
                "type": "note_on",
                "note": 61,
                "channel": 0,
                "velocity": 104,
                "time": 0
            },
            {
                "type": "note_on",
                "note": 71,
                "channel": 0,
                "velocity": 104,
                "time": 0
            },
            {
                "type": "note_off",
                "note": 61,
                "channel": 0,
                "velocity": 104,
                "time": 120
            },
            {
                "type": "note_off",
                "note": 71,
                "channel": 0,
                "velocity": 104,
                "time": 0
            },
            {
                "type": "note_on",
                "note": 63,
                "channel": 0,
                "velocity": 104,
                "time": 0
            },
            {
                "type": "note_off",
                "note": 63,
                "channel": 0,
                "velocity": 104,
                "time": 360
            },
            {
                "type": "note_on",
                "note": 75,
                "channel": 0,
                "velocity": 93,
                "time": 0
            },
            {
                "type": "note_on",
                "note": 78,
                "channel": 0,
                "velocity": 93,
                "time": 30
            },
            {
                "type": "note_off",
                "note": 75,
                "channel": 0,
                "velocity": 93,
                "time": 210
            },
            {
                "type": "note_off",
                "note": 78,
                "channel": 0,
                "velocity": 93,
                "time": 0
            },
            {
                "type": "note_on",
                "note": 75,
                "channel": 0,
                "velocity": 93,
                "time": 0
            },
            {
                "type": "note_off",
                "note": 75,
                "channel": 0,
                "velocity": 93,
                "time": 60
            },
            {
                "type": "note_on",
                "note": 73,
                "channel": 0,
                "velocity": 93,
                "time": 0
            },
            {
                "type": "note_off",
                "note": 73,
                "channel": 0,
                "velocity": 93,
                "time": 60
            },
            {
                "type": "note_on",
                "note": 71,
                "channel": 0,
                "velocity": 93,
                "time": 0
            },
            {
                "type": "note_off",
                "note": 71,
                "channel": 0,
                "velocity": 93,
                "time": 60
            },
            {
                "type": "note_on",
                "note": 68,
                "channel": 0,
                "velocity": 93,
                "time": 0
            },
            {
                "type": "note_off",
                "note": 68,
                "channel": 0,
                "velocity": 93,
                "time": 60
            },
            {
                "type": "note_on",
                "note": 63,
                "channel": 0,
                "velocity": 114,
                "time": 0
            },
            {
                "type": "note_on",
                "note": 66,
                "channel": 0,
                "velocity": 114,
                "time": 0
            },
            {
                "type": "note_off",
                "note": 63,
                "channel": 0,
                "velocity": 114,
                "time": 240
            },
            {
                "type": "note_off",
                "note": 66,
                "channel": 0,
                "velocity": 114,
                "time": 0
            },
            {
                "type": "note_on",
                "note": 66,
                "channel": 0,
                "velocity": 114,
                "time": 0
            },
            {
                "type": "note_off",
                "note": 66,
                "channel": 0,
                "velocity": 114,
                "time": 30
            },
            {
                "type": "note_on",
                "note": 68,
                "channel": 0,
                "velocity": 114,
                "time": 0
            },
            {
                "type": "note_off",
                "note": 68,
                "channel": 0,
                "velocity": 114,
                "time": 210
            },
            {
                "type": "note_on",
                "note": 66,
                "channel": 0,
                "velocity": 93,
                "time": 0
            },
            {
                "type": "note_off",
                "note": 66,
                "channel": 0,
                "velocity": 93,
                "time": 30
            },
            {
                "type": "note_on",
                "note": 68,
                "channel": 0,
                "velocity": 93,
                "time": 0
            },
            {
                "type": "note_off",
                "note": 68,
                "channel": 0,
                "velocity": 93,
                "time": 210
            },
            {
                "type": "note_on",
                "note": 66,
                "channel": 0,
                "velocity": 93,
                "time": 0
            },
            {
                "type": "note_off",
                "note": 66,
                "channel": 0,
                "velocity": 93,
                "time": 120
            },
            {
                "type": "note_on",
                "note": 63,
                "channel": 0,
                "velocity": 93,
                "time": 0
            },
            {
                "type": "note_off",
                "note": 63,
                "channel": 0,
                "velocity": 93,
                "time": 120
            },
            {
                "type": "note_on",
                "note": 66,
                "channel": 0,
                "velocity": 104,
                "time": 0
            },
            {
                "type": "note_off",
                "note": 66,
                "channel": 0,
                "velocity": 104,
                "time": 120
            },
            {
                "type": "note_on",
                "note": 66,
                "channel": 0,
                "velocity": 104,
                "time": 0
            },
            {
                "type": "note_off",
                "note": 66,
                "channel": 0,
                "velocity": 104,
                "time": 120
            },
            {
                "type": "note_on",
                "note": 66,
                "channel": 0,
                "velocity": 104,
                "time": 0
            },
            {
                "type": "note_off",
                "note": 66,
                "channel": 0,
                "velocity": 104,
                "time": 120
            },
            {
                "type": "note_on",
                "note": 68,
                "channel": 0,
                "velocity": 104,
                "time": 0
            },
            {
                "type": "note_on",
                "note": 71,
                "channel": 0,
                "velocity": 104,
                "time": 0
            },
            {
                "type": "note_off",
                "note": 68,
                "channel": 0,
                "velocity": 104,
                "time": 240
            },
            {
                "type": "note_off",
                "note": 71,
                "channel": 0,
                "velocity": 104,
                "time": 0
            },
            {
                "type": "note_on",
                "note": 66,
                "channel": 0,
                "velocity": 93,
                "time": 0
            },
            {
                "type": "note_off",
                "note": 66,
                "channel": 0,
                "velocity": 93,
                "time": 120
            },
            {
                "type": "note_on",
                "note": 66,
                "channel": 0,
                "velocity": 93,
                "time": 0
            },
            {
                "type": "note_off",
                "note": 66,
                "channel": 0,
                "velocity": 93,
                "time": 120
            },
            {
                "type": "note_on",
                "note": 63,
                "channel": 0,
                "velocity": 93,
                "time": 0
            },
            {
                "type": "note_off",
                "note": 63,
                "channel": 0,
                "velocity": 93,
                "time": 120
            },
            {
                "type": "note_on",
                "note": 66,
                "channel": 0,
                "velocity": 114,
                "time": 0
            },
            {
                "type": "note_on",
                "note": 70,
                "channel": 0,
                "velocity": 114,
                "time": 0
            },
            {
                "type": "note_on",
                "note": 73,
                "channel": 0,
                "velocity": 114,
                "time": 0
            },
            {
                "type": "note_off",
                "note": 66,
                "channel": 0,
                "velocity": 114,
                "time": 240
            },
            {
                "type": "note_off",
                "note": 70,
                "channel": 0,
                "velocity": 114,
                "time": 0
            },
            {
                "type": "note_off",
                "note": 73,
                "channel": 0,
                "velocity": 114,
                "time": 0
            },
            {
                "type": "note_on",
                "note": 66,
                "channel": 0,
                "velocity": 114,
                "time": 0
            },
            {
                "type": "note_off",
                "note": 66,
                "channel": 0,
                "velocity": 114,
                "time": 240
            },
            {
                "type": "note_on",
                "note": 66,
                "channel": 0,
                "velocity": 93,
                "time": 0
            },
            {
                "type": "note_off",
                "note": 66,
                "channel": 0,
                "velocity": 93,
                "time": 240
            },
            {
                "type": "note_on",
                "note": 66,
                "channel": 0,
                "velocity": 93,
                "time": 0
            },
            {
                "type": "note_off",
                "note": 66,
                "channel": 0,
                "velocity": 93,
                "time": 120
            },
            {
                "type": "note_on",
                "note": 63,
                "channel": 0,
                "velocity": 93,
                "time": 0
            },
            {
                "type": "note_off",
                "note": 63,
                "channel": 0,
                "velocity": 93,
                "time": 120
            },
            {
                "type": "note_on",
                "note": 66,
                "channel": 0,
                "velocity": 104,
                "time": 0
            },
            {
                "type": "note_on",
                "note": 71,
                "channel": 0,
                "velocity": 104,
                "time": 0
            },
            {
                "type": "note_on",
                "note": 75,
                "channel": 0,
                "velocity": 104,
                "time": 0
            },
            {
                "type": "note_off",
                "note": 66,
                "channel": 0,
                "velocity": 104,
                "time": 120
            },
            {
                "type": "note_off",
                "note": 71,
                "channel": 0,
                "velocity": 104,
                "time": 0
            },
            {
                "type": "note_off",
                "note": 75,
                "channel": 0,
                "velocity": 104,
                "time": 0
            },
            {
                "type": "note_on",
                "note": 66,
                "channel": 0,
                "velocity": 104,
                "time": 0
            },
            {
                "type": "note_off",
                "note": 66,
                "channel": 0,
                "velocity": 104,
                "time": 30
            },
            {
                "type": "note_on",
                "note": 68,
                "channel": 0,
                "velocity": 104,
                "time": 0
            },
            {
                "type": "note_off",
                "note": 68,
                "channel": 0,
                "velocity": 104,
                "time": 210
            },
            {
                "type": "note_on",
                "note": 66,
                "channel": 0,
                "velocity": 104,
                "time": 0
            },
            {
                "type": "note_off",
                "note": 66,
                "channel": 0,
                "velocity": 104,
                "time": 120
            },
            {
                "type": "note_on",
                "note": 63,
                "channel": 0,
                "velocity": 93,
                "time": 0
            },
            {
                "type": "note_off",
                "note": 63,
                "channel": 0,
                "velocity": 93,
                "time": 240
            },
            {
                "type": "note_on",
                "note": 66,
                "channel": 0,
                "velocity": 93,
                "time": 0
            },
            {
                "type": "note_off",
                "note": 66,
                "channel": 0,
                "velocity": 93,
                "time": 120
            },
            {
                "type": "note_on",
                "note": 66,
                "channel": 0,
                "velocity": 93,
                "time": 0
            },
            {
                "type": "note_off",
                "note": 66,
                "channel": 0,
                "velocity": 93,
                "time": 120
            },
            {
                "type": "note_on",
                "note": 68,
                "channel": 0,
                "velocity": 114,
                "time": 0
            },
            {
                "type": "note_off",
                "note": 68,
                "channel": 0,
                "velocity": 114,
                "time": 240
            },
            {
                "type": "note_on",
                "note": 73,
                "channel": 0,
                "velocity": 114,
                "time": 0
            },
            {
                "type": "note_off",
                "note": 73,
                "channel": 0,
                "velocity": 114,
                "time": 60
            },
            {
                "type": "note_on",
                "note": 75,
                "channel": 0,
                "velocity": 114,
                "time": 0
            },
            {
                "type": "note_off",
                "note": 75,
                "channel": 0,
                "velocity": 114,
                "time": 60
            },
            {
                "type": "note_on",
                "note": 66,
                "channel": 0,
                "velocity": 114,
                "time": 0
            },
            {
                "type": "note_on",
                "note": 71,
                "channel": 0,
                "velocity": 114,
                "time": 0
            },
            {
                "type": "note_off",
                "note": 66,
                "channel": 0,
                "velocity": 114,
                "time": 120
            },
            {
                "type": "note_off",
                "note": 71,
                "channel": 0,
                "velocity": 114,
                "time": 0
            },
            {
                "type": "note_on",
                "note": 73,
                "channel": 0,
                "velocity": 93,
                "time": 0
            },
            {
                "type": "note_off",
                "note": 73,
                "channel": 0,
                "velocity": 93,
                "time": 240
            },
            {
                "type": "note_on",
                "note": 68,
                "channel": 0,
                "velocity": 93,
                "time": 0
            },
            {
                "type": "note_off",
                "note": 68,
                "channel": 0,
                "velocity": 93,
                "time": 240
            },
            {
                "type": "note_on",
                "note": 61,
                "channel": 0,
                "velocity": 104,
                "time": 0
            },
            {
                "type": "note_on",
                "note": 66,
                "channel": 0,
                "velocity": 104,
                "time": 0
            },
            {
                "type": "note_on",
                "note": 68,
                "channel": 0,
                "velocity": 104,
                "time": 0
            },
            {
                "type": "note_off",
                "note": 61,
                "channel": 0,
                "velocity": 104,
                "time": 240
            },
            {
                "type": "note_off",
                "note": 66,
                "channel": 0,
                "velocity": 104,
                "time": 0
            },
            {
                "type": "note_off",
                "note": 68,
                "channel": 0,
                "velocity": 104,
                "time": 0
            },
            {
                "type": "note_on",
                "note": 73,
                "channel": 0,
                "velocity": 104,
                "time": 0
            },
            {
                "type": "note_off",
                "note": 73,
                "channel": 0,
                "velocity": 104,
                "time": 60
            },
            {
                "type": "note_on",
                "note": 75,
                "channel": 0,
                "velocity": 104,
                "time": 0
            },
            {
                "type": "note_off",
                "note": 75,
                "channel": 0,
                "velocity": 104,
                "time": 60
            },
            {
                "type": "note_on",
                "note": 66,
                "channel": 0,
                "velocity": 104,
                "time": 0
            },
            {
                "type": "note_on",
                "note": 71,
                "channel": 0,
                "velocity": 104,
                "time": 0
            },
            {
                "type": "note_off",
                "note": 66,
                "channel": 0,
                "velocity": 104,
                "time": 120
            },
            {
                "type": "note_off",
                "note": 71,
                "channel": 0,
                "velocity": 104,
                "time": 0
            },
            {
                "type": "note_on",
                "note": 73,
                "channel": 0,
                "velocity": 93,
                "time": 0
            },
            {
                "type": "note_off",
                "note": 73,
                "channel": 0,
                "velocity": 93,
                "time": 240
            },
            {
                "type": "note_on",
                "note": 68,
                "channel": 0,
                "velocity": 93,
                "time": 0
            },
            {
                "type": "note_off",
                "note": 68,
                "channel": 0,
                "velocity": 93,
                "time": 240
            },
            {
                "type": "note_on",
                "note": 61,
                "channel": 0,
                "velocity": 114,
                "time": 0
            },
            {
                "type": "note_on",
                "note": 66,
                "channel": 0,
                "velocity": 114,
                "time": 0
            },
            {
                "type": "note_on",
                "note": 68,
                "channel": 0,
                "velocity": 114,
                "time": 0
            },
            {
                "type": "note_off",
                "note": 61,
                "channel": 0,
                "velocity": 114,
                "time": 240
            },
            {
                "type": "note_off",
                "note": 66,
                "channel": 0,
                "velocity": 114,
                "time": 0
            },
            {
                "type": "note_off",
                "note": 68,
                "channel": 0,
                "velocity": 114,
                "time": 0
            },
            {
                "type": "note_on",
                "note": 73,
                "channel": 0,
                "velocity": 114,
                "time": 0
            },
            {
                "type": "note_off",
                "note": 73,
                "channel": 0,
                "velocity": 114,
                "time": 60
            },
            {
                "type": "note_on",
                "note": 75,
                "channel": 0,
                "velocity": 114,
                "time": 0
            },
            {
                "type": "note_off",
                "note": 75,
                "channel": 0,
                "velocity": 114,
                "time": 60
            },
            {
                "type": "note_on",
                "note": 61,
                "channel": 0,
                "velocity": 114,
                "time": 0
            },
            {
                "type": "note_on",
                "note": 68,
                "channel": 0,
                "velocity": 114,
                "time": 0
            },
            {
                "type": "note_off",
                "note": 61,
                "channel": 0,
                "velocity": 114,
                "time": 120
            },
            {
                "type": "note_off",
                "note": 68,
                "channel": 0,
                "velocity": 114,
                "time": 0
            },
            {
                "type": "note_on",
                "note": 73,
                "channel": 0,
                "velocity": 93,
                "time": 0
            },
            {
                "type": "note_off",
                "note": 73,
                "channel": 0,
                "velocity": 93,
                "time": 240
            },
            {
                "type": "note_on",
                "note": 71,
                "channel": 0,
                "velocity": 93,
                "time": 0
            },
            {
                "type": "note_off",
                "note": 71,
                "channel": 0,
                "velocity": 93,
                "time": 120
            },
            {
                "type": "note_on",
                "note": 68,
                "channel": 0,
                "velocity": 93,
                "time": 0
            },
            {
                "type": "note_off",
                "note": 68,
                "channel": 0,
                "velocity": 93,
                "time": 120
            },
            {
                "type": "note_on",
                "note": 63,
                "channel": 0,
                "velocity": 104,
                "time": 0
            },
            {
                "type": "note_on",
                "note": 68,
                "channel": 0,
                "velocity": 104,
                "time": 0
            },
            {
                "type": "note_off",
                "note": 63,
                "channel": 0,
                "velocity": 104,
                "time": 240
            },
            {
                "type": "note_off",
                "note": 68,
                "channel": 0,
                "velocity": 104,
                "time": 0
            },
            {
                "type": "note_on",
                "note": 58,
                "channel": 0,
                "velocity": 104,
                "time": 0
            },
            {
                "type": "note_off",
                "note": 58,
                "channel": 0,
                "velocity": 104,
                "time": 120
            },
            {
                "type": "note_on",
                "note": 59,
                "channel": 0,
                "velocity": 104,
                "time": 0
            },
            {
                "type": "note_off",
                "note": 59,
                "channel": 0,
                "velocity": 104,
                "time": 120
            },
            {
                "type": "note_on",
                "note": 63,
                "channel": 0,
                "velocity": 93,
                "time": 0
            },
            {
                "type": "note_off",
                "note": 63,
                "channel": 0,
                "velocity": 93,
                "time": 120
            },
            {
                "type": "note_on",
                "note": 66,
                "channel": 0,
                "velocity": 93,
                "time": 0
            },
            {
                "type": "note_off",
                "note": 66,
                "channel": 0,
                "velocity": 93,
                "time": 120
            },
            {
                "type": "note_on",
                "note": 70,
                "channel": 0,
                "velocity": 93,
                "time": 0
            },
            {
                "type": "note_off",
                "note": 70,
                "channel": 0,
                "velocity": 93,
                "time": 120
            },
            {
                "type": "note_on",
                "note": 71,
                "channel": 0,
                "velocity": 93,
                "time": 0
            },
            {
                "type": "note_on",
                "note": 75,
                "channel": 0,
                "velocity": 93,
                "time": 0
            },
            {
                "type": "note_off",
                "note": 71,
                "channel": 0,
                "velocity": 93,
                "time": 120
            },
            {
                "type": "note_off",
                "note": 75,
                "channel": 0,
                "velocity": 93,
                "time": 0
            },
            {
                "type": "note_on",
                "note": 63,
                "channel": 0,
                "velocity": 114,
                "time": 0
            },
            {
                "type": "note_on",
                "note": 68,
                "channel": 0,
                "velocity": 114,
                "time": 0
            },
            {
                "type": "note_on",
                "note": 71,
                "channel": 0,
                "velocity": 114,
                "time": 0
            },
            {
                "type": "note_on",
                "note": 75,
                "channel": 0,
                "velocity": 114,
                "time": 0
            },
            {
                "type": "note_off",
                "note": 63,
                "channel": 0,
                "velocity": 114,
                "time": 360
            },
            {
                "type": "note_off",
                "note": 68,
                "channel": 0,
                "velocity": 114,
                "time": 0
            },
            {
                "type": "note_off",
                "note": 71,
                "channel": 0,
                "velocity": 114,
                "time": 0
            },
            {
                "type": "note_off",
                "note": 75,
                "channel": 0,
                "velocity": 114,
                "time": 0
            },
            {
                "type": "note_on",
                "note": 66,
                "channel": 0,
                "velocity": 114,
                "time": 0
            },
            {
                "type": "note_on",
                "note": 78,
                "channel": 0,
                "velocity": 114,
                "time": 0
            },
            {
                "type": "note_off",
                "note": 66,
                "channel": 0,
                "velocity": 114,
                "time": 120
            },
            {
                "type": "note_off",
                "note": 78,
                "channel": 0,
                "velocity": 114,
                "time": 0
            },
            {
                "type": "note_on",
                "note": 68,
                "channel": 0,
                "velocity": 93,
                "time": 0
            },
            {
                "type": "note_on",
                "note": 80,
                "channel": 0,
                "velocity": 93,
                "time": 0
            },
            {
                "type": "note_off",
                "note": 68,
                "channel": 0,
                "velocity": 93,
                "time": 240
            },
            {
                "type": "note_off",
                "note": 80,
                "channel": 0,
                "velocity": 93,
                "time": 0
            },
            {
                "type": "note_on",
                "note": 66,
                "channel": 0,
                "velocity": 93,
                "time": 0
            },
            {
                "type": "note_on",
                "note": 78,
                "channel": 0,
                "velocity": 93,
                "time": 0
            },
            {
                "type": "note_off",
                "note": 66,
                "channel": 0,
                "velocity": 93,
                "time": 240
            },
            {
                "type": "note_off",
                "note": 78,
                "channel": 0,
                "velocity": 93,
                "time": 0
            },
            {
                "type": "note_on",
                "note": 68,
                "channel": 0,
                "velocity": 104,
                "time": 0
            },
            {
                "type": "note_on",
                "note": 71,
                "channel": 0,
                "velocity": 104,
                "time": 0
            },
            {
                "type": "note_on",
                "note": 80,
                "channel": 0,
                "velocity": 104,
                "time": 0
            },
            {
                "type": "note_off",
                "note": 68,
                "channel": 0,
                "velocity": 104,
                "time": 240
            },
            {
                "type": "note_off",
                "note": 71,
                "channel": 0,
                "velocity": 104,
                "time": 0
            },
            {
                "type": "note_off",
                "note": 80,
                "channel": 0,
                "velocity": 104,
                "time": 0
            },
            {
                "type": "note_on",
                "note": 66,
                "channel": 0,
                "velocity": 104,
                "time": 0
            },
            {
                "type": "note_on",
                "note": 78,
                "channel": 0,
                "velocity": 104,
                "time": 0
            },
            {
                "type": "note_off",
                "note": 66,
                "channel": 0,
                "velocity": 104,
                "time": 240
            },
            {
                "type": "note_off",
                "note": 78,
                "channel": 0,
                "velocity": 104,
                "time": 0
            },
            {
                "type": "note_on",
                "note": 63,
                "channel": 0,
                "velocity": 93,
                "time": 0
            },
            {
                "type": "note_on",
                "note": 68,
                "channel": 0,
                "velocity": 93,
                "time": 0
            },
            {
                "type": "note_on",
                "note": 71,
                "channel": 0,
                "velocity": 93,
                "time": 0
            },
            {
                "type": "note_on",
                "note": 75,
                "channel": 0,
                "velocity": 93,
                "time": 0
            },
            {
                "type": "note_off",
                "note": 63,
                "channel": 0,
                "velocity": 93,
                "time": 240
            },
            {
                "type": "note_off",
                "note": 68,
                "channel": 0,
                "velocity": 93,
                "time": 0
            },
            {
                "type": "note_off",
                "note": 71,
                "channel": 0,
                "velocity": 93,
                "time": 0
            },
            {
                "type": "note_off",
                "note": 75,
                "channel": 0,
                "velocity": 93,
                "time": 0
            },
            {
                "type": "note_on",
                "note": 71,
                "channel": 0,
                "velocity": 93,
                "time": 0
            },
            {
                "type": "note_off",
                "note": 71,
                "channel": 0,
                "velocity": 93,
                "time": 120
            },
            {
                "type": "note_on",
                "note": 71,
                "channel": 0,
                "velocity": 93,
                "time": 0
            },
            {
                "type": "note_off",
                "note": 71,
                "channel": 0,
                "velocity": 93,
                "time": 120
            },
            {
                "type": "note_on",
                "note": 61,
                "channel": 0,
                "velocity": 114,
                "time": 0
            },
            {
                "type": "note_on",
                "note": 66,
                "channel": 0,
                "velocity": 114,
                "time": 0
            },
            {
                "type": "note_on",
                "note": 70,
                "channel": 0,
                "velocity": 114,
                "time": 0
            },
            {
                "type": "note_on",
                "note": 73,
                "channel": 0,
                "velocity": 114,
                "time": 0
            },
            {
                "type": "note_off",
                "note": 61,
                "channel": 0,
                "velocity": 114,
                "time": 360
            },
            {
                "type": "note_off",
                "note": 66,
                "channel": 0,
                "velocity": 114,
                "time": 0
            },
            {
                "type": "note_off",
                "note": 70,
                "channel": 0,
                "velocity": 114,
                "time": 0
            },
            {
                "type": "note_off",
                "note": 73,
                "channel": 0,
                "velocity": 114,
                "time": 0
            },
            {
                "type": "note_on",
                "note": 63,
                "channel": 0,
                "velocity": 114,
                "time": 0
            },
            {
                "type": "note_on",
                "note": 75,
                "channel": 0,
                "velocity": 114,
                "time": 0
            },
            {
                "type": "note_off",
                "note": 63,
                "channel": 0,
                "velocity": 114,
                "time": 120
            },
            {
                "type": "note_off",
                "note": 75,
                "channel": 0,
                "velocity": 114,
                "time": 0
            },
            {
                "type": "note_on",
                "note": 61,
                "channel": 0,
                "velocity": 93,
                "time": 0
            },
            {
                "type": "note_on",
                "note": 66,
                "channel": 0,
                "velocity": 93,
                "time": 0
            },
            {
                "type": "note_on",
                "note": 78,
                "channel": 0,
                "velocity": 93,
                "time": 0
            },
            {
                "type": "note_off",
                "note": 61,
                "channel": 0,
                "velocity": 93,
                "time": 240
            },
            {
                "type": "note_off",
                "note": 66,
                "channel": 0,
                "velocity": 93,
                "time": 0
            },
            {
                "type": "note_off",
                "note": 78,
                "channel": 0,
                "velocity": 93,
                "time": 0
            },
            {
                "type": "note_on",
                "note": 63,
                "channel": 0,
                "velocity": 93,
                "time": 0
            },
            {
                "type": "note_on",
                "note": 75,
                "channel": 0,
                "velocity": 93,
                "time": 0
            },
            {
                "type": "note_off",
                "note": 63,
                "channel": 0,
                "velocity": 93,
                "time": 240
            },
            {
                "type": "note_off",
                "note": 75,
                "channel": 0,
                "velocity": 93,
                "time": 0
            },
            {
                "type": "note_on",
                "note": 66,
                "channel": 0,
                "velocity": 104,
                "time": 0
            },
            {
                "type": "note_on",
                "note": 71,
                "channel": 0,
                "velocity": 104,
                "time": 0
            },
            {
                "type": "note_on",
                "note": 75,
                "channel": 0,
                "velocity": 104,
                "time": 0
            },
            {
                "type": "note_on",
                "note": 78,
                "channel": 0,
                "velocity": 104,
                "time": 0
            },
            {
                "type": "note_off",
                "note": 66,
                "channel": 0,
                "velocity": 104,
                "time": 240
            },
            {
                "type": "note_off",
                "note": 71,
                "channel": 0,
                "velocity": 104,
                "time": 0
            },
            {
                "type": "note_off",
                "note": 75,
                "channel": 0,
                "velocity": 104,
                "time": 0
            },
            {
                "type": "note_off",
                "note": 78,
                "channel": 0,
                "velocity": 104,
                "time": 0
            },
            {
                "type": "note_on",
                "note": 66,
                "channel": 0,
                "velocity": 104,
                "time": 0
            },
            {
                "type": "note_on",
                "note": 78,
                "channel": 0,
                "velocity": 104,
                "time": 0
            },
            {
                "type": "note_off",
                "note": 66,
                "channel": 0,
                "velocity": 104,
                "time": 60
            },
            {
                "type": "note_off",
                "note": 78,
                "channel": 0,
                "velocity": 104,
                "time": 0
            },
            {
                "type": "note_on",
                "note": 68,
                "channel": 0,
                "velocity": 104,
                "time": 0
            },
            {
                "type": "note_on",
                "note": 80,
                "channel": 0,
                "velocity": 104,
                "time": 0
            },
            {
                "type": "note_off",
                "note": 68,
                "channel": 0,
                "velocity": 104,
                "time": 180
            },
            {
                "type": "note_off",
                "note": 80,
                "channel": 0,
                "velocity": 104,
                "time": 0
            },
            {
                "type": "note_on",
                "note": 66,
                "channel": 0,
                "velocity": 93,
                "time": 0
            },
            {
                "type": "note_on",
                "note": 73,
                "channel": 0,
                "velocity": 93,
                "time": 0
            },
            {
                "type": "note_on",
                "note": 78,
                "channel": 0,
                "velocity": 93,
                "time": 0
            },
            {
                "type": "note_off",
                "note": 66,
                "channel": 0,
                "velocity": 93,
                "time": 240
            },
            {
                "type": "note_off",
                "note": 73,
                "channel": 0,
                "velocity": 93,
                "time": 0
            },
            {
                "type": "note_off",
                "note": 78,
                "channel": 0,
                "velocity": 93,
                "time": 0
            },
            {
                "type": "note_on",
                "note": 63,
                "channel": 0,
                "velocity": 93,
                "time": 0
            },
            {
                "type": "note_on",
                "note": 75,
                "channel": 0,
                "velocity": 93,
                "time": 0
            },
            {
                "type": "note_off",
                "note": 63,
                "channel": 0,
                "velocity": 93,
                "time": 120
            },
            {
                "type": "note_off",
                "note": 75,
                "channel": 0,
                "velocity": 93,
                "time": 0
            },
            {
                "type": "note_on",
                "note": 78,
                "channel": 0,
                "velocity": 93,
                "time": 0
            },
            {
                "type": "note_off",
                "note": 78,
                "channel": 0,
                "velocity": 93,
                "time": 120
            },
            {
                "type": "note_on",
                "note": 63,
                "channel": 0,
                "velocity": 114,
                "time": 0
            },
            {
                "type": "note_on",
                "note": 68,
                "channel": 0,
                "velocity": 114,
                "time": 0
            },
            {
                "type": "note_on",
                "note": 75,
                "channel": 0,
                "velocity": 114,
                "time": 0
            },
            {
                "type": "note_off",
                "note": 63,
                "channel": 0,
                "velocity": 114,
                "time": 360
            },
            {
                "type": "note_off",
                "note": 68,
                "channel": 0,
                "velocity": 114,
                "time": 0
            },
            {
                "type": "note_off",
                "note": 75,
                "channel": 0,
                "velocity": 114,
                "time": 0
            },
            {
                "type": "note_on",
                "note": 66,
                "channel": 0,
                "velocity": 114,
                "time": 0
            },
            {
                "type": "note_on",
                "note": 75,
                "channel": 0,
                "velocity": 114,
                "time": 0
            },
            {
                "type": "note_on",
                "note": 78,
                "channel": 0,
                "velocity": 114,
                "time": 0
            },
            {
                "type": "note_off",
                "note": 66,
                "channel": 0,
                "velocity": 114,
                "time": 120
            },
            {
                "type": "note_off",
                "note": 75,
                "channel": 0,
                "velocity": 114,
                "time": 0
            },
            {
                "type": "note_off",
                "note": 78,
                "channel": 0,
                "velocity": 114,
                "time": 0
            },
            {
                "type": "note_on",
                "note": 68,
                "channel": 0,
                "velocity": 93,
                "time": 0
            },
            {
                "type": "note_on",
                "note": 80,
                "channel": 0,
                "velocity": 93,
                "time": 0
            },
            {
                "type": "note_off",
                "note": 68,
                "channel": 0,
                "velocity": 93,
                "time": 240
            },
            {
                "type": "note_off",
                "note": 80,
                "channel": 0,
                "velocity": 93,
                "time": 0
            },
            {
                "type": "note_on",
                "note": 66,
                "channel": 0,
                "velocity": 93,
                "time": 0
            },
            {
                "type": "note_on",
                "note": 75,
                "channel": 0,
                "velocity": 93,
                "time": 0
            },
            {
                "type": "note_on",
                "note": 78,
                "channel": 0,
                "velocity": 93,
                "time": 0
            },
            {
                "type": "note_off",
                "note": 66,
                "channel": 0,
                "velocity": 93,
                "time": 240
            },
            {
                "type": "note_off",
                "note": 75,
                "channel": 0,
                "velocity": 93,
                "time": 0
            },
            {
                "type": "note_off",
                "note": 78,
                "channel": 0,
                "velocity": 93,
                "time": 0
            },
            {
                "type": "note_on",
                "note": 68,
                "channel": 0,
                "velocity": 104,
                "time": 0
            },
            {
                "type": "note_on",
                "note": 80,
                "channel": 0,
                "velocity": 104,
                "time": 0
            },
            {
                "type": "note_off",
                "note": 68,
                "channel": 0,
                "velocity": 104,
                "time": 240
            },
            {
                "type": "note_off",
                "note": 80,
                "channel": 0,
                "velocity": 104,
                "time": 0
            },
            {
                "type": "note_on",
                "note": 66,
                "channel": 0,
                "velocity": 104,
                "time": 0
            },
            {
                "type": "note_on",
                "note": 78,
                "channel": 0,
                "velocity": 104,
                "time": 0
            },
            {
                "type": "note_off",
                "note": 66,
                "channel": 0,
                "velocity": 104,
                "time": 240
            },
            {
                "type": "note_off",
                "note": 78,
                "channel": 0,
                "velocity": 104,
                "time": 0
            },
            {
                "type": "note_on",
                "note": 63,
                "channel": 0,
                "velocity": 93,
                "time": 0
            },
            {
                "type": "note_on",
                "note": 70,
                "channel": 0,
                "velocity": 93,
                "time": 0
            },
            {
                "type": "note_on",
                "note": 75,
                "channel": 0,
                "velocity": 93,
                "time": 0
            },
            {
                "type": "note_off",
                "note": 63,
                "channel": 0,
                "velocity": 93,
                "time": 240
            },
            {
                "type": "note_off",
                "note": 70,
                "channel": 0,
                "velocity": 93,
                "time": 0
            },
            {
                "type": "note_off",
                "note": 75,
                "channel": 0,
                "velocity": 93,
                "time": 0
            },
            {
                "type": "note_on",
                "note": 68,
                "channel": 0,
                "velocity": 93,
                "time": 0
            },
            {
                "type": "note_on",
                "note": 75,
                "channel": 0,
                "velocity": 93,
                "time": 0
            },
            {
                "type": "note_off",
                "note": 68,
                "channel": 0,
                "velocity": 93,
                "time": 120
            },
            {
                "type": "note_off",
                "note": 75,
                "channel": 0,
                "velocity": 93,
                "time": 0
            },
            {
                "type": "note_on",
                "note": 75,
                "channel": 0,
                "velocity": 93,
                "time": 0
            },
            {
                "type": "note_off",
                "note": 75,
                "channel": 0,
                "velocity": 93,
                "time": 120
            },
            {
                "type": "note_on",
                "note": 61,
                "channel": 0,
                "velocity": 114,
                "time": 0
            },
            {
                "type": "note_on",
                "note": 66,
                "channel": 0,
                "velocity": 114,
                "time": 0
            },
            {
                "type": "note_on",
                "note": 73,
                "channel": 0,
                "velocity": 114,
                "time": 0
            },
            {
                "type": "note_off",
                "note": 61,
                "channel": 0,
                "velocity": 114,
                "time": 240
            },
            {
                "type": "note_off",
                "note": 66,
                "channel": 0,
                "velocity": 114,
                "time": 0
            },
            {
                "type": "note_off",
                "note": 73,
                "channel": 0,
                "velocity": 114,
                "time": 0
            },
            {
                "type": "note_on",
                "note": 63,
                "channel": 0,
                "velocity": 114,
                "time": 0
            },
            {
                "type": "note_on",
                "note": 75,
                "channel": 0,
                "velocity": 114,
                "time": 0
            },
            {
                "type": "note_off",
                "note": 63,
                "channel": 0,
                "velocity": 114,
                "time": 240
            },
            {
                "type": "note_off",
                "note": 75,
                "channel": 0,
                "velocity": 114,
                "time": 0
            },
            {
                "type": "note_on",
                "note": 66,
                "channel": 0,
                "velocity": 93,
                "time": 0
            },
            {
                "type": "note_on",
                "note": 78,
                "channel": 0,
                "velocity": 93,
                "time": 0
            },
            {
                "type": "note_off",
                "note": 66,
                "channel": 0,
                "velocity": 93,
                "time": 240
            },
            {
                "type": "note_off",
                "note": 78,
                "channel": 0,
                "velocity": 93,
                "time": 0
            },
            {
                "type": "note_on",
                "note": 66,
                "channel": 0,
                "velocity": 93,
                "time": 0
            },
            {
                "type": "note_on",
                "note": 78,
                "channel": 0,
                "velocity": 93,
                "time": 0
            },
            {
                "type": "note_off",
                "note": 66,
                "channel": 0,
                "velocity": 93,
                "time": 60
            },
            {
                "type": "note_off",
                "note": 78,
                "channel": 0,
                "velocity": 93,
                "time": 0
            },
            {
                "type": "note_on",
                "note": 68,
                "channel": 0,
                "velocity": 93,
                "time": 0
            },
            {
                "type": "note_on",
                "note": 80,
                "channel": 0,
                "velocity": 93,
                "time": 0
            },
            {
                "type": "note_off",
                "note": 68,
                "channel": 0,
                "velocity": 93,
                "time": 180
            },
            {
                "type": "note_off",
                "note": 80,
                "channel": 0,
                "velocity": 93,
                "time": 0
            },
            {
                "type": "note_on",
                "note": 66,
                "channel": 0,
                "velocity": 104,
                "time": 0
            },
            {
                "type": "note_on",
                "note": 78,
                "channel": 0,
                "velocity": 104,
                "time": 0
            },
            {
                "type": "note_off",
                "note": 66,
                "channel": 0,
                "velocity": 104,
                "time": 120
            },
            {
                "type": "note_off",
                "note": 78,
                "channel": 0,
                "velocity": 104,
                "time": 0
            },
            {
                "type": "note_on",
                "note": 63,
                "channel": 0,
                "velocity": 104,
                "time": 0
            },
            {
                "type": "note_on",
                "note": 75,
                "channel": 0,
                "velocity": 104,
                "time": 0
            },
            {
                "type": "note_off",
                "note": 63,
                "channel": 0,
                "velocity": 104,
                "time": 360
            },
            {
                "type": "note_off",
                "note": 75,
                "channel": 0,
                "velocity": 104,
                "time": 0
            },
            {
                "type": "note_on",
                "note": 71,
                "channel": 0,
                "velocity": 93,
                "time": 0
            },
            {
                "type": "note_off",
                "note": 71,
                "channel": 0,
                "velocity": 93,
                "time": 120
            },
            {
                "type": "note_on",
                "note": 73,
                "channel": 0,
                "velocity": 93,
                "time": 0
            },
            {
                "type": "note_off",
                "note": 73,
                "channel": 0,
                "velocity": 93,
                "time": 120
            },
            {
                "type": "note_on",
                "note": 75,
                "channel": 0,
                "velocity": 93,
                "time": 0
            },
            {
                "type": "note_off",
                "note": 75,
                "channel": 0,
                "velocity": 93,
                "time": 120
            },
            {
                "type": "note_on",
                "note": 78,
                "channel": 0,
                "velocity": 93,
                "time": 0
            },
            {
                "type": "note_off",
                "note": 78,
                "channel": 0,
                "velocity": 93,
                "time": 120
            },
            {
                "type": "note_on",
                "note": 63,
                "channel": 0,
                "velocity": 114,
                "time": 0
            },
            {
                "type": "note_on",
                "note": 75,
                "channel": 0,
                "velocity": 114,
                "time": 0
            },
            {
                "type": "note_off",
                "note": 63,
                "channel": 0,
                "velocity": 114,
                "time": 360
            },
            {
                "type": "note_off",
                "note": 75,
                "channel": 0,
                "velocity": 114,
                "time": 0
            },
            {
                "type": "note_on",
                "note": 66,
                "channel": 0,
                "velocity": 114,
                "time": 0
            },
            {
                "type": "note_on",
                "note": 78,
                "channel": 0,
                "velocity": 114,
                "time": 0
            },
            {
                "type": "note_off",
                "note": 66,
                "channel": 0,
                "velocity": 114,
                "time": 120
            },
            {
                "type": "note_off",
                "note": 78,
                "channel": 0,
                "velocity": 114,
                "time": 0
            },
            {
                "type": "note_on",
                "note": 68,
                "channel": 0,
                "velocity": 93,
                "time": 0
            },
            {
                "type": "note_on",
                "note": 80,
                "channel": 0,
                "velocity": 93,
                "time": 0
            },
            {
                "type": "note_off",
                "note": 68,
                "channel": 0,
                "velocity": 93,
                "time": 240
            },
            {
                "type": "note_off",
                "note": 80,
                "channel": 0,
                "velocity": 93,
                "time": 0
            },
            {
                "type": "note_on",
                "note": 66,
                "channel": 0,
                "velocity": 93,
                "time": 0
            },
            {
                "type": "note_on",
                "note": 78,
                "channel": 0,
                "velocity": 93,
                "time": 0
            },
            {
                "type": "note_off",
                "note": 66,
                "channel": 0,
                "velocity": 93,
                "time": 240
            },
            {
                "type": "note_off",
                "note": 78,
                "channel": 0,
                "velocity": 93,
                "time": 0
            },
            {
                "type": "note_on",
                "note": 68,
                "channel": 0,
                "velocity": 104,
                "time": 0
            },
            {
                "type": "note_on",
                "note": 80,
                "channel": 0,
                "velocity": 104,
                "time": 0
            },
            {
                "type": "note_off",
                "note": 68,
                "channel": 0,
                "velocity": 104,
                "time": 240
            },
            {
                "type": "note_off",
                "note": 80,
                "channel": 0,
                "velocity": 104,
                "time": 0
            },
            {
                "type": "note_on",
                "note": 66,
                "channel": 0,
                "velocity": 104,
                "time": 0
            },
            {
                "type": "note_on",
                "note": 78,
                "channel": 0,
                "velocity": 104,
                "time": 0
            },
            {
                "type": "note_off",
                "note": 66,
                "channel": 0,
                "velocity": 104,
                "time": 240
            },
            {
                "type": "note_off",
                "note": 78,
                "channel": 0,
                "velocity": 104,
                "time": 0
            },
            {
                "type": "note_on",
                "note": 63,
                "channel": 0,
                "velocity": 93,
                "time": 0
            },
            {
                "type": "note_on",
                "note": 75,
                "channel": 0,
                "velocity": 93,
                "time": 0
            },
            {
                "type": "note_off",
                "note": 63,
                "channel": 0,
                "velocity": 93,
                "time": 240
            },
            {
                "type": "note_off",
                "note": 75,
                "channel": 0,
                "velocity": 93,
                "time": 0
            },
            {
                "type": "note_on",
                "note": 78,
                "channel": 0,
                "velocity": 93,
                "time": 0
            },
            {
                "type": "note_off",
                "note": 78,
                "channel": 0,
                "velocity": 93,
                "time": 120
            },
            {
                "type": "note_on",
                "note": 75,
                "channel": 0,
                "velocity": 93,
                "time": 0
            },
            {
                "type": "note_off",
                "note": 75,
                "channel": 0,
                "velocity": 93,
                "time": 120
            },
            {
                "type": "note_on",
                "note": 61,
                "channel": 0,
                "velocity": 114,
                "time": 0
            },
            {
                "type": "note_on",
                "note": 73,
                "channel": 0,
                "velocity": 114,
                "time": 0
            },
            {
                "type": "note_off",
                "note": 61,
                "channel": 0,
                "velocity": 114,
                "time": 360
            },
            {
                "type": "note_off",
                "note": 73,
                "channel": 0,
                "velocity": 114,
                "time": 0
            },
            {
                "type": "note_on",
                "note": 63,
                "channel": 0,
                "velocity": 114,
                "time": 0
            },
            {
                "type": "note_on",
                "note": 75,
                "channel": 0,
                "velocity": 114,
                "time": 0
            },
            {
                "type": "note_off",
                "note": 63,
                "channel": 0,
                "velocity": 114,
                "time": 120
            },
            {
                "type": "note_off",
                "note": 75,
                "channel": 0,
                "velocity": 114,
                "time": 0
            },
            {
                "type": "note_on",
                "note": 66,
                "channel": 0,
                "velocity": 93,
                "time": 0
            },
            {
                "type": "note_on",
                "note": 78,
                "channel": 0,
                "velocity": 93,
                "time": 0
            },
            {
                "type": "note_off",
                "note": 66,
                "channel": 0,
                "velocity": 93,
                "time": 240
            },
            {
                "type": "note_off",
                "note": 78,
                "channel": 0,
                "velocity": 93,
                "time": 0
            },
            {
                "type": "note_on",
                "note": 63,
                "channel": 0,
                "velocity": 93,
                "time": 0
            },
            {
                "type": "note_on",
                "note": 75,
                "channel": 0,
                "velocity": 93,
                "time": 0
            },
            {
                "type": "note_off",
                "note": 63,
                "channel": 0,
                "velocity": 93,
                "time": 240
            },
            {
                "type": "note_off",
                "note": 75,
                "channel": 0,
                "velocity": 93,
                "time": 0
            },
            {
                "type": "note_on",
                "note": 66,
                "channel": 0,
                "velocity": 104,
                "time": 0
            },
            {
                "type": "note_on",
                "note": 78,
                "channel": 0,
                "velocity": 104,
                "time": 0
            },
            {
                "type": "note_off",
                "note": 66,
                "channel": 0,
                "velocity": 104,
                "time": 240
            },
            {
                "type": "note_off",
                "note": 78,
                "channel": 0,
                "velocity": 104,
                "time": 0
            },
            {
                "type": "note_on",
                "note": 66,
                "channel": 0,
                "velocity": 104,
                "time": 0
            },
            {
                "type": "note_on",
                "note": 78,
                "channel": 0,
                "velocity": 104,
                "time": 0
            },
            {
                "type": "note_off",
                "note": 66,
                "channel": 0,
                "velocity": 104,
                "time": 60
            },
            {
                "type": "note_off",
                "note": 78,
                "channel": 0,
                "velocity": 104,
                "time": 0
            },
            {
                "type": "note_on",
                "note": 68,
                "channel": 0,
                "velocity": 104,
                "time": 0
            },
            {
                "type": "note_on",
                "note": 80,
                "channel": 0,
                "velocity": 104,
                "time": 0
            },
            {
                "type": "note_off",
                "note": 68,
                "channel": 0,
                "velocity": 104,
                "time": 180
            },
            {
                "type": "note_off",
                "note": 80,
                "channel": 0,
                "velocity": 104,
                "time": 0
            },
            {
                "type": "note_on",
                "note": 66,
                "channel": 0,
                "velocity": 93,
                "time": 0
            },
            {
                "type": "note_on",
                "note": 78,
                "channel": 0,
                "velocity": 93,
                "time": 0
            },
            {
                "type": "note_off",
                "note": 66,
                "channel": 0,
                "velocity": 93,
                "time": 240
            },
            {
                "type": "note_off",
                "note": 78,
                "channel": 0,
                "velocity": 93,
                "time": 0
            },
            {
                "type": "note_on",
                "note": 63,
                "channel": 0,
                "velocity": 93,
                "time": 0
            },
            {
                "type": "note_on",
                "note": 75,
                "channel": 0,
                "velocity": 93,
                "time": 0
            },
            {
                "type": "note_off",
                "note": 63,
                "channel": 0,
                "velocity": 93,
                "time": 240
            },
            {
                "type": "note_off",
                "note": 75,
                "channel": 0,
                "velocity": 93,
                "time": 0
            },
            {
                "type": "note_on",
                "note": 63,
                "channel": 0,
                "velocity": 114,
                "time": 0
            },
            {
                "type": "note_on",
                "note": 68,
                "channel": 0,
                "velocity": 114,
                "time": 0
            },
            {
                "type": "note_on",
                "note": 75,
                "channel": 0,
                "velocity": 114,
                "time": 0
            },
            {
                "type": "note_off",
                "note": 63,
                "channel": 0,
                "velocity": 114,
                "time": 360
            },
            {
                "type": "note_off",
                "note": 68,
                "channel": 0,
                "velocity": 114,
                "time": 0
            },
            {
                "type": "note_off",
                "note": 75,
                "channel": 0,
                "velocity": 114,
                "time": 0
            },
            {
                "type": "note_on",
                "note": 66,
                "channel": 0,
                "velocity": 114,
                "time": 0
            },
            {
                "type": "note_on",
                "note": 78,
                "channel": 0,
                "velocity": 114,
                "time": 0
            },
            {
                "type": "note_off",
                "note": 66,
                "channel": 0,
                "velocity": 114,
                "time": 120
            },
            {
                "type": "note_off",
                "note": 78,
                "channel": 0,
                "velocity": 114,
                "time": 0
            },
            {
                "type": "note_on",
                "note": 68,
                "channel": 0,
                "velocity": 93,
                "time": 0
            },
            {
                "type": "note_on",
                "note": 80,
                "channel": 0,
                "velocity": 93,
                "time": 0
            },
            {
                "type": "note_off",
                "note": 68,
                "channel": 0,
                "velocity": 93,
                "time": 240
            },
            {
                "type": "note_off",
                "note": 80,
                "channel": 0,
                "velocity": 93,
                "time": 0
            },
            {
                "type": "note_on",
                "note": 66,
                "channel": 0,
                "velocity": 93,
                "time": 0
            },
            {
                "type": "note_on",
                "note": 78,
                "channel": 0,
                "velocity": 93,
                "time": 0
            },
            {
                "type": "note_off",
                "note": 66,
                "channel": 0,
                "velocity": 93,
                "time": 240
            },
            {
                "type": "note_off",
                "note": 78,
                "channel": 0,
                "velocity": 93,
                "time": 0
            },
            {
                "type": "note_on",
                "note": 68,
                "channel": 0,
                "velocity": 104,
                "time": 0
            },
            {
                "type": "note_on",
                "note": 80,
                "channel": 0,
                "velocity": 104,
                "time": 0
            },
            {
                "type": "note_off",
                "note": 68,
                "channel": 0,
                "velocity": 104,
                "time": 240
            },
            {
                "type": "note_off",
                "note": 80,
                "channel": 0,
                "velocity": 104,
                "time": 0
            },
            {
                "type": "note_on",
                "note": 66,
                "channel": 0,
                "velocity": 104,
                "time": 0
            },
            {
                "type": "note_on",
                "note": 78,
                "channel": 0,
                "velocity": 104,
                "time": 0
            },
            {
                "type": "note_off",
                "note": 66,
                "channel": 0,
                "velocity": 104,
                "time": 240
            },
            {
                "type": "note_off",
                "note": 78,
                "channel": 0,
                "velocity": 104,
                "time": 0
            },
            {
                "type": "note_on",
                "note": 63,
                "channel": 0,
                "velocity": 93,
                "time": 0
            },
            {
                "type": "note_on",
                "note": 75,
                "channel": 0,
                "velocity": 93,
                "time": 0
            },
            {
                "type": "note_off",
                "note": 63,
                "channel": 0,
                "velocity": 93,
                "time": 120
            },
            {
                "type": "note_off",
                "note": 75,
                "channel": 0,
                "velocity": 93,
                "time": 0
            },
            {
                "type": "note_on",
                "note": 73,
                "channel": 0,
                "velocity": 93,
                "time": 0
            },
            {
                "type": "note_off",
                "note": 73,
                "channel": 0,
                "velocity": 93,
                "time": 120
            },
            {
                "type": "note_on",
                "note": 75,
                "channel": 0,
                "velocity": 93,
                "time": 0
            },
            {
                "type": "note_off",
                "note": 75,
                "channel": 0,
                "velocity": 93,
                "time": 120
            },
            {
                "type": "note_on",
                "note": 78,
                "channel": 0,
                "velocity": 93,
                "time": 0
            },
            {
                "type": "note_off",
                "note": 78,
                "channel": 0,
                "velocity": 93,
                "time": 120
            },
            {
                "type": "note_on",
                "note": 61,
                "channel": 0,
                "velocity": 114,
                "time": 0
            },
            {
                "type": "note_on",
                "note": 66,
                "channel": 0,
                "velocity": 114,
                "time": 0
            },
            {
                "type": "note_on",
                "note": 73,
                "channel": 0,
                "velocity": 114,
                "time": 0
            },
            {
                "type": "note_off",
                "note": 61,
                "channel": 0,
                "velocity": 114,
                "time": 240
            },
            {
                "type": "note_off",
                "note": 66,
                "channel": 0,
                "velocity": 114,
                "time": 0
            },
            {
                "type": "note_off",
                "note": 73,
                "channel": 0,
                "velocity": 114,
                "time": 0
            },
            {
                "type": "note_on",
                "note": 61,
                "channel": 0,
                "velocity": 114,
                "time": 0
            },
            {
                "type": "note_on",
                "note": 73,
                "channel": 0,
                "velocity": 114,
                "time": 0
            },
            {
                "type": "note_off",
                "note": 61,
                "channel": 0,
                "velocity": 114,
                "time": 120
            },
            {
                "type": "note_off",
                "note": 73,
                "channel": 0,
                "velocity": 114,
                "time": 0
            },
            {
                "type": "note_on",
                "note": 63,
                "channel": 0,
                "velocity": 114,
                "time": 0
            },
            {
                "type": "note_on",
                "note": 75,
                "channel": 0,
                "velocity": 114,
                "time": 0
            },
            {
                "type": "note_off",
                "note": 63,
                "channel": 0,
                "velocity": 114,
                "time": 120
            },
            {
                "type": "note_off",
                "note": 75,
                "channel": 0,
                "velocity": 114,
                "time": 0
            },
            {
                "type": "note_on",
                "note": 61,
                "channel": 0,
                "velocity": 93,
                "time": 0
            },
            {
                "type": "note_on",
                "note": 66,
                "channel": 0,
                "velocity": 93,
                "time": 0
            },
            {
                "type": "note_on",
                "note": 73,
                "channel": 0,
                "velocity": 93,
                "time": 0
            },
            {
                "type": "note_off",
                "note": 61,
                "channel": 0,
                "velocity": 93,
                "time": 240
            },
            {
                "type": "note_off",
                "note": 66,
                "channel": 0,
                "velocity": 93,
                "time": 0
            },
            {
                "type": "note_off",
                "note": 73,
                "channel": 0,
                "velocity": 93,
                "time": 0
            },
            {
                "type": "note_on",
                "note": 59,
                "channel": 0,
                "velocity": 93,
                "time": 0
            },
            {
                "type": "note_on",
                "note": 71,
                "channel": 0,
                "velocity": 93,
                "time": 0
            },
            {
                "type": "note_off",
                "note": 59,
                "channel": 0,
                "velocity": 93,
                "time": 120
            },
            {
                "type": "note_off",
                "note": 71,
                "channel": 0,
                "velocity": 93,
                "time": 0
            },
            {
                "type": "note_on",
                "note": 56,
                "channel": 0,
                "velocity": 93,
                "time": 0
            },
            {
                "type": "note_on",
                "note": 68,
                "channel": 0,
                "velocity": 93,
                "time": 0
            },
            {
                "type": "note_off",
                "note": 56,
                "channel": 0,
                "velocity": 93,
                "time": 120
            },
            {
                "type": "note_off",
                "note": 68,
                "channel": 0,
                "velocity": 93,
                "time": 0
            },
            {
                "type": "note_on",
                "note": 56,
                "channel": 0,
                "velocity": 104,
                "time": 0
            },
            {
                "type": "note_on",
                "note": 68,
                "channel": 0,
                "velocity": 104,
                "time": 0
            },
            {
                "type": "note_off",
                "note": 56,
                "channel": 0,
                "velocity": 104,
                "time": 360
            },
            {
                "type": "note_off",
                "note": 68,
                "channel": 0,
                "velocity": 104,
                "time": 0
            },
            {
                "type": "note_on",
                "note": 75,
                "channel": 0,
                "velocity": 104,
                "time": 0
            },
            {
                "type": "note_off",
                "note": 75,
                "channel": 0,
                "velocity": 104,
                "time": 120
            },
            {
                "type": "note_on",
                "note": 71,
                "channel": 0,
                "velocity": 93,
                "time": 0
            },
            {
                "type": "note_off",
                "note": 71,
                "channel": 0,
                "velocity": 93,
                "time": 120
            },
            {
                "type": "note_on",
                "note": 73,
                "channel": 0,
                "velocity": 93,
                "time": 0
            },
            {
                "type": "note_off",
                "note": 73,
                "channel": 0,
                "velocity": 93,
                "time": 120
            },
            {
                "type": "note_on",
                "note": 75,
                "channel": 0,
                "velocity": 93,
                "time": 0
            },
            {
                "type": "note_off",
                "note": 75,
                "channel": 0,
                "velocity": 93,
                "time": 120
            },
            {
                "type": "note_on",
                "note": 78,
                "channel": 0,
                "velocity": 93,
                "time": 0
            },
            {
                "type": "note_off",
                "note": 78,
                "channel": 0,
                "velocity": 93,
                "time": 120
            },
            {
                "type": "note_on",
                "note": 63,
                "channel": 0,
                "velocity": 114,
                "time": 0
            },
            {
                "type": "note_on",
                "note": 68,
                "channel": 0,
                "velocity": 114,
                "time": 0
            },
            {
                "type": "note_off",
                "note": 63,
                "channel": 0,
                "velocity": 114,
                "time": 480
            },
            {
                "type": "note_off",
                "note": 68,
                "channel": 0,
                "velocity": 114,
                "time": 0
            },
            {
                "type": "note_on",
                "note": 63,
                "channel": 0,
                "velocity": 93,
                "time": 0
            },
            {
                "type": "note_on",
                "note": 66,
                "channel": 0,
                "velocity": 93,
                "time": 0
            },
            {
                "type": "note_off",
                "note": 63,
                "channel": 0,
                "velocity": 93,
                "time": 480
            },
            {
                "type": "note_off",
                "note": 66,
                "channel": 0,
                "velocity": 93,
                "time": 0
            },
            {
                "type": "note_on",
                "note": 64,
                "channel": 0,
                "velocity": 104,
                "time": 0
            },
            {
                "type": "note_on",
                "note": 68,
                "channel": 0,
                "velocity": 104,
                "time": 0
            },
            {
                "type": "note_on",
                "note": 71,
                "channel": 0,
                "velocity": 104,
                "time": 0
            },
            {
                "type": "note_off",
                "note": 64,
                "channel": 0,
                "velocity": 104,
                "time": 480
            },
            {
                "type": "note_off",
                "note": 68,
                "channel": 0,
                "velocity": 104,
                "time": 0
            },
            {
                "type": "note_off",
                "note": 71,
                "channel": 0,
                "velocity": 104,
                "time": 0
            },
            {
                "type": "note_on",
                "note": 64,
                "channel": 0,
                "velocity": 93,
                "time": 0
            },
            {
                "type": "note_on",
                "note": 75,
                "channel": 0,
                "velocity": 93,
                "time": 0
            },
            {
                "type": "note_off",
                "note": 64,
                "channel": 0,
                "velocity": 93,
                "time": 480
            },
            {
                "type": "note_off",
                "note": 75,
                "channel": 0,
                "velocity": 93,
                "time": 0
            },
            {
                "type": "note_on",
                "note": 70,
                "channel": 0,
                "velocity": 114,
                "time": 0
            },
            {
                "type": "note_on",
                "note": 73,
                "channel": 0,
                "velocity": 114,
                "time": 0
            },
            {
                "type": "note_off",
                "note": 70,
                "channel": 0,
                "velocity": 114,
                "time": 480
            },
            {
                "type": "note_off",
                "note": 73,
                "channel": 0,
                "velocity": 114,
                "time": 0
            },
            {
                "type": "note_on",
                "note": 66,
                "channel": 0,
                "velocity": 93,
                "time": 0
            },
            {
                "type": "note_off",
                "note": 66,
                "channel": 0,
                "velocity": 93,
                "time": 240
            },
            {
                "type": "note_on",
                "note": 64,
                "channel": 0,
                "velocity": 93,
                "time": 0
            },
            {
                "type": "note_on",
                "note": 71,
                "channel": 0,
                "velocity": 93,
                "time": 0
            },
            {
                "type": "note_off",
                "note": 64,
                "channel": 0,
                "velocity": 93,
                "time": 120
            },
            {
                "type": "note_off",
                "note": 71,
                "channel": 0,
                "velocity": 93,
                "time": 0
            },
            {
                "type": "note_on",
                "note": 73,
                "channel": 0,
                "velocity": 93,
                "time": 0
            },
            {
                "type": "note_off",
                "note": 73,
                "channel": 0,
                "velocity": 93,
                "time": 120
            },
            {
                "type": "note_on",
                "note": 63,
                "channel": 0,
                "velocity": 104,
                "time": 0
            },
            {
                "type": "note_on",
                "note": 71,
                "channel": 0,
                "velocity": 104,
                "time": 0
            },
            {
                "type": "note_on",
                "note": 75,
                "channel": 0,
                "velocity": 104,
                "time": 0
            },
            {
                "type": "note_off",
                "note": 63,
                "channel": 0,
                "velocity": 104,
                "time": 360
            },
            {
                "type": "note_off",
                "note": 71,
                "channel": 0,
                "velocity": 104,
                "time": 0
            },
            {
                "type": "note_off",
                "note": 75,
                "channel": 0,
                "velocity": 104,
                "time": 0
            },
            {
                "type": "note_on",
                "note": 63,
                "channel": 0,
                "velocity": 104,
                "time": 0
            },
            {
                "type": "note_off",
                "note": 63,
                "channel": 0,
                "velocity": 104,
                "time": 120
            },
            {
                "type": "note_on",
                "note": 66,
                "channel": 0,
                "velocity": 93,
                "time": 0
            },
            {
                "type": "note_off",
                "note": 66,
                "channel": 0,
                "velocity": 93,
                "time": 240
            },
            {
                "type": "note_on",
                "note": 73,
                "channel": 0,
                "velocity": 93,
                "time": 0
            },
            {
                "type": "note_off",
                "note": 73,
                "channel": 0,
                "velocity": 93,
                "time": 240
            },
            {
                "type": "note_on",
                "note": 63,
                "channel": 0,
                "velocity": 114,
                "time": 0
            },
            {
                "type": "note_on",
                "note": 66,
                "channel": 0,
                "velocity": 114,
                "time": 0
            },
            {
                "type": "note_on",
                "note": 68,
                "channel": 0,
                "velocity": 114,
                "time": 0
            },
            {
                "type": "note_on",
                "note": 71,
                "channel": 0,
                "velocity": 114,
                "time": 0
            },
            {
                "type": "note_off",
                "note": 63,
                "channel": 0,
                "velocity": 114,
                "time": 480
            },
            {
                "type": "note_off",
                "note": 66,
                "channel": 0,
                "velocity": 114,
                "time": 0
            },
            {
                "type": "note_off",
                "note": 68,
                "channel": 0,
                "velocity": 114,
                "time": 0
            },
            {
                "type": "note_off",
                "note": 71,
                "channel": 0,
                "velocity": 114,
                "time": 0
            },
            {
                "type": "note_on",
                "note": 63,
                "channel": 0,
                "velocity": 93,
                "time": 0
            },
            {
                "type": "note_on",
                "note": 66,
                "channel": 0,
                "velocity": 93,
                "time": 0
            },
            {
                "type": "note_off",
                "note": 63,
                "channel": 0,
                "velocity": 93,
                "time": 720
            },
            {
                "type": "note_off",
                "note": 66,
                "channel": 0,
                "velocity": 93,
                "time": 0
            },
            {
                "type": "note_on",
                "note": 68,
                "channel": 0,
                "velocity": 104,
                "time": 0
            },
            {
                "type": "note_off",
                "note": 68,
                "channel": 0,
                "velocity": 104,
                "time": 120
            },
            {
                "type": "note_on",
                "note": 68,
                "channel": 0,
                "velocity": 104,
                "time": 0
            },
            {
                "type": "note_on",
                "note": 71,
                "channel": 0,
                "velocity": 104,
                "time": 0
            },
            {
                "type": "note_off",
                "note": 68,
                "channel": 0,
                "velocity": 104,
                "time": 120
            },
            {
                "type": "note_off",
                "note": 71,
                "channel": 0,
                "velocity": 104,
                "time": 0
            },
            {
                "type": "note_on",
                "note": 71,
                "channel": 0,
                "velocity": 93,
                "time": 0
            },
            {
                "type": "note_on",
                "note": 73,
                "channel": 0,
                "velocity": 93,
                "time": 0
            },
            {
                "type": "note_off",
                "note": 71,
                "channel": 0,
                "velocity": 93,
                "time": 120
            },
            {
                "type": "note_off",
                "note": 73,
                "channel": 0,
                "velocity": 93,
                "time": 0
            },
            {
                "type": "note_on",
                "note": 68,
                "channel": 0,
                "velocity": 93,
                "time": 0
            },
            {
                "type": "note_off",
                "note": 68,
                "channel": 0,
                "velocity": 93,
                "time": 120
            },
            {
                "type": "note_on",
                "note": 75,
                "channel": 0,
                "velocity": 93,
                "time": 0
            },
            {
                "type": "note_off",
                "note": 75,
                "channel": 0,
                "velocity": 93,
                "time": 120
            },
            {
                "type": "note_on",
                "note": 78,
                "channel": 0,
                "velocity": 93,
                "time": 0
            },
            {
                "type": "note_off",
                "note": 78,
                "channel": 0,
                "velocity": 93,
                "time": 120
            },
            {
                "type": "note_on",
                "note": 61,
                "channel": 0,
                "velocity": 114,
                "time": 0
            },
            {
                "type": "note_on",
                "note": 66,
                "channel": 0,
                "velocity": 114,
                "time": 0
            },
            {
                "type": "note_on",
                "note": 70,
                "channel": 0,
                "velocity": 114,
                "time": 0
            },
            {
                "type": "note_on",
                "note": 73,
                "channel": 0,
                "velocity": 114,
                "time": 0
            },
            {
                "type": "note_off",
                "note": 61,
                "channel": 0,
                "velocity": 114,
                "time": 480
            },
            {
                "type": "note_off",
                "note": 66,
                "channel": 0,
                "velocity": 114,
                "time": 0
            },
            {
                "type": "note_off",
                "note": 70,
                "channel": 0,
                "velocity": 114,
                "time": 0
            },
            {
                "type": "note_off",
                "note": 73,
                "channel": 0,
                "velocity": 114,
                "time": 0
            },
            {
                "type": "note_on",
                "note": 61,
                "channel": 0,
                "velocity": 93,
                "time": 0
            },
            {
                "type": "note_on",
                "note": 66,
                "channel": 0,
                "velocity": 93,
                "time": 0
            },
            {
                "type": "note_off",
                "note": 61,
                "channel": 0,
                "velocity": 93,
                "time": 240
            },
            {
                "type": "note_off",
                "note": 66,
                "channel": 0,
                "velocity": 93,
                "time": 0
            },
            {
                "type": "note_on",
                "note": 75,
                "channel": 0,
                "velocity": 93,
                "time": 0
            },
            {
                "type": "note_off",
                "note": 75,
                "channel": 0,
                "velocity": 93,
                "time": 30
            },
            {
                "type": "note_on",
                "note": 78,
                "channel": 0,
                "velocity": 93,
                "time": 0
            },
            {
                "type": "note_off",
                "note": 78,
                "channel": 0,
                "velocity": 93,
                "time": 210
            },
            {
                "type": "note_on",
                "note": 73,
                "channel": 0,
                "velocity": 104,
                "time": 0
            },
            {
                "type": "note_off",
                "note": 73,
                "channel": 0,
                "velocity": 104,
                "time": 30
            },
            {
                "type": "note_on",
                "note": 71,
                "channel": 0,
                "velocity": 104,
                "time": 0
            },
            {
                "type": "note_off",
                "note": 71,
                "channel": 0,
                "velocity": 104,
                "time": 30
            },
            {
                "type": "note_on",
                "note": 68,
                "channel": 0,
                "velocity": 104,
                "time": 0
            },
            {
                "type": "note_off",
                "note": 68,
                "channel": 0,
                "velocity": 104,
                "time": 60
            },
            {
                "type": "note_on",
                "note": 80,
                "channel": 0,
                "velocity": 104,
                "time": 0
            },
            {
                "type": "note_off",
                "note": 80,
                "channel": 0,
                "velocity": 104,
                "time": 60
            },
            {
                "type": "note_on",
                "note": 78,
                "channel": 0,
                "velocity": 104,
                "time": 0
            },
            {
                "type": "note_off",
                "note": 78,
                "channel": 0,
                "velocity": 104,
                "time": 60
            },
            {
                "type": "note_on",
                "note": 75,
                "channel": 0,
                "velocity": 104,
                "time": 0
            },
            {
                "type": "note_off",
                "note": 75,
                "channel": 0,
                "velocity": 104,
                "time": 120
            },
            {
                "type": "note_on",
                "note": 73,
                "channel": 0,
                "velocity": 104,
                "time": 0
            },
            {
                "type": "note_off",
                "note": 73,
                "channel": 0,
                "velocity": 104,
                "time": 120
            },
            {
                "type": "note_on",
                "note": 71,
                "channel": 0,
                "velocity": 93,
                "time": 0
            },
            {
                "type": "note_on",
                "note": 75,
                "channel": 0,
                "velocity": 93,
                "time": 0
            },
            {
                "type": "note_off",
                "note": 71,
                "channel": 0,
                "velocity": 93,
                "time": 120
            },
            {
                "type": "note_off",
                "note": 75,
                "channel": 0,
                "velocity": 93,
                "time": 0
            },
            {
                "type": "note_on",
                "note": 73,
                "channel": 0,
                "velocity": 93,
                "time": 0
            },
            {
                "type": "note_off",
                "note": 73,
                "channel": 0,
                "velocity": 93,
                "time": 120
            },
            {
                "type": "note_on",
                "note": 75,
                "channel": 0,
                "velocity": 93,
                "time": 0
            },
            {
                "type": "note_off",
                "note": 75,
                "channel": 0,
                "velocity": 93,
                "time": 120
            },
            {
                "type": "note_on",
                "note": 78,
                "channel": 0,
                "velocity": 93,
                "time": 0
            },
            {
                "type": "note_off",
                "note": 78,
                "channel": 0,
                "velocity": 93,
                "time": 120
            },
            {
                "type": "note_on",
                "note": 64,
                "channel": 0,
                "velocity": 114,
                "time": 0
            },
            {
                "type": "note_on",
                "note": 69,
                "channel": 0,
                "velocity": 114,
                "time": 0
            },
            {
                "type": "note_on",
                "note": 72,
                "channel": 0,
                "velocity": 114,
                "time": 0
            },
            {
                "type": "note_on",
                "note": 76,
                "channel": 0,
                "velocity": 114,
                "time": 0
            },
            {
                "type": "note_off",
                "note": 64,
                "channel": 0,
                "velocity": 114,
                "time": 360
            },
            {
                "type": "note_off",
                "note": 69,
                "channel": 0,
                "velocity": 114,
                "time": 0
            },
            {
                "type": "note_off",
                "note": 72,
                "channel": 0,
                "velocity": 114,
                "time": 0
            },
            {
                "type": "note_off",
                "note": 76,
                "channel": 0,
                "velocity": 114,
                "time": 0
            },
            {
                "type": "note_on",
                "note": 67,
                "channel": 0,
                "velocity": 114,
                "time": 0
            },
            {
                "type": "note_on",
                "note": 79,
                "channel": 0,
                "velocity": 114,
                "time": 0
            },
            {
                "type": "note_off",
                "note": 67,
                "channel": 0,
                "velocity": 114,
                "time": 120
            },
            {
                "type": "note_off",
                "note": 79,
                "channel": 0,
                "velocity": 114,
                "time": 0
            },
            {
                "type": "note_on",
                "note": 69,
                "channel": 0,
                "velocity": 93,
                "time": 0
            },
            {
                "type": "note_on",
                "note": 81,
                "channel": 0,
                "velocity": 93,
                "time": 0
            },
            {
                "type": "note_off",
                "note": 69,
                "channel": 0,
                "velocity": 93,
                "time": 240
            },
            {
                "type": "note_off",
                "note": 81,
                "channel": 0,
                "velocity": 93,
                "time": 0
            },
            {
                "type": "note_on",
                "note": 67,
                "channel": 0,
                "velocity": 93,
                "time": 0
            },
            {
                "type": "note_on",
                "note": 79,
                "channel": 0,
                "velocity": 93,
                "time": 0
            },
            {
                "type": "note_off",
                "note": 67,
                "channel": 0,
                "velocity": 93,
                "time": 240
            },
            {
                "type": "note_off",
                "note": 79,
                "channel": 0,
                "velocity": 93,
                "time": 0
            },
            {
                "type": "note_on",
                "note": 69,
                "channel": 0,
                "velocity": 104,
                "time": 0
            },
            {
                "type": "note_on",
                "note": 72,
                "channel": 0,
                "velocity": 104,
                "time": 0
            },
            {
                "type": "note_on",
                "note": 81,
                "channel": 0,
                "velocity": 104,
                "time": 0
            },
            {
                "type": "note_off",
                "note": 69,
                "channel": 0,
                "velocity": 104,
                "time": 240
            },
            {
                "type": "note_off",
                "note": 72,
                "channel": 0,
                "velocity": 104,
                "time": 0
            },
            {
                "type": "note_off",
                "note": 81,
                "channel": 0,
                "velocity": 104,
                "time": 0
            },
            {
                "type": "note_on",
                "note": 67,
                "channel": 0,
                "velocity": 104,
                "time": 0
            },
            {
                "type": "note_on",
                "note": 79,
                "channel": 0,
                "velocity": 104,
                "time": 0
            },
            {
                "type": "note_off",
                "note": 67,
                "channel": 0,
                "velocity": 104,
                "time": 240
            },
            {
                "type": "note_off",
                "note": 79,
                "channel": 0,
                "velocity": 104,
                "time": 0
            },
            {
                "type": "note_on",
                "note": 64,
                "channel": 0,
                "velocity": 93,
                "time": 0
            },
            {
                "type": "note_on",
                "note": 69,
                "channel": 0,
                "velocity": 93,
                "time": 0
            },
            {
                "type": "note_on",
                "note": 72,
                "channel": 0,
                "velocity": 93,
                "time": 0
            },
            {
                "type": "note_on",
                "note": 76,
                "channel": 0,
                "velocity": 93,
                "time": 0
            },
            {
                "type": "note_off",
                "note": 64,
                "channel": 0,
                "velocity": 93,
                "time": 240
            },
            {
                "type": "note_off",
                "note": 69,
                "channel": 0,
                "velocity": 93,
                "time": 0
            },
            {
                "type": "note_off",
                "note": 72,
                "channel": 0,
                "velocity": 93,
                "time": 0
            },
            {
                "type": "note_off",
                "note": 76,
                "channel": 0,
                "velocity": 93,
                "time": 0
            },
            {
                "type": "note_on",
                "note": 72,
                "channel": 0,
                "velocity": 93,
                "time": 0
            },
            {
                "type": "note_off",
                "note": 72,
                "channel": 0,
                "velocity": 93,
                "time": 120
            },
            {
                "type": "note_on",
                "note": 72,
                "channel": 0,
                "velocity": 93,
                "time": 0
            },
            {
                "type": "note_off",
                "note": 72,
                "channel": 0,
                "velocity": 93,
                "time": 120
            },
            {
                "type": "note_on",
                "note": 62,
                "channel": 0,
                "velocity": 114,
                "time": 0
            },
            {
                "type": "note_on",
                "note": 67,
                "channel": 0,
                "velocity": 114,
                "time": 0
            },
            {
                "type": "note_on",
                "note": 71,
                "channel": 0,
                "velocity": 114,
                "time": 0
            },
            {
                "type": "note_on",
                "note": 74,
                "channel": 0,
                "velocity": 114,
                "time": 0
            },
            {
                "type": "note_off",
                "note": 62,
                "channel": 0,
                "velocity": 114,
                "time": 360
            },
            {
                "type": "note_off",
                "note": 67,
                "channel": 0,
                "velocity": 114,
                "time": 0
            },
            {
                "type": "note_off",
                "note": 71,
                "channel": 0,
                "velocity": 114,
                "time": 0
            },
            {
                "type": "note_off",
                "note": 74,
                "channel": 0,
                "velocity": 114,
                "time": 0
            },
            {
                "type": "note_on",
                "note": 64,
                "channel": 0,
                "velocity": 114,
                "time": 0
            },
            {
                "type": "note_on",
                "note": 76,
                "channel": 0,
                "velocity": 114,
                "time": 0
            },
            {
                "type": "note_off",
                "note": 64,
                "channel": 0,
                "velocity": 114,
                "time": 120
            },
            {
                "type": "note_off",
                "note": 76,
                "channel": 0,
                "velocity": 114,
                "time": 0
            },
            {
                "type": "note_on",
                "note": 67,
                "channel": 0,
                "velocity": 93,
                "time": 0
            },
            {
                "type": "note_on",
                "note": 79,
                "channel": 0,
                "velocity": 93,
                "time": 0
            },
            {
                "type": "note_off",
                "note": 67,
                "channel": 0,
                "velocity": 93,
                "time": 240
            },
            {
                "type": "note_off",
                "note": 79,
                "channel": 0,
                "velocity": 93,
                "time": 0
            },
            {
                "type": "note_on",
                "note": 64,
                "channel": 0,
                "velocity": 93,
                "time": 0
            },
            {
                "type": "note_on",
                "note": 76,
                "channel": 0,
                "velocity": 93,
                "time": 0
            },
            {
                "type": "note_off",
                "note": 64,
                "channel": 0,
                "velocity": 93,
                "time": 240
            },
            {
                "type": "note_off",
                "note": 76,
                "channel": 0,
                "velocity": 93,
                "time": 0
            },
            {
                "type": "note_on",
                "note": 67,
                "channel": 0,
                "velocity": 104,
                "time": 0
            },
            {
                "type": "note_on",
                "note": 72,
                "channel": 0,
                "velocity": 104,
                "time": 0
            },
            {
                "type": "note_on",
                "note": 76,
                "channel": 0,
                "velocity": 104,
                "time": 0
            },
            {
                "type": "note_on",
                "note": 79,
                "channel": 0,
                "velocity": 104,
                "time": 0
            },
            {
                "type": "note_off",
                "note": 67,
                "channel": 0,
                "velocity": 104,
                "time": 240
            },
            {
                "type": "note_off",
                "note": 72,
                "channel": 0,
                "velocity": 104,
                "time": 0
            },
            {
                "type": "note_off",
                "note": 76,
                "channel": 0,
                "velocity": 104,
                "time": 0
            },
            {
                "type": "note_off",
                "note": 79,
                "channel": 0,
                "velocity": 104,
                "time": 0
            },
            {
                "type": "note_on",
                "note": 67,
                "channel": 0,
                "velocity": 104,
                "time": 0
            },
            {
                "type": "note_on",
                "note": 79,
                "channel": 0,
                "velocity": 104,
                "time": 0
            },
            {
                "type": "note_off",
                "note": 67,
                "channel": 0,
                "velocity": 104,
                "time": 60
            },
            {
                "type": "note_off",
                "note": 79,
                "channel": 0,
                "velocity": 104,
                "time": 0
            },
            {
                "type": "note_on",
                "note": 69,
                "channel": 0,
                "velocity": 104,
                "time": 0
            },
            {
                "type": "note_on",
                "note": 81,
                "channel": 0,
                "velocity": 104,
                "time": 0
            },
            {
                "type": "note_off",
                "note": 69,
                "channel": 0,
                "velocity": 104,
                "time": 180
            },
            {
                "type": "note_off",
                "note": 81,
                "channel": 0,
                "velocity": 104,
                "time": 0
            },
            {
                "type": "note_on",
                "note": 67,
                "channel": 0,
                "velocity": 93,
                "time": 0
            },
            {
                "type": "note_on",
                "note": 74,
                "channel": 0,
                "velocity": 93,
                "time": 0
            },
            {
                "type": "note_on",
                "note": 79,
                "channel": 0,
                "velocity": 93,
                "time": 0
            },
            {
                "type": "note_off",
                "note": 67,
                "channel": 0,
                "velocity": 93,
                "time": 120
            },
            {
                "type": "note_off",
                "note": 74,
                "channel": 0,
                "velocity": 93,
                "time": 0
            },
            {
                "type": "note_off",
                "note": 79,
                "channel": 0,
                "velocity": 93,
                "time": 0
            },
            {
                "type": "note_on",
                "note": 72,
                "channel": 0,
                "velocity": 93,
                "time": 0
            },
            {
                "type": "note_off",
                "note": 72,
                "channel": 0,
                "velocity": 93,
                "time": 60
            },
            {
                "type": "note_on",
                "note": 74,
                "channel": 0,
                "velocity": 93,
                "time": 0
            },
            {
                "type": "note_off",
                "note": 74,
                "channel": 0,
                "velocity": 93,
                "time": 60
            },
            {
                "type": "note_on",
                "note": 76,
                "channel": 0,
                "velocity": 93,
                "time": 0
            },
            {
                "type": "note_off",
                "note": 76,
                "channel": 0,
                "velocity": 93,
                "time": 120
            },
            {
                "type": "note_on",
                "note": 79,
                "channel": 0,
                "velocity": 93,
                "time": 0
            },
            {
                "type": "note_off",
                "note": 79,
                "channel": 0,
                "velocity": 93,
                "time": 120
            },
            {
                "type": "note_on",
                "note": 64,
                "channel": 0,
                "velocity": 114,
                "time": 0
            },
            {
                "type": "note_on",
                "note": 69,
                "channel": 0,
                "velocity": 114,
                "time": 0
            },
            {
                "type": "note_on",
                "note": 76,
                "channel": 0,
                "velocity": 114,
                "time": 0
            },
            {
                "type": "note_off",
                "note": 64,
                "channel": 0,
                "velocity": 114,
                "time": 360
            },
            {
                "type": "note_off",
                "note": 69,
                "channel": 0,
                "velocity": 114,
                "time": 0
            },
            {
                "type": "note_off",
                "note": 76,
                "channel": 0,
                "velocity": 114,
                "time": 0
            },
            {
                "type": "note_on",
                "note": 67,
                "channel": 0,
                "velocity": 114,
                "time": 0
            },
            {
                "type": "note_on",
                "note": 76,
                "channel": 0,
                "velocity": 114,
                "time": 0
            },
            {
                "type": "note_on",
                "note": 79,
                "channel": 0,
                "velocity": 114,
                "time": 0
            },
            {
                "type": "note_off",
                "note": 67,
                "channel": 0,
                "velocity": 114,
                "time": 120
            },
            {
                "type": "note_off",
                "note": 76,
                "channel": 0,
                "velocity": 114,
                "time": 0
            },
            {
                "type": "note_off",
                "note": 79,
                "channel": 0,
                "velocity": 114,
                "time": 0
            },
            {
                "type": "note_on",
                "note": 69,
                "channel": 0,
                "velocity": 93,
                "time": 0
            },
            {
                "type": "note_on",
                "note": 81,
                "channel": 0,
                "velocity": 93,
                "time": 0
            },
            {
                "type": "note_off",
                "note": 69,
                "channel": 0,
                "velocity": 93,
                "time": 240
            },
            {
                "type": "note_off",
                "note": 81,
                "channel": 0,
                "velocity": 93,
                "time": 0
            },
            {
                "type": "note_on",
                "note": 67,
                "channel": 0,
                "velocity": 93,
                "time": 0
            },
            {
                "type": "note_on",
                "note": 76,
                "channel": 0,
                "velocity": 93,
                "time": 0
            },
            {
                "type": "note_on",
                "note": 79,
                "channel": 0,
                "velocity": 93,
                "time": 0
            },
            {
                "type": "note_off",
                "note": 67,
                "channel": 0,
                "velocity": 93,
                "time": 240
            },
            {
                "type": "note_off",
                "note": 76,
                "channel": 0,
                "velocity": 93,
                "time": 0
            },
            {
                "type": "note_off",
                "note": 79,
                "channel": 0,
                "velocity": 93,
                "time": 0
            },
            {
                "type": "note_on",
                "note": 69,
                "channel": 0,
                "velocity": 104,
                "time": 0
            },
            {
                "type": "note_on",
                "note": 81,
                "channel": 0,
                "velocity": 104,
                "time": 0
            },
            {
                "type": "note_off",
                "note": 69,
                "channel": 0,
                "velocity": 104,
                "time": 240
            },
            {
                "type": "note_off",
                "note": 81,
                "channel": 0,
                "velocity": 104,
                "time": 0
            },
            {
                "type": "note_on",
                "note": 67,
                "channel": 0,
                "velocity": 104,
                "time": 0
            },
            {
                "type": "note_on",
                "note": 79,
                "channel": 0,
                "velocity": 104,
                "time": 0
            },
            {
                "type": "note_off",
                "note": 67,
                "channel": 0,
                "velocity": 104,
                "time": 240
            },
            {
                "type": "note_off",
                "note": 79,
                "channel": 0,
                "velocity": 104,
                "time": 0
            },
            {
                "type": "note_on",
                "note": 64,
                "channel": 0,
                "velocity": 93,
                "time": 0
            },
            {
                "type": "note_on",
                "note": 71,
                "channel": 0,
                "velocity": 93,
                "time": 0
            },
            {
                "type": "note_on",
                "note": 76,
                "channel": 0,
                "velocity": 93,
                "time": 0
            },
            {
                "type": "note_off",
                "note": 64,
                "channel": 0,
                "velocity": 93,
                "time": 240
            },
            {
                "type": "note_off",
                "note": 71,
                "channel": 0,
                "velocity": 93,
                "time": 0
            },
            {
                "type": "note_off",
                "note": 76,
                "channel": 0,
                "velocity": 93,
                "time": 0
            },
            {
                "type": "note_on",
                "note": 69,
                "channel": 0,
                "velocity": 93,
                "time": 0
            },
            {
                "type": "note_on",
                "note": 76,
                "channel": 0,
                "velocity": 93,
                "time": 0
            },
            {
                "type": "note_off",
                "note": 69,
                "channel": 0,
                "velocity": 93,
                "time": 240
            },
            {
                "type": "note_off",
                "note": 76,
                "channel": 0,
                "velocity": 93,
                "time": 0
            },
            {
                "type": "note_on",
                "note": 62,
                "channel": 0,
                "velocity": 114,
                "time": 0
            },
            {
                "type": "note_on",
                "note": 67,
                "channel": 0,
                "velocity": 114,
                "time": 0
            },
            {
                "type": "note_on",
                "note": 74,
                "channel": 0,
                "velocity": 114,
                "time": 0
            },
            {
                "type": "note_off",
                "note": 62,
                "channel": 0,
                "velocity": 114,
                "time": 240
            },
            {
                "type": "note_off",
                "note": 67,
                "channel": 0,
                "velocity": 114,
                "time": 0
            },
            {
                "type": "note_off",
                "note": 74,
                "channel": 0,
                "velocity": 114,
                "time": 0
            },
            {
                "type": "note_on",
                "note": 64,
                "channel": 0,
                "velocity": 114,
                "time": 0
            },
            {
                "type": "note_on",
                "note": 76,
                "channel": 0,
                "velocity": 114,
                "time": 0
            },
            {
                "type": "note_off",
                "note": 64,
                "channel": 0,
                "velocity": 114,
                "time": 240
            },
            {
                "type": "note_off",
                "note": 76,
                "channel": 0,
                "velocity": 114,
                "time": 0
            },
            {
                "type": "note_on",
                "note": 67,
                "channel": 0,
                "velocity": 93,
                "time": 0
            },
            {
                "type": "note_on",
                "note": 79,
                "channel": 0,
                "velocity": 93,
                "time": 0
            },
            {
                "type": "note_off",
                "note": 67,
                "channel": 0,
                "velocity": 93,
                "time": 240
            },
            {
                "type": "note_off",
                "note": 79,
                "channel": 0,
                "velocity": 93,
                "time": 0
            },
            {
                "type": "note_on",
                "note": 67,
                "channel": 0,
                "velocity": 93,
                "time": 0
            },
            {
                "type": "note_on",
                "note": 79,
                "channel": 0,
                "velocity": 93,
                "time": 0
            },
            {
                "type": "note_off",
                "note": 67,
                "channel": 0,
                "velocity": 93,
                "time": 60
            },
            {
                "type": "note_off",
                "note": 79,
                "channel": 0,
                "velocity": 93,
                "time": 0
            },
            {
                "type": "note_on",
                "note": 69,
                "channel": 0,
                "velocity": 93,
                "time": 0
            },
            {
                "type": "note_on",
                "note": 81,
                "channel": 0,
                "velocity": 93,
                "time": 0
            },
            {
                "type": "note_off",
                "note": 69,
                "channel": 0,
                "velocity": 93,
                "time": 180
            },
            {
                "type": "note_off",
                "note": 81,
                "channel": 0,
                "velocity": 93,
                "time": 0
            },
            {
                "type": "note_on",
                "note": 67,
                "channel": 0,
                "velocity": 104,
                "time": 0
            },
            {
                "type": "note_on",
                "note": 79,
                "channel": 0,
                "velocity": 104,
                "time": 0
            },
            {
                "type": "note_off",
                "note": 67,
                "channel": 0,
                "velocity": 104,
                "time": 120
            },
            {
                "type": "note_off",
                "note": 79,
                "channel": 0,
                "velocity": 104,
                "time": 0
            },
            {
                "type": "note_on",
                "note": 64,
                "channel": 0,
                "velocity": 104,
                "time": 0
            },
            {
                "type": "note_on",
                "note": 76,
                "channel": 0,
                "velocity": 104,
                "time": 0
            },
            {
                "type": "note_off",
                "note": 64,
                "channel": 0,
                "velocity": 104,
                "time": 120
            },
            {
                "type": "note_off",
                "note": 76,
                "channel": 0,
                "velocity": 104,
                "time": 0
            },
            {
                "type": "note_on",
                "note": 72,
                "channel": 0,
                "velocity": 104,
                "time": 0
            },
            {
                "type": "note_off",
                "note": 72,
                "channel": 0,
                "velocity": 104,
                "time": 120
            },
            {
                "type": "note_on",
                "note": 74,
                "channel": 0,
                "velocity": 104,
                "time": 0
            },
            {
                "type": "note_off",
                "note": 74,
                "channel": 0,
                "velocity": 104,
                "time": 120
            },
            {
                "type": "note_on",
                "note": 76,
                "channel": 0,
                "velocity": 93,
                "time": 0
            },
            {
                "type": "note_off",
                "note": 76,
                "channel": 0,
                "velocity": 93,
                "time": 120
            },
            {
                "type": "note_on",
                "note": 74,
                "channel": 0,
                "velocity": 93,
                "time": 0
            },
            {
                "type": "note_off",
                "note": 74,
                "channel": 0,
                "velocity": 93,
                "time": 120
            },
            {
                "type": "note_on",
                "note": 67,
                "channel": 0,
                "velocity": 93,
                "time": 0
            },
            {
                "type": "note_on",
                "note": 76,
                "channel": 0,
                "velocity": 93,
                "time": 0
            },
            {
                "type": "note_off",
                "note": 67,
                "channel": 0,
                "velocity": 93,
                "time": 120
            },
            {
                "type": "note_off",
                "note": 76,
                "channel": 0,
                "velocity": 93,
                "time": 0
            },
            {
                "type": "note_on",
                "note": 79,
                "channel": 0,
                "velocity": 93,
                "time": 0
            },
            {
                "type": "note_off",
                "note": 79,
                "channel": 0,
                "velocity": 93,
                "time": 120
            },
            {
                "type": "note_on",
                "note": 64,
                "channel": 0,
                "velocity": 114,
                "time": 0
            },
            {
                "type": "note_on",
                "note": 69,
                "channel": 0,
                "velocity": 114,
                "time": 0
            },
            {
                "type": "note_on",
                "note": 76,
                "channel": 0,
                "velocity": 114,
                "time": 0
            },
            {
                "type": "note_off",
                "note": 64,
                "channel": 0,
                "velocity": 114,
                "time": 360
            },
            {
                "type": "note_off",
                "note": 69,
                "channel": 0,
                "velocity": 114,
                "time": 0
            },
            {
                "type": "note_off",
                "note": 76,
                "channel": 0,
                "velocity": 114,
                "time": 0
            },
            {
                "type": "note_on",
                "note": 69,
                "channel": 0,
                "velocity": 114,
                "time": 0
            },
            {
                "type": "note_on",
                "note": 79,
                "channel": 0,
                "velocity": 114,
                "time": 0
            },
            {
                "type": "note_off",
                "note": 69,
                "channel": 0,
                "velocity": 114,
                "time": 120
            },
            {
                "type": "note_off",
                "note": 79,
                "channel": 0,
                "velocity": 114,
                "time": 0
            },
            {
                "type": "note_on",
                "note": 69,
                "channel": 0,
                "velocity": 93,
                "time": 0
            },
            {
                "type": "note_on",
                "note": 81,
                "channel": 0,
                "velocity": 93,
                "time": 0
            },
            {
                "type": "note_off",
                "note": 69,
                "channel": 0,
                "velocity": 93,
                "time": 240
            },
            {
                "type": "note_off",
                "note": 81,
                "channel": 0,
                "velocity": 93,
                "time": 0
            },
            {
                "type": "note_on",
                "note": 67,
                "channel": 0,
                "velocity": 93,
                "time": 0
            },
            {
                "type": "note_on",
                "note": 79,
                "channel": 0,
                "velocity": 93,
                "time": 0
            },
            {
                "type": "note_off",
                "note": 67,
                "channel": 0,
                "velocity": 93,
                "time": 240
            },
            {
                "type": "note_off",
                "note": 79,
                "channel": 0,
                "velocity": 93,
                "time": 0
            },
            {
                "type": "note_on",
                "note": 69,
                "channel": 0,
                "velocity": 104,
                "time": 0
            },
            {
                "type": "note_on",
                "note": 81,
                "channel": 0,
                "velocity": 104,
                "time": 0
            },
            {
                "type": "note_off",
                "note": 69,
                "channel": 0,
                "velocity": 104,
                "time": 240
            },
            {
                "type": "note_off",
                "note": 81,
                "channel": 0,
                "velocity": 104,
                "time": 0
            },
            {
                "type": "note_on",
                "note": 67,
                "channel": 0,
                "velocity": 104,
                "time": 0
            },
            {
                "type": "note_on",
                "note": 79,
                "channel": 0,
                "velocity": 104,
                "time": 0
            },
            {
                "type": "note_off",
                "note": 67,
                "channel": 0,
                "velocity": 104,
                "time": 240
            },
            {
                "type": "note_off",
                "note": 79,
                "channel": 0,
                "velocity": 104,
                "time": 0
            },
            {
                "type": "note_on",
                "note": 64,
                "channel": 0,
                "velocity": 93,
                "time": 0
            },
            {
                "type": "note_on",
                "note": 76,
                "channel": 0,
                "velocity": 93,
                "time": 0
            },
            {
                "type": "note_off",
                "note": 64,
                "channel": 0,
                "velocity": 93,
                "time": 240
            },
            {
                "type": "note_off",
                "note": 76,
                "channel": 0,
                "velocity": 93,
                "time": 0
            },
            {
                "type": "note_on",
                "note": 72,
                "channel": 0,
                "velocity": 93,
                "time": 0
            },
            {
                "type": "note_on",
                "note": 79,
                "channel": 0,
                "velocity": 93,
                "time": 0
            },
            {
                "type": "note_off",
                "note": 72,
                "channel": 0,
                "velocity": 93,
                "time": 120
            },
            {
                "type": "note_off",
                "note": 79,
                "channel": 0,
                "velocity": 93,
                "time": 0
            },
            {
                "type": "note_on",
                "note": 76,
                "channel": 0,
                "velocity": 93,
                "time": 0
            },
            {
                "type": "note_off",
                "note": 76,
                "channel": 0,
                "velocity": 93,
                "time": 120
            },
            {
                "type": "note_on",
                "note": 62,
                "channel": 0,
                "velocity": 114,
                "time": 0
            },
            {
                "type": "note_on",
                "note": 69,
                "channel": 0,
                "velocity": 114,
                "time": 0
            },
            {
                "type": "note_on",
                "note": 74,
                "channel": 0,
                "velocity": 114,
                "time": 0
            },
            {
                "type": "note_off",
                "note": 62,
                "channel": 0,
                "velocity": 114,
                "time": 360
            },
            {
                "type": "note_off",
                "note": 69,
                "channel": 0,
                "velocity": 114,
                "time": 0
            },
            {
                "type": "note_off",
                "note": 74,
                "channel": 0,
                "velocity": 114,
                "time": 0
            },
            {
                "type": "note_on",
                "note": 64,
                "channel": 0,
                "velocity": 114,
                "time": 0
            },
            {
                "type": "note_on",
                "note": 76,
                "channel": 0,
                "velocity": 114,
                "time": 0
            },
            {
                "type": "note_off",
                "note": 64,
                "channel": 0,
                "velocity": 114,
                "time": 120
            },
            {
                "type": "note_off",
                "note": 76,
                "channel": 0,
                "velocity": 114,
                "time": 0
            },
            {
                "type": "note_on",
                "note": 67,
                "channel": 0,
                "velocity": 93,
                "time": 0
            },
            {
                "type": "note_on",
                "note": 79,
                "channel": 0,
                "velocity": 93,
                "time": 0
            },
            {
                "type": "note_off",
                "note": 67,
                "channel": 0,
                "velocity": 93,
                "time": 240
            },
            {
                "type": "note_off",
                "note": 79,
                "channel": 0,
                "velocity": 93,
                "time": 0
            },
            {
                "type": "note_on",
                "note": 64,
                "channel": 0,
                "velocity": 93,
                "time": 0
            },
            {
                "type": "note_on",
                "note": 76,
                "channel": 0,
                "velocity": 93,
                "time": 0
            },
            {
                "type": "note_off",
                "note": 64,
                "channel": 0,
                "velocity": 93,
                "time": 240
            },
            {
                "type": "note_off",
                "note": 76,
                "channel": 0,
                "velocity": 93,
                "time": 0
            },
            {
                "type": "note_on",
                "note": 67,
                "channel": 0,
                "velocity": 104,
                "time": 0
            },
            {
                "type": "note_on",
                "note": 79,
                "channel": 0,
                "velocity": 104,
                "time": 0
            },
            {
                "type": "note_off",
                "note": 67,
                "channel": 0,
                "velocity": 104,
                "time": 240
            },
            {
                "type": "note_off",
                "note": 79,
                "channel": 0,
                "velocity": 104,
                "time": 0
            },
            {
                "type": "note_on",
                "note": 67,
                "channel": 0,
                "velocity": 104,
                "time": 0
            },
            {
                "type": "note_on",
                "note": 79,
                "channel": 0,
                "velocity": 104,
                "time": 0
            },
            {
                "type": "note_off",
                "note": 67,
                "channel": 0,
                "velocity": 104,
                "time": 60
            },
            {
                "type": "note_off",
                "note": 79,
                "channel": 0,
                "velocity": 104,
                "time": 0
            },
            {
                "type": "note_on",
                "note": 69,
                "channel": 0,
                "velocity": 104,
                "time": 0
            },
            {
                "type": "note_on",
                "note": 81,
                "channel": 0,
                "velocity": 104,
                "time": 0
            },
            {
                "type": "note_off",
                "note": 69,
                "channel": 0,
                "velocity": 104,
                "time": 180
            },
            {
                "type": "note_off",
                "note": 81,
                "channel": 0,
                "velocity": 104,
                "time": 0
            },
            {
                "type": "note_on",
                "note": 67,
                "channel": 0,
                "velocity": 93,
                "time": 0
            },
            {
                "type": "note_on",
                "note": 79,
                "channel": 0,
                "velocity": 93,
                "time": 0
            },
            {
                "type": "note_off",
                "note": 67,
                "channel": 0,
                "velocity": 93,
                "time": 120
            },
            {
                "type": "note_off",
                "note": 79,
                "channel": 0,
                "velocity": 93,
                "time": 0
            },
            {
                "type": "note_on",
                "note": 64,
                "channel": 0,
                "velocity": 93,
                "time": 0
            },
            {
                "type": "note_on",
                "note": 76,
                "channel": 0,
                "velocity": 93,
                "time": 0
            },
            {
                "type": "note_off",
                "note": 64,
                "channel": 0,
                "velocity": 93,
                "time": 120
            },
            {
                "type": "note_off",
                "note": 76,
                "channel": 0,
                "velocity": 93,
                "time": 0
            },
            {
                "type": "note_on",
                "note": 67,
                "channel": 0,
                "velocity": 93,
                "time": 0
            },
            {
                "type": "note_off",
                "note": 67,
                "channel": 0,
                "velocity": 93,
                "time": 240
            },
            {
                "type": "note_on",
                "note": 64,
                "channel": 0,
                "velocity": 114,
                "time": 0
            },
            {
                "type": "note_on",
                "note": 69,
                "channel": 0,
                "velocity": 114,
                "time": 0
            },
            {
                "type": "note_on",
                "note": 72,
                "channel": 0,
                "velocity": 114,
                "time": 0
            },
            {
                "type": "note_on",
                "note": 76,
                "channel": 0,
                "velocity": 114,
                "time": 0
            },
            {
                "type": "note_off",
                "note": 64,
                "channel": 0,
                "velocity": 114,
                "time": 360
            },
            {
                "type": "note_off",
                "note": 69,
                "channel": 0,
                "velocity": 114,
                "time": 0
            },
            {
                "type": "note_off",
                "note": 72,
                "channel": 0,
                "velocity": 114,
                "time": 0
            },
            {
                "type": "note_off",
                "note": 76,
                "channel": 0,
                "velocity": 114,
                "time": 0
            },
            {
                "type": "note_on",
                "note": 67,
                "channel": 0,
                "velocity": 114,
                "time": 0
            },
            {
                "type": "note_on",
                "note": 79,
                "channel": 0,
                "velocity": 114,
                "time": 0
            },
            {
                "type": "note_off",
                "note": 67,
                "channel": 0,
                "velocity": 114,
                "time": 120
            },
            {
                "type": "note_off",
                "note": 79,
                "channel": 0,
                "velocity": 114,
                "time": 0
            },
            {
                "type": "note_on",
                "note": 69,
                "channel": 0,
                "velocity": 93,
                "time": 0
            },
            {
                "type": "note_on",
                "note": 81,
                "channel": 0,
                "velocity": 93,
                "time": 0
            },
            {
                "type": "note_off",
                "note": 69,
                "channel": 0,
                "velocity": 93,
                "time": 240
            },
            {
                "type": "note_off",
                "note": 81,
                "channel": 0,
                "velocity": 93,
                "time": 0
            },
            {
                "type": "note_on",
                "note": 67,
                "channel": 0,
                "velocity": 93,
                "time": 0
            },
            {
                "type": "note_on",
                "note": 79,
                "channel": 0,
                "velocity": 93,
                "time": 0
            },
            {
                "type": "note_off",
                "note": 67,
                "channel": 0,
                "velocity": 93,
                "time": 240
            },
            {
                "type": "note_off",
                "note": 79,
                "channel": 0,
                "velocity": 93,
                "time": 0
            },
            {
                "type": "note_on",
                "note": 69,
                "channel": 0,
                "velocity": 104,
                "time": 0
            },
            {
                "type": "note_on",
                "note": 81,
                "channel": 0,
                "velocity": 104,
                "time": 0
            },
            {
                "type": "note_off",
                "note": 69,
                "channel": 0,
                "velocity": 104,
                "time": 240
            },
            {
                "type": "note_off",
                "note": 81,
                "channel": 0,
                "velocity": 104,
                "time": 0
            },
            {
                "type": "note_on",
                "note": 67,
                "channel": 0,
                "velocity": 104,
                "time": 0
            },
            {
                "type": "note_on",
                "note": 74,
                "channel": 0,
                "velocity": 104,
                "time": 0
            },
            {
                "type": "note_on",
                "note": 79,
                "channel": 0,
                "velocity": 104,
                "time": 0
            },
            {
                "type": "note_off",
                "note": 67,
                "channel": 0,
                "velocity": 104,
                "time": 240
            },
            {
                "type": "note_off",
                "note": 74,
                "channel": 0,
                "velocity": 104,
                "time": 0
            },
            {
                "type": "note_off",
                "note": 79,
                "channel": 0,
                "velocity": 104,
                "time": 0
            },
            {
                "type": "note_on",
                "note": 64,
                "channel": 0,
                "velocity": 93,
                "time": 0
            },
            {
                "type": "note_on",
                "note": 76,
                "channel": 0,
                "velocity": 93,
                "time": 0
            },
            {
                "type": "note_off",
                "note": 64,
                "channel": 0,
                "velocity": 93,
                "time": 120
            },
            {
                "type": "note_off",
                "note": 76,
                "channel": 0,
                "velocity": 93,
                "time": 0
            },
            {
                "type": "note_on",
                "note": 74,
                "channel": 0,
                "velocity": 93,
                "time": 0
            },
            {
                "type": "note_off",
                "note": 74,
                "channel": 0,
                "velocity": 93,
                "time": 120
            },
            {
                "type": "note_on",
                "note": 67,
                "channel": 0,
                "velocity": 93,
                "time": 0
            },
            {
                "type": "note_on",
                "note": 76,
                "channel": 0,
                "velocity": 93,
                "time": 0
            },
            {
                "type": "note_off",
                "note": 67,
                "channel": 0,
                "velocity": 93,
                "time": 120
            },
            {
                "type": "note_off",
                "note": 76,
                "channel": 0,
                "velocity": 93,
                "time": 0
            },
            {
                "type": "note_on",
                "note": 79,
                "channel": 0,
                "velocity": 93,
                "time": 0
            },
            {
                "type": "note_off",
                "note": 79,
                "channel": 0,
                "velocity": 93,
                "time": 120
            },
            {
                "type": "note_on",
                "note": 62,
                "channel": 0,
                "velocity": 114,
                "time": 0
            },
            {
                "type": "note_on",
                "note": 74,
                "channel": 0,
                "velocity": 114,
                "time": 0
            },
            {
                "type": "note_off",
                "note": 62,
                "channel": 0,
                "velocity": 114,
                "time": 240
            },
            {
                "type": "note_off",
                "note": 74,
                "channel": 0,
                "velocity": 114,
                "time": 0
            },
            {
                "type": "note_on",
                "note": 62,
                "channel": 0,
                "velocity": 114,
                "time": 0
            },
            {
                "type": "note_on",
                "note": 74,
                "channel": 0,
                "velocity": 114,
                "time": 0
            },
            {
                "type": "note_off",
                "note": 62,
                "channel": 0,
                "velocity": 114,
                "time": 120
            },
            {
                "type": "note_off",
                "note": 74,
                "channel": 0,
                "velocity": 114,
                "time": 0
            },
            {
                "type": "note_on",
                "note": 64,
                "channel": 0,
                "velocity": 114,
                "time": 0
            },
            {
                "type": "note_on",
                "note": 76,
                "channel": 0,
                "velocity": 114,
                "time": 0
            },
            {
                "type": "note_off",
                "note": 64,
                "channel": 0,
                "velocity": 114,
                "time": 120
            },
            {
                "type": "note_off",
                "note": 76,
                "channel": 0,
                "velocity": 114,
                "time": 0
            },
            {
                "type": "note_on",
                "note": 62,
                "channel": 0,
                "velocity": 93,
                "time": 0
            },
            {
                "type": "note_on",
                "note": 74,
                "channel": 0,
                "velocity": 93,
                "time": 0
            },
            {
                "type": "note_off",
                "note": 62,
                "channel": 0,
                "velocity": 93,
                "time": 240
            },
            {
                "type": "note_off",
                "note": 74,
                "channel": 0,
                "velocity": 93,
                "time": 0
            },
            {
                "type": "note_on",
                "note": 60,
                "channel": 0,
                "velocity": 93,
                "time": 0
            },
            {
                "type": "note_on",
                "note": 72,
                "channel": 0,
                "velocity": 93,
                "time": 0
            },
            {
                "type": "note_off",
                "note": 60,
                "channel": 0,
                "velocity": 93,
                "time": 120
            },
            {
                "type": "note_off",
                "note": 72,
                "channel": 0,
                "velocity": 93,
                "time": 0
            },
            {
                "type": "note_on",
                "note": 69,
                "channel": 0,
                "velocity": 93,
                "time": 0
            },
            {
                "type": "note_off",
                "note": 69,
                "channel": 0,
                "velocity": 93,
                "time": 120
            },
            {
                "type": "note_on",
                "note": 69,
                "channel": 0,
                "velocity": 104,
                "time": 0
            },
            {
                "type": "note_off",
                "note": 69,
                "channel": 0,
                "velocity": 104,
                "time": 360
            },
            {
                "type": "note_on",
                "note": 76,
                "channel": 0,
                "velocity": 104,
                "time": 0
            },
            {
                "type": "note_off",
                "note": 76,
                "channel": 0,
                "velocity": 104,
                "time": 360
            },
            {
                "type": "note_on",
                "note": 76,
                "channel": 0,
                "velocity": 93,
                "time": 0
            },
            {
                "type": "note_off",
                "note": 76,
                "channel": 0,
                "velocity": 93,
                "time": 120
            },
            {
                "type": "note_on",
                "note": 72,
                "channel": 0,
                "velocity": 93,
                "time": 0
            },
            {
                "type": "note_off",
                "note": 72,
                "channel": 0,
                "velocity": 93,
                "time": 60
            },
            {
                "type": "note_on",
                "note": 74,
                "channel": 0,
                "velocity": 93,
                "time": 0
            },
            {
                "type": "note_off",
                "note": 74,
                "channel": 0,
                "velocity": 93,
                "time": 60
            },
            {
                "type": "note_on",
                "note": 64,
                "channel": 0,
                "velocity": 114,
                "time": 0
            },
            {
                "type": "note_on",
                "note": 76,
                "channel": 0,
                "velocity": 114,
                "time": 0
            },
            {
                "type": "note_off",
                "note": 64,
                "channel": 0,
                "velocity": 114,
                "time": 360
            },
            {
                "type": "note_off",
                "note": 76,
                "channel": 0,
                "velocity": 114,
                "time": 0
            },
            {
                "type": "note_on",
                "note": 79,
                "channel": 0,
                "velocity": 114,
                "time": 0
            },
            {
                "type": "note_off",
                "note": 79,
                "channel": 0,
                "velocity": 114,
                "time": 120
            },
            {
                "type": "note_on",
                "note": 72,
                "channel": 0,
                "velocity": 93,
                "time": 0
            },
            {
                "type": "note_on",
                "note": 81,
                "channel": 0,
                "velocity": 93,
                "time": 0
            },
            {
                "type": "note_off",
                "note": 72,
                "channel": 0,
                "velocity": 93,
                "time": 240
            },
            {
                "type": "note_off",
                "note": 81,
                "channel": 0,
                "velocity": 93,
                "time": 0
            },
            {
                "type": "note_on",
                "note": 79,
                "channel": 0,
                "velocity": 93,
                "time": 0
            },
            {
                "type": "note_off",
                "note": 79,
                "channel": 0,
                "velocity": 93,
                "time": 240
            },
            {
                "type": "note_on",
                "note": 72,
                "channel": 0,
                "velocity": 104,
                "time": 0
            },
            {
                "type": "note_on",
                "note": 81,
                "channel": 0,
                "velocity": 104,
                "time": 0
            },
            {
                "type": "note_off",
                "note": 72,
                "channel": 0,
                "velocity": 104,
                "time": 240
            },
            {
                "type": "note_off",
                "note": 81,
                "channel": 0,
                "velocity": 104,
                "time": 0
            },
            {
                "type": "note_on",
                "note": 79,
                "channel": 0,
                "velocity": 104,
                "time": 0
            },
            {
                "type": "note_off",
                "note": 79,
                "channel": 0,
                "velocity": 104,
                "time": 120
            },
            {
                "type": "note_on",
                "note": 81,
                "channel": 0,
                "velocity": 104,
                "time": 0
            },
            {
                "type": "note_off",
                "note": 81,
                "channel": 0,
                "velocity": 104,
                "time": 60
            },
            {
                "type": "note_on",
                "note": 79,
                "channel": 0,
                "velocity": 104,
                "time": 0
            },
            {
                "type": "note_off",
                "note": 79,
                "channel": 0,
                "velocity": 104,
                "time": 60
            },
            {
                "type": "note_on",
                "note": 65,
                "channel": 0,
                "velocity": 93,
                "time": 0
            },
            {
                "type": "note_on",
                "note": 76,
                "channel": 0,
                "velocity": 93,
                "time": 0
            },
            {
                "type": "note_off",
                "note": 65,
                "channel": 0,
                "velocity": 93,
                "time": 480
            },
            {
                "type": "note_off",
                "note": 76,
                "channel": 0,
                "velocity": 93,
                "time": 0
            },
            {
                "type": "note_on",
                "note": 62,
                "channel": 0,
                "velocity": 114,
                "time": 0
            },
            {
                "type": "note_on",
                "note": 71,
                "channel": 0,
                "velocity": 114,
                "time": 0
            },
            {
                "type": "note_on",
                "note": 74,
                "channel": 0,
                "velocity": 114,
                "time": 0
            },
            {
                "type": "note_off",
                "note": 62,
                "channel": 0,
                "velocity": 114,
                "time": 360
            },
            {
                "type": "note_off",
                "note": 71,
                "channel": 0,
                "velocity": 114,
                "time": 0
            },
            {
                "type": "note_off",
                "note": 74,
                "channel": 0,
                "velocity": 114,
                "time": 0
            },
            {
                "type": "note_on",
                "note": 76,
                "channel": 0,
                "velocity": 114,
                "time": 0
            },
            {
                "type": "note_off",
                "note": 76,
                "channel": 0,
                "velocity": 114,
                "time": 120
            },
            {
                "type": "note_on",
                "note": 67,
                "channel": 0,
                "velocity": 93,
                "time": 0
            },
            {
                "type": "note_on",
                "note": 79,
                "channel": 0,
                "velocity": 93,
                "time": 0
            },
            {
                "type": "note_off",
                "note": 67,
                "channel": 0,
                "velocity": 93,
                "time": 240
            },
            {
                "type": "note_off",
                "note": 79,
                "channel": 0,
                "velocity": 93,
                "time": 0
            },
            {
                "type": "note_on",
                "note": 65,
                "channel": 0,
                "velocity": 93,
                "time": 0
            },
            {
                "type": "note_on",
                "note": 76,
                "channel": 0,
                "velocity": 93,
                "time": 0
            },
            {
                "type": "note_off",
                "note": 65,
                "channel": 0,
                "velocity": 93,
                "time": 240
            },
            {
                "type": "note_off",
                "note": 76,
                "channel": 0,
                "velocity": 93,
                "time": 0
            },
            {
                "type": "note_on",
                "note": 64,
                "channel": 0,
                "velocity": 104,
                "time": 0
            },
            {
                "type": "note_on",
                "note": 72,
                "channel": 0,
                "velocity": 104,
                "time": 0
            },
            {
                "type": "note_on",
                "note": 76,
                "channel": 0,
                "velocity": 104,
                "time": 0
            },
            {
                "type": "note_off",
                "note": 64,
                "channel": 0,
                "velocity": 104,
                "time": 240
            },
            {
                "type": "note_off",
                "note": 72,
                "channel": 0,
                "velocity": 104,
                "time": 0
            },
            {
                "type": "note_off",
                "note": 76,
                "channel": 0,
                "velocity": 104,
                "time": 0
            },
            {
                "type": "note_on",
                "note": 79,
                "channel": 0,
                "velocity": 104,
                "time": 0
            },
            {
                "type": "note_off",
                "note": 79,
                "channel": 0,
                "velocity": 104,
                "time": 240
            },
            {
                "type": "note_on",
                "note": 67,
                "channel": 0,
                "velocity": 93,
                "time": 0
            },
            {
                "type": "note_on",
                "note": 76,
                "channel": 0,
                "velocity": 93,
                "time": 0
            },
            {
                "type": "note_off",
                "note": 67,
                "channel": 0,
                "velocity": 93,
                "time": 360
            },
            {
                "type": "note_off",
                "note": 76,
                "channel": 0,
                "velocity": 93,
                "time": 0
            },
            {
                "type": "note_on",
                "note": 72,
                "channel": 0,
                "velocity": 93,
                "time": 0
            },
            {
                "type": "note_off",
                "note": 72,
                "channel": 0,
                "velocity": 93,
                "time": 60
            },
            {
                "type": "note_on",
                "note": 74,
                "channel": 0,
                "velocity": 93,
                "time": 0
            },
            {
                "type": "note_off",
                "note": 74,
                "channel": 0,
                "velocity": 93,
                "time": 60
            },
            {
                "type": "note_on",
                "note": 64,
                "channel": 0,
                "velocity": 114,
                "time": 0
            },
            {
                "type": "note_on",
                "note": 72,
                "channel": 0,
                "velocity": 114,
                "time": 0
            },
            {
                "type": "note_on",
                "note": 76,
                "channel": 0,
                "velocity": 114,
                "time": 0
            },
            {
                "type": "note_off",
                "note": 64,
                "channel": 0,
                "velocity": 114,
                "time": 360
            },
            {
                "type": "note_off",
                "note": 72,
                "channel": 0,
                "velocity": 114,
                "time": 0
            },
            {
                "type": "note_off",
                "note": 76,
                "channel": 0,
                "velocity": 114,
                "time": 0
            },
            {
                "type": "note_on",
                "note": 79,
                "channel": 0,
                "velocity": 114,
                "time": 0
            },
            {
                "type": "note_off",
                "note": 79,
                "channel": 0,
                "velocity": 114,
                "time": 120
            },
            {
                "type": "note_on",
                "note": 81,
                "channel": 0,
                "velocity": 93,
                "time": 0
            },
            {
                "type": "note_off",
                "note": 81,
                "channel": 0,
                "velocity": 93,
                "time": 240
            },
            {
                "type": "note_on",
                "note": 79,
                "channel": 0,
                "velocity": 93,
                "time": 0
            },
            {
                "type": "note_off",
                "note": 79,
                "channel": 0,
                "velocity": 93,
                "time": 240
            },
            {
                "type": "note_on",
                "note": 81,
                "channel": 0,
                "velocity": 104,
                "time": 0
            },
            {
                "type": "note_off",
                "note": 81,
                "channel": 0,
                "velocity": 104,
                "time": 240
            },
            {
                "type": "note_on",
                "note": 79,
                "channel": 0,
                "velocity": 104,
                "time": 0
            },
            {
                "type": "note_off",
                "note": 79,
                "channel": 0,
                "velocity": 104,
                "time": 240
            },
            {
                "type": "note_on",
                "note": 65,
                "channel": 0,
                "velocity": 93,
                "time": 0
            },
            {
                "type": "note_on",
                "note": 76,
                "channel": 0,
                "velocity": 93,
                "time": 0
            },
            {
                "type": "note_off",
                "note": 65,
                "channel": 0,
                "velocity": 93,
                "time": 240
            },
            {
                "type": "note_off",
                "note": 76,
                "channel": 0,
                "velocity": 93,
                "time": 0
            },
            {
                "type": "note_on",
                "note": 74,
                "channel": 0,
                "velocity": 93,
                "time": 0
            },
            {
                "type": "note_off",
                "note": 74,
                "channel": 0,
                "velocity": 93,
                "time": 180
            },
            {
                "type": "note_on",
                "note": 72,
                "channel": 0,
                "velocity": 93,
                "time": 0
            },
            {
                "type": "note_off",
                "note": 72,
                "channel": 0,
                "velocity": 93,
                "time": 60
            },
            {
                "type": "note_on",
                "note": 74,
                "channel": 0,
                "velocity": 114,
                "time": 0
            },
            {
                "type": "note_off",
                "note": 74,
                "channel": 0,
                "velocity": 114,
                "time": 120
            },
            {
                "type": "note_on",
                "note": 76,
                "channel": 0,
                "velocity": 114,
                "time": 0
            },
            {
                "type": "note_off",
                "note": 76,
                "channel": 0,
                "velocity": 114,
                "time": 120
            },
            {
                "type": "note_on",
                "note": 79,
                "channel": 0,
                "velocity": 114,
                "time": 0
            },
            {
                "type": "note_off",
                "note": 79,
                "channel": 0,
                "velocity": 114,
                "time": 120
            },
            {
                "type": "note_on",
                "note": 76,
                "channel": 0,
                "velocity": 114,
                "time": 0
            },
            {
                "type": "note_off",
                "note": 76,
                "channel": 0,
                "velocity": 114,
                "time": 120
            },
            {
                "type": "note_on",
                "note": 62,
                "channel": 0,
                "velocity": 93,
                "time": 0
            },
            {
                "type": "note_on",
                "note": 67,
                "channel": 0,
                "velocity": 93,
                "time": 0
            },
            {
                "type": "note_on",
                "note": 72,
                "channel": 0,
                "velocity": 93,
                "time": 0
            },
            {
                "type": "note_on",
                "note": 74,
                "channel": 0,
                "velocity": 93,
                "time": 0
            },
            {
                "type": "note_off",
                "note": 62,
                "channel": 0,
                "velocity": 93,
                "time": 240
            },
            {
                "type": "note_off",
                "note": 67,
                "channel": 0,
                "velocity": 93,
                "time": 0
            },
            {
                "type": "note_off",
                "note": 72,
                "channel": 0,
                "velocity": 93,
                "time": 0
            },
            {
                "type": "note_off",
                "note": 74,
                "channel": 0,
                "velocity": 93,
                "time": 0
            },
            {
                "type": "note_on",
                "note": 62,
                "channel": 0,
                "velocity": 93,
                "time": 0
            },
            {
                "type": "note_on",
                "note": 72,
                "channel": 0,
                "velocity": 93,
                "time": 0
            },
            {
                "type": "note_on",
                "note": 74,
                "channel": 0,
                "velocity": 93,
                "time": 0
            },
            {
                "type": "note_off",
                "note": 62,
                "channel": 0,
                "velocity": 93,
                "time": 240
            },
            {
                "type": "note_off",
                "note": 72,
                "channel": 0,
                "velocity": 93,
                "time": 0
            },
            {
                "type": "note_off",
                "note": 74,
                "channel": 0,
                "velocity": 93,
                "time": 0
            },
            {
                "type": "note_on",
                "note": 64,
                "channel": 0,
                "velocity": 104,
                "time": 0
            },
            {
                "type": "note_on",
                "note": 69,
                "channel": 0,
                "velocity": 104,
                "time": 0
            },
            {
                "type": "note_off",
                "note": 64,
                "channel": 0,
                "velocity": 104,
                "time": 480
            },
            {
                "type": "note_off",
                "note": 69,
                "channel": 0,
                "velocity": 104,
                "time": 0
            },
            {
                "type": "note_on",
                "note": 64,
                "channel": 0,
                "velocity": 93,
                "time": 0
            },
            {
                "type": "note_off",
                "note": 64,
                "channel": 0,
                "velocity": 93,
                "time": 120
            },
            {
                "type": "note_on",
                "note": 69,
                "channel": 0,
                "velocity": 93,
                "time": 0
            },
            {
                "type": "note_off",
                "note": 69,
                "channel": 0,
                "velocity": 93,
                "time": 120
            },
            {
                "type": "note_on",
                "note": 74,
                "channel": 0,
                "velocity": 93,
                "time": 0
            },
            {
                "type": "note_off",
                "note": 74,
                "channel": 0,
                "velocity": 93,
                "time": 120
            },
            {
                "type": "note_on",
                "note": 76,
                "channel": 0,
                "velocity": 93,
                "time": 0
            },
            {
                "type": "note_off",
                "note": 76,
                "channel": 0,
                "velocity": 93,
                "time": 120
            },
            {
                "type": "note_on",
                "note": 69,
                "channel": 0,
                "velocity": 114,
                "time": 0
            },
            {
                "type": "note_on",
                "note": 73,
                "channel": 0,
                "velocity": 114,
                "time": 0
            },
            {
                "type": "note_off",
                "note": 69,
                "channel": 0,
                "velocity": 114,
                "time": 1920
            },
            {
                "type": "note_off",
                "note": 73,
                "channel": 0,
                "velocity": 114,
                "time": 0
            }
        ]
    },
    "Track2": {
        "time_signature": [],
        "set_tempo": [],
        "program_change": [
            {
                "program": 0,
                "channel": 0,
                "time": 0
            }
        ],
        "key_signature": [
            {
                "key": "B",
                "time": 0
            },
            {
                "key": "C",
                "time": 0
            }
        ],
        "note": [
            {
                "type": "note_on",
                "note": 56,
                "channel": 0,
                "velocity": 88,
                "time": 1920
            },
            {
                "type": "note_off",
                "note": 56,
                "channel": 0,
                "velocity": 88,
                "time": 240
            },
            {
                "type": "note_on",
                "note": 63,
                "channel": 0,
                "velocity": 88,
                "time": 0
            },
            {
                "type": "note_off",
                "note": 63,
                "channel": 0,
                "velocity": 88,
                "time": 120
            },
            {
                "type": "note_on",
                "note": 68,
                "channel": 0,
                "velocity": 88,
                "time": 0
            },
            {
                "type": "note_off",
                "note": 68,
                "channel": 0,
                "velocity": 88,
                "time": 60
            },
            {
                "type": "note_off",
                "note": 96,
                "channel": 0,
                "velocity": 88,
                "time": 60
            },
            {
                "type": "note_on",
                "note": 63,
                "channel": 0,
                "velocity": 68,
                "time": 240
            },
            {
                "type": "note_off",
                "note": 63,
                "channel": 0,
                "velocity": 68,
                "time": 240
            },
            {
                "type": "note_on",
                "note": 52,
                "channel": 0,
                "velocity": 78,
                "time": 0
            },
            {
                "type": "note_off",
                "note": 52,
                "channel": 0,
                "velocity": 78,
                "time": 240
            },
            {
                "type": "note_on",
                "note": 59,
                "channel": 0,
                "velocity": 78,
                "time": 0
            },
            {
                "type": "note_off",
                "note": 59,
                "channel": 0,
                "velocity": 78,
                "time": 240
            },
            {
                "type": "note_on",
                "note": 64,
                "channel": 0,
                "velocity": 68,
                "time": 0
            },
            {
                "type": "note_off",
                "note": 64,
                "channel": 0,
                "velocity": 68,
                "time": 480
            },
            {
                "type": "note_on",
                "note": 54,
                "channel": 0,
                "velocity": 88,
                "time": 0
            },
            {
                "type": "note_on",
                "note": 61,
                "channel": 0,
                "velocity": 88,
                "time": 0
            },
            {
                "type": "note_off",
                "note": 54,
                "channel": 0,
                "velocity": 88,
                "time": 240
            },
            {
                "type": "note_off",
                "note": 61,
                "channel": 0,
                "velocity": 88,
                "time": 0
            },
            {
                "type": "note_on",
                "note": 54,
                "channel": 0,
                "velocity": 88,
                "time": 0
            },
            {
                "type": "note_off",
                "note": 54,
                "channel": 0,
                "velocity": 88,
                "time": 120
            },
            {
                "type": "note_on",
                "note": 58,
                "channel": 0,
                "velocity": 88,
                "time": 0
            },
            {
                "type": "note_on",
                "note": 61,
                "channel": 0,
                "velocity": 88,
                "time": 0
            },
            {
                "type": "note_off",
                "note": 58,
                "channel": 0,
                "velocity": 88,
                "time": 60
            },
            {
                "type": "note_off",
                "note": 61,
                "channel": 0,
                "velocity": 88,
                "time": 0
            },
            {
                "type": "note_off",
                "note": 96,
                "channel": 0,
                "velocity": 88,
                "time": 60
            },
            {
                "type": "note_on",
                "note": 47,
                "channel": 0,
                "velocity": 68,
                "time": 240
            },
            {
                "type": "note_off",
                "note": 47,
                "channel": 0,
                "velocity": 68,
                "time": 240
            },
            {
                "type": "note_on",
                "note": 47,
                "channel": 0,
                "velocity": 78,
                "time": 0
            },
            {
                "type": "note_off",
                "note": 47,
                "channel": 0,
                "velocity": 78,
                "time": 240
            },
            {
                "type": "note_on",
                "note": 66,
                "channel": 0,
                "velocity": 78,
                "time": 0
            },
            {
                "type": "note_off",
                "note": 66,
                "channel": 0,
                "velocity": 78,
                "time": 720
            },
            {
                "type": "note_on",
                "note": 56,
                "channel": 0,
                "velocity": 88,
                "time": 0
            },
            {
                "type": "note_off",
                "note": 56,
                "channel": 0,
                "velocity": 88,
                "time": 240
            },
            {
                "type": "note_on",
                "note": 63,
                "channel": 0,
                "velocity": 88,
                "time": 0
            },
            {
                "type": "note_off",
                "note": 63,
                "channel": 0,
                "velocity": 88,
                "time": 120
            },
            {
                "type": "note_on",
                "note": 59,
                "channel": 0,
                "velocity": 88,
                "time": 0
            },
            {
                "type": "note_off",
                "note": 59,
                "channel": 0,
                "velocity": 88,
                "time": 120
            },
            {
                "type": "note_on",
                "note": 52,
                "channel": 0,
                "velocity": 68,
                "time": 240
            },
            {
                "type": "note_on",
                "note": 59,
                "channel": 0,
                "velocity": 68,
                "time": 0
            },
            {
                "type": "note_off",
                "note": 52,
                "channel": 0,
                "velocity": 68,
                "time": 240
            },
            {
                "type": "note_off",
                "note": 59,
                "channel": 0,
                "velocity": 68,
                "time": 0
            },
            {
                "type": "note_on",
                "note": 52,
                "channel": 0,
                "velocity": 78,
                "time": 0
            },
            {
                "type": "note_off",
                "note": 52,
                "channel": 0,
                "velocity": 78,
                "time": 240
            },
            {
                "type": "note_on",
                "note": 59,
                "channel": 0,
                "velocity": 78,
                "time": 0
            },
            {
                "type": "note_off",
                "note": 59,
                "channel": 0,
                "velocity": 78,
                "time": 720
            },
            {
                "type": "note_on",
                "note": 54,
                "channel": 0,
                "velocity": 88,
                "time": 0
            },
            {
                "type": "note_off",
                "note": 54,
                "channel": 0,
                "velocity": 88,
                "time": 240
            },
            {
                "type": "note_on",
                "note": 61,
                "channel": 0,
                "velocity": 88,
                "time": 0
            },
            {
                "type": "note_off",
                "note": 61,
                "channel": 0,
                "velocity": 88,
                "time": 120
            },
            {
                "type": "note_on",
                "note": 58,
                "channel": 0,
                "velocity": 88,
                "time": 0
            },
            {
                "type": "note_off",
                "note": 58,
                "channel": 0,
                "velocity": 88,
                "time": 600
            },
            {
                "type": "note_on",
                "note": 56,
                "channel": 0,
                "velocity": 78,
                "time": 0
            },
            {
                "type": "note_off",
                "note": 56,
                "channel": 0,
                "velocity": 78,
                "time": 240
            },
            {
                "type": "note_on",
                "note": 63,
                "channel": 0,
                "velocity": 78,
                "time": 0
            },
            {
                "type": "note_off",
                "note": 63,
                "channel": 0,
                "velocity": 78,
                "time": 480
            },
            {
                "type": "note_on",
                "note": 56,
                "channel": 0,
                "velocity": 88,
                "time": 240
            },
            {
                "type": "note_off",
                "note": 56,
                "channel": 0,
                "velocity": 88,
                "time": 960
            },
            {
                "type": "note_on",
                "note": 52,
                "channel": 0,
                "velocity": 78,
                "time": 0
            },
            {
                "type": "note_off",
                "note": 52,
                "channel": 0,
                "velocity": 78,
                "time": 960
            },
            {
                "type": "note_on",
                "note": 54,
                "channel": 0,
                "velocity": 88,
                "time": 0
            },
            {
                "type": "note_off",
                "note": 54,
                "channel": 0,
                "velocity": 88,
                "time": 720
            },
            {
                "type": "note_on",
                "note": 54,
                "channel": 0,
                "velocity": 68,
                "time": 0
            },
            {
                "type": "note_off",
                "note": 54,
                "channel": 0,
                "velocity": 68,
                "time": 240
            },
            {
                "type": "note_on",
                "note": 47,
                "channel": 0,
                "velocity": 78,
                "time": 0
            },
            {
                "type": "note_off",
                "note": 47,
                "channel": 0,
                "velocity": 78,
                "time": 720
            },
            {
                "type": "note_on",
                "note": 44,
                "channel": 0,
                "velocity": 88,
                "time": 240
            },
            {
                "type": "note_on",
                "note": 56,
                "channel": 0,
                "velocity": 88,
                "time": 0
            },
            {
                "type": "note_off",
                "note": 44,
                "channel": 0,
                "velocity": 88,
                "time": 960
            },
            {
                "type": "note_off",
                "note": 56,
                "channel": 0,
                "velocity": 88,
                "time": 0
            },
            {
                "type": "note_on",
                "note": 52,
                "channel": 0,
                "velocity": 78,
                "time": 0
            },
            {
                "type": "note_off",
                "note": 52,
                "channel": 0,
                "velocity": 78,
                "time": 960
            },
            {
                "type": "note_on",
                "note": 42,
                "channel": 0,
                "velocity": 88,
                "time": 0
            },
            {
                "type": "note_on",
                "note": 54,
                "channel": 0,
                "velocity": 88,
                "time": 0
            },
            {
                "type": "note_off",
                "note": 42,
                "channel": 0,
                "velocity": 88,
                "time": 960
            },
            {
                "type": "note_off",
                "note": 54,
                "channel": 0,
                "velocity": 88,
                "time": 0
            },
            {
                "type": "note_on",
                "note": 47,
                "channel": 0,
                "velocity": 78,
                "time": 0
            },
            {
                "type": "note_off",
                "note": 47,
                "channel": 0,
                "velocity": 78,
                "time": 240
            },
            {
                "type": "note_on",
                "note": 54,
                "channel": 0,
                "velocity": 78,
                "time": 0
            },
            {
                "type": "note_off",
                "note": 54,
                "channel": 0,
                "velocity": 78,
                "time": 240
            },
            {
                "type": "note_on",
                "note": 59,
                "channel": 0,
                "velocity": 68,
                "time": 0
            },
            {
                "type": "note_off",
                "note": 59,
                "channel": 0,
                "velocity": 68,
                "time": 480
            },
            {
                "type": "note_on",
                "note": 56,
                "channel": 0,
                "velocity": 88,
                "time": 0
            },
            {
                "type": "note_off",
                "note": 56,
                "channel": 0,
                "velocity": 88,
                "time": 720
            },
            {
                "type": "note_on",
                "note": 56,
                "channel": 0,
                "velocity": 68,
                "time": 0
            },
            {
                "type": "note_off",
                "note": 56,
                "channel": 0,
                "velocity": 68,
                "time": 240
            },
            {
                "type": "note_on",
                "note": 52,
                "channel": 0,
                "velocity": 78,
                "time": 0
            },
            {
                "type": "note_off",
                "note": 52,
                "channel": 0,
                "velocity": 78,
                "time": 960
            },
            {
                "type": "note_on",
                "note": 54,
                "channel": 0,
                "velocity": 88,
                "time": 0
            },
            {
                "type": "note_off",
                "note": 54,
                "channel": 0,
                "velocity": 88,
                "time": 720
            },
            {
                "type": "note_on",
                "note": 54,
                "channel": 0,
                "velocity": 68,
                "time": 0
            },
            {
                "type": "note_off",
                "note": 54,
                "channel": 0,
                "velocity": 68,
                "time": 240
            },
            {
                "type": "note_on",
                "note": 47,
                "channel": 0,
                "velocity": 78,
                "time": 0
            },
            {
                "type": "note_off",
                "note": 47,
                "channel": 0,
                "velocity": 78,
                "time": 960
            },
            {
                "type": "note_on",
                "note": 56,
                "channel": 0,
                "velocity": 88,
                "time": 0
            },
            {
                "type": "note_off",
                "note": 56,
                "channel": 0,
                "velocity": 88,
                "time": 360
            },
            {
                "type": "note_on",
                "note": 63,
                "channel": 0,
                "velocity": 88,
                "time": 0
            },
            {
                "type": "note_off",
                "note": 63,
                "channel": 0,
                "velocity": 88,
                "time": 240
            },
            {
                "type": "note_on",
                "note": 63,
                "channel": 0,
                "velocity": 68,
                "time": 0
            },
            {
                "type": "note_off",
                "note": 63,
                "channel": 0,
                "velocity": 68,
                "time": 120
            },
            {
                "type": "note_on",
                "note": 63,
                "channel": 0,
                "velocity": 68,
                "time": 0
            },
            {
                "type": "note_off",
                "note": 63,
                "channel": 0,
                "velocity": 68,
                "time": 240
            },
            {
                "type": "note_on",
                "note": 52,
                "channel": 0,
                "velocity": 78,
                "time": 0
            },
            {
                "type": "note_off",
                "note": 52,
                "channel": 0,
                "velocity": 78,
                "time": 960
            },
            {
                "type": "note_on",
                "note": 54,
                "channel": 0,
                "velocity": 88,
                "time": 0
            },
            {
                "type": "note_off",
                "note": 54,
                "channel": 0,
                "velocity": 88,
                "time": 360
            },
            {
                "type": "note_on",
                "note": 61,
                "channel": 0,
                "velocity": 88,
                "time": 0
            },
            {
                "type": "note_off",
                "note": 61,
                "channel": 0,
                "velocity": 88,
                "time": 360
            },
            {
                "type": "note_on",
                "note": 54,
                "channel": 0,
                "velocity": 68,
                "time": 0
            },
            {
                "type": "note_off",
                "note": 54,
                "channel": 0,
                "velocity": 68,
                "time": 240
            },
            {
                "type": "note_on",
                "note": 44,
                "channel": 0,
                "velocity": 78,
                "time": 0
            },
            {
                "type": "note_off",
                "note": 44,
                "channel": 0,
                "velocity": 78,
                "time": 240
            },
            {
                "type": "note_on",
                "note": 56,
                "channel": 0,
                "velocity": 78,
                "time": 0
            },
            {
                "type": "note_off",
                "note": 56,
                "channel": 0,
                "velocity": 78,
                "time": 120
            },
            {
                "type": "note_on",
                "note": 51,
                "channel": 0,
                "velocity": 78,
                "time": 0
            },
            {
                "type": "note_off",
                "note": 51,
                "channel": 0,
                "velocity": 78,
                "time": 120
            },
            {
                "type": "note_on",
                "note": 44,
                "channel": 0,
                "velocity": 68,
                "time": 0
            },
            {
                "type": "note_off",
                "note": 44,
                "channel": 0,
                "velocity": 68,
                "time": 240
            },
            {
                "type": "note_on",
                "note": 39,
                "channel": 0,
                "velocity": 68,
                "time": 0
            },
            {
                "type": "note_off",
                "note": 39,
                "channel": 0,
                "velocity": 68,
                "time": 240
            },
            {
                "type": "note_on",
                "note": 32,
                "channel": 0,
                "velocity": 88,
                "time": 0
            },
            {
                "type": "note_on",
                "note": 44,
                "channel": 0,
                "velocity": 88,
                "time": 0
            },
            {
                "type": "note_off",
                "note": 32,
                "channel": 0,
                "velocity": 88,
                "time": 480
            },
            {
                "type": "note_off",
                "note": 44,
                "channel": 0,
                "velocity": 88,
                "time": 0
            },
            {
                "type": "note_on",
                "note": 51,
                "channel": 0,
                "velocity": 68,
                "time": 0
            },
            {
                "type": "note_on",
                "note": 56,
                "channel": 0,
                "velocity": 68,
                "time": 0
            },
            {
                "type": "note_off",
                "note": 51,
                "channel": 0,
                "velocity": 68,
                "time": 240
            },
            {
                "type": "note_off",
                "note": 56,
                "channel": 0,
                "velocity": 68,
                "time": 0
            },
            {
                "type": "note_on",
                "note": 51,
                "channel": 0,
                "velocity": 68,
                "time": 0
            },
            {
                "type": "note_off",
                "note": 51,
                "channel": 0,
                "velocity": 68,
                "time": 240
            },
            {
                "type": "note_on",
                "note": 40,
                "channel": 0,
                "velocity": 78,
                "time": 0
            },
            {
                "type": "note_on",
                "note": 52,
                "channel": 0,
                "velocity": 78,
                "time": 0
            },
            {
                "type": "note_off",
                "note": 40,
                "channel": 0,
                "velocity": 78,
                "time": 240
            },
            {
                "type": "note_off",
                "note": 52,
                "channel": 0,
                "velocity": 78,
                "time": 0
            },
            {
                "type": "note_on",
                "note": 47,
                "channel": 0,
                "velocity": 78,
                "time": 0
            },
            {
                "type": "note_off",
                "note": 47,
                "channel": 0,
                "velocity": 78,
                "time": 240
            },
            {
                "type": "note_on",
                "note": 56,
                "channel": 0,
                "velocity": 68,
                "time": 0
            },
            {
                "type": "note_off",
                "note": 56,
                "channel": 0,
                "velocity": 68,
                "time": 480
            },
            {
                "type": "note_on",
                "note": 42,
                "channel": 0,
                "velocity": 88,
                "time": 0
            },
            {
                "type": "note_on",
                "note": 49,
                "channel": 0,
                "velocity": 88,
                "time": 0
            },
            {
                "type": "note_off",
                "note": 42,
                "channel": 0,
                "velocity": 88,
                "time": 480
            },
            {
                "type": "note_off",
                "note": 49,
                "channel": 0,
                "velocity": 88,
                "time": 0
            },
            {
                "type": "note_on",
                "note": 54,
                "channel": 0,
                "velocity": 68,
                "time": 0
            },
            {
                "type": "note_on",
                "note": 61,
                "channel": 0,
                "velocity": 68,
                "time": 0
            },
            {
                "type": "note_off",
                "note": 54,
                "channel": 0,
                "velocity": 68,
                "time": 240
            },
            {
                "type": "note_off",
                "note": 61,
                "channel": 0,
                "velocity": 68,
                "time": 0
            },
            {
                "type": "note_on",
                "note": 49,
                "channel": 0,
                "velocity": 68,
                "time": 0
            },
            {
                "type": "note_off",
                "note": 49,
                "channel": 0,
                "velocity": 68,
                "time": 240
            },
            {
                "type": "note_on",
                "note": 47,
                "channel": 0,
                "velocity": 78,
                "time": 0
            },
            {
                "type": "note_on",
                "note": 59,
                "channel": 0,
                "velocity": 78,
                "time": 0
            },
            {
                "type": "note_off",
                "note": 47,
                "channel": 0,
                "velocity": 78,
                "time": 480
            },
            {
                "type": "note_off",
                "note": 59,
                "channel": 0,
                "velocity": 78,
                "time": 0
            },
            {
                "type": "note_on",
                "note": 46,
                "channel": 0,
                "velocity": 68,
                "time": 0
            },
            {
                "type": "note_on",
                "note": 58,
                "channel": 0,
                "velocity": 68,
                "time": 0
            },
            {
                "type": "note_off",
                "note": 46,
                "channel": 0,
                "velocity": 68,
                "time": 480
            },
            {
                "type": "note_off",
                "note": 58,
                "channel": 0,
                "velocity": 68,
                "time": 0
            },
            {
                "type": "note_on",
                "note": 44,
                "channel": 0,
                "velocity": 88,
                "time": 0
            },
            {
                "type": "note_on",
                "note": 56,
                "channel": 0,
                "velocity": 88,
                "time": 0
            },
            {
                "type": "note_off",
                "note": 44,
                "channel": 0,
                "velocity": 88,
                "time": 480
            },
            {
                "type": "note_off",
                "note": 56,
                "channel": 0,
                "velocity": 88,
                "time": 0
            },
            {
                "type": "note_on",
                "note": 56,
                "channel": 0,
                "velocity": 68,
                "time": 0
            },
            {
                "type": "note_on",
                "note": 63,
                "channel": 0,
                "velocity": 68,
                "time": 0
            },
            {
                "type": "note_off",
                "note": 56,
                "channel": 0,
                "velocity": 68,
                "time": 480
            },
            {
                "type": "note_off",
                "note": 63,
                "channel": 0,
                "velocity": 68,
                "time": 0
            },
            {
                "type": "note_on",
                "note": 40,
                "channel": 0,
                "velocity": 78,
                "time": 0
            },
            {
                "type": "note_off",
                "note": 40,
                "channel": 0,
                "velocity": 78,
                "time": 240
            },
            {
                "type": "note_on",
                "note": 47,
                "channel": 0,
                "velocity": 78,
                "time": 0
            },
            {
                "type": "note_off",
                "note": 47,
                "channel": 0,
                "velocity": 78,
                "time": 120
            },
            {
                "type": "note_on",
                "note": 52,
                "channel": 0,
                "velocity": 78,
                "time": 0
            },
            {
                "type": "note_off",
                "note": 52,
                "channel": 0,
                "velocity": 78,
                "time": 120
            },
            {
                "type": "note_on",
                "note": 56,
                "channel": 0,
                "velocity": 68,
                "time": 0
            },
            {
                "type": "note_off",
                "note": 56,
                "channel": 0,
                "velocity": 68,
                "time": 480
            },
            {
                "type": "note_on",
                "note": 42,
                "channel": 0,
                "velocity": 88,
                "time": 0
            },
            {
                "type": "note_off",
                "note": 42,
                "channel": 0,
                "velocity": 88,
                "time": 240
            },
            {
                "type": "note_on",
                "note": 49,
                "channel": 0,
                "velocity": 88,
                "time": 0
            },
            {
                "type": "note_off",
                "note": 49,
                "channel": 0,
                "velocity": 88,
                "time": 240
            },
            {
                "type": "note_on",
                "note": 54,
                "channel": 0,
                "velocity": 68,
                "time": 0
            },
            {
                "type": "note_off",
                "note": 54,
                "channel": 0,
                "velocity": 68,
                "time": 240
            },
            {
                "type": "note_on",
                "note": 49,
                "channel": 0,
                "velocity": 68,
                "time": 0
            },
            {
                "type": "note_off",
                "note": 49,
                "channel": 0,
                "velocity": 68,
                "time": 240
            },
            {
                "type": "note_on",
                "note": 44,
                "channel": 0,
                "velocity": 78,
                "time": 0
            },
            {
                "type": "note_off",
                "note": 44,
                "channel": 0,
                "velocity": 78,
                "time": 120
            },
            {
                "type": "note_on",
                "note": 51,
                "channel": 0,
                "velocity": 78,
                "time": 0
            },
            {
                "type": "note_off",
                "note": 51,
                "channel": 0,
                "velocity": 78,
                "time": 240
            },
            {
                "type": "note_on",
                "note": 56,
                "channel": 0,
                "velocity": 78,
                "time": 0
            },
            {
                "type": "note_off",
                "note": 56,
                "channel": 0,
                "velocity": 78,
                "time": 120
            },
            {
                "type": "note_on",
                "note": 59,
                "channel": 0,
                "velocity": 68,
                "time": 0
            },
            {
                "type": "note_off",
                "note": 59,
                "channel": 0,
                "velocity": 68,
                "time": 120
            },
            {
                "type": "note_on",
                "note": 63,
                "channel": 0,
                "velocity": 68,
                "time": 0
            },
            {
                "type": "note_off",
                "note": 63,
                "channel": 0,
                "velocity": 68,
                "time": 360
            },
            {
                "type": "note_on",
                "note": 32,
                "channel": 0,
                "velocity": 88,
                "time": 0
            },
            {
                "type": "note_on",
                "note": 44,
                "channel": 0,
                "velocity": 88,
                "time": 0
            },
            {
                "type": "note_off",
                "note": 32,
                "channel": 0,
                "velocity": 88,
                "time": 480
            },
            {
                "type": "note_off",
                "note": 44,
                "channel": 0,
                "velocity": 88,
                "time": 0
            },
            {
                "type": "note_on",
                "note": 51,
                "channel": 0,
                "velocity": 68,
                "time": 0
            },
            {
                "type": "note_on",
                "note": 56,
                "channel": 0,
                "velocity": 68,
                "time": 0
            },
            {
                "type": "note_off",
                "note": 51,
                "channel": 0,
                "velocity": 68,
                "time": 480
            },
            {
                "type": "note_off",
                "note": 56,
                "channel": 0,
                "velocity": 68,
                "time": 0
            },
            {
                "type": "note_on",
                "note": 40,
                "channel": 0,
                "velocity": 78,
                "time": 0
            },
            {
                "type": "note_off",
                "note": 40,
                "channel": 0,
                "velocity": 78,
                "time": 240
            },
            {
                "type": "note_on",
                "note": 47,
                "channel": 0,
                "velocity": 78,
                "time": 0
            },
            {
                "type": "note_off",
                "note": 47,
                "channel": 0,
                "velocity": 78,
                "time": 240
            },
            {
                "type": "note_on",
                "note": 52,
                "channel": 0,
                "velocity": 68,
                "time": 0
            },
            {
                "type": "note_on",
                "note": 56,
                "channel": 0,
                "velocity": 68,
                "time": 0
            },
            {
                "type": "note_off",
                "note": 52,
                "channel": 0,
                "velocity": 68,
                "time": 480
            },
            {
                "type": "note_off",
                "note": 56,
                "channel": 0,
                "velocity": 68,
                "time": 0
            },
            {
                "type": "note_on",
                "note": 42,
                "channel": 0,
                "velocity": 88,
                "time": 0
            },
            {
                "type": "note_off",
                "note": 42,
                "channel": 0,
                "velocity": 88,
                "time": 240
            },
            {
                "type": "note_on",
                "note": 49,
                "channel": 0,
                "velocity": 88,
                "time": 0
            },
            {
                "type": "note_off",
                "note": 49,
                "channel": 0,
                "velocity": 88,
                "time": 240
            },
            {
                "type": "note_on",
                "note": 54,
                "channel": 0,
                "velocity": 68,
                "time": 0
            },
            {
                "type": "note_on",
                "note": 61,
                "channel": 0,
                "velocity": 68,
                "time": 0
            },
            {
                "type": "note_off",
                "note": 54,
                "channel": 0,
                "velocity": 68,
                "time": 240
            },
            {
                "type": "note_off",
                "note": 61,
                "channel": 0,
                "velocity": 68,
                "time": 0
            },
            {
                "type": "note_on",
                "note": 49,
                "channel": 0,
                "velocity": 68,
                "time": 0
            },
            {
                "type": "note_off",
                "note": 49,
                "channel": 0,
                "velocity": 68,
                "time": 240
            },
            {
                "type": "note_on",
                "note": 47,
                "channel": 0,
                "velocity": 78,
                "time": 0
            },
            {
                "type": "note_on",
                "note": 59,
                "channel": 0,
                "velocity": 78,
                "time": 0
            },
            {
                "type": "note_off",
                "note": 47,
                "channel": 0,
                "velocity": 78,
                "time": 240
            },
            {
                "type": "note_off",
                "note": 59,
                "channel": 0,
                "velocity": 78,
                "time": 0
            },
            {
                "type": "note_on",
                "note": 54,
                "channel": 0,
                "velocity": 78,
                "time": 0
            },
            {
                "type": "note_off",
                "note": 54,
                "channel": 0,
                "velocity": 78,
                "time": 240
            },
            {
                "type": "note_on",
                "note": 46,
                "channel": 0,
                "velocity": 68,
                "time": 0
            },
            {
                "type": "note_on",
                "note": 58,
                "channel": 0,
                "velocity": 68,
                "time": 0
            },
            {
                "type": "note_off",
                "note": 46,
                "channel": 0,
                "velocity": 68,
                "time": 240
            },
            {
                "type": "note_off",
                "note": 58,
                "channel": 0,
                "velocity": 68,
                "time": 0
            },
            {
                "type": "note_on",
                "note": 54,
                "channel": 0,
                "velocity": 68,
                "time": 0
            },
            {
                "type": "note_off",
                "note": 54,
                "channel": 0,
                "velocity": 68,
                "time": 240
            },
            {
                "type": "note_on",
                "note": 44,
                "channel": 0,
                "velocity": 88,
                "time": 0
            },
            {
                "type": "note_on",
                "note": 56,
                "channel": 0,
                "velocity": 88,
                "time": 0
            },
            {
                "type": "note_off",
                "note": 44,
                "channel": 0,
                "velocity": 88,
                "time": 480
            },
            {
                "type": "note_off",
                "note": 56,
                "channel": 0,
                "velocity": 88,
                "time": 0
            },
            {
                "type": "note_on",
                "note": 54,
                "channel": 0,
                "velocity": 68,
                "time": 0
            },
            {
                "type": "note_on",
                "note": 56,
                "channel": 0,
                "velocity": 68,
                "time": 0
            },
            {
                "type": "note_off",
                "note": 54,
                "channel": 0,
                "velocity": 68,
                "time": 240
            },
            {
                "type": "note_off",
                "note": 56,
                "channel": 0,
                "velocity": 68,
                "time": 0
            },
            {
                "type": "note_on",
                "note": 51,
                "channel": 0,
                "velocity": 68,
                "time": 0
            },
            {
                "type": "note_off",
                "note": 51,
                "channel": 0,
                "velocity": 68,
                "time": 240
            },
            {
                "type": "note_on",
                "note": 40,
                "channel": 0,
                "velocity": 78,
                "time": 0
            },
            {
                "type": "note_off",
                "note": 40,
                "channel": 0,
                "velocity": 78,
                "time": 240
            },
            {
                "type": "note_on",
                "note": 47,
                "channel": 0,
                "velocity": 78,
                "time": 0
            },
            {
                "type": "note_off",
                "note": 47,
                "channel": 0,
                "velocity": 78,
                "time": 120
            },
            {
                "type": "note_on",
                "note": 52,
                "channel": 0,
                "velocity": 78,
                "time": 0
            },
            {
                "type": "note_off",
                "note": 52,
                "channel": 0,
                "velocity": 78,
                "time": 120
            },
            {
                "type": "note_on",
                "note": 56,
                "channel": 0,
                "velocity": 68,
                "time": 0
            },
            {
                "type": "note_off",
                "note": 56,
                "channel": 0,
                "velocity": 68,
                "time": 240
            },
            {
                "type": "note_on",
                "note": 47,
                "channel": 0,
                "velocity": 68,
                "time": 0
            },
            {
                "type": "note_off",
                "note": 47,
                "channel": 0,
                "velocity": 68,
                "time": 240
            },
            {
                "type": "note_on",
                "note": 42,
                "channel": 0,
                "velocity": 88,
                "time": 0
            },
            {
                "type": "note_off",
                "note": 42,
                "channel": 0,
                "velocity": 88,
                "time": 240
            },
            {
                "type": "note_on",
                "note": 49,
                "channel": 0,
                "velocity": 88,
                "time": 0
            },
            {
                "type": "note_off",
                "note": 49,
                "channel": 0,
                "velocity": 88,
                "time": 240
            },
            {
                "type": "note_on",
                "note": 54,
                "channel": 0,
                "velocity": 68,
                "time": 0
            },
            {
                "type": "note_off",
                "note": 54,
                "channel": 0,
                "velocity": 68,
                "time": 240
            },
            {
                "type": "note_on",
                "note": 49,
                "channel": 0,
                "velocity": 68,
                "time": 0
            },
            {
                "type": "note_off",
                "note": 49,
                "channel": 0,
                "velocity": 68,
                "time": 240
            },
            {
                "type": "note_on",
                "note": 44,
                "channel": 0,
                "velocity": 78,
                "time": 0
            },
            {
                "type": "note_off",
                "note": 44,
                "channel": 0,
                "velocity": 78,
                "time": 240
            },
            {
                "type": "note_on",
                "note": 51,
                "channel": 0,
                "velocity": 78,
                "time": 0
            },
            {
                "type": "note_off",
                "note": 51,
                "channel": 0,
                "velocity": 78,
                "time": 240
            },
            {
                "type": "note_on",
                "note": 56,
                "channel": 0,
                "velocity": 68,
                "time": 0
            },
            {
                "type": "note_off",
                "note": 56,
                "channel": 0,
                "velocity": 68,
                "time": 240
            },
            {
                "type": "note_on",
                "note": 51,
                "channel": 0,
                "velocity": 68,
                "time": 0
            },
            {
                "type": "note_off",
                "note": 51,
                "channel": 0,
                "velocity": 68,
                "time": 240
            },
            {
                "type": "note_on",
                "note": 44,
                "channel": 0,
                "velocity": 88,
                "time": 0
            },
            {
                "type": "note_on",
                "note": 56,
                "channel": 0,
                "velocity": 88,
                "time": 0
            },
            {
                "type": "note_off",
                "note": 44,
                "channel": 0,
                "velocity": 88,
                "time": 360
            },
            {
                "type": "note_off",
                "note": 56,
                "channel": 0,
                "velocity": 88,
                "time": 0
            },
            {
                "type": "note_on",
                "note": 56,
                "channel": 0,
                "velocity": 88,
                "time": 0
            },
            {
                "type": "note_off",
                "note": 56,
                "channel": 0,
                "velocity": 88,
                "time": 120
            },
            {
                "type": "note_on",
                "note": 54,
                "channel": 0,
                "velocity": 68,
                "time": 0
            },
            {
                "type": "note_on",
                "note": 59,
                "channel": 0,
                "velocity": 68,
                "time": 0
            },
            {
                "type": "note_on",
                "note": 63,
                "channel": 0,
                "velocity": 68,
                "time": 0
            },
            {
                "type": "note_off",
                "note": 54,
                "channel": 0,
                "velocity": 68,
                "time": 480
            },
            {
                "type": "note_off",
                "note": 59,
                "channel": 0,
                "velocity": 68,
                "time": 0
            },
            {
                "type": "note_off",
                "note": 63,
                "channel": 0,
                "velocity": 68,
                "time": 0
            },
            {
                "type": "note_on",
                "note": 40,
                "channel": 0,
                "velocity": 78,
                "time": 0
            },
            {
                "type": "note_off",
                "note": 40,
                "channel": 0,
                "velocity": 78,
                "time": 240
            },
            {
                "type": "note_on",
                "note": 47,
                "channel": 0,
                "velocity": 78,
                "time": 0
            },
            {
                "type": "note_off",
                "note": 47,
                "channel": 0,
                "velocity": 78,
                "time": 240
            },
            {
                "type": "note_on",
                "note": 52,
                "channel": 0,
                "velocity": 68,
                "time": 0
            },
            {
                "type": "note_on",
                "note": 56,
                "channel": 0,
                "velocity": 68,
                "time": 0
            },
            {
                "type": "note_off",
                "note": 52,
                "channel": 0,
                "velocity": 68,
                "time": 480
            },
            {
                "type": "note_off",
                "note": 56,
                "channel": 0,
                "velocity": 68,
                "time": 0
            },
            {
                "type": "note_on",
                "note": 42,
                "channel": 0,
                "velocity": 88,
                "time": 0
            },
            {
                "type": "note_off",
                "note": 42,
                "channel": 0,
                "velocity": 88,
                "time": 240
            },
            {
                "type": "note_on",
                "note": 49,
                "channel": 0,
                "velocity": 88,
                "time": 0
            },
            {
                "type": "note_off",
                "note": 49,
                "channel": 0,
                "velocity": 88,
                "time": 120
            },
            {
                "type": "note_on",
                "note": 54,
                "channel": 0,
                "velocity": 88,
                "time": 0
            },
            {
                "type": "note_off",
                "note": 54,
                "channel": 0,
                "velocity": 88,
                "time": 120
            },
            {
                "type": "note_on",
                "note": 58,
                "channel": 0,
                "velocity": 68,
                "time": 0
            },
            {
                "type": "note_off",
                "note": 58,
                "channel": 0,
                "velocity": 68,
                "time": 480
            },
            {
                "type": "note_on",
                "note": 47,
                "channel": 0,
                "velocity": 78,
                "time": 0
            },
            {
                "type": "note_off",
                "note": 47,
                "channel": 0,
                "velocity": 78,
                "time": 240
            },
            {
                "type": "note_on",
                "note": 54,
                "channel": 0,
                "velocity": 78,
                "time": 0
            },
            {
                "type": "note_off",
                "note": 54,
                "channel": 0,
                "velocity": 78,
                "time": 240
            },
            {
                "type": "note_on",
                "note": 58,
                "channel": 0,
                "velocity": 68,
                "time": 0
            },
            {
                "type": "note_off",
                "note": 58,
                "channel": 0,
                "velocity": 68,
                "time": 240
            },
            {
                "type": "note_on",
                "note": 54,
                "channel": 0,
                "velocity": 68,
                "time": 0
            },
            {
                "type": "note_off",
                "note": 54,
                "channel": 0,
                "velocity": 68,
                "time": 240
            },
            {
                "type": "note_on",
                "note": 44,
                "channel": 0,
                "velocity": 88,
                "time": 0
            },
            {
                "type": "note_off",
                "note": 44,
                "channel": 0,
                "velocity": 88,
                "time": 480
            },
            {
                "type": "note_on",
                "note": 56,
                "channel": 0,
                "velocity": 68,
                "time": 0
            },
            {
                "type": "note_on",
                "note": 63,
                "channel": 0,
                "velocity": 68,
                "time": 0
            },
            {
                "type": "note_on",
                "note": 66,
                "channel": 0,
                "velocity": 68,
                "time": 0
            },
            {
                "type": "note_off",
                "note": 56,
                "channel": 0,
                "velocity": 68,
                "time": 240
            },
            {
                "type": "note_off",
                "note": 63,
                "channel": 0,
                "velocity": 68,
                "time": 0
            },
            {
                "type": "note_off",
                "note": 66,
                "channel": 0,
                "velocity": 68,
                "time": 0
            },
            {
                "type": "note_on",
                "note": 47,
                "channel": 0,
                "velocity": 68,
                "time": 0
            },
            {
                "type": "note_off",
                "note": 47,
                "channel": 0,
                "velocity": 68,
                "time": 240
            },
            {
                "type": "note_on",
                "note": 40,
                "channel": 0,
                "velocity": 78,
                "time": 0
            },
            {
                "type": "note_off",
                "note": 40,
                "channel": 0,
                "velocity": 78,
                "time": 240
            },
            {
                "type": "note_on",
                "note": 47,
                "channel": 0,
                "velocity": 78,
                "time": 0
            },
            {
                "type": "note_off",
                "note": 47,
                "channel": 0,
                "velocity": 78,
                "time": 120
            },
            {
                "type": "note_on",
                "note": 52,
                "channel": 0,
                "velocity": 78,
                "time": 0
            },
            {
                "type": "note_off",
                "note": 52,
                "channel": 0,
                "velocity": 78,
                "time": 120
            },
            {
                "type": "note_on",
                "note": 59,
                "channel": 0,
                "velocity": 68,
                "time": 0
            },
            {
                "type": "note_off",
                "note": 59,
                "channel": 0,
                "velocity": 68,
                "time": 360
            },
            {
                "type": "note_on",
                "note": 47,
                "channel": 0,
                "velocity": 68,
                "time": 0
            },
            {
                "type": "note_off",
                "note": 47,
                "channel": 0,
                "velocity": 68,
                "time": 120
            },
            {
                "type": "note_on",
                "note": 42,
                "channel": 0,
                "velocity": 88,
                "time": 0
            },
            {
                "type": "note_off",
                "note": 42,
                "channel": 0,
                "velocity": 88,
                "time": 240
            },
            {
                "type": "note_on",
                "note": 49,
                "channel": 0,
                "velocity": 88,
                "time": 0
            },
            {
                "type": "note_off",
                "note": 49,
                "channel": 0,
                "velocity": 88,
                "time": 120
            },
            {
                "type": "note_on",
                "note": 54,
                "channel": 0,
                "velocity": 88,
                "time": 0
            },
            {
                "type": "note_off",
                "note": 54,
                "channel": 0,
                "velocity": 88,
                "time": 120
            },
            {
                "type": "note_on",
                "note": 58,
                "channel": 0,
                "velocity": 68,
                "time": 0
            },
            {
                "type": "note_on",
                "note": 61,
                "channel": 0,
                "velocity": 68,
                "time": 0
            },
            {
                "type": "note_off",
                "note": 58,
                "channel": 0,
                "velocity": 68,
                "time": 240
            },
            {
                "type": "note_off",
                "note": 61,
                "channel": 0,
                "velocity": 68,
                "time": 0
            },
            {
                "type": "note_on",
                "note": 49,
                "channel": 0,
                "velocity": 68,
                "time": 0
            },
            {
                "type": "note_off",
                "note": 49,
                "channel": 0,
                "velocity": 68,
                "time": 240
            },
            {
                "type": "note_on",
                "note": 44,
                "channel": 0,
                "velocity": 78,
                "time": 0
            },
            {
                "type": "note_off",
                "note": 44,
                "channel": 0,
                "velocity": 78,
                "time": 240
            },
            {
                "type": "note_on",
                "note": 51,
                "channel": 0,
                "velocity": 78,
                "time": 0
            },
            {
                "type": "note_off",
                "note": 51,
                "channel": 0,
                "velocity": 78,
                "time": 240
            },
            {
                "type": "note_on",
                "note": 56,
                "channel": 0,
                "velocity": 68,
                "time": 0
            },
            {
                "type": "note_off",
                "note": 56,
                "channel": 0,
                "velocity": 68,
                "time": 240
            },
            {
                "type": "note_on",
                "note": 51,
                "channel": 0,
                "velocity": 68,
                "time": 0
            },
            {
                "type": "note_off",
                "note": 51,
                "channel": 0,
                "velocity": 68,
                "time": 60
            },
            {
                "type": "note_off",
                "note": 96,
                "channel": 0,
                "velocity": 68,
                "time": 60
            },
            {
                "type": "note_on",
                "note": 44,
                "channel": 0,
                "velocity": 88,
                "time": 120
            },
            {
                "type": "note_on",
                "note": 56,
                "channel": 0,
                "velocity": 88,
                "time": 0
            },
            {
                "type": "note_off",
                "note": 44,
                "channel": 0,
                "velocity": 88,
                "time": 720
            },
            {
                "type": "note_off",
                "note": 56,
                "channel": 0,
                "velocity": 88,
                "time": 0
            },
            {
                "type": "note_on",
                "note": 56,
                "channel": 0,
                "velocity": 68,
                "time": 0
            },
            {
                "type": "note_off",
                "note": 56,
                "channel": 0,
                "velocity": 68,
                "time": 240
            },
            {
                "type": "note_on",
                "note": 40,
                "channel": 0,
                "velocity": 78,
                "time": 0
            },
            {
                "type": "note_on",
                "note": 52,
                "channel": 0,
                "velocity": 78,
                "time": 0
            },
            {
                "type": "note_off",
                "note": 40,
                "channel": 0,
                "velocity": 78,
                "time": 480
            },
            {
                "type": "note_off",
                "note": 52,
                "channel": 0,
                "velocity": 78,
                "time": 0
            },
            {
                "type": "note_on",
                "note": 56,
                "channel": 0,
                "velocity": 68,
                "time": 0
            },
            {
                "type": "note_on",
                "note": 59,
                "channel": 0,
                "velocity": 68,
                "time": 0
            },
            {
                "type": "note_off",
                "note": 56,
                "channel": 0,
                "velocity": 68,
                "time": 240
            },
            {
                "type": "note_off",
                "note": 59,
                "channel": 0,
                "velocity": 68,
                "time": 0
            },
            {
                "type": "note_on",
                "note": 47,
                "channel": 0,
                "velocity": 68,
                "time": 0
            },
            {
                "type": "note_off",
                "note": 47,
                "channel": 0,
                "velocity": 68,
                "time": 240
            },
            {
                "type": "note_on",
                "note": 42,
                "channel": 0,
                "velocity": 88,
                "time": 0
            },
            {
                "type": "note_on",
                "note": 54,
                "channel": 0,
                "velocity": 88,
                "time": 0
            },
            {
                "type": "note_off",
                "note": 42,
                "channel": 0,
                "velocity": 88,
                "time": 360
            },
            {
                "type": "note_off",
                "note": 54,
                "channel": 0,
                "velocity": 88,
                "time": 0
            },
            {
                "type": "note_on",
                "note": 49,
                "channel": 0,
                "velocity": 88,
                "time": 0
            },
            {
                "type": "note_off",
                "note": 49,
                "channel": 0,
                "velocity": 88,
                "time": 360
            },
            {
                "type": "note_on",
                "note": 40,
                "channel": 0,
                "velocity": 68,
                "time": 0
            },
            {
                "type": "note_off",
                "note": 40,
                "channel": 0,
                "velocity": 68,
                "time": 240
            },
            {
                "type": "note_on",
                "note": 47,
                "channel": 0,
                "velocity": 78,
                "time": 0
            },
            {
                "type": "note_off",
                "note": 47,
                "channel": 0,
                "velocity": 78,
                "time": 480
            },
            {
                "type": "note_on",
                "note": 54,
                "channel": 0,
                "velocity": 68,
                "time": 0
            },
            {
                "type": "note_off",
                "note": 54,
                "channel": 0,
                "velocity": 68,
                "time": 480
            },
            {
                "type": "note_on",
                "note": 44,
                "channel": 0,
                "velocity": 88,
                "time": 0
            },
            {
                "type": "note_on",
                "note": 56,
                "channel": 0,
                "velocity": 88,
                "time": 0
            },
            {
                "type": "note_off",
                "note": 44,
                "channel": 0,
                "velocity": 88,
                "time": 360
            },
            {
                "type": "note_off",
                "note": 56,
                "channel": 0,
                "velocity": 88,
                "time": 0
            },
            {
                "type": "note_on",
                "note": 51,
                "channel": 0,
                "velocity": 88,
                "time": 0
            },
            {
                "type": "note_off",
                "note": 51,
                "channel": 0,
                "velocity": 88,
                "time": 360
            },
            {
                "type": "note_on",
                "note": 56,
                "channel": 0,
                "velocity": 68,
                "time": 0
            },
            {
                "type": "note_off",
                "note": 56,
                "channel": 0,
                "velocity": 68,
                "time": 240
            },
            {
                "type": "note_on",
                "note": 40,
                "channel": 0,
                "velocity": 78,
                "time": 0
            },
            {
                "type": "note_on",
                "note": 52,
                "channel": 0,
                "velocity": 78,
                "time": 0
            },
            {
                "type": "note_off",
                "note": 40,
                "channel": 0,
                "velocity": 78,
                "time": 480
            },
            {
                "type": "note_off",
                "note": 52,
                "channel": 0,
                "velocity": 78,
                "time": 0
            },
            {
                "type": "note_on",
                "note": 56,
                "channel": 0,
                "velocity": 68,
                "time": 0
            },
            {
                "type": "note_off",
                "note": 56,
                "channel": 0,
                "velocity": 68,
                "time": 240
            },
            {
                "type": "note_on",
                "note": 47,
                "channel": 0,
                "velocity": 68,
                "time": 0
            },
            {
                "type": "note_off",
                "note": 47,
                "channel": 0,
                "velocity": 68,
                "time": 240
            },
            {
                "type": "note_on",
                "note": 42,
                "channel": 0,
                "velocity": 88,
                "time": 0
            },
            {
                "type": "note_on",
                "note": 54,
                "channel": 0,
                "velocity": 88,
                "time": 0
            },
            {
                "type": "note_off",
                "note": 42,
                "channel": 0,
                "velocity": 88,
                "time": 360
            },
            {
                "type": "note_off",
                "note": 54,
                "channel": 0,
                "velocity": 88,
                "time": 0
            },
            {
                "type": "note_on",
                "note": 49,
                "channel": 0,
                "velocity": 88,
                "time": 0
            },
            {
                "type": "note_off",
                "note": 49,
                "channel": 0,
                "velocity": 88,
                "time": 360
            },
            {
                "type": "note_on",
                "note": 42,
                "channel": 0,
                "velocity": 68,
                "time": 0
            },
            {
                "type": "note_off",
                "note": 42,
                "channel": 0,
                "velocity": 68,
                "time": 240
            },
            {
                "type": "note_on",
                "note": 47,
                "channel": 0,
                "velocity": 78,
                "time": 0
            },
            {
                "type": "note_off",
                "note": 47,
                "channel": 0,
                "velocity": 78,
                "time": 240
            },
            {
                "type": "note_on",
                "note": 54,
                "channel": 0,
                "velocity": 78,
                "time": 0
            },
            {
                "type": "note_off",
                "note": 54,
                "channel": 0,
                "velocity": 78,
                "time": 240
            },
            {
                "type": "note_on",
                "note": 59,
                "channel": 0,
                "velocity": 68,
                "time": 0
            },
            {
                "type": "note_off",
                "note": 59,
                "channel": 0,
                "velocity": 68,
                "time": 480
            },
            {
                "type": "note_on",
                "note": 44,
                "channel": 0,
                "velocity": 88,
                "time": 0
            },
            {
                "type": "note_on",
                "note": 56,
                "channel": 0,
                "velocity": 88,
                "time": 0
            },
            {
                "type": "note_off",
                "note": 44,
                "channel": 0,
                "velocity": 88,
                "time": 240
            },
            {
                "type": "note_off",
                "note": 56,
                "channel": 0,
                "velocity": 88,
                "time": 0
            },
            {
                "type": "note_on",
                "note": 51,
                "channel": 0,
                "velocity": 88,
                "time": 0
            },
            {
                "type": "note_off",
                "note": 51,
                "channel": 0,
                "velocity": 88,
                "time": 120
            },
            {
                "type": "note_on",
                "note": 59,
                "channel": 0,
                "velocity": 88,
                "time": 0
            },
            {
                "type": "note_off",
                "note": 59,
                "channel": 0,
                "velocity": 88,
                "time": 360
            },
            {
                "type": "note_on",
                "note": 51,
                "channel": 0,
                "velocity": 68,
                "time": 0
            },
            {
                "type": "note_off",
                "note": 51,
                "channel": 0,
                "velocity": 68,
                "time": 240
            },
            {
                "type": "note_on",
                "note": 40,
                "channel": 0,
                "velocity": 78,
                "time": 0
            },
            {
                "type": "note_off",
                "note": 40,
                "channel": 0,
                "velocity": 78,
                "time": 240
            },
            {
                "type": "note_on",
                "note": 47,
                "channel": 0,
                "velocity": 78,
                "time": 0
            },
            {
                "type": "note_off",
                "note": 47,
                "channel": 0,
                "velocity": 78,
                "time": 240
            },
            {
                "type": "note_on",
                "note": 56,
                "channel": 0,
                "velocity": 68,
                "time": 0
            },
            {
                "type": "note_off",
                "note": 56,
                "channel": 0,
                "velocity": 68,
                "time": 240
            },
            {
                "type": "note_on",
                "note": 47,
                "channel": 0,
                "velocity": 68,
                "time": 0
            },
            {
                "type": "note_off",
                "note": 47,
                "channel": 0,
                "velocity": 68,
                "time": 240
            },
            {
                "type": "note_on",
                "note": 42,
                "channel": 0,
                "velocity": 88,
                "time": 0
            },
            {
                "type": "note_off",
                "note": 42,
                "channel": 0,
                "velocity": 88,
                "time": 240
            },
            {
                "type": "note_on",
                "note": 49,
                "channel": 0,
                "velocity": 88,
                "time": 0
            },
            {
                "type": "note_off",
                "note": 49,
                "channel": 0,
                "velocity": 88,
                "time": 120
            },
            {
                "type": "note_on",
                "note": 54,
                "channel": 0,
                "velocity": 88,
                "time": 0
            },
            {
                "type": "note_off",
                "note": 54,
                "channel": 0,
                "velocity": 88,
                "time": 360
            },
            {
                "type": "note_on",
                "note": 42,
                "channel": 0,
                "velocity": 68,
                "time": 0
            },
            {
                "type": "note_off",
                "note": 42,
                "channel": 0,
                "velocity": 68,
                "time": 240
            },
            {
                "type": "note_on",
                "note": 47,
                "channel": 0,
                "velocity": 78,
                "time": 0
            },
            {
                "type": "note_off",
                "note": 47,
                "channel": 0,
                "velocity": 78,
                "time": 240
            },
            {
                "type": "note_on",
                "note": 54,
                "channel": 0,
                "velocity": 78,
                "time": 0
            },
            {
                "type": "note_off",
                "note": 54,
                "channel": 0,
                "velocity": 78,
                "time": 240
            },
            {
                "type": "note_on",
                "note": 59,
                "channel": 0,
                "velocity": 68,
                "time": 0
            },
            {
                "type": "note_off",
                "note": 59,
                "channel": 0,
                "velocity": 68,
                "time": 480
            },
            {
                "type": "note_on",
                "note": 44,
                "channel": 0,
                "velocity": 88,
                "time": 0
            },
            {
                "type": "note_on",
                "note": 56,
                "channel": 0,
                "velocity": 88,
                "time": 0
            },
            {
                "type": "note_off",
                "note": 44,
                "channel": 0,
                "velocity": 88,
                "time": 240
            },
            {
                "type": "note_off",
                "note": 56,
                "channel": 0,
                "velocity": 88,
                "time": 0
            },
            {
                "type": "note_on",
                "note": 51,
                "channel": 0,
                "velocity": 88,
                "time": 0
            },
            {
                "type": "note_off",
                "note": 51,
                "channel": 0,
                "velocity": 88,
                "time": 120
            },
            {
                "type": "note_on",
                "note": 56,
                "channel": 0,
                "velocity": 88,
                "time": 0
            },
            {
                "type": "note_off",
                "note": 56,
                "channel": 0,
                "velocity": 88,
                "time": 360
            },
            {
                "type": "note_on",
                "note": 44,
                "channel": 0,
                "velocity": 68,
                "time": 0
            },
            {
                "type": "note_off",
                "note": 44,
                "channel": 0,
                "velocity": 68,
                "time": 240
            },
            {
                "type": "note_on",
                "note": 40,
                "channel": 0,
                "velocity": 78,
                "time": 0
            },
            {
                "type": "note_off",
                "note": 40,
                "channel": 0,
                "velocity": 78,
                "time": 240
            },
            {
                "type": "note_on",
                "note": 47,
                "channel": 0,
                "velocity": 78,
                "time": 0
            },
            {
                "type": "note_off",
                "note": 47,
                "channel": 0,
                "velocity": 78,
                "time": 240
            },
            {
                "type": "note_on",
                "note": 52,
                "channel": 0,
                "velocity": 68,
                "time": 0
            },
            {
                "type": "note_off",
                "note": 52,
                "channel": 0,
                "velocity": 68,
                "time": 480
            },
            {
                "type": "note_on",
                "note": 42,
                "channel": 0,
                "velocity": 88,
                "time": 0
            },
            {
                "type": "note_off",
                "note": 42,
                "channel": 0,
                "velocity": 88,
                "time": 240
            },
            {
                "type": "note_on",
                "note": 49,
                "channel": 0,
                "velocity": 88,
                "time": 0
            },
            {
                "type": "note_off",
                "note": 49,
                "channel": 0,
                "velocity": 88,
                "time": 480
            },
            {
                "type": "note_on",
                "note": 42,
                "channel": 0,
                "velocity": 68,
                "time": 0
            },
            {
                "type": "note_off",
                "note": 42,
                "channel": 0,
                "velocity": 68,
                "time": 240
            },
            {
                "type": "note_on",
                "note": 32,
                "channel": 0,
                "velocity": 78,
                "time": 0
            },
            {
                "type": "note_on",
                "note": 44,
                "channel": 0,
                "velocity": 78,
                "time": 0
            },
            {
                "type": "note_off",
                "note": 32,
                "channel": 0,
                "velocity": 78,
                "time": 240
            },
            {
                "type": "note_off",
                "note": 44,
                "channel": 0,
                "velocity": 78,
                "time": 0
            },
            {
                "type": "note_on",
                "note": 39,
                "channel": 0,
                "velocity": 78,
                "time": 120
            },
            {
                "type": "note_off",
                "note": 39,
                "channel": 0,
                "velocity": 78,
                "time": 120
            },
            {
                "type": "note_on",
                "note": 44,
                "channel": 0,
                "velocity": 68,
                "time": 0
            },
            {
                "type": "note_off",
                "note": 44,
                "channel": 0,
                "velocity": 68,
                "time": 240
            },
            {
                "type": "note_on",
                "note": 39,
                "channel": 0,
                "velocity": 68,
                "time": 0
            },
            {
                "type": "note_off",
                "note": 39,
                "channel": 0,
                "velocity": 68,
                "time": 240
            },
            {
                "type": "note_on",
                "note": 32,
                "channel": 0,
                "velocity": 88,
                "time": 0
            },
            {
                "type": "note_on",
                "note": 44,
                "channel": 0,
                "velocity": 88,
                "time": 0
            },
            {
                "type": "note_off",
                "note": 32,
                "channel": 0,
                "velocity": 88,
                "time": 480
            },
            {
                "type": "note_off",
                "note": 44,
                "channel": 0,
                "velocity": 88,
                "time": 0
            },
            {
                "type": "note_on",
                "note": 51,
                "channel": 0,
                "velocity": 68,
                "time": 0
            },
            {
                "type": "note_on",
                "note": 56,
                "channel": 0,
                "velocity": 68,
                "time": 0
            },
            {
                "type": "note_off",
                "note": 51,
                "channel": 0,
                "velocity": 68,
                "time": 240
            },
            {
                "type": "note_off",
                "note": 56,
                "channel": 0,
                "velocity": 68,
                "time": 0
            },
            {
                "type": "note_on",
                "note": 51,
                "channel": 0,
                "velocity": 68,
                "time": 0
            },
            {
                "type": "note_off",
                "note": 51,
                "channel": 0,
                "velocity": 68,
                "time": 240
            },
            {
                "type": "note_on",
                "note": 40,
                "channel": 0,
                "velocity": 78,
                "time": 0
            },
            {
                "type": "note_on",
                "note": 52,
                "channel": 0,
                "velocity": 78,
                "time": 0
            },
            {
                "type": "note_off",
                "note": 40,
                "channel": 0,
                "velocity": 78,
                "time": 240
            },
            {
                "type": "note_off",
                "note": 52,
                "channel": 0,
                "velocity": 78,
                "time": 0
            },
            {
                "type": "note_on",
                "note": 47,
                "channel": 0,
                "velocity": 78,
                "time": 0
            },
            {
                "type": "note_off",
                "note": 47,
                "channel": 0,
                "velocity": 78,
                "time": 240
            },
            {
                "type": "note_on",
                "note": 56,
                "channel": 0,
                "velocity": 68,
                "time": 0
            },
            {
                "type": "note_off",
                "note": 56,
                "channel": 0,
                "velocity": 68,
                "time": 480
            },
            {
                "type": "note_on",
                "note": 42,
                "channel": 0,
                "velocity": 88,
                "time": 0
            },
            {
                "type": "note_on",
                "note": 49,
                "channel": 0,
                "velocity": 88,
                "time": 0
            },
            {
                "type": "note_off",
                "note": 42,
                "channel": 0,
                "velocity": 88,
                "time": 480
            },
            {
                "type": "note_off",
                "note": 49,
                "channel": 0,
                "velocity": 88,
                "time": 0
            },
            {
                "type": "note_on",
                "note": 54,
                "channel": 0,
                "velocity": 68,
                "time": 0
            },
            {
                "type": "note_off",
                "note": 54,
                "channel": 0,
                "velocity": 68,
                "time": 240
            },
            {
                "type": "note_on",
                "note": 49,
                "channel": 0,
                "velocity": 68,
                "time": 0
            },
            {
                "type": "note_off",
                "note": 49,
                "channel": 0,
                "velocity": 68,
                "time": 240
            },
            {
                "type": "note_on",
                "note": 47,
                "channel": 0,
                "velocity": 78,
                "time": 0
            },
            {
                "type": "note_on",
                "note": 59,
                "channel": 0,
                "velocity": 78,
                "time": 0
            },
            {
                "type": "note_off",
                "note": 47,
                "channel": 0,
                "velocity": 78,
                "time": 480
            },
            {
                "type": "note_off",
                "note": 59,
                "channel": 0,
                "velocity": 78,
                "time": 0
            },
            {
                "type": "note_on",
                "note": 46,
                "channel": 0,
                "velocity": 68,
                "time": 0
            },
            {
                "type": "note_on",
                "note": 58,
                "channel": 0,
                "velocity": 68,
                "time": 0
            },
            {
                "type": "note_off",
                "note": 46,
                "channel": 0,
                "velocity": 68,
                "time": 480
            },
            {
                "type": "note_off",
                "note": 58,
                "channel": 0,
                "velocity": 68,
                "time": 0
            },
            {
                "type": "note_on",
                "note": 44,
                "channel": 0,
                "velocity": 88,
                "time": 0
            },
            {
                "type": "note_on",
                "note": 56,
                "channel": 0,
                "velocity": 88,
                "time": 0
            },
            {
                "type": "note_off",
                "note": 44,
                "channel": 0,
                "velocity": 88,
                "time": 480
            },
            {
                "type": "note_off",
                "note": 56,
                "channel": 0,
                "velocity": 88,
                "time": 0
            },
            {
                "type": "note_on",
                "note": 56,
                "channel": 0,
                "velocity": 68,
                "time": 0
            },
            {
                "type": "note_on",
                "note": 63,
                "channel": 0,
                "velocity": 68,
                "time": 0
            },
            {
                "type": "note_off",
                "note": 56,
                "channel": 0,
                "velocity": 68,
                "time": 480
            },
            {
                "type": "note_off",
                "note": 63,
                "channel": 0,
                "velocity": 68,
                "time": 0
            },
            {
                "type": "note_on",
                "note": 40,
                "channel": 0,
                "velocity": 78,
                "time": 0
            },
            {
                "type": "note_off",
                "note": 40,
                "channel": 0,
                "velocity": 78,
                "time": 240
            },
            {
                "type": "note_on",
                "note": 47,
                "channel": 0,
                "velocity": 78,
                "time": 0
            },
            {
                "type": "note_off",
                "note": 47,
                "channel": 0,
                "velocity": 78,
                "time": 120
            },
            {
                "type": "note_on",
                "note": 52,
                "channel": 0,
                "velocity": 78,
                "time": 0
            },
            {
                "type": "note_off",
                "note": 52,
                "channel": 0,
                "velocity": 78,
                "time": 120
            },
            {
                "type": "note_on",
                "note": 56,
                "channel": 0,
                "velocity": 68,
                "time": 0
            },
            {
                "type": "note_off",
                "note": 56,
                "channel": 0,
                "velocity": 68,
                "time": 480
            },
            {
                "type": "note_on",
                "note": 42,
                "channel": 0,
                "velocity": 88,
                "time": 0
            },
            {
                "type": "note_off",
                "note": 42,
                "channel": 0,
                "velocity": 88,
                "time": 240
            },
            {
                "type": "note_on",
                "note": 49,
                "channel": 0,
                "velocity": 88,
                "time": 0
            },
            {
                "type": "note_off",
                "note": 49,
                "channel": 0,
                "velocity": 88,
                "time": 240
            },
            {
                "type": "note_on",
                "note": 54,
                "channel": 0,
                "velocity": 68,
                "time": 0
            },
            {
                "type": "note_off",
                "note": 54,
                "channel": 0,
                "velocity": 68,
                "time": 240
            },
            {
                "type": "note_on",
                "note": 49,
                "channel": 0,
                "velocity": 68,
                "time": 0
            },
            {
                "type": "note_off",
                "note": 49,
                "channel": 0,
                "velocity": 68,
                "time": 240
            },
            {
                "type": "note_on",
                "note": 44,
                "channel": 0,
                "velocity": 78,
                "time": 0
            },
            {
                "type": "note_off",
                "note": 44,
                "channel": 0,
                "velocity": 78,
                "time": 360
            },
            {
                "type": "note_on",
                "note": 56,
                "channel": 0,
                "velocity": 78,
                "time": 0
            },
            {
                "type": "note_off",
                "note": 56,
                "channel": 0,
                "velocity": 78,
                "time": 120
            },
            {
                "type": "note_on",
                "note": 59,
                "channel": 0,
                "velocity": 68,
                "time": 0
            },
            {
                "type": "note_off",
                "note": 59,
                "channel": 0,
                "velocity": 68,
                "time": 120
            },
            {
                "type": "note_on",
                "note": 63,
                "channel": 0,
                "velocity": 68,
                "time": 0
            },
            {
                "type": "note_off",
                "note": 63,
                "channel": 0,
                "velocity": 68,
                "time": 120
            },
            {
                "type": "note_on",
                "note": 66,
                "channel": 0,
                "velocity": 68,
                "time": 0
            },
            {
                "type": "note_off",
                "note": 66,
                "channel": 0,
                "velocity": 68,
                "time": 240
            },
            {
                "type": "note_on",
                "note": 32,
                "channel": 0,
                "velocity": 88,
                "time": 0
            },
            {
                "type": "note_on",
                "note": 44,
                "channel": 0,
                "velocity": 88,
                "time": 0
            },
            {
                "type": "note_off",
                "note": 32,
                "channel": 0,
                "velocity": 88,
                "time": 480
            },
            {
                "type": "note_off",
                "note": 44,
                "channel": 0,
                "velocity": 88,
                "time": 0
            },
            {
                "type": "note_on",
                "note": 51,
                "channel": 0,
                "velocity": 68,
                "time": 0
            },
            {
                "type": "note_on",
                "note": 56,
                "channel": 0,
                "velocity": 68,
                "time": 0
            },
            {
                "type": "note_off",
                "note": 51,
                "channel": 0,
                "velocity": 68,
                "time": 480
            },
            {
                "type": "note_off",
                "note": 56,
                "channel": 0,
                "velocity": 68,
                "time": 0
            },
            {
                "type": "note_on",
                "note": 40,
                "channel": 0,
                "velocity": 78,
                "time": 0
            },
            {
                "type": "note_off",
                "note": 40,
                "channel": 0,
                "velocity": 78,
                "time": 240
            },
            {
                "type": "note_on",
                "note": 47,
                "channel": 0,
                "velocity": 78,
                "time": 0
            },
            {
                "type": "note_off",
                "note": 47,
                "channel": 0,
                "velocity": 78,
                "time": 120
            },
            {
                "type": "note_on",
                "note": 52,
                "channel": 0,
                "velocity": 78,
                "time": 0
            },
            {
                "type": "note_off",
                "note": 52,
                "channel": 0,
                "velocity": 78,
                "time": 120
            },
            {
                "type": "note_on",
                "note": 56,
                "channel": 0,
                "velocity": 68,
                "time": 0
            },
            {
                "type": "note_off",
                "note": 56,
                "channel": 0,
                "velocity": 68,
                "time": 480
            },
            {
                "type": "note_on",
                "note": 42,
                "channel": 0,
                "velocity": 88,
                "time": 0
            },
            {
                "type": "note_off",
                "note": 42,
                "channel": 0,
                "velocity": 88,
                "time": 240
            },
            {
                "type": "note_on",
                "note": 49,
                "channel": 0,
                "velocity": 88,
                "time": 0
            },
            {
                "type": "note_off",
                "note": 49,
                "channel": 0,
                "velocity": 88,
                "time": 240
            },
            {
                "type": "note_on",
                "note": 54,
                "channel": 0,
                "velocity": 68,
                "time": 0
            },
            {
                "type": "note_on",
                "note": 61,
                "channel": 0,
                "velocity": 68,
                "time": 0
            },
            {
                "type": "note_off",
                "note": 54,
                "channel": 0,
                "velocity": 68,
                "time": 240
            },
            {
                "type": "note_off",
                "note": 61,
                "channel": 0,
                "velocity": 68,
                "time": 0
            },
            {
                "type": "note_on",
                "note": 49,
                "channel": 0,
                "velocity": 68,
                "time": 0
            },
            {
                "type": "note_off",
                "note": 49,
                "channel": 0,
                "velocity": 68,
                "time": 240
            },
            {
                "type": "note_on",
                "note": 47,
                "channel": 0,
                "velocity": 78,
                "time": 0
            },
            {
                "type": "note_on",
                "note": 59,
                "channel": 0,
                "velocity": 78,
                "time": 0
            },
            {
                "type": "note_off",
                "note": 47,
                "channel": 0,
                "velocity": 78,
                "time": 240
            },
            {
                "type": "note_off",
                "note": 59,
                "channel": 0,
                "velocity": 78,
                "time": 0
            },
            {
                "type": "note_on",
                "note": 54,
                "channel": 0,
                "velocity": 78,
                "time": 0
            },
            {
                "type": "note_off",
                "note": 54,
                "channel": 0,
                "velocity": 78,
                "time": 240
            },
            {
                "type": "note_on",
                "note": 46,
                "channel": 0,
                "velocity": 68,
                "time": 0
            },
            {
                "type": "note_on",
                "note": 58,
                "channel": 0,
                "velocity": 68,
                "time": 0
            },
            {
                "type": "note_off",
                "note": 46,
                "channel": 0,
                "velocity": 68,
                "time": 240
            },
            {
                "type": "note_off",
                "note": 58,
                "channel": 0,
                "velocity": 68,
                "time": 0
            },
            {
                "type": "note_on",
                "note": 54,
                "channel": 0,
                "velocity": 68,
                "time": 0
            },
            {
                "type": "note_off",
                "note": 54,
                "channel": 0,
                "velocity": 68,
                "time": 240
            },
            {
                "type": "note_on",
                "note": 44,
                "channel": 0,
                "velocity": 88,
                "time": 0
            },
            {
                "type": "note_on",
                "note": 56,
                "channel": 0,
                "velocity": 88,
                "time": 0
            },
            {
                "type": "note_off",
                "note": 44,
                "channel": 0,
                "velocity": 88,
                "time": 480
            },
            {
                "type": "note_off",
                "note": 56,
                "channel": 0,
                "velocity": 88,
                "time": 0
            },
            {
                "type": "note_on",
                "note": 54,
                "channel": 0,
                "velocity": 68,
                "time": 0
            },
            {
                "type": "note_on",
                "note": 56,
                "channel": 0,
                "velocity": 68,
                "time": 0
            },
            {
                "type": "note_off",
                "note": 54,
                "channel": 0,
                "velocity": 68,
                "time": 240
            },
            {
                "type": "note_off",
                "note": 56,
                "channel": 0,
                "velocity": 68,
                "time": 0
            },
            {
                "type": "note_on",
                "note": 51,
                "channel": 0,
                "velocity": 68,
                "time": 0
            },
            {
                "type": "note_off",
                "note": 51,
                "channel": 0,
                "velocity": 68,
                "time": 240
            },
            {
                "type": "note_on",
                "note": 40,
                "channel": 0,
                "velocity": 78,
                "time": 0
            },
            {
                "type": "note_off",
                "note": 40,
                "channel": 0,
                "velocity": 78,
                "time": 240
            },
            {
                "type": "note_on",
                "note": 47,
                "channel": 0,
                "velocity": 78,
                "time": 0
            },
            {
                "type": "note_off",
                "note": 47,
                "channel": 0,
                "velocity": 78,
                "time": 120
            },
            {
                "type": "note_on",
                "note": 52,
                "channel": 0,
                "velocity": 78,
                "time": 0
            },
            {
                "type": "note_off",
                "note": 52,
                "channel": 0,
                "velocity": 78,
                "time": 120
            },
            {
                "type": "note_on",
                "note": 56,
                "channel": 0,
                "velocity": 68,
                "time": 0
            },
            {
                "type": "note_off",
                "note": 56,
                "channel": 0,
                "velocity": 68,
                "time": 240
            },
            {
                "type": "note_on",
                "note": 47,
                "channel": 0,
                "velocity": 68,
                "time": 0
            },
            {
                "type": "note_off",
                "note": 47,
                "channel": 0,
                "velocity": 68,
                "time": 240
            },
            {
                "type": "note_on",
                "note": 42,
                "channel": 0,
                "velocity": 88,
                "time": 0
            },
            {
                "type": "note_off",
                "note": 42,
                "channel": 0,
                "velocity": 88,
                "time": 240
            },
            {
                "type": "note_on",
                "note": 49,
                "channel": 0,
                "velocity": 88,
                "time": 0
            },
            {
                "type": "note_off",
                "note": 49,
                "channel": 0,
                "velocity": 88,
                "time": 240
            },
            {
                "type": "note_on",
                "note": 54,
                "channel": 0,
                "velocity": 68,
                "time": 0
            },
            {
                "type": "note_off",
                "note": 54,
                "channel": 0,
                "velocity": 68,
                "time": 240
            },
            {
                "type": "note_on",
                "note": 49,
                "channel": 0,
                "velocity": 68,
                "time": 0
            },
            {
                "type": "note_off",
                "note": 49,
                "channel": 0,
                "velocity": 68,
                "time": 240
            },
            {
                "type": "note_on",
                "note": 44,
                "channel": 0,
                "velocity": 78,
                "time": 0
            },
            {
                "type": "note_off",
                "note": 44,
                "channel": 0,
                "velocity": 78,
                "time": 240
            },
            {
                "type": "note_on",
                "note": 51,
                "channel": 0,
                "velocity": 78,
                "time": 0
            },
            {
                "type": "note_off",
                "note": 51,
                "channel": 0,
                "velocity": 78,
                "time": 240
            },
            {
                "type": "note_on",
                "note": 56,
                "channel": 0,
                "velocity": 68,
                "time": 0
            },
            {
                "type": "note_off",
                "note": 56,
                "channel": 0,
                "velocity": 68,
                "time": 240
            },
            {
                "type": "note_on",
                "note": 51,
                "channel": 0,
                "velocity": 68,
                "time": 0
            },
            {
                "type": "note_off",
                "note": 51,
                "channel": 0,
                "velocity": 68,
                "time": 240
            },
            {
                "type": "note_on",
                "note": 44,
                "channel": 0,
                "velocity": 88,
                "time": 0
            },
            {
                "type": "note_off",
                "note": 44,
                "channel": 0,
                "velocity": 88,
                "time": 360
            },
            {
                "type": "note_on",
                "note": 56,
                "channel": 0,
                "velocity": 88,
                "time": 0
            },
            {
                "type": "note_off",
                "note": 56,
                "channel": 0,
                "velocity": 88,
                "time": 120
            },
            {
                "type": "note_on",
                "note": 59,
                "channel": 0,
                "velocity": 68,
                "time": 0
            },
            {
                "type": "note_off",
                "note": 59,
                "channel": 0,
                "velocity": 68,
                "time": 360
            },
            {
                "type": "note_on",
                "note": 44,
                "channel": 0,
                "velocity": 68,
                "time": 0
            },
            {
                "type": "note_off",
                "note": 44,
                "channel": 0,
                "velocity": 68,
                "time": 120
            },
            {
                "type": "note_on",
                "note": 40,
                "channel": 0,
                "velocity": 78,
                "time": 0
            },
            {
                "type": "note_on",
                "note": 52,
                "channel": 0,
                "velocity": 78,
                "time": 0
            },
            {
                "type": "note_off",
                "note": 40,
                "channel": 0,
                "velocity": 78,
                "time": 240
            },
            {
                "type": "note_off",
                "note": 52,
                "channel": 0,
                "velocity": 78,
                "time": 0
            },
            {
                "type": "note_on",
                "note": 47,
                "channel": 0,
                "velocity": 78,
                "time": 0
            },
            {
                "type": "note_off",
                "note": 47,
                "channel": 0,
                "velocity": 78,
                "time": 240
            },
            {
                "type": "note_on",
                "note": 56,
                "channel": 0,
                "velocity": 68,
                "time": 0
            },
            {
                "type": "note_on",
                "note": 59,
                "channel": 0,
                "velocity": 68,
                "time": 0
            },
            {
                "type": "note_off",
                "note": 56,
                "channel": 0,
                "velocity": 68,
                "time": 480
            },
            {
                "type": "note_off",
                "note": 59,
                "channel": 0,
                "velocity": 68,
                "time": 0
            },
            {
                "type": "note_on",
                "note": 42,
                "channel": 0,
                "velocity": 88,
                "time": 0
            },
            {
                "type": "note_off",
                "note": 42,
                "channel": 0,
                "velocity": 88,
                "time": 240
            },
            {
                "type": "note_on",
                "note": 49,
                "channel": 0,
                "velocity": 88,
                "time": 0
            },
            {
                "type": "note_off",
                "note": 49,
                "channel": 0,
                "velocity": 88,
                "time": 120
            },
            {
                "type": "note_on",
                "note": 54,
                "channel": 0,
                "velocity": 88,
                "time": 0
            },
            {
                "type": "note_off",
                "note": 54,
                "channel": 0,
                "velocity": 88,
                "time": 120
            },
            {
                "type": "note_on",
                "note": 58,
                "channel": 0,
                "velocity": 68,
                "time": 0
            },
            {
                "type": "note_off",
                "note": 58,
                "channel": 0,
                "velocity": 68,
                "time": 480
            },
            {
                "type": "note_on",
                "note": 47,
                "channel": 0,
                "velocity": 78,
                "time": 0
            },
            {
                "type": "note_on",
                "note": 59,
                "channel": 0,
                "velocity": 78,
                "time": 0
            },
            {
                "type": "note_off",
                "note": 47,
                "channel": 0,
                "velocity": 78,
                "time": 240
            },
            {
                "type": "note_off",
                "note": 59,
                "channel": 0,
                "velocity": 78,
                "time": 0
            },
            {
                "type": "note_on",
                "note": 54,
                "channel": 0,
                "velocity": 78,
                "time": 0
            },
            {
                "type": "note_off",
                "note": 54,
                "channel": 0,
                "velocity": 78,
                "time": 240
            },
            {
                "type": "note_on",
                "note": 46,
                "channel": 0,
                "velocity": 68,
                "time": 0
            },
            {
                "type": "note_on",
                "note": 58,
                "channel": 0,
                "velocity": 68,
                "time": 0
            },
            {
                "type": "note_off",
                "note": 46,
                "channel": 0,
                "velocity": 68,
                "time": 240
            },
            {
                "type": "note_off",
                "note": 58,
                "channel": 0,
                "velocity": 68,
                "time": 0
            },
            {
                "type": "note_on",
                "note": 54,
                "channel": 0,
                "velocity": 68,
                "time": 0
            },
            {
                "type": "note_off",
                "note": 54,
                "channel": 0,
                "velocity": 68,
                "time": 240
            },
            {
                "type": "note_on",
                "note": 44,
                "channel": 0,
                "velocity": 88,
                "time": 0
            },
            {
                "type": "note_off",
                "note": 44,
                "channel": 0,
                "velocity": 88,
                "time": 480
            },
            {
                "type": "note_on",
                "note": 56,
                "channel": 0,
                "velocity": 68,
                "time": 0
            },
            {
                "type": "note_off",
                "note": 56,
                "channel": 0,
                "velocity": 68,
                "time": 240
            },
            {
                "type": "note_on",
                "note": 51,
                "channel": 0,
                "velocity": 68,
                "time": 0
            },
            {
                "type": "note_off",
                "note": 51,
                "channel": 0,
                "velocity": 68,
                "time": 240
            },
            {
                "type": "note_on",
                "note": 40,
                "channel": 0,
                "velocity": 78,
                "time": 0
            },
            {
                "type": "note_on",
                "note": 52,
                "channel": 0,
                "velocity": 78,
                "time": 0
            },
            {
                "type": "note_off",
                "note": 40,
                "channel": 0,
                "velocity": 78,
                "time": 240
            },
            {
                "type": "note_off",
                "note": 52,
                "channel": 0,
                "velocity": 78,
                "time": 0
            },
            {
                "type": "note_on",
                "note": 47,
                "channel": 0,
                "velocity": 78,
                "time": 0
            },
            {
                "type": "note_off",
                "note": 47,
                "channel": 0,
                "velocity": 78,
                "time": 240
            },
            {
                "type": "note_on",
                "note": 52,
                "channel": 0,
                "velocity": 68,
                "time": 0
            },
            {
                "type": "note_on",
                "note": 56,
                "channel": 0,
                "velocity": 68,
                "time": 0
            },
            {
                "type": "note_off",
                "note": 52,
                "channel": 0,
                "velocity": 68,
                "time": 240
            },
            {
                "type": "note_off",
                "note": 56,
                "channel": 0,
                "velocity": 68,
                "time": 0
            },
            {
                "type": "note_on",
                "note": 47,
                "channel": 0,
                "velocity": 68,
                "time": 0
            },
            {
                "type": "note_off",
                "note": 47,
                "channel": 0,
                "velocity": 68,
                "time": 240
            },
            {
                "type": "note_on",
                "note": 42,
                "channel": 0,
                "velocity": 88,
                "time": 0
            },
            {
                "type": "note_off",
                "note": 42,
                "channel": 0,
                "velocity": 88,
                "time": 240
            },
            {
                "type": "note_on",
                "note": 49,
                "channel": 0,
                "velocity": 88,
                "time": 0
            },
            {
                "type": "note_off",
                "note": 49,
                "channel": 0,
                "velocity": 88,
                "time": 240
            },
            {
                "type": "note_on",
                "note": 58,
                "channel": 0,
                "velocity": 68,
                "time": 0
            },
            {
                "type": "note_off",
                "note": 58,
                "channel": 0,
                "velocity": 68,
                "time": 480
            },
            {
                "type": "note_on",
                "note": 32,
                "channel": 0,
                "velocity": 78,
                "time": 0
            },
            {
                "type": "note_on",
                "note": 44,
                "channel": 0,
                "velocity": 78,
                "time": 0
            },
            {
                "type": "note_off",
                "note": 32,
                "channel": 0,
                "velocity": 78,
                "time": 240
            },
            {
                "type": "note_off",
                "note": 44,
                "channel": 0,
                "velocity": 78,
                "time": 0
            },
            {
                "type": "note_on",
                "note": 44,
                "channel": 0,
                "velocity": 78,
                "time": 0
            },
            {
                "type": "note_off",
                "note": 44,
                "channel": 0,
                "velocity": 78,
                "time": 240
            },
            {
                "type": "note_on",
                "note": 44,
                "channel": 0,
                "velocity": 68,
                "time": 0
            },
            {
                "type": "note_on",
                "note": 51,
                "channel": 0,
                "velocity": 68,
                "time": 0
            },
            {
                "type": "note_off",
                "note": 44,
                "channel": 0,
                "velocity": 68,
                "time": 240
            },
            {
                "type": "note_off",
                "note": 51,
                "channel": 0,
                "velocity": 68,
                "time": 0
            },
            {
                "type": "note_on",
                "note": 32,
                "channel": 0,
                "velocity": 68,
                "time": 0
            },
            {
                "type": "note_off",
                "note": 32,
                "channel": 0,
                "velocity": 68,
                "time": 240
            },
            {
                "type": "note_on",
                "note": 33,
                "channel": 0,
                "velocity": 88,
                "time": 0
            },
            {
                "type": "note_on",
                "note": 45,
                "channel": 0,
                "velocity": 88,
                "time": 0
            },
            {
                "type": "note_off",
                "note": 33,
                "channel": 0,
                "velocity": 88,
                "time": 480
            },
            {
                "type": "note_off",
                "note": 45,
                "channel": 0,
                "velocity": 88,
                "time": 0
            },
            {
                "type": "note_on",
                "note": 52,
                "channel": 0,
                "velocity": 68,
                "time": 0
            },
            {
                "type": "note_on",
                "note": 57,
                "channel": 0,
                "velocity": 68,
                "time": 0
            },
            {
                "type": "note_off",
                "note": 52,
                "channel": 0,
                "velocity": 68,
                "time": 240
            },
            {
                "type": "note_off",
                "note": 57,
                "channel": 0,
                "velocity": 68,
                "time": 0
            },
            {
                "type": "note_on",
                "note": 52,
                "channel": 0,
                "velocity": 68,
                "time": 0
            },
            {
                "type": "note_off",
                "note": 52,
                "channel": 0,
                "velocity": 68,
                "time": 240
            },
            {
                "type": "note_on",
                "note": 41,
                "channel": 0,
                "velocity": 78,
                "time": 0
            },
            {
                "type": "note_on",
                "note": 53,
                "channel": 0,
                "velocity": 78,
                "time": 0
            },
            {
                "type": "note_off",
                "note": 41,
                "channel": 0,
                "velocity": 78,
                "time": 240
            },
            {
                "type": "note_off",
                "note": 53,
                "channel": 0,
                "velocity": 78,
                "time": 0
            },
            {
                "type": "note_on",
                "note": 48,
                "channel": 0,
                "velocity": 78,
                "time": 0
            },
            {
                "type": "note_off",
                "note": 48,
                "channel": 0,
                "velocity": 78,
                "time": 240
            },
            {
                "type": "note_on",
                "note": 57,
                "channel": 0,
                "velocity": 68,
                "time": 0
            },
            {
                "type": "note_off",
                "note": 57,
                "channel": 0,
                "velocity": 68,
                "time": 480
            },
            {
                "type": "note_on",
                "note": 43,
                "channel": 0,
                "velocity": 88,
                "time": 0
            },
            {
                "type": "note_on",
                "note": 50,
                "channel": 0,
                "velocity": 88,
                "time": 0
            },
            {
                "type": "note_off",
                "note": 43,
                "channel": 0,
                "velocity": 88,
                "time": 480
            },
            {
                "type": "note_off",
                "note": 50,
                "channel": 0,
                "velocity": 88,
                "time": 0
            },
            {
                "type": "note_on",
                "note": 55,
                "channel": 0,
                "velocity": 68,
                "time": 0
            },
            {
                "type": "note_on",
                "note": 62,
                "channel": 0,
                "velocity": 68,
                "time": 0
            },
            {
                "type": "note_off",
                "note": 55,
                "channel": 0,
                "velocity": 68,
                "time": 240
            },
            {
                "type": "note_off",
                "note": 62,
                "channel": 0,
                "velocity": 68,
                "time": 0
            },
            {
                "type": "note_on",
                "note": 50,
                "channel": 0,
                "velocity": 68,
                "time": 0
            },
            {
                "type": "note_off",
                "note": 50,
                "channel": 0,
                "velocity": 68,
                "time": 240
            },
            {
                "type": "note_on",
                "note": 48,
                "channel": 0,
                "velocity": 78,
                "time": 0
            },
            {
                "type": "note_on",
                "note": 60,
                "channel": 0,
                "velocity": 78,
                "time": 0
            },
            {
                "type": "note_off",
                "note": 48,
                "channel": 0,
                "velocity": 78,
                "time": 480
            },
            {
                "type": "note_off",
                "note": 60,
                "channel": 0,
                "velocity": 78,
                "time": 0
            },
            {
                "type": "note_on",
                "note": 47,
                "channel": 0,
                "velocity": 68,
                "time": 0
            },
            {
                "type": "note_on",
                "note": 59,
                "channel": 0,
                "velocity": 68,
                "time": 0
            },
            {
                "type": "note_off",
                "note": 47,
                "channel": 0,
                "velocity": 68,
                "time": 480
            },
            {
                "type": "note_off",
                "note": 59,
                "channel": 0,
                "velocity": 68,
                "time": 0
            },
            {
                "type": "note_on",
                "note": 33,
                "channel": 0,
                "velocity": 88,
                "time": 0
            },
            {
                "type": "note_on",
                "note": 45,
                "channel": 0,
                "velocity": 88,
                "time": 0
            },
            {
                "type": "note_off",
                "note": 33,
                "channel": 0,
                "velocity": 88,
                "time": 480
            },
            {
                "type": "note_off",
                "note": 45,
                "channel": 0,
                "velocity": 88,
                "time": 0
            },
            {
                "type": "note_on",
                "note": 52,
                "channel": 0,
                "velocity": 68,
                "time": 0
            },
            {
                "type": "note_on",
                "note": 57,
                "channel": 0,
                "velocity": 68,
                "time": 0
            },
            {
                "type": "note_off",
                "note": 52,
                "channel": 0,
                "velocity": 68,
                "time": 480
            },
            {
                "type": "note_off",
                "note": 57,
                "channel": 0,
                "velocity": 68,
                "time": 0
            },
            {
                "type": "note_on",
                "note": 41,
                "channel": 0,
                "velocity": 78,
                "time": 0
            },
            {
                "type": "note_off",
                "note": 41,
                "channel": 0,
                "velocity": 78,
                "time": 240
            },
            {
                "type": "note_on",
                "note": 48,
                "channel": 0,
                "velocity": 78,
                "time": 0
            },
            {
                "type": "note_off",
                "note": 48,
                "channel": 0,
                "velocity": 78,
                "time": 120
            },
            {
                "type": "note_on",
                "note": 53,
                "channel": 0,
                "velocity": 78,
                "time": 0
            },
            {
                "type": "note_off",
                "note": 53,
                "channel": 0,
                "velocity": 78,
                "time": 120
            },
            {
                "type": "note_on",
                "note": 57,
                "channel": 0,
                "velocity": 68,
                "time": 0
            },
            {
                "type": "note_off",
                "note": 57,
                "channel": 0,
                "velocity": 68,
                "time": 480
            },
            {
                "type": "note_on",
                "note": 43,
                "channel": 0,
                "velocity": 88,
                "time": 0
            },
            {
                "type": "note_off",
                "note": 43,
                "channel": 0,
                "velocity": 88,
                "time": 240
            },
            {
                "type": "note_on",
                "note": 50,
                "channel": 0,
                "velocity": 88,
                "time": 0
            },
            {
                "type": "note_off",
                "note": 50,
                "channel": 0,
                "velocity": 88,
                "time": 240
            },
            {
                "type": "note_on",
                "note": 55,
                "channel": 0,
                "velocity": 68,
                "time": 0
            },
            {
                "type": "note_off",
                "note": 55,
                "channel": 0,
                "velocity": 68,
                "time": 240
            },
            {
                "type": "note_on",
                "note": 50,
                "channel": 0,
                "velocity": 68,
                "time": 0
            },
            {
                "type": "note_off",
                "note": 50,
                "channel": 0,
                "velocity": 68,
                "time": 240
            },
            {
                "type": "note_on",
                "note": 45,
                "channel": 0,
                "velocity": 78,
                "time": 0
            },
            {
                "type": "note_off",
                "note": 45,
                "channel": 0,
                "velocity": 78,
                "time": 120
            },
            {
                "type": "note_on",
                "note": 52,
                "channel": 0,
                "velocity": 78,
                "time": 0
            },
            {
                "type": "note_off",
                "note": 52,
                "channel": 0,
                "velocity": 78,
                "time": 240
            },
            {
                "type": "note_on",
                "note": 57,
                "channel": 0,
                "velocity": 78,
                "time": 0
            },
            {
                "type": "note_off",
                "note": 57,
                "channel": 0,
                "velocity": 78,
                "time": 120
            },
            {
                "type": "note_on",
                "note": 60,
                "channel": 0,
                "velocity": 68,
                "time": 0
            },
            {
                "type": "note_off",
                "note": 60,
                "channel": 0,
                "velocity": 68,
                "time": 240
            },
            {
                "type": "note_on",
                "note": 64,
                "channel": 0,
                "velocity": 68,
                "time": 0
            },
            {
                "type": "note_off",
                "note": 64,
                "channel": 0,
                "velocity": 68,
                "time": 240
            },
            {
                "type": "note_on",
                "note": 33,
                "channel": 0,
                "velocity": 88,
                "time": 0
            },
            {
                "type": "note_on",
                "note": 45,
                "channel": 0,
                "velocity": 88,
                "time": 0
            },
            {
                "type": "note_off",
                "note": 33,
                "channel": 0,
                "velocity": 88,
                "time": 480
            },
            {
                "type": "note_off",
                "note": 45,
                "channel": 0,
                "velocity": 88,
                "time": 0
            },
            {
                "type": "note_on",
                "note": 52,
                "channel": 0,
                "velocity": 68,
                "time": 0
            },
            {
                "type": "note_on",
                "note": 57,
                "channel": 0,
                "velocity": 68,
                "time": 0
            },
            {
                "type": "note_off",
                "note": 52,
                "channel": 0,
                "velocity": 68,
                "time": 480
            },
            {
                "type": "note_off",
                "note": 57,
                "channel": 0,
                "velocity": 68,
                "time": 0
            },
            {
                "type": "note_on",
                "note": 41,
                "channel": 0,
                "velocity": 78,
                "time": 0
            },
            {
                "type": "note_off",
                "note": 41,
                "channel": 0,
                "velocity": 78,
                "time": 240
            },
            {
                "type": "note_on",
                "note": 48,
                "channel": 0,
                "velocity": 78,
                "time": 0
            },
            {
                "type": "note_off",
                "note": 48,
                "channel": 0,
                "velocity": 78,
                "time": 240
            },
            {
                "type": "note_on",
                "note": 53,
                "channel": 0,
                "velocity": 68,
                "time": 0
            },
            {
                "type": "note_on",
                "note": 57,
                "channel": 0,
                "velocity": 68,
                "time": 0
            },
            {
                "type": "note_off",
                "note": 53,
                "channel": 0,
                "velocity": 68,
                "time": 480
            },
            {
                "type": "note_off",
                "note": 57,
                "channel": 0,
                "velocity": 68,
                "time": 0
            },
            {
                "type": "note_on",
                "note": 43,
                "channel": 0,
                "velocity": 88,
                "time": 0
            },
            {
                "type": "note_off",
                "note": 43,
                "channel": 0,
                "velocity": 88,
                "time": 240
            },
            {
                "type": "note_on",
                "note": 50,
                "channel": 0,
                "velocity": 88,
                "time": 0
            },
            {
                "type": "note_off",
                "note": 50,
                "channel": 0,
                "velocity": 88,
                "time": 240
            },
            {
                "type": "note_on",
                "note": 55,
                "channel": 0,
                "velocity": 68,
                "time": 0
            },
            {
                "type": "note_on",
                "note": 62,
                "channel": 0,
                "velocity": 68,
                "time": 0
            },
            {
                "type": "note_off",
                "note": 55,
                "channel": 0,
                "velocity": 68,
                "time": 240
            },
            {
                "type": "note_off",
                "note": 62,
                "channel": 0,
                "velocity": 68,
                "time": 0
            },
            {
                "type": "note_on",
                "note": 50,
                "channel": 0,
                "velocity": 68,
                "time": 0
            },
            {
                "type": "note_off",
                "note": 50,
                "channel": 0,
                "velocity": 68,
                "time": 240
            },
            {
                "type": "note_on",
                "note": 48,
                "channel": 0,
                "velocity": 78,
                "time": 0
            },
            {
                "type": "note_on",
                "note": 60,
                "channel": 0,
                "velocity": 78,
                "time": 0
            },
            {
                "type": "note_off",
                "note": 48,
                "channel": 0,
                "velocity": 78,
                "time": 240
            },
            {
                "type": "note_off",
                "note": 60,
                "channel": 0,
                "velocity": 78,
                "time": 0
            },
            {
                "type": "note_on",
                "note": 55,
                "channel": 0,
                "velocity": 78,
                "time": 0
            },
            {
                "type": "note_off",
                "note": 55,
                "channel": 0,
                "velocity": 78,
                "time": 240
            },
            {
                "type": "note_on",
                "note": 47,
                "channel": 0,
                "velocity": 68,
                "time": 0
            },
            {
                "type": "note_on",
                "note": 59,
                "channel": 0,
                "velocity": 68,
                "time": 0
            },
            {
                "type": "note_off",
                "note": 47,
                "channel": 0,
                "velocity": 68,
                "time": 240
            },
            {
                "type": "note_off",
                "note": 59,
                "channel": 0,
                "velocity": 68,
                "time": 0
            },
            {
                "type": "note_on",
                "note": 55,
                "channel": 0,
                "velocity": 68,
                "time": 0
            },
            {
                "type": "note_off",
                "note": 55,
                "channel": 0,
                "velocity": 68,
                "time": 240
            },
            {
                "type": "note_on",
                "note": 33,
                "channel": 0,
                "velocity": 88,
                "time": 0
            },
            {
                "type": "note_on",
                "note": 45,
                "channel": 0,
                "velocity": 88,
                "time": 0
            },
            {
                "type": "note_off",
                "note": 33,
                "channel": 0,
                "velocity": 88,
                "time": 480
            },
            {
                "type": "note_off",
                "note": 45,
                "channel": 0,
                "velocity": 88,
                "time": 0
            },
            {
                "type": "note_on",
                "note": 55,
                "channel": 0,
                "velocity": 68,
                "time": 0
            },
            {
                "type": "note_on",
                "note": 57,
                "channel": 0,
                "velocity": 68,
                "time": 0
            },
            {
                "type": "note_off",
                "note": 55,
                "channel": 0,
                "velocity": 68,
                "time": 360
            },
            {
                "type": "note_off",
                "note": 57,
                "channel": 0,
                "velocity": 68,
                "time": 0
            },
            {
                "type": "note_on",
                "note": 52,
                "channel": 0,
                "velocity": 68,
                "time": 0
            },
            {
                "type": "note_off",
                "note": 52,
                "channel": 0,
                "velocity": 68,
                "time": 120
            },
            {
                "type": "note_on",
                "note": 41,
                "channel": 0,
                "velocity": 78,
                "time": 0
            },
            {
                "type": "note_off",
                "note": 41,
                "channel": 0,
                "velocity": 78,
                "time": 240
            },
            {
                "type": "note_on",
                "note": 48,
                "channel": 0,
                "velocity": 78,
                "time": 0
            },
            {
                "type": "note_off",
                "note": 48,
                "channel": 0,
                "velocity": 78,
                "time": 120
            },
            {
                "type": "note_on",
                "note": 53,
                "channel": 0,
                "velocity": 78,
                "time": 0
            },
            {
                "type": "note_off",
                "note": 53,
                "channel": 0,
                "velocity": 78,
                "time": 120
            },
            {
                "type": "note_on",
                "note": 57,
                "channel": 0,
                "velocity": 68,
                "time": 0
            },
            {
                "type": "note_off",
                "note": 57,
                "channel": 0,
                "velocity": 68,
                "time": 240
            },
            {
                "type": "note_on",
                "note": 48,
                "channel": 0,
                "velocity": 68,
                "time": 0
            },
            {
                "type": "note_off",
                "note": 48,
                "channel": 0,
                "velocity": 68,
                "time": 240
            },
            {
                "type": "note_on",
                "note": 43,
                "channel": 0,
                "velocity": 88,
                "time": 0
            },
            {
                "type": "note_off",
                "note": 43,
                "channel": 0,
                "velocity": 88,
                "time": 240
            },
            {
                "type": "note_on",
                "note": 50,
                "channel": 0,
                "velocity": 88,
                "time": 0
            },
            {
                "type": "note_off",
                "note": 50,
                "channel": 0,
                "velocity": 88,
                "time": 240
            },
            {
                "type": "note_on",
                "note": 55,
                "channel": 0,
                "velocity": 68,
                "time": 0
            },
            {
                "type": "note_off",
                "note": 55,
                "channel": 0,
                "velocity": 68,
                "time": 240
            },
            {
                "type": "note_on",
                "note": 50,
                "channel": 0,
                "velocity": 68,
                "time": 0
            },
            {
                "type": "note_off",
                "note": 50,
                "channel": 0,
                "velocity": 68,
                "time": 120
            },
            {
                "type": "note_on",
                "note": 57,
                "channel": 0,
                "velocity": 68,
                "time": 0
            },
            {
                "type": "note_off",
                "note": 57,
                "channel": 0,
                "velocity": 68,
                "time": 120
            },
            {
                "type": "note_on",
                "note": 45,
                "channel": 0,
                "velocity": 78,
                "time": 0
            },
            {
                "type": "note_on",
                "note": 57,
                "channel": 0,
                "velocity": 78,
                "time": 0
            },
            {
                "type": "note_off",
                "note": 45,
                "channel": 0,
                "velocity": 78,
                "time": 240
            },
            {
                "type": "note_off",
                "note": 57,
                "channel": 0,
                "velocity": 78,
                "time": 0
            },
            {
                "type": "note_on",
                "note": 52,
                "channel": 0,
                "velocity": 78,
                "time": 0
            },
            {
                "type": "note_off",
                "note": 52,
                "channel": 0,
                "velocity": 78,
                "time": 240
            },
            {
                "type": "note_on",
                "note": 57,
                "channel": 0,
                "velocity": 68,
                "time": 0
            },
            {
                "type": "note_off",
                "note": 57,
                "channel": 0,
                "velocity": 68,
                "time": 120
            },
            {
                "type": "note_on",
                "note": 52,
                "channel": 0,
                "velocity": 68,
                "time": 0
            },
            {
                "type": "note_off",
                "note": 52,
                "channel": 0,
                "velocity": 68,
                "time": 120
            },
            {
                "type": "note_on",
                "note": 45,
                "channel": 0,
                "velocity": 68,
                "time": 0
            },
            {
                "type": "note_off",
                "note": 45,
                "channel": 0,
                "velocity": 68,
                "time": 240
            },
            {
                "type": "note_on",
                "note": 45,
                "channel": 0,
                "velocity": 88,
                "time": 0
            },
            {
                "type": "note_on",
                "note": 52,
                "channel": 0,
                "velocity": 88,
                "time": 0
            },
            {
                "type": "note_on",
                "note": 57,
                "channel": 0,
                "velocity": 88,
                "time": 0
            },
            {
                "type": "note_off",
                "note": 45,
                "channel": 0,
                "velocity": 88,
                "time": 360
            },
            {
                "type": "note_off",
                "note": 52,
                "channel": 0,
                "velocity": 88,
                "time": 0
            },
            {
                "type": "note_off",
                "note": 57,
                "channel": 0,
                "velocity": 88,
                "time": 0
            },
            {
                "type": "note_on",
                "note": 57,
                "channel": 0,
                "velocity": 88,
                "time": 0
            },
            {
                "type": "note_off",
                "note": 57,
                "channel": 0,
                "velocity": 88,
                "time": 120
            },
            {
                "type": "note_on",
                "note": 64,
                "channel": 0,
                "velocity": 68,
                "time": 0
            },
            {
                "type": "note_on",
                "note": 67,
                "channel": 0,
                "velocity": 68,
                "time": 0
            },
            {
                "type": "note_off",
                "note": 64,
                "channel": 0,
                "velocity": 68,
                "time": 480
            },
            {
                "type": "note_off",
                "note": 67,
                "channel": 0,
                "velocity": 68,
                "time": 0
            },
            {
                "type": "note_on",
                "note": 41,
                "channel": 0,
                "velocity": 78,
                "time": 0
            },
            {
                "type": "note_off",
                "note": 41,
                "channel": 0,
                "velocity": 78,
                "time": 240
            },
            {
                "type": "note_on",
                "note": 48,
                "channel": 0,
                "velocity": 78,
                "time": 0
            },
            {
                "type": "note_off",
                "note": 48,
                "channel": 0,
                "velocity": 78,
                "time": 240
            },
            {
                "type": "note_on",
                "note": 53,
                "channel": 0,
                "velocity": 68,
                "time": 0
            },
            {
                "type": "note_on",
                "note": 57,
                "channel": 0,
                "velocity": 68,
                "time": 0
            },
            {
                "type": "note_on",
                "note": 60,
                "channel": 0,
                "velocity": 68,
                "time": 0
            },
            {
                "type": "note_off",
                "note": 53,
                "channel": 0,
                "velocity": 68,
                "time": 480
            },
            {
                "type": "note_off",
                "note": 57,
                "channel": 0,
                "velocity": 68,
                "time": 0
            },
            {
                "type": "note_off",
                "note": 60,
                "channel": 0,
                "velocity": 68,
                "time": 0
            },
            {
                "type": "note_on",
                "note": 43,
                "channel": 0,
                "velocity": 88,
                "time": 0
            },
            {
                "type": "note_off",
                "note": 43,
                "channel": 0,
                "velocity": 88,
                "time": 240
            },
            {
                "type": "note_on",
                "note": 50,
                "channel": 0,
                "velocity": 88,
                "time": 0
            },
            {
                "type": "note_off",
                "note": 50,
                "channel": 0,
                "velocity": 88,
                "time": 120
            },
            {
                "type": "note_on",
                "note": 55,
                "channel": 0,
                "velocity": 88,
                "time": 0
            },
            {
                "type": "note_off",
                "note": 55,
                "channel": 0,
                "velocity": 88,
                "time": 120
            },
            {
                "type": "note_on",
                "note": 59,
                "channel": 0,
                "velocity": 68,
                "time": 0
            },
            {
                "type": "note_on",
                "note": 62,
                "channel": 0,
                "velocity": 68,
                "time": 0
            },
            {
                "type": "note_off",
                "note": 59,
                "channel": 0,
                "velocity": 68,
                "time": 480
            },
            {
                "type": "note_off",
                "note": 62,
                "channel": 0,
                "velocity": 68,
                "time": 0
            },
            {
                "type": "note_on",
                "note": 48,
                "channel": 0,
                "velocity": 78,
                "time": 0
            },
            {
                "type": "note_on",
                "note": 60,
                "channel": 0,
                "velocity": 78,
                "time": 0
            },
            {
                "type": "note_off",
                "note": 48,
                "channel": 0,
                "velocity": 78,
                "time": 240
            },
            {
                "type": "note_off",
                "note": 60,
                "channel": 0,
                "velocity": 78,
                "time": 0
            },
            {
                "type": "note_on",
                "note": 55,
                "channel": 0,
                "velocity": 78,
                "time": 0
            },
            {
                "type": "note_off",
                "note": 55,
                "channel": 0,
                "velocity": 78,
                "time": 240
            },
            {
                "type": "note_on",
                "note": 47,
                "channel": 0,
                "velocity": 68,
                "time": 0
            },
            {
                "type": "note_on",
                "note": 55,
                "channel": 0,
                "velocity": 68,
                "time": 0
            },
            {
                "type": "note_on",
                "note": 59,
                "channel": 0,
                "velocity": 68,
                "time": 0
            },
            {
                "type": "note_off",
                "note": 47,
                "channel": 0,
                "velocity": 68,
                "time": 480
            },
            {
                "type": "note_off",
                "note": 55,
                "channel": 0,
                "velocity": 68,
                "time": 0
            },
            {
                "type": "note_off",
                "note": 59,
                "channel": 0,
                "velocity": 68,
                "time": 0
            },
            {
                "type": "note_on",
                "note": 45,
                "channel": 0,
                "velocity": 88,
                "time": 0
            },
            {
                "type": "note_on",
                "note": 57,
                "channel": 0,
                "velocity": 88,
                "time": 0
            },
            {
                "type": "note_off",
                "note": 45,
                "channel": 0,
                "velocity": 88,
                "time": 480
            },
            {
                "type": "note_off",
                "note": 57,
                "channel": 0,
                "velocity": 88,
                "time": 0
            },
            {
                "type": "note_on",
                "note": 60,
                "channel": 0,
                "velocity": 68,
                "time": 0
            },
            {
                "type": "note_on",
                "note": 64,
                "channel": 0,
                "velocity": 68,
                "time": 0
            },
            {
                "type": "note_on",
                "note": 67,
                "channel": 0,
                "velocity": 68,
                "time": 0
            },
            {
                "type": "note_off",
                "note": 60,
                "channel": 0,
                "velocity": 68,
                "time": 480
            },
            {
                "type": "note_off",
                "note": 64,
                "channel": 0,
                "velocity": 68,
                "time": 0
            },
            {
                "type": "note_off",
                "note": 67,
                "channel": 0,
                "velocity": 68,
                "time": 0
            },
            {
                "type": "note_on",
                "note": 41,
                "channel": 0,
                "velocity": 78,
                "time": 0
            },
            {
                "type": "note_off",
                "note": 41,
                "channel": 0,
                "velocity": 78,
                "time": 240
            },
            {
                "type": "note_on",
                "note": 48,
                "channel": 0,
                "velocity": 78,
                "time": 0
            },
            {
                "type": "note_off",
                "note": 48,
                "channel": 0,
                "velocity": 78,
                "time": 120
            },
            {
                "type": "note_on",
                "note": 53,
                "channel": 0,
                "velocity": 78,
                "time": 0
            },
            {
                "type": "note_off",
                "note": 53,
                "channel": 0,
                "velocity": 78,
                "time": 120
            },
            {
                "type": "note_on",
                "note": 60,
                "channel": 0,
                "velocity": 68,
                "time": 0
            },
            {
                "type": "note_off",
                "note": 60,
                "channel": 0,
                "velocity": 68,
                "time": 480
            },
            {
                "type": "note_on",
                "note": 43,
                "channel": 0,
                "velocity": 88,
                "time": 0
            },
            {
                "type": "note_off",
                "note": 43,
                "channel": 0,
                "velocity": 88,
                "time": 240
            },
            {
                "type": "note_on",
                "note": 50,
                "channel": 0,
                "velocity": 88,
                "time": 0
            },
            {
                "type": "note_off",
                "note": 50,
                "channel": 0,
                "velocity": 88,
                "time": 120
            },
            {
                "type": "note_on",
                "note": 55,
                "channel": 0,
                "velocity": 88,
                "time": 0
            },
            {
                "type": "note_off",
                "note": 55,
                "channel": 0,
                "velocity": 88,
                "time": 600
            },
            {
                "type": "note_on",
                "note": 45,
                "channel": 0,
                "velocity": 78,
                "time": 0
            },
            {
                "type": "note_off",
                "note": 45,
                "channel": 0,
                "velocity": 78,
                "time": 120
            },
            {
                "type": "note_on",
                "note": 52,
                "channel": 0,
                "velocity": 78,
                "time": 0
            },
            {
                "type": "note_off",
                "note": 52,
                "channel": 0,
                "velocity": 78,
                "time": 120
            },
            {
                "type": "note_on",
                "note": 57,
                "channel": 0,
                "velocity": 78,
                "time": 0
            },
            {
                "type": "note_off",
                "note": 57,
                "channel": 0,
                "velocity": 78,
                "time": 120
            },
            {
                "type": "note_on",
                "note": 62,
                "channel": 0,
                "velocity": 78,
                "time": 0
            },
            {
                "type": "note_off",
                "note": 62,
                "channel": 0,
                "velocity": 78,
                "time": 120
            },
            {
                "type": "note_on",
                "note": 33,
                "channel": 0,
                "velocity": 88,
                "time": 480
            },
            {
                "type": "note_on",
                "note": 45,
                "channel": 0,
                "velocity": 88,
                "time": 0
            },
            {
                "type": "note_off",
                "note": 33,
                "channel": 0,
                "velocity": 88,
                "time": 1920
            },
            {
                "type": "note_off",
                "note": 45,
                "channel": 0,
                "velocity": 88,
                "time": 0
            }
        ]
    }
}