{
    "Track0": {
        "time_signature": [
            {
                "numerator": 4,
                "denominator": 4,
                "clocks_per_click": 96,
                "notated_32nd_notes_per_beat": 8,
                "time": 0
            }
        ],
        "set_tempo": [
            {
                "tempo": 476190,
                "time": 0
            }
        ],
        "program_change": [],
        "key_signature": [],
        "note": []
    },
    "Track1": {
        "time_signature": [],
        "set_tempo": [],
        "program_change": [
            {
                "program": 0,
                "channel": 0,
                "time": 0
            }
        ],
        "key_signature": [
            {
                "key": "A",
                "time": 0
            }
        ],
        "note": [
            {
                "type": "note_on",
                "note": 66,
                "channel": 0,
                "velocity": 114,
                "time": 0
            },
            {
                "type": "note_off",
                "note": 66,
                "channel": 0,
                "velocity": 114,
                "time": 480
            },
            {
                "type": "note_on",
                "note": 66,
                "channel": 0,
                "velocity": 101,
                "time": 0
            },
            {
                "type": "note_off",
                "note": 66,
                "channel": 0,
                "velocity": 101,
                "time": 240
            },
            {
                "type": "note_on",
                "note": 73,
                "channel": 0,
                "velocity": 101,
                "time": 0
            },
            {
                "type": "note_off",
                "note": 73,
                "channel": 0,
                "velocity": 101,
                "time": 240
            },
            {
                "type": "note_on",
                "note": 71,
                "channel": 0,
                "velocity": 107,
                "time": 0
            },
            {
                "type": "note_off",
                "note": 71,
                "channel": 0,
                "velocity": 107,
                "time": 480
            },
            {
                "type": "note_on",
                "note": 69,
                "channel": 0,
                "velocity": 101,
                "time": 0
            },
            {
                "type": "note_off",
                "note": 69,
                "channel": 0,
                "velocity": 101,
                "time": 480
            },
            {
                "type": "note_on",
                "note": 68,
                "channel": 0,
                "velocity": 114,
                "time": 0
            },
            {
                "type": "note_off",
                "note": 68,
                "channel": 0,
                "velocity": 114,
                "time": 480
            },
            {
                "type": "note_on",
                "note": 68,
                "channel": 0,
                "velocity": 101,
                "time": 0
            },
            {
                "type": "note_off",
                "note": 68,
                "channel": 0,
                "velocity": 101,
                "time": 240
            },
            {
                "type": "note_on",
                "note": 68,
                "channel": 0,
                "velocity": 101,
                "time": 0
            },
            {
                "type": "note_off",
                "note": 68,
                "channel": 0,
                "velocity": 101,
                "time": 240
            },
            {
                "type": "note_on",
                "note": 71,
                "channel": 0,
                "velocity": 107,
                "time": 0
            },
            {
                "type": "note_off",
                "note": 71,
                "channel": 0,
                "velocity": 107,
                "time": 480
            },
            {
                "type": "note_on",
                "note": 69,
                "channel": 0,
                "velocity": 101,
                "time": 0
            },
            {
                "type": "note_off",
                "note": 69,
                "channel": 0,
                "velocity": 101,
                "time": 240
            },
            {
                "type": "note_on",
                "note": 68,
                "channel": 0,
                "velocity": 101,
                "time": 0
            },
            {
                "type": "note_off",
                "note": 68,
                "channel": 0,
                "velocity": 101,
                "time": 240
            },
            {
                "type": "note_on",
                "note": 66,
                "channel": 0,
                "velocity": 114,
                "time": 0
            },
            {
                "type": "note_off",
                "note": 66,
                "channel": 0,
                "velocity": 114,
                "time": 480
            },
            {
                "type": "note_on",
                "note": 66,
                "channel": 0,
                "velocity": 101,
                "time": 0
            },
            {
                "type": "note_off",
                "note": 66,
                "channel": 0,
                "velocity": 101,
                "time": 240
            },
            {
                "type": "note_on",
                "note": 81,
                "channel": 0,
                "velocity": 101,
                "time": 0
            },
            {
                "type": "note_off",
                "note": 81,
                "channel": 0,
                "velocity": 101,
                "time": 240
            },
            {
                "type": "note_on",
                "note": 80,
                "channel": 0,
                "velocity": 107,
                "time": 0
            },
            {
                "type": "note_off",
                "note": 80,
                "channel": 0,
                "velocity": 107,
                "time": 240
            },
            {
                "type": "note_on",
                "note": 81,
                "channel": 0,
                "velocity": 107,
                "time": 0
            },
            {
                "type": "note_off",
                "note": 81,
                "channel": 0,
                "velocity": 107,
                "time": 240
            },
            {
                "type": "note_on",
                "note": 80,
                "channel": 0,
                "velocity": 101,
                "time": 0
            },
            {
                "type": "note_off",
                "note": 80,
                "channel": 0,
                "velocity": 101,
                "time": 240
            },
            {
                "type": "note_on",
                "note": 81,
                "channel": 0,
                "velocity": 101,
                "time": 0
            },
            {
                "type": "note_off",
                "note": 81,
                "channel": 0,
                "velocity": 101,
                "time": 240
            },
            {
                "type": "note_on",
                "note": 66,
                "channel": 0,
                "velocity": 114,
                "time": 0
            },
            {
                "type": "note_off",
                "note": 66,
                "channel": 0,
                "velocity": 114,
                "time": 480
            },
            {
                "type": "note_on",
                "note": 66,
                "channel": 0,
                "velocity": 101,
                "time": 0
            },
            {
                "type": "note_off",
                "note": 66,
                "channel": 0,
                "velocity": 101,
                "time": 240
            },
            {
                "type": "note_on",
                "note": 81,
                "channel": 0,
                "velocity": 101,
                "time": 0
            },
            {
                "type": "note_off",
                "note": 81,
                "channel": 0,
                "velocity": 101,
                "time": 240
            },
            {
                "type": "note_on",
                "note": 80,
                "channel": 0,
                "velocity": 107,
                "time": 0
            },
            {
                "type": "note_off",
                "note": 80,
                "channel": 0,
                "velocity": 107,
                "time": 240
            },
            {
                "type": "note_on",
                "note": 81,
                "channel": 0,
                "velocity": 107,
                "time": 0
            },
            {
                "type": "note_off",
                "note": 81,
                "channel": 0,
                "velocity": 107,
                "time": 240
            },
            {
                "type": "note_on",
                "note": 80,
                "channel": 0,
                "velocity": 101,
                "time": 0
            },
            {
                "type": "note_off",
                "note": 80,
                "channel": 0,
                "velocity": 101,
                "time": 240
            },
            {
                "type": "note_on",
                "note": 81,
                "channel": 0,
                "velocity": 101,
                "time": 0
            },
            {
                "type": "note_off",
                "note": 81,
                "channel": 0,
                "velocity": 101,
                "time": 240
            },
            {
                "type": "note_on",
                "note": 66,
                "channel": 0,
                "velocity": 114,
                "time": 0
            },
            {
                "type": "note_off",
                "note": 66,
                "channel": 0,
                "velocity": 114,
                "time": 480
            },
            {
                "type": "note_on",
                "note": 66,
                "channel": 0,
                "velocity": 101,
                "time": 0
            },
            {
                "type": "note_off",
                "note": 66,
                "channel": 0,
                "velocity": 101,
                "time": 240
            },
            {
                "type": "note_on",
                "note": 73,
                "channel": 0,
                "velocity": 101,
                "time": 0
            },
            {
                "type": "note_off",
                "note": 73,
                "channel": 0,
                "velocity": 101,
                "time": 240
            },
            {
                "type": "note_on",
                "note": 71,
                "channel": 0,
                "velocity": 107,
                "time": 0
            },
            {
                "type": "note_off",
                "note": 71,
                "channel": 0,
                "velocity": 107,
                "time": 480
            },
            {
                "type": "note_on",
                "note": 69,
                "channel": 0,
                "velocity": 101,
                "time": 0
            },
            {
                "type": "note_off",
                "note": 69,
                "channel": 0,
                "velocity": 101,
                "time": 480
            },
            {
                "type": "note_on",
                "note": 68,
                "channel": 0,
                "velocity": 114,
                "time": 0
            },
            {
                "type": "note_off",
                "note": 68,
                "channel": 0,
                "velocity": 114,
                "time": 480
            },
            {
                "type": "note_on",
                "note": 68,
                "channel": 0,
                "velocity": 101,
                "time": 0
            },
            {
                "type": "note_off",
                "note": 68,
                "channel": 0,
                "velocity": 101,
                "time": 240
            },
            {
                "type": "note_on",
                "note": 68,
                "channel": 0,
                "velocity": 101,
                "time": 0
            },
            {
                "type": "note_off",
                "note": 68,
                "channel": 0,
                "velocity": 101,
                "time": 240
            },
            {
                "type": "note_on",
                "note": 71,
                "channel": 0,
                "velocity": 107,
                "time": 0
            },
            {
                "type": "note_off",
                "note": 71,
                "channel": 0,
                "velocity": 107,
                "time": 480
            },
            {
                "type": "note_on",
                "note": 69,
                "channel": 0,
                "velocity": 101,
                "time": 0
            },
            {
                "type": "note_off",
                "note": 69,
                "channel": 0,
                "velocity": 101,
                "time": 240
            },
            {
                "type": "note_on",
                "note": 68,
                "channel": 0,
                "velocity": 101,
                "time": 0
            },
            {
                "type": "note_off",
                "note": 68,
                "channel": 0,
                "velocity": 101,
                "time": 240
            },
            {
                "type": "note_on",
                "note": 66,
                "channel": 0,
                "velocity": 114,
                "time": 0
            },
            {
                "type": "note_off",
                "note": 66,
                "channel": 0,
                "velocity": 114,
                "time": 480
            },
            {
                "type": "note_on",
                "note": 66,
                "channel": 0,
                "velocity": 101,
                "time": 0
            },
            {
                "type": "note_off",
                "note": 66,
                "channel": 0,
                "velocity": 101,
                "time": 240
            },
            {
                "type": "note_on",
                "note": 81,
                "channel": 0,
                "velocity": 101,
                "time": 0
            },
            {
                "type": "note_off",
                "note": 81,
                "channel": 0,
                "velocity": 101,
                "time": 240
            },
            {
                "type": "note_on",
                "note": 80,
                "channel": 0,
                "velocity": 107,
                "time": 0
            },
            {
                "type": "note_off",
                "note": 80,
                "channel": 0,
                "velocity": 107,
                "time": 240
            },
            {
                "type": "note_on",
                "note": 81,
                "channel": 0,
                "velocity": 107,
                "time": 0
            },
            {
                "type": "note_off",
                "note": 81,
                "channel": 0,
                "velocity": 107,
                "time": 240
            },
            {
                "type": "note_on",
                "note": 80,
                "channel": 0,
                "velocity": 101,
                "time": 0
            },
            {
                "type": "note_off",
                "note": 80,
                "channel": 0,
                "velocity": 101,
                "time": 240
            },
            {
                "type": "note_on",
                "note": 81,
                "channel": 0,
                "velocity": 101,
                "time": 0
            },
            {
                "type": "note_off",
                "note": 81,
                "channel": 0,
                "velocity": 101,
                "time": 240
            },
            {
                "type": "note_on",
                "note": 66,
                "channel": 0,
                "velocity": 114,
                "time": 0
            },
            {
                "type": "note_off",
                "note": 66,
                "channel": 0,
                "velocity": 114,
                "time": 480
            },
            {
                "type": "note_on",
                "note": 66,
                "channel": 0,
                "velocity": 101,
                "time": 0
            },
            {
                "type": "note_off",
                "note": 66,
                "channel": 0,
                "velocity": 101,
                "time": 240
            },
            {
                "type": "note_on",
                "note": 81,
                "channel": 0,
                "velocity": 101,
                "time": 0
            },
            {
                "type": "note_off",
                "note": 81,
                "channel": 0,
                "velocity": 101,
                "time": 240
            },
            {
                "type": "note_on",
                "note": 80,
                "channel": 0,
                "velocity": 107,
                "time": 0
            },
            {
                "type": "note_off",
                "note": 80,
                "channel": 0,
                "velocity": 107,
                "time": 240
            },
            {
                "type": "note_on",
                "note": 81,
                "channel": 0,
                "velocity": 107,
                "time": 0
            },
            {
                "type": "note_off",
                "note": 81,
                "channel": 0,
                "velocity": 107,
                "time": 240
            },
            {
                "type": "note_on",
                "note": 80,
                "channel": 0,
                "velocity": 101,
                "time": 0
            },
            {
                "type": "note_off",
                "note": 80,
                "channel": 0,
                "velocity": 101,
                "time": 240
            },
            {
                "type": "note_on",
                "note": 81,
                "channel": 0,
                "velocity": 101,
                "time": 0
            },
            {
                "type": "note_off",
                "note": 81,
                "channel": 0,
                "velocity": 101,
                "time": 240
            },
            {
                "type": "note_on",
                "note": 66,
                "channel": 0,
                "velocity": 114,
                "time": 0
            },
            {
                "type": "note_off",
                "note": 66,
                "channel": 0,
                "velocity": 114,
                "time": 480
            },
            {
                "type": "note_on",
                "note": 66,
                "channel": 0,
                "velocity": 101,
                "time": 0
            },
            {
                "type": "note_off",
                "note": 66,
                "channel": 0,
                "velocity": 101,
                "time": 240
            },
            {
                "type": "note_on",
                "note": 73,
                "channel": 0,
                "velocity": 101,
                "time": 0
            },
            {
                "type": "note_off",
                "note": 73,
                "channel": 0,
                "velocity": 101,
                "time": 240
            },
            {
                "type": "note_on",
                "note": 71,
                "channel": 0,
                "velocity": 107,
                "time": 0
            },
            {
                "type": "note_off",
                "note": 71,
                "channel": 0,
                "velocity": 107,
                "time": 480
            },
            {
                "type": "note_on",
                "note": 69,
                "channel": 0,
                "velocity": 101,
                "time": 0
            },
            {
                "type": "note_off",
                "note": 69,
                "channel": 0,
                "velocity": 101,
                "time": 480
            },
            {
                "type": "note_on",
                "note": 68,
                "channel": 0,
                "velocity": 114,
                "time": 0
            },
            {
                "type": "note_off",
                "note": 68,
                "channel": 0,
                "velocity": 114,
                "time": 480
            },
            {
                "type": "note_on",
                "note": 68,
                "channel": 0,
                "velocity": 101,
                "time": 0
            },
            {
                "type": "note_off",
                "note": 68,
                "channel": 0,
                "velocity": 101,
                "time": 240
            },
            {
                "type": "note_on",
                "note": 68,
                "channel": 0,
                "velocity": 101,
                "time": 0
            },
            {
                "type": "note_off",
                "note": 68,
                "channel": 0,
                "velocity": 101,
                "time": 240
            },
            {
                "type": "note_on",
                "note": 71,
                "channel": 0,
                "velocity": 107,
                "time": 0
            },
            {
                "type": "note_off",
                "note": 71,
                "channel": 0,
                "velocity": 107,
                "time": 480
            },
            {
                "type": "note_on",
                "note": 69,
                "channel": 0,
                "velocity": 101,
                "time": 0
            },
            {
                "type": "note_off",
                "note": 69,
                "channel": 0,
                "velocity": 101,
                "time": 240
            },
            {
                "type": "note_on",
                "note": 68,
                "channel": 0,
                "velocity": 101,
                "time": 0
            },
            {
                "type": "note_off",
                "note": 68,
                "channel": 0,
                "velocity": 101,
                "time": 240
            },
            {
                "type": "note_on",
                "note": 66,
                "channel": 0,
                "velocity": 114,
                "time": 0
            },
            {
                "type": "note_off",
                "note": 66,
                "channel": 0,
                "velocity": 114,
                "time": 480
            },
            {
                "type": "note_on",
                "note": 66,
                "channel": 0,
                "velocity": 101,
                "time": 0
            },
            {
                "type": "note_off",
                "note": 66,
                "channel": 0,
                "velocity": 101,
                "time": 240
            },
            {
                "type": "note_on",
                "note": 81,
                "channel": 0,
                "velocity": 101,
                "time": 0
            },
            {
                "type": "note_off",
                "note": 81,
                "channel": 0,
                "velocity": 101,
                "time": 240
            },
            {
                "type": "note_on",
                "note": 80,
                "channel": 0,
                "velocity": 107,
                "time": 0
            },
            {
                "type": "note_off",
                "note": 80,
                "channel": 0,
                "velocity": 107,
                "time": 240
            },
            {
                "type": "note_on",
                "note": 81,
                "channel": 0,
                "velocity": 107,
                "time": 0
            },
            {
                "type": "note_off",
                "note": 81,
                "channel": 0,
                "velocity": 107,
                "time": 240
            },
            {
                "type": "note_on",
                "note": 80,
                "channel": 0,
                "velocity": 101,
                "time": 0
            },
            {
                "type": "note_off",
                "note": 80,
                "channel": 0,
                "velocity": 101,
                "time": 240
            },
            {
                "type": "note_on",
                "note": 81,
                "channel": 0,
                "velocity": 101,
                "time": 0
            },
            {
                "type": "note_off",
                "note": 81,
                "channel": 0,
                "velocity": 101,
                "time": 240
            },
            {
                "type": "note_on",
                "note": 66,
                "channel": 0,
                "velocity": 114,
                "time": 0
            },
            {
                "type": "note_off",
                "note": 66,
                "channel": 0,
                "velocity": 114,
                "time": 480
            },
            {
                "type": "note_on",
                "note": 66,
                "channel": 0,
                "velocity": 101,
                "time": 0
            },
            {
                "type": "note_off",
                "note": 66,
                "channel": 0,
                "velocity": 101,
                "time": 240
            },
            {
                "type": "note_on",
                "note": 81,
                "channel": 0,
                "velocity": 101,
                "time": 0
            },
            {
                "type": "note_off",
                "note": 81,
                "channel": 0,
                "velocity": 101,
                "time": 240
            },
            {
                "type": "note_on",
                "note": 80,
                "channel": 0,
                "velocity": 107,
                "time": 0
            },
            {
                "type": "note_off",
                "note": 80,
                "channel": 0,
                "velocity": 107,
                "time": 240
            },
            {
                "type": "note_on",
                "note": 81,
                "channel": 0,
                "velocity": 107,
                "time": 0
            },
            {
                "type": "note_off",
                "note": 81,
                "channel": 0,
                "velocity": 107,
                "time": 240
            },
            {
                "type": "note_on",
                "note": 80,
                "channel": 0,
                "velocity": 101,
                "time": 0
            },
            {
                "type": "note_off",
                "note": 80,
                "channel": 0,
                "velocity": 101,
                "time": 240
            },
            {
                "type": "note_on",
                "note": 81,
                "channel": 0,
                "velocity": 101,
                "time": 0
            },
            {
                "type": "note_off",
                "note": 81,
                "channel": 0,
                "velocity": 101,
                "time": 240
            },
            {
                "type": "note_on",
                "note": 69,
                "channel": 0,
                "velocity": 114,
                "time": 0
            },
            {
                "type": "note_off",
                "note": 69,
                "channel": 0,
                "velocity": 114,
                "time": 240
            },
            {
                "type": "note_on",
                "note": 69,
                "channel": 0,
                "velocity": 114,
                "time": 0
            },
            {
                "type": "note_off",
                "note": 69,
                "channel": 0,
                "velocity": 114,
                "time": 240
            },
            {
                "type": "note_on",
                "note": 69,
                "channel": 0,
                "velocity": 101,
                "time": 0
            },
            {
                "type": "note_off",
                "note": 69,
                "channel": 0,
                "velocity": 101,
                "time": 240
            },
            {
                "type": "note_on",
                "note": 69,
                "channel": 0,
                "velocity": 101,
                "time": 0
            },
            {
                "type": "note_off",
                "note": 69,
                "channel": 0,
                "velocity": 101,
                "time": 240
            },
            {
                "type": "note_on",
                "note": 73,
                "channel": 0,
                "velocity": 107,
                "time": 0
            },
            {
                "type": "note_off",
                "note": 73,
                "channel": 0,
                "velocity": 107,
                "time": 240
            },
            {
                "type": "note_on",
                "note": 73,
                "channel": 0,
                "velocity": 107,
                "time": 0
            },
            {
                "type": "note_off",
                "note": 73,
                "channel": 0,
                "velocity": 107,
                "time": 240
            },
            {
                "type": "note_on",
                "note": 73,
                "channel": 0,
                "velocity": 101,
                "time": 0
            },
            {
                "type": "note_off",
                "note": 73,
                "channel": 0,
                "velocity": 101,
                "time": 240
            },
            {
                "type": "note_on",
                "note": 73,
                "channel": 0,
                "velocity": 101,
                "time": 0
            },
            {
                "type": "note_off",
                "note": 73,
                "channel": 0,
                "velocity": 101,
                "time": 240
            },
            {
                "type": "note_on",
                "note": 71,
                "channel": 0,
                "velocity": 114,
                "time": 0
            },
            {
                "type": "note_off",
                "note": 71,
                "channel": 0,
                "velocity": 114,
                "time": 240
            },
            {
                "type": "note_on",
                "note": 71,
                "channel": 0,
                "velocity": 114,
                "time": 0
            },
            {
                "type": "note_off",
                "note": 71,
                "channel": 0,
                "velocity": 114,
                "time": 240
            },
            {
                "type": "note_on",
                "note": 71,
                "channel": 0,
                "velocity": 101,
                "time": 0
            },
            {
                "type": "note_off",
                "note": 71,
                "channel": 0,
                "velocity": 101,
                "time": 240
            },
            {
                "type": "note_on",
                "note": 71,
                "channel": 0,
                "velocity": 101,
                "time": 0
            },
            {
                "type": "note_off",
                "note": 71,
                "channel": 0,
                "velocity": 101,
                "time": 240
            },
            {
                "type": "note_on",
                "note": 76,
                "channel": 0,
                "velocity": 107,
                "time": 0
            },
            {
                "type": "note_off",
                "note": 76,
                "channel": 0,
                "velocity": 107,
                "time": 240
            },
            {
                "type": "note_on",
                "note": 76,
                "channel": 0,
                "velocity": 107,
                "time": 0
            },
            {
                "type": "note_off",
                "note": 76,
                "channel": 0,
                "velocity": 107,
                "time": 240
            },
            {
                "type": "note_on",
                "note": 76,
                "channel": 0,
                "velocity": 101,
                "time": 0
            },
            {
                "type": "note_off",
                "note": 76,
                "channel": 0,
                "velocity": 101,
                "time": 240
            },
            {
                "type": "note_on",
                "note": 76,
                "channel": 0,
                "velocity": 101,
                "time": 0
            },
            {
                "type": "note_off",
                "note": 76,
                "channel": 0,
                "velocity": 101,
                "time": 240
            },
            {
                "type": "note_on",
                "note": 66,
                "channel": 0,
                "velocity": 114,
                "time": 0
            },
            {
                "type": "note_on",
                "note": 78,
                "channel": 0,
                "velocity": 114,
                "time": 0
            },
            {
                "type": "note_off",
                "note": 66,
                "channel": 0,
                "velocity": 114,
                "time": 240
            },
            {
                "type": "note_off",
                "note": 78,
                "channel": 0,
                "velocity": 114,
                "time": 0
            },
            {
                "type": "note_on",
                "note": 66,
                "channel": 0,
                "velocity": 114,
                "time": 0
            },
            {
                "type": "note_on",
                "note": 78,
                "channel": 0,
                "velocity": 114,
                "time": 0
            },
            {
                "type": "note_off",
                "note": 66,
                "channel": 0,
                "velocity": 114,
                "time": 240
            },
            {
                "type": "note_off",
                "note": 78,
                "channel": 0,
                "velocity": 114,
                "time": 0
            },
            {
                "type": "note_on",
                "note": 66,
                "channel": 0,
                "velocity": 101,
                "time": 0
            },
            {
                "type": "note_on",
                "note": 78,
                "channel": 0,
                "velocity": 101,
                "time": 0
            },
            {
                "type": "note_off",
                "note": 66,
                "channel": 0,
                "velocity": 101,
                "time": 240
            },
            {
                "type": "note_off",
                "note": 78,
                "channel": 0,
                "velocity": 101,
                "time": 0
            },
            {
                "type": "note_on",
                "note": 66,
                "channel": 0,
                "velocity": 101,
                "time": 0
            },
            {
                "type": "note_on",
                "note": 78,
                "channel": 0,
                "velocity": 101,
                "time": 0
            },
            {
                "type": "note_off",
                "note": 66,
                "channel": 0,
                "velocity": 101,
                "time": 240
            },
            {
                "type": "note_off",
                "note": 78,
                "channel": 0,
                "velocity": 101,
                "time": 0
            },
            {
                "type": "note_on",
                "note": 66,
                "channel": 0,
                "velocity": 107,
                "time": 0
            },
            {
                "type": "note_on",
                "note": 78,
                "channel": 0,
                "velocity": 107,
                "time": 0
            },
            {
                "type": "note_off",
                "note": 66,
                "channel": 0,
                "velocity": 107,
                "time": 240
            },
            {
                "type": "note_off",
                "note": 78,
                "channel": 0,
                "velocity": 107,
                "time": 0
            },
            {
                "type": "note_on",
                "note": 66,
                "channel": 0,
                "velocity": 107,
                "time": 0
            },
            {
                "type": "note_on",
                "note": 78,
                "channel": 0,
                "velocity": 107,
                "time": 0
            },
            {
                "type": "note_off",
                "note": 66,
                "channel": 0,
                "velocity": 107,
                "time": 240
            },
            {
                "type": "note_off",
                "note": 78,
                "channel": 0,
                "velocity": 107,
                "time": 0
            },
            {
                "type": "note_on",
                "note": 66,
                "channel": 0,
                "velocity": 101,
                "time": 0
            },
            {
                "type": "note_on",
                "note": 78,
                "channel": 0,
                "velocity": 101,
                "time": 0
            },
            {
                "type": "note_off",
                "note": 66,
                "channel": 0,
                "velocity": 101,
                "time": 240
            },
            {
                "type": "note_off",
                "note": 78,
                "channel": 0,
                "velocity": 101,
                "time": 0
            },
            {
                "type": "note_on",
                "note": 66,
                "channel": 0,
                "velocity": 101,
                "time": 0
            },
            {
                "type": "note_on",
                "note": 78,
                "channel": 0,
                "velocity": 101,
                "time": 0
            },
            {
                "type": "note_off",
                "note": 66,
                "channel": 0,
                "velocity": 101,
                "time": 240
            },
            {
                "type": "note_off",
                "note": 78,
                "channel": 0,
                "velocity": 101,
                "time": 0
            },
            {
                "type": "note_on",
                "note": 66,
                "channel": 0,
                "velocity": 114,
                "time": 0
            },
            {
                "type": "note_on",
                "note": 78,
                "channel": 0,
                "velocity": 114,
                "time": 0
            },
            {
                "type": "note_off",
                "note": 66,
                "channel": 0,
                "velocity": 114,
                "time": 240
            },
            {
                "type": "note_off",
                "note": 78,
                "channel": 0,
                "velocity": 114,
                "time": 0
            },
            {
                "type": "note_on",
                "note": 66,
                "channel": 0,
                "velocity": 114,
                "time": 0
            },
            {
                "type": "note_on",
                "note": 78,
                "channel": 0,
                "velocity": 114,
                "time": 0
            },
            {
                "type": "note_off",
                "note": 66,
                "channel": 0,
                "velocity": 114,
                "time": 240
            },
            {
                "type": "note_off",
                "note": 78,
                "channel": 0,
                "velocity": 114,
                "time": 0
            },
            {
                "type": "note_on",
                "note": 66,
                "channel": 0,
                "velocity": 101,
                "time": 0
            },
            {
                "type": "note_on",
                "note": 78,
                "channel": 0,
                "velocity": 101,
                "time": 0
            },
            {
                "type": "note_off",
                "note": 66,
                "channel": 0,
                "velocity": 101,
                "time": 240
            },
            {
                "type": "note_off",
                "note": 78,
                "channel": 0,
                "velocity": 101,
                "time": 0
            },
            {
                "type": "note_on",
                "note": 66,
                "channel": 0,
                "velocity": 101,
                "time": 0
            },
            {
                "type": "note_on",
                "note": 78,
                "channel": 0,
                "velocity": 101,
                "time": 0
            },
            {
                "type": "note_off",
                "note": 66,
                "channel": 0,
                "velocity": 101,
                "time": 240
            },
            {
                "type": "note_off",
                "note": 78,
                "channel": 0,
                "velocity": 101,
                "time": 0
            },
            {
                "type": "note_on",
                "note": 71,
                "channel": 0,
                "velocity": 107,
                "time": 0
            },
            {
                "type": "note_off",
                "note": 71,
                "channel": 0,
                "velocity": 107,
                "time": 240
            },
            {
                "type": "note_on",
                "note": 69,
                "channel": 0,
                "velocity": 107,
                "time": 0
            },
            {
                "type": "note_off",
                "note": 69,
                "channel": 0,
                "velocity": 107,
                "time": 240
            },
            {
                "type": "note_on",
                "note": 68,
                "channel": 0,
                "velocity": 101,
                "time": 0
            },
            {
                "type": "note_off",
                "note": 68,
                "channel": 0,
                "velocity": 101,
                "time": 240
            },
            {
                "type": "note_on",
                "note": 64,
                "channel": 0,
                "velocity": 101,
                "time": 0
            },
            {
                "type": "note_off",
                "note": 64,
                "channel": 0,
                "velocity": 101,
                "time": 240
            },
            {
                "type": "note_on",
                "note": 66,
                "channel": 0,
                "velocity": 114,
                "time": 0
            },
            {
                "type": "note_off",
                "note": 66,
                "channel": 0,
                "velocity": 114,
                "time": 480
            },
            {
                "type": "note_on",
                "note": 66,
                "channel": 0,
                "velocity": 101,
                "time": 0
            },
            {
                "type": "note_off",
                "note": 66,
                "channel": 0,
                "velocity": 101,
                "time": 240
            },
            {
                "type": "note_on",
                "note": 73,
                "channel": 0,
                "velocity": 101,
                "time": 0
            },
            {
                "type": "note_off",
                "note": 73,
                "channel": 0,
                "velocity": 101,
                "time": 240
            },
            {
                "type": "note_on",
                "note": 71,
                "channel": 0,
                "velocity": 107,
                "time": 0
            },
            {
                "type": "note_off",
                "note": 71,
                "channel": 0,
                "velocity": 107,
                "time": 480
            },
            {
                "type": "note_on",
                "note": 69,
                "channel": 0,
                "velocity": 101,
                "time": 0
            },
            {
                "type": "note_off",
                "note": 69,
                "channel": 0,
                "velocity": 101,
                "time": 480
            },
            {
                "type": "note_on",
                "note": 68,
                "channel": 0,
                "velocity": 114,
                "time": 0
            },
            {
                "type": "note_off",
                "note": 68,
                "channel": 0,
                "velocity": 114,
                "time": 480
            },
            {
                "type": "note_on",
                "note": 68,
                "channel": 0,
                "velocity": 101,
                "time": 0
            },
            {
                "type": "note_off",
                "note": 68,
                "channel": 0,
                "velocity": 101,
                "time": 240
            },
            {
                "type": "note_on",
                "note": 68,
                "channel": 0,
                "velocity": 101,
                "time": 0
            },
            {
                "type": "note_off",
                "note": 68,
                "channel": 0,
                "velocity": 101,
                "time": 240
            },
            {
                "type": "note_on",
                "note": 71,
                "channel": 0,
                "velocity": 107,
                "time": 0
            },
            {
                "type": "note_off",
                "note": 71,
                "channel": 0,
                "velocity": 107,
                "time": 480
            },
            {
                "type": "note_on",
                "note": 69,
                "channel": 0,
                "velocity": 101,
                "time": 0
            },
            {
                "type": "note_off",
                "note": 69,
                "channel": 0,
                "velocity": 101,
                "time": 240
            },
            {
                "type": "note_on",
                "note": 68,
                "channel": 0,
                "velocity": 101,
                "time": 0
            },
            {
                "type": "note_off",
                "note": 68,
                "channel": 0,
                "velocity": 101,
                "time": 240
            },
            {
                "type": "note_on",
                "note": 66,
                "channel": 0,
                "velocity": 114,
                "time": 0
            },
            {
                "type": "note_off",
                "note": 66,
                "channel": 0,
                "velocity": 114,
                "time": 480
            },
            {
                "type": "note_on",
                "note": 66,
                "channel": 0,
                "velocity": 101,
                "time": 0
            },
            {
                "type": "note_off",
                "note": 66,
                "channel": 0,
                "velocity": 101,
                "time": 240
            },
            {
                "type": "note_on",
                "note": 81,
                "channel": 0,
                "velocity": 101,
                "time": 0
            },
            {
                "type": "note_off",
                "note": 81,
                "channel": 0,
                "velocity": 101,
                "time": 240
            },
            {
                "type": "note_on",
                "note": 80,
                "channel": 0,
                "velocity": 107,
                "time": 0
            },
            {
                "type": "note_off",
                "note": 80,
                "channel": 0,
                "velocity": 107,
                "time": 240
            },
            {
                "type": "note_on",
                "note": 81,
                "channel": 0,
                "velocity": 107,
                "time": 0
            },
            {
                "type": "note_off",
                "note": 81,
                "channel": 0,
                "velocity": 107,
                "time": 240
            },
            {
                "type": "note_on",
                "note": 80,
                "channel": 0,
                "velocity": 101,
                "time": 0
            },
            {
                "type": "note_off",
                "note": 80,
                "channel": 0,
                "velocity": 101,
                "time": 240
            },
            {
                "type": "note_on",
                "note": 81,
                "channel": 0,
                "velocity": 101,
                "time": 0
            },
            {
                "type": "note_off",
                "note": 81,
                "channel": 0,
                "velocity": 101,
                "time": 240
            },
            {
                "type": "note_on",
                "note": 66,
                "channel": 0,
                "velocity": 114,
                "time": 0
            },
            {
                "type": "note_off",
                "note": 66,
                "channel": 0,
                "velocity": 114,
                "time": 480
            },
            {
                "type": "note_on",
                "note": 66,
                "channel": 0,
                "velocity": 101,
                "time": 0
            },
            {
                "type": "note_off",
                "note": 66,
                "channel": 0,
                "velocity": 101,
                "time": 240
            },
            {
                "type": "note_on",
                "note": 81,
                "channel": 0,
                "velocity": 101,
                "time": 0
            },
            {
                "type": "note_off",
                "note": 81,
                "channel": 0,
                "velocity": 101,
                "time": 240
            },
            {
                "type": "note_on",
                "note": 80,
                "channel": 0,
                "velocity": 107,
                "time": 0
            },
            {
                "type": "note_off",
                "note": 80,
                "channel": 0,
                "velocity": 107,
                "time": 240
            },
            {
                "type": "note_on",
                "note": 81,
                "channel": 0,
                "velocity": 107,
                "time": 0
            },
            {
                "type": "note_off",
                "note": 81,
                "channel": 0,
                "velocity": 107,
                "time": 240
            },
            {
                "type": "note_on",
                "note": 80,
                "channel": 0,
                "velocity": 101,
                "time": 0
            },
            {
                "type": "note_off",
                "note": 80,
                "channel": 0,
                "velocity": 101,
                "time": 240
            },
            {
                "type": "note_on",
                "note": 81,
                "channel": 0,
                "velocity": 101,
                "time": 0
            },
            {
                "type": "note_off",
                "note": 81,
                "channel": 0,
                "velocity": 101,
                "time": 240
            },
            {
                "type": "note_on",
                "note": 66,
                "channel": 0,
                "velocity": 114,
                "time": 0
            },
            {
                "type": "note_off",
                "note": 66,
                "channel": 0,
                "velocity": 114,
                "time": 480
            },
            {
                "type": "note_on",
                "note": 66,
                "channel": 0,
                "velocity": 101,
                "time": 0
            },
            {
                "type": "note_off",
                "note": 66,
                "channel": 0,
                "velocity": 101,
                "time": 240
            },
            {
                "type": "note_on",
                "note": 73,
                "channel": 0,
                "velocity": 101,
                "time": 0
            },
            {
                "type": "note_off",
                "note": 73,
                "channel": 0,
                "velocity": 101,
                "time": 240
            },
            {
                "type": "note_on",
                "note": 71,
                "channel": 0,
                "velocity": 107,
                "time": 0
            },
            {
                "type": "note_off",
                "note": 71,
                "channel": 0,
                "velocity": 107,
                "time": 480
            },
            {
                "type": "note_on",
                "note": 69,
                "channel": 0,
                "velocity": 101,
                "time": 0
            },
            {
                "type": "note_off",
                "note": 69,
                "channel": 0,
                "velocity": 101,
                "time": 480
            },
            {
                "type": "note_on",
                "note": 68,
                "channel": 0,
                "velocity": 114,
                "time": 0
            },
            {
                "type": "note_off",
                "note": 68,
                "channel": 0,
                "velocity": 114,
                "time": 480
            },
            {
                "type": "note_on",
                "note": 68,
                "channel": 0,
                "velocity": 101,
                "time": 0
            },
            {
                "type": "note_off",
                "note": 68,
                "channel": 0,
                "velocity": 101,
                "time": 240
            },
            {
                "type": "note_on",
                "note": 68,
                "channel": 0,
                "velocity": 101,
                "time": 0
            },
            {
                "type": "note_off",
                "note": 68,
                "channel": 0,
                "velocity": 101,
                "time": 240
            },
            {
                "type": "note_on",
                "note": 71,
                "channel": 0,
                "velocity": 107,
                "time": 0
            },
            {
                "type": "note_off",
                "note": 71,
                "channel": 0,
                "velocity": 107,
                "time": 480
            },
            {
                "type": "note_on",
                "note": 69,
                "channel": 0,
                "velocity": 101,
                "time": 0
            },
            {
                "type": "note_off",
                "note": 69,
                "channel": 0,
                "velocity": 101,
                "time": 240
            },
            {
                "type": "note_on",
                "note": 68,
                "channel": 0,
                "velocity": 101,
                "time": 0
            },
            {
                "type": "note_off",
                "note": 68,
                "channel": 0,
                "velocity": 101,
                "time": 240
            },
            {
                "type": "note_on",
                "note": 66,
                "channel": 0,
                "velocity": 114,
                "time": 0
            },
            {
                "type": "note_off",
                "note": 66,
                "channel": 0,
                "velocity": 114,
                "time": 480
            },
            {
                "type": "note_on",
                "note": 66,
                "channel": 0,
                "velocity": 101,
                "time": 0
            },
            {
                "type": "note_off",
                "note": 66,
                "channel": 0,
                "velocity": 101,
                "time": 240
            },
            {
                "type": "note_on",
                "note": 81,
                "channel": 0,
                "velocity": 101,
                "time": 0
            },
            {
                "type": "note_off",
                "note": 81,
                "channel": 0,
                "velocity": 101,
                "time": 240
            },
            {
                "type": "note_on",
                "note": 80,
                "channel": 0,
                "velocity": 107,
                "time": 0
            },
            {
                "type": "note_off",
                "note": 80,
                "channel": 0,
                "velocity": 107,
                "time": 240
            },
            {
                "type": "note_on",
                "note": 81,
                "channel": 0,
                "velocity": 107,
                "time": 0
            },
            {
                "type": "note_off",
                "note": 81,
                "channel": 0,
                "velocity": 107,
                "time": 240
            },
            {
                "type": "note_on",
                "note": 80,
                "channel": 0,
                "velocity": 101,
                "time": 0
            },
            {
                "type": "note_off",
                "note": 80,
                "channel": 0,
                "velocity": 101,
                "time": 240
            },
            {
                "type": "note_on",
                "note": 81,
                "channel": 0,
                "velocity": 101,
                "time": 0
            },
            {
                "type": "note_off",
                "note": 81,
                "channel": 0,
                "velocity": 101,
                "time": 240
            },
            {
                "type": "note_on",
                "note": 66,
                "channel": 0,
                "velocity": 114,
                "time": 0
            },
            {
                "type": "note_off",
                "note": 66,
                "channel": 0,
                "velocity": 114,
                "time": 480
            },
            {
                "type": "note_on",
                "note": 66,
                "channel": 0,
                "velocity": 101,
                "time": 0
            },
            {
                "type": "note_off",
                "note": 66,
                "channel": 0,
                "velocity": 101,
                "time": 240
            },
            {
                "type": "note_on",
                "note": 81,
                "channel": 0,
                "velocity": 101,
                "time": 0
            },
            {
                "type": "note_off",
                "note": 81,
                "channel": 0,
                "velocity": 101,
                "time": 240
            },
            {
                "type": "note_on",
                "note": 80,
                "channel": 0,
                "velocity": 107,
                "time": 0
            },
            {
                "type": "note_off",
                "note": 80,
                "channel": 0,
                "velocity": 107,
                "time": 240
            },
            {
                "type": "note_on",
                "note": 81,
                "channel": 0,
                "velocity": 107,
                "time": 0
            },
            {
                "type": "note_off",
                "note": 81,
                "channel": 0,
                "velocity": 107,
                "time": 240
            },
            {
                "type": "note_on",
                "note": 80,
                "channel": 0,
                "velocity": 101,
                "time": 0
            },
            {
                "type": "note_off",
                "note": 80,
                "channel": 0,
                "velocity": 101,
                "time": 240
            },
            {
                "type": "note_on",
                "note": 81,
                "channel": 0,
                "velocity": 101,
                "time": 0
            },
            {
                "type": "note_off",
                "note": 81,
                "channel": 0,
                "velocity": 101,
                "time": 240
            },
            {
                "type": "note_on",
                "note": 66,
                "channel": 0,
                "velocity": 114,
                "time": 0
            },
            {
                "type": "note_on",
                "note": 78,
                "channel": 0,
                "velocity": 114,
                "time": 0
            },
            {
                "type": "note_off",
                "note": 66,
                "channel": 0,
                "velocity": 114,
                "time": 480
            },
            {
                "type": "note_off",
                "note": 78,
                "channel": 0,
                "velocity": 114,
                "time": 0
            },
            {
                "type": "note_on",
                "note": 66,
                "channel": 0,
                "velocity": 101,
                "time": 0
            },
            {
                "type": "note_on",
                "note": 78,
                "channel": 0,
                "velocity": 101,
                "time": 0
            },
            {
                "type": "note_off",
                "note": 66,
                "channel": 0,
                "velocity": 101,
                "time": 240
            },
            {
                "type": "note_off",
                "note": 78,
                "channel": 0,
                "velocity": 101,
                "time": 0
            },
            {
                "type": "note_on",
                "note": 73,
                "channel": 0,
                "velocity": 101,
                "time": 0
            },
            {
                "type": "note_on",
                "note": 85,
                "channel": 0,
                "velocity": 101,
                "time": 0
            },
            {
                "type": "note_off",
                "note": 73,
                "channel": 0,
                "velocity": 101,
                "time": 240
            },
            {
                "type": "note_off",
                "note": 85,
                "channel": 0,
                "velocity": 101,
                "time": 0
            },
            {
                "type": "note_on",
                "note": 71,
                "channel": 0,
                "velocity": 107,
                "time": 0
            },
            {
                "type": "note_on",
                "note": 83,
                "channel": 0,
                "velocity": 107,
                "time": 0
            },
            {
                "type": "note_off",
                "note": 71,
                "channel": 0,
                "velocity": 107,
                "time": 480
            },
            {
                "type": "note_off",
                "note": 83,
                "channel": 0,
                "velocity": 107,
                "time": 0
            },
            {
                "type": "note_on",
                "note": 69,
                "channel": 0,
                "velocity": 101,
                "time": 0
            },
            {
                "type": "note_on",
                "note": 81,
                "channel": 0,
                "velocity": 101,
                "time": 0
            },
            {
                "type": "note_off",
                "note": 69,
                "channel": 0,
                "velocity": 101,
                "time": 480
            },
            {
                "type": "note_off",
                "note": 81,
                "channel": 0,
                "velocity": 101,
                "time": 0
            },
            {
                "type": "note_on",
                "note": 68,
                "channel": 0,
                "velocity": 114,
                "time": 0
            },
            {
                "type": "note_on",
                "note": 80,
                "channel": 0,
                "velocity": 114,
                "time": 0
            },
            {
                "type": "note_off",
                "note": 68,
                "channel": 0,
                "velocity": 114,
                "time": 480
            },
            {
                "type": "note_off",
                "note": 80,
                "channel": 0,
                "velocity": 114,
                "time": 0
            },
            {
                "type": "note_on",
                "note": 68,
                "channel": 0,
                "velocity": 101,
                "time": 0
            },
            {
                "type": "note_on",
                "note": 80,
                "channel": 0,
                "velocity": 101,
                "time": 0
            },
            {
                "type": "note_off",
                "note": 68,
                "channel": 0,
                "velocity": 101,
                "time": 240
            },
            {
                "type": "note_off",
                "note": 80,
                "channel": 0,
                "velocity": 101,
                "time": 0
            },
            {
                "type": "note_on",
                "note": 68,
                "channel": 0,
                "velocity": 101,
                "time": 0
            },
            {
                "type": "note_on",
                "note": 80,
                "channel": 0,
                "velocity": 101,
                "time": 0
            },
            {
                "type": "note_off",
                "note": 68,
                "channel": 0,
                "velocity": 101,
                "time": 240
            },
            {
                "type": "note_off",
                "note": 80,
                "channel": 0,
                "velocity": 101,
                "time": 0
            },
            {
                "type": "note_on",
                "note": 71,
                "channel": 0,
                "velocity": 107,
                "time": 0
            },
            {
                "type": "note_on",
                "note": 83,
                "channel": 0,
                "velocity": 107,
                "time": 0
            },
            {
                "type": "note_off",
                "note": 71,
                "channel": 0,
                "velocity": 107,
                "time": 480
            },
            {
                "type": "note_off",
                "note": 83,
                "channel": 0,
                "velocity": 107,
                "time": 0
            },
            {
                "type": "note_on",
                "note": 69,
                "channel": 0,
                "velocity": 101,
                "time": 0
            },
            {
                "type": "note_on",
                "note": 81,
                "channel": 0,
                "velocity": 101,
                "time": 0
            },
            {
                "type": "note_off",
                "note": 69,
                "channel": 0,
                "velocity": 101,
                "time": 240
            },
            {
                "type": "note_off",
                "note": 81,
                "channel": 0,
                "velocity": 101,
                "time": 0
            },
            {
                "type": "note_on",
                "note": 68,
                "channel": 0,
                "velocity": 101,
                "time": 0
            },
            {
                "type": "note_on",
                "note": 80,
                "channel": 0,
                "velocity": 101,
                "time": 0
            },
            {
                "type": "note_off",
                "note": 68,
                "channel": 0,
                "velocity": 101,
                "time": 240
            },
            {
                "type": "note_off",
                "note": 80,
                "channel": 0,
                "velocity": 101,
                "time": 0
            },
            {
                "type": "note_on",
                "note": 66,
                "channel": 0,
                "velocity": 114,
                "time": 0
            },
            {
                "type": "note_on",
                "note": 78,
                "channel": 0,
                "velocity": 114,
                "time": 0
            },
            {
                "type": "note_off",
                "note": 66,
                "channel": 0,
                "velocity": 114,
                "time": 480
            },
            {
                "type": "note_off",
                "note": 78,
                "channel": 0,
                "velocity": 114,
                "time": 0
            },
            {
                "type": "note_on",
                "note": 66,
                "channel": 0,
                "velocity": 101,
                "time": 0
            },
            {
                "type": "note_on",
                "note": 78,
                "channel": 0,
                "velocity": 101,
                "time": 0
            },
            {
                "type": "note_off",
                "note": 66,
                "channel": 0,
                "velocity": 101,
                "time": 240
            },
            {
                "type": "note_off",
                "note": 78,
                "channel": 0,
                "velocity": 101,
                "time": 0
            },
            {
                "type": "note_on",
                "note": 81,
                "channel": 0,
                "velocity": 101,
                "time": 0
            },
            {
                "type": "note_on",
                "note": 93,
                "channel": 0,
                "velocity": 101,
                "time": 0
            },
            {
                "type": "note_off",
                "note": 81,
                "channel": 0,
                "velocity": 101,
                "time": 240
            },
            {
                "type": "note_off",
                "note": 93,
                "channel": 0,
                "velocity": 101,
                "time": 0
            },
            {
                "type": "note_on",
                "note": 80,
                "channel": 0,
                "velocity": 107,
                "time": 0
            },
            {
                "type": "note_on",
                "note": 92,
                "channel": 0,
                "velocity": 107,
                "time": 0
            },
            {
                "type": "note_off",
                "note": 80,
                "channel": 0,
                "velocity": 107,
                "time": 240
            },
            {
                "type": "note_off",
                "note": 92,
                "channel": 0,
                "velocity": 107,
                "time": 0
            },
            {
                "type": "note_on",
                "note": 81,
                "channel": 0,
                "velocity": 107,
                "time": 0
            },
            {
                "type": "note_on",
                "note": 93,
                "channel": 0,
                "velocity": 107,
                "time": 0
            },
            {
                "type": "note_off",
                "note": 81,
                "channel": 0,
                "velocity": 107,
                "time": 240
            },
            {
                "type": "note_off",
                "note": 93,
                "channel": 0,
                "velocity": 107,
                "time": 0
            },
            {
                "type": "note_on",
                "note": 80,
                "channel": 0,
                "velocity": 101,
                "time": 0
            },
            {
                "type": "note_on",
                "note": 92,
                "channel": 0,
                "velocity": 101,
                "time": 0
            },
            {
                "type": "note_off",
                "note": 80,
                "channel": 0,
                "velocity": 101,
                "time": 240
            },
            {
                "type": "note_off",
                "note": 92,
                "channel": 0,
                "velocity": 101,
                "time": 0
            },
            {
                "type": "note_on",
                "note": 81,
                "channel": 0,
                "velocity": 101,
                "time": 0
            },
            {
                "type": "note_on",
                "note": 93,
                "channel": 0,
                "velocity": 101,
                "time": 0
            },
            {
                "type": "note_off",
                "note": 81,
                "channel": 0,
                "velocity": 101,
                "time": 240
            },
            {
                "type": "note_off",
                "note": 93,
                "channel": 0,
                "velocity": 101,
                "time": 0
            },
            {
                "type": "note_on",
                "note": 66,
                "channel": 0,
                "velocity": 114,
                "time": 0
            },
            {
                "type": "note_on",
                "note": 78,
                "channel": 0,
                "velocity": 114,
                "time": 0
            },
            {
                "type": "note_off",
                "note": 66,
                "channel": 0,
                "velocity": 114,
                "time": 480
            },
            {
                "type": "note_off",
                "note": 78,
                "channel": 0,
                "velocity": 114,
                "time": 0
            },
            {
                "type": "note_on",
                "note": 66,
                "channel": 0,
                "velocity": 101,
                "time": 0
            },
            {
                "type": "note_on",
                "note": 78,
                "channel": 0,
                "velocity": 101,
                "time": 0
            },
            {
                "type": "note_off",
                "note": 66,
                "channel": 0,
                "velocity": 101,
                "time": 240
            },
            {
                "type": "note_off",
                "note": 78,
                "channel": 0,
                "velocity": 101,
                "time": 0
            },
            {
                "type": "note_on",
                "note": 81,
                "channel": 0,
                "velocity": 101,
                "time": 0
            },
            {
                "type": "note_on",
                "note": 93,
                "channel": 0,
                "velocity": 101,
                "time": 0
            },
            {
                "type": "note_off",
                "note": 81,
                "channel": 0,
                "velocity": 101,
                "time": 240
            },
            {
                "type": "note_off",
                "note": 93,
                "channel": 0,
                "velocity": 101,
                "time": 0
            },
            {
                "type": "note_on",
                "note": 80,
                "channel": 0,
                "velocity": 107,
                "time": 0
            },
            {
                "type": "note_on",
                "note": 92,
                "channel": 0,
                "velocity": 107,
                "time": 0
            },
            {
                "type": "note_off",
                "note": 80,
                "channel": 0,
                "velocity": 107,
                "time": 240
            },
            {
                "type": "note_off",
                "note": 92,
                "channel": 0,
                "velocity": 107,
                "time": 0
            },
            {
                "type": "note_on",
                "note": 81,
                "channel": 0,
                "velocity": 107,
                "time": 0
            },
            {
                "type": "note_on",
                "note": 93,
                "channel": 0,
                "velocity": 107,
                "time": 0
            },
            {
                "type": "note_off",
                "note": 81,
                "channel": 0,
                "velocity": 107,
                "time": 240
            },
            {
                "type": "note_off",
                "note": 93,
                "channel": 0,
                "velocity": 107,
                "time": 0
            },
            {
                "type": "note_on",
                "note": 80,
                "channel": 0,
                "velocity": 101,
                "time": 0
            },
            {
                "type": "note_on",
                "note": 92,
                "channel": 0,
                "velocity": 101,
                "time": 0
            },
            {
                "type": "note_off",
                "note": 80,
                "channel": 0,
                "velocity": 101,
                "time": 240
            },
            {
                "type": "note_off",
                "note": 92,
                "channel": 0,
                "velocity": 101,
                "time": 0
            },
            {
                "type": "note_on",
                "note": 81,
                "channel": 0,
                "velocity": 101,
                "time": 0
            },
            {
                "type": "note_on",
                "note": 93,
                "channel": 0,
                "velocity": 101,
                "time": 0
            },
            {
                "type": "note_off",
                "note": 81,
                "channel": 0,
                "velocity": 101,
                "time": 240
            },
            {
                "type": "note_off",
                "note": 93,
                "channel": 0,
                "velocity": 101,
                "time": 0
            },
            {
                "type": "note_on",
                "note": 69,
                "channel": 0,
                "velocity": 114,
                "time": 0
            },
            {
                "type": "note_on",
                "note": 81,
                "channel": 0,
                "velocity": 114,
                "time": 0
            },
            {
                "type": "note_off",
                "note": 69,
                "channel": 0,
                "velocity": 114,
                "time": 240
            },
            {
                "type": "note_off",
                "note": 81,
                "channel": 0,
                "velocity": 114,
                "time": 0
            },
            {
                "type": "note_on",
                "note": 69,
                "channel": 0,
                "velocity": 114,
                "time": 0
            },
            {
                "type": "note_on",
                "note": 81,
                "channel": 0,
                "velocity": 114,
                "time": 0
            },
            {
                "type": "note_off",
                "note": 69,
                "channel": 0,
                "velocity": 114,
                "time": 240
            },
            {
                "type": "note_off",
                "note": 81,
                "channel": 0,
                "velocity": 114,
                "time": 0
            },
            {
                "type": "note_on",
                "note": 69,
                "channel": 0,
                "velocity": 101,
                "time": 0
            },
            {
                "type": "note_on",
                "note": 81,
                "channel": 0,
                "velocity": 101,
                "time": 0
            },
            {
                "type": "note_off",
                "note": 69,
                "channel": 0,
                "velocity": 101,
                "time": 240
            },
            {
                "type": "note_off",
                "note": 81,
                "channel": 0,
                "velocity": 101,
                "time": 0
            },
            {
                "type": "note_on",
                "note": 69,
                "channel": 0,
                "velocity": 101,
                "time": 0
            },
            {
                "type": "note_on",
                "note": 81,
                "channel": 0,
                "velocity": 101,
                "time": 0
            },
            {
                "type": "note_off",
                "note": 69,
                "channel": 0,
                "velocity": 101,
                "time": 240
            },
            {
                "type": "note_off",
                "note": 81,
                "channel": 0,
                "velocity": 101,
                "time": 0
            },
            {
                "type": "note_on",
                "note": 73,
                "channel": 0,
                "velocity": 107,
                "time": 0
            },
            {
                "type": "note_on",
                "note": 85,
                "channel": 0,
                "velocity": 107,
                "time": 0
            },
            {
                "type": "note_off",
                "note": 73,
                "channel": 0,
                "velocity": 107,
                "time": 240
            },
            {
                "type": "note_off",
                "note": 85,
                "channel": 0,
                "velocity": 107,
                "time": 0
            },
            {
                "type": "note_on",
                "note": 73,
                "channel": 0,
                "velocity": 107,
                "time": 0
            },
            {
                "type": "note_on",
                "note": 85,
                "channel": 0,
                "velocity": 107,
                "time": 0
            },
            {
                "type": "note_off",
                "note": 73,
                "channel": 0,
                "velocity": 107,
                "time": 240
            },
            {
                "type": "note_off",
                "note": 85,
                "channel": 0,
                "velocity": 107,
                "time": 0
            },
            {
                "type": "note_on",
                "note": 73,
                "channel": 0,
                "velocity": 101,
                "time": 0
            },
            {
                "type": "note_on",
                "note": 85,
                "channel": 0,
                "velocity": 101,
                "time": 0
            },
            {
                "type": "note_off",
                "note": 73,
                "channel": 0,
                "velocity": 101,
                "time": 240
            },
            {
                "type": "note_off",
                "note": 85,
                "channel": 0,
                "velocity": 101,
                "time": 0
            },
            {
                "type": "note_on",
                "note": 73,
                "channel": 0,
                "velocity": 101,
                "time": 0
            },
            {
                "type": "note_on",
                "note": 85,
                "channel": 0,
                "velocity": 101,
                "time": 0
            },
            {
                "type": "note_off",
                "note": 73,
                "channel": 0,
                "velocity": 101,
                "time": 240
            },
            {
                "type": "note_off",
                "note": 85,
                "channel": 0,
                "velocity": 101,
                "time": 0
            },
            {
                "type": "note_on",
                "note": 71,
                "channel": 0,
                "velocity": 114,
                "time": 0
            },
            {
                "type": "note_on",
                "note": 83,
                "channel": 0,
                "velocity": 114,
                "time": 0
            },
            {
                "type": "note_off",
                "note": 71,
                "channel": 0,
                "velocity": 114,
                "time": 240
            },
            {
                "type": "note_off",
                "note": 83,
                "channel": 0,
                "velocity": 114,
                "time": 0
            },
            {
                "type": "note_on",
                "note": 71,
                "channel": 0,
                "velocity": 114,
                "time": 0
            },
            {
                "type": "note_on",
                "note": 83,
                "channel": 0,
                "velocity": 114,
                "time": 0
            },
            {
                "type": "note_off",
                "note": 71,
                "channel": 0,
                "velocity": 114,
                "time": 240
            },
            {
                "type": "note_off",
                "note": 83,
                "channel": 0,
                "velocity": 114,
                "time": 0
            },
            {
                "type": "note_on",
                "note": 71,
                "channel": 0,
                "velocity": 101,
                "time": 0
            },
            {
                "type": "note_on",
                "note": 83,
                "channel": 0,
                "velocity": 101,
                "time": 0
            },
            {
                "type": "note_off",
                "note": 71,
                "channel": 0,
                "velocity": 101,
                "time": 240
            },
            {
                "type": "note_off",
                "note": 83,
                "channel": 0,
                "velocity": 101,
                "time": 0
            },
            {
                "type": "note_on",
                "note": 71,
                "channel": 0,
                "velocity": 101,
                "time": 0
            },
            {
                "type": "note_on",
                "note": 83,
                "channel": 0,
                "velocity": 101,
                "time": 0
            },
            {
                "type": "note_off",
                "note": 71,
                "channel": 0,
                "velocity": 101,
                "time": 240
            },
            {
                "type": "note_off",
                "note": 83,
                "channel": 0,
                "velocity": 101,
                "time": 0
            },
            {
                "type": "note_on",
                "note": 76,
                "channel": 0,
                "velocity": 107,
                "time": 0
            },
            {
                "type": "note_on",
                "note": 88,
                "channel": 0,
                "velocity": 107,
                "time": 0
            },
            {
                "type": "note_off",
                "note": 76,
                "channel": 0,
                "velocity": 107,
                "time": 240
            },
            {
                "type": "note_off",
                "note": 88,
                "channel": 0,
                "velocity": 107,
                "time": 0
            },
            {
                "type": "note_on",
                "note": 76,
                "channel": 0,
                "velocity": 107,
                "time": 0
            },
            {
                "type": "note_on",
                "note": 88,
                "channel": 0,
                "velocity": 107,
                "time": 0
            },
            {
                "type": "note_off",
                "note": 76,
                "channel": 0,
                "velocity": 107,
                "time": 240
            },
            {
                "type": "note_off",
                "note": 88,
                "channel": 0,
                "velocity": 107,
                "time": 0
            },
            {
                "type": "note_on",
                "note": 76,
                "channel": 0,
                "velocity": 101,
                "time": 0
            },
            {
                "type": "note_on",
                "note": 88,
                "channel": 0,
                "velocity": 101,
                "time": 0
            },
            {
                "type": "note_off",
                "note": 76,
                "channel": 0,
                "velocity": 101,
                "time": 240
            },
            {
                "type": "note_off",
                "note": 88,
                "channel": 0,
                "velocity": 101,
                "time": 0
            },
            {
                "type": "note_on",
                "note": 76,
                "channel": 0,
                "velocity": 101,
                "time": 0
            },
            {
                "type": "note_on",
                "note": 88,
                "channel": 0,
                "velocity": 101,
                "time": 0
            },
            {
                "type": "note_off",
                "note": 76,
                "channel": 0,
                "velocity": 101,
                "time": 240
            },
            {
                "type": "note_off",
                "note": 88,
                "channel": 0,
                "velocity": 101,
                "time": 0
            },
            {
                "type": "note_on",
                "note": 78,
                "channel": 0,
                "velocity": 114,
                "time": 0
            },
            {
                "type": "note_on",
                "note": 90,
                "channel": 0,
                "velocity": 114,
                "time": 0
            },
            {
                "type": "note_off",
                "note": 78,
                "channel": 0,
                "velocity": 114,
                "time": 240
            },
            {
                "type": "note_off",
                "note": 90,
                "channel": 0,
                "velocity": 114,
                "time": 0
            },
            {
                "type": "note_on",
                "note": 78,
                "channel": 0,
                "velocity": 114,
                "time": 0
            },
            {
                "type": "note_on",
                "note": 90,
                "channel": 0,
                "velocity": 114,
                "time": 0
            },
            {
                "type": "note_off",
                "note": 78,
                "channel": 0,
                "velocity": 114,
                "time": 240
            },
            {
                "type": "note_off",
                "note": 90,
                "channel": 0,
                "velocity": 114,
                "time": 0
            },
            {
                "type": "note_on",
                "note": 78,
                "channel": 0,
                "velocity": 101,
                "time": 0
            },
            {
                "type": "note_on",
                "note": 90,
                "channel": 0,
                "velocity": 101,
                "time": 0
            },
            {
                "type": "note_off",
                "note": 78,
                "channel": 0,
                "velocity": 101,
                "time": 240
            },
            {
                "type": "note_off",
                "note": 90,
                "channel": 0,
                "velocity": 101,
                "time": 0
            },
            {
                "type": "note_on",
                "note": 78,
                "channel": 0,
                "velocity": 101,
                "time": 0
            },
            {
                "type": "note_on",
                "note": 90,
                "channel": 0,
                "velocity": 101,
                "time": 0
            },
            {
                "type": "note_off",
                "note": 78,
                "channel": 0,
                "velocity": 101,
                "time": 240
            },
            {
                "type": "note_off",
                "note": 90,
                "channel": 0,
                "velocity": 101,
                "time": 0
            },
            {
                "type": "note_on",
                "note": 78,
                "channel": 0,
                "velocity": 107,
                "time": 0
            },
            {
                "type": "note_on",
                "note": 90,
                "channel": 0,
                "velocity": 107,
                "time": 0
            },
            {
                "type": "note_off",
                "note": 78,
                "channel": 0,
                "velocity": 107,
                "time": 240
            },
            {
                "type": "note_off",
                "note": 90,
                "channel": 0,
                "velocity": 107,
                "time": 0
            },
            {
                "type": "note_on",
                "note": 78,
                "channel": 0,
                "velocity": 107,
                "time": 0
            },
            {
                "type": "note_on",
                "note": 90,
                "channel": 0,
                "velocity": 107,
                "time": 0
            },
            {
                "type": "note_off",
                "note": 78,
                "channel": 0,
                "velocity": 107,
                "time": 240
            },
            {
                "type": "note_off",
                "note": 90,
                "channel": 0,
                "velocity": 107,
                "time": 0
            },
            {
                "type": "note_on",
                "note": 78,
                "channel": 0,
                "velocity": 101,
                "time": 0
            },
            {
                "type": "note_on",
                "note": 90,
                "channel": 0,
                "velocity": 101,
                "time": 0
            },
            {
                "type": "note_off",
                "note": 78,
                "channel": 0,
                "velocity": 101,
                "time": 240
            },
            {
                "type": "note_off",
                "note": 90,
                "channel": 0,
                "velocity": 101,
                "time": 0
            },
            {
                "type": "note_on",
                "note": 78,
                "channel": 0,
                "velocity": 101,
                "time": 0
            },
            {
                "type": "note_on",
                "note": 90,
                "channel": 0,
                "velocity": 101,
                "time": 0
            },
            {
                "type": "note_off",
                "note": 78,
                "channel": 0,
                "velocity": 101,
                "time": 240
            },
            {
                "type": "note_off",
                "note": 90,
                "channel": 0,
                "velocity": 101,
                "time": 0
            },
            {
                "type": "note_on",
                "note": 78,
                "channel": 0,
                "velocity": 114,
                "time": 0
            },
            {
                "type": "note_on",
                "note": 90,
                "channel": 0,
                "velocity": 114,
                "time": 0
            },
            {
                "type": "note_off",
                "note": 78,
                "channel": 0,
                "velocity": 114,
                "time": 240
            },
            {
                "type": "note_off",
                "note": 90,
                "channel": 0,
                "velocity": 114,
                "time": 0
            },
            {
                "type": "note_on",
                "note": 78,
                "channel": 0,
                "velocity": 114,
                "time": 0
            },
            {
                "type": "note_on",
                "note": 90,
                "channel": 0,
                "velocity": 114,
                "time": 0
            },
            {
                "type": "note_off",
                "note": 78,
                "channel": 0,
                "velocity": 114,
                "time": 240
            },
            {
                "type": "note_off",
                "note": 90,
                "channel": 0,
                "velocity": 114,
                "time": 0
            },
            {
                "type": "note_on",
                "note": 78,
                "channel": 0,
                "velocity": 101,
                "time": 0
            },
            {
                "type": "note_on",
                "note": 90,
                "channel": 0,
                "velocity": 101,
                "time": 0
            },
            {
                "type": "note_off",
                "note": 78,
                "channel": 0,
                "velocity": 101,
                "time": 240
            },
            {
                "type": "note_off",
                "note": 90,
                "channel": 0,
                "velocity": 101,
                "time": 0
            },
            {
                "type": "note_on",
                "note": 78,
                "channel": 0,
                "velocity": 101,
                "time": 0
            },
            {
                "type": "note_on",
                "note": 90,
                "channel": 0,
                "velocity": 101,
                "time": 0
            },
            {
                "type": "note_off",
                "note": 78,
                "channel": 0,
                "velocity": 101,
                "time": 240
            },
            {
                "type": "note_off",
                "note": 90,
                "channel": 0,
                "velocity": 101,
                "time": 0
            },
            {
                "type": "note_on",
                "note": 71,
                "channel": 0,
                "velocity": 107,
                "time": 0
            },
            {
                "type": "note_off",
                "note": 71,
                "channel": 0,
                "velocity": 107,
                "time": 240
            },
            {
                "type": "note_on",
                "note": 69,
                "channel": 0,
                "velocity": 107,
                "time": 0
            },
            {
                "type": "note_off",
                "note": 69,
                "channel": 0,
                "velocity": 107,
                "time": 240
            },
            {
                "type": "note_on",
                "note": 68,
                "channel": 0,
                "velocity": 101,
                "time": 0
            },
            {
                "type": "note_off",
                "note": 68,
                "channel": 0,
                "velocity": 101,
                "time": 240
            },
            {
                "type": "note_on",
                "note": 64,
                "channel": 0,
                "velocity": 101,
                "time": 0
            },
            {
                "type": "note_off",
                "note": 64,
                "channel": 0,
                "velocity": 101,
                "time": 240
            },
            {
                "type": "note_on",
                "note": 78,
                "channel": 0,
                "velocity": 114,
                "time": 0
            },
            {
                "type": "note_off",
                "note": 78,
                "channel": 0,
                "velocity": 114,
                "time": 480
            },
            {
                "type": "note_on",
                "note": 78,
                "channel": 0,
                "velocity": 101,
                "time": 0
            },
            {
                "type": "note_off",
                "note": 78,
                "channel": 0,
                "velocity": 101,
                "time": 240
            },
            {
                "type": "note_on",
                "note": 85,
                "channel": 0,
                "velocity": 101,
                "time": 0
            },
            {
                "type": "note_off",
                "note": 85,
                "channel": 0,
                "velocity": 101,
                "time": 240
            },
            {
                "type": "note_on",
                "note": 83,
                "channel": 0,
                "velocity": 107,
                "time": 0
            },
            {
                "type": "note_off",
                "note": 83,
                "channel": 0,
                "velocity": 107,
                "time": 480
            },
            {
                "type": "note_on",
                "note": 81,
                "channel": 0,
                "velocity": 101,
                "time": 0
            },
            {
                "type": "note_off",
                "note": 81,
                "channel": 0,
                "velocity": 101,
                "time": 480
            },
            {
                "type": "note_on",
                "note": 80,
                "channel": 0,
                "velocity": 114,
                "time": 0
            },
            {
                "type": "note_off",
                "note": 80,
                "channel": 0,
                "velocity": 114,
                "time": 480
            },
            {
                "type": "note_on",
                "note": 80,
                "channel": 0,
                "velocity": 101,
                "time": 0
            },
            {
                "type": "note_off",
                "note": 80,
                "channel": 0,
                "velocity": 101,
                "time": 240
            },
            {
                "type": "note_on",
                "note": 80,
                "channel": 0,
                "velocity": 101,
                "time": 0
            },
            {
                "type": "note_off",
                "note": 80,
                "channel": 0,
                "velocity": 101,
                "time": 240
            },
            {
                "type": "note_on",
                "note": 83,
                "channel": 0,
                "velocity": 107,
                "time": 0
            },
            {
                "type": "note_off",
                "note": 83,
                "channel": 0,
                "velocity": 107,
                "time": 480
            },
            {
                "type": "note_on",
                "note": 81,
                "channel": 0,
                "velocity": 101,
                "time": 0
            },
            {
                "type": "note_off",
                "note": 81,
                "channel": 0,
                "velocity": 101,
                "time": 240
            },
            {
                "type": "note_on",
                "note": 80,
                "channel": 0,
                "velocity": 101,
                "time": 0
            },
            {
                "type": "note_off",
                "note": 80,
                "channel": 0,
                "velocity": 101,
                "time": 240
            },
            {
                "type": "note_on",
                "note": 78,
                "channel": 0,
                "velocity": 114,
                "time": 0
            },
            {
                "type": "note_off",
                "note": 78,
                "channel": 0,
                "velocity": 114,
                "time": 480
            },
            {
                "type": "note_on",
                "note": 78,
                "channel": 0,
                "velocity": 101,
                "time": 0
            },
            {
                "type": "note_off",
                "note": 78,
                "channel": 0,
                "velocity": 101,
                "time": 240
            },
            {
                "type": "note_on",
                "note": 93,
                "channel": 0,
                "velocity": 101,
                "time": 0
            },
            {
                "type": "note_off",
                "note": 93,
                "channel": 0,
                "velocity": 101,
                "time": 240
            },
            {
                "type": "note_on",
                "note": 92,
                "channel": 0,
                "velocity": 107,
                "time": 0
            },
            {
                "type": "note_off",
                "note": 92,
                "channel": 0,
                "velocity": 107,
                "time": 240
            },
            {
                "type": "note_on",
                "note": 93,
                "channel": 0,
                "velocity": 107,
                "time": 0
            },
            {
                "type": "note_off",
                "note": 93,
                "channel": 0,
                "velocity": 107,
                "time": 240
            },
            {
                "type": "note_on",
                "note": 92,
                "channel": 0,
                "velocity": 101,
                "time": 0
            },
            {
                "type": "note_off",
                "note": 92,
                "channel": 0,
                "velocity": 101,
                "time": 240
            },
            {
                "type": "note_on",
                "note": 93,
                "channel": 0,
                "velocity": 101,
                "time": 0
            },
            {
                "type": "note_off",
                "note": 93,
                "channel": 0,
                "velocity": 101,
                "time": 240
            },
            {
                "type": "note_on",
                "note": 78,
                "channel": 0,
                "velocity": 114,
                "time": 0
            },
            {
                "type": "note_off",
                "note": 78,
                "channel": 0,
                "velocity": 114,
                "time": 480
            },
            {
                "type": "note_on",
                "note": 78,
                "channel": 0,
                "velocity": 101,
                "time": 0
            },
            {
                "type": "note_off",
                "note": 78,
                "channel": 0,
                "velocity": 101,
                "time": 240
            },
            {
                "type": "note_on",
                "note": 93,
                "channel": 0,
                "velocity": 101,
                "time": 0
            },
            {
                "type": "note_off",
                "note": 93,
                "channel": 0,
                "velocity": 101,
                "time": 240
            },
            {
                "type": "note_on",
                "note": 92,
                "channel": 0,
                "velocity": 107,
                "time": 0
            },
            {
                "type": "note_off",
                "note": 92,
                "channel": 0,
                "velocity": 107,
                "time": 240
            },
            {
                "type": "note_on",
                "note": 93,
                "channel": 0,
                "velocity": 107,
                "time": 0
            },
            {
                "type": "note_off",
                "note": 93,
                "channel": 0,
                "velocity": 107,
                "time": 240
            },
            {
                "type": "note_on",
                "note": 92,
                "channel": 0,
                "velocity": 101,
                "time": 0
            },
            {
                "type": "note_off",
                "note": 92,
                "channel": 0,
                "velocity": 101,
                "time": 240
            },
            {
                "type": "note_on",
                "note": 93,
                "channel": 0,
                "velocity": 101,
                "time": 0
            },
            {
                "type": "note_off",
                "note": 93,
                "channel": 0,
                "velocity": 101,
                "time": 240
            },
            {
                "type": "note_on",
                "note": 78,
                "channel": 0,
                "velocity": 114,
                "time": 0
            },
            {
                "type": "note_off",
                "note": 78,
                "channel": 0,
                "velocity": 114,
                "time": 480
            },
            {
                "type": "note_on",
                "note": 78,
                "channel": 0,
                "velocity": 101,
                "time": 0
            },
            {
                "type": "note_off",
                "note": 78,
                "channel": 0,
                "velocity": 101,
                "time": 240
            },
            {
                "type": "note_on",
                "note": 85,
                "channel": 0,
                "velocity": 101,
                "time": 0
            },
            {
                "type": "note_off",
                "note": 85,
                "channel": 0,
                "velocity": 101,
                "time": 240
            },
            {
                "type": "note_on",
                "note": 83,
                "channel": 0,
                "velocity": 107,
                "time": 0
            },
            {
                "type": "note_off",
                "note": 83,
                "channel": 0,
                "velocity": 107,
                "time": 480
            },
            {
                "type": "note_on",
                "note": 81,
                "channel": 0,
                "velocity": 101,
                "time": 0
            },
            {
                "type": "note_off",
                "note": 81,
                "channel": 0,
                "velocity": 101,
                "time": 480
            },
            {
                "type": "note_on",
                "note": 80,
                "channel": 0,
                "velocity": 114,
                "time": 0
            },
            {
                "type": "note_off",
                "note": 80,
                "channel": 0,
                "velocity": 114,
                "time": 480
            },
            {
                "type": "note_on",
                "note": 80,
                "channel": 0,
                "velocity": 101,
                "time": 0
            },
            {
                "type": "note_off",
                "note": 80,
                "channel": 0,
                "velocity": 101,
                "time": 240
            },
            {
                "type": "note_on",
                "note": 80,
                "channel": 0,
                "velocity": 101,
                "time": 0
            },
            {
                "type": "note_off",
                "note": 80,
                "channel": 0,
                "velocity": 101,
                "time": 240
            },
            {
                "type": "note_on",
                "note": 83,
                "channel": 0,
                "velocity": 107,
                "time": 0
            },
            {
                "type": "note_off",
                "note": 83,
                "channel": 0,
                "velocity": 107,
                "time": 480
            },
            {
                "type": "note_on",
                "note": 81,
                "channel": 0,
                "velocity": 101,
                "time": 0
            },
            {
                "type": "note_off",
                "note": 81,
                "channel": 0,
                "velocity": 101,
                "time": 240
            },
            {
                "type": "note_on",
                "note": 80,
                "channel": 0,
                "velocity": 101,
                "time": 0
            },
            {
                "type": "note_off",
                "note": 80,
                "channel": 0,
                "velocity": 101,
                "time": 240
            },
            {
                "type": "note_on",
                "note": 78,
                "channel": 0,
                "velocity": 114,
                "time": 0
            },
            {
                "type": "note_off",
                "note": 78,
                "channel": 0,
                "velocity": 114,
                "time": 480
            },
            {
                "type": "note_on",
                "note": 78,
                "channel": 0,
                "velocity": 101,
                "time": 0
            },
            {
                "type": "note_off",
                "note": 78,
                "channel": 0,
                "velocity": 101,
                "time": 240
            },
            {
                "type": "note_on",
                "note": 93,
                "channel": 0,
                "velocity": 101,
                "time": 0
            },
            {
                "type": "note_off",
                "note": 93,
                "channel": 0,
                "velocity": 101,
                "time": 240
            },
            {
                "type": "note_on",
                "note": 92,
                "channel": 0,
                "velocity": 107,
                "time": 0
            },
            {
                "type": "note_off",
                "note": 92,
                "channel": 0,
                "velocity": 107,
                "time": 240
            },
            {
                "type": "note_on",
                "note": 93,
                "channel": 0,
                "velocity": 107,
                "time": 0
            },
            {
                "type": "note_off",
                "note": 93,
                "channel": 0,
                "velocity": 107,
                "time": 240
            },
            {
                "type": "note_on",
                "note": 92,
                "channel": 0,
                "velocity": 101,
                "time": 0
            },
            {
                "type": "note_off",
                "note": 92,
                "channel": 0,
                "velocity": 101,
                "time": 240
            },
            {
                "type": "note_on",
                "note": 93,
                "channel": 0,
                "velocity": 101,
                "time": 0
            },
            {
                "type": "note_off",
                "note": 93,
                "channel": 0,
                "velocity": 101,
                "time": 240
            },
            {
                "type": "note_on",
                "note": 78,
                "channel": 0,
                "velocity": 114,
                "time": 0
            },
            {
                "type": "note_off",
                "note": 78,
                "channel": 0,
                "velocity": 114,
                "time": 480
            },
            {
                "type": "note_on",
                "note": 78,
                "channel": 0,
                "velocity": 101,
                "time": 0
            },
            {
                "type": "note_off",
                "note": 78,
                "channel": 0,
                "velocity": 101,
                "time": 240
            },
            {
                "type": "note_on",
                "note": 93,
                "channel": 0,
                "velocity": 101,
                "time": 0
            },
            {
                "type": "note_off",
                "note": 93,
                "channel": 0,
                "velocity": 101,
                "time": 240
            },
            {
                "type": "note_on",
                "note": 92,
                "channel": 0,
                "velocity": 107,
                "time": 0
            },
            {
                "type": "note_off",
                "note": 92,
                "channel": 0,
                "velocity": 107,
                "time": 240
            },
            {
                "type": "note_on",
                "note": 93,
                "channel": 0,
                "velocity": 107,
                "time": 0
            },
            {
                "type": "note_off",
                "note": 93,
                "channel": 0,
                "velocity": 107,
                "time": 240
            },
            {
                "type": "note_on",
                "note": 92,
                "channel": 0,
                "velocity": 101,
                "time": 0
            },
            {
                "type": "note_off",
                "note": 92,
                "channel": 0,
                "velocity": 101,
                "time": 240
            },
            {
                "type": "note_on",
                "note": 93,
                "channel": 0,
                "velocity": 101,
                "time": 0
            },
            {
                "type": "note_off",
                "note": 93,
                "channel": 0,
                "velocity": 101,
                "time": 240
            },
            {
                "type": "note_on",
                "note": 66,
                "channel": 0,
                "velocity": 114,
                "time": 0
            },
            {
                "type": "note_on",
                "note": 78,
                "channel": 0,
                "velocity": 114,
                "time": 0
            },
            {
                "type": "note_off",
                "note": 66,
                "channel": 0,
                "velocity": 114,
                "time": 480
            },
            {
                "type": "note_off",
                "note": 78,
                "channel": 0,
                "velocity": 114,
                "time": 0
            },
            {
                "type": "note_on",
                "note": 78,
                "channel": 0,
                "velocity": 101,
                "time": 0
            },
            {
                "type": "note_off",
                "note": 78,
                "channel": 0,
                "velocity": 101,
                "time": 240
            },
            {
                "type": "note_on",
                "note": 73,
                "channel": 0,
                "velocity": 101,
                "time": 0
            },
            {
                "type": "note_on",
                "note": 85,
                "channel": 0,
                "velocity": 101,
                "time": 0
            },
            {
                "type": "note_off",
                "note": 73,
                "channel": 0,
                "velocity": 101,
                "time": 240
            },
            {
                "type": "note_off",
                "note": 85,
                "channel": 0,
                "velocity": 101,
                "time": 0
            },
            {
                "type": "note_on",
                "note": 71,
                "channel": 0,
                "velocity": 107,
                "time": 0
            },
            {
                "type": "note_on",
                "note": 83,
                "channel": 0,
                "velocity": 107,
                "time": 0
            },
            {
                "type": "note_off",
                "note": 71,
                "channel": 0,
                "velocity": 107,
                "time": 480
            },
            {
                "type": "note_off",
                "note": 83,
                "channel": 0,
                "velocity": 107,
                "time": 0
            },
            {
                "type": "note_on",
                "note": 69,
                "channel": 0,
                "velocity": 101,
                "time": 0
            },
            {
                "type": "note_on",
                "note": 81,
                "channel": 0,
                "velocity": 101,
                "time": 0
            },
            {
                "type": "note_off",
                "note": 69,
                "channel": 0,
                "velocity": 101,
                "time": 480
            },
            {
                "type": "note_off",
                "note": 81,
                "channel": 0,
                "velocity": 101,
                "time": 0
            },
            {
                "type": "note_on",
                "note": 68,
                "channel": 0,
                "velocity": 114,
                "time": 0
            },
            {
                "type": "note_on",
                "note": 80,
                "channel": 0,
                "velocity": 114,
                "time": 0
            },
            {
                "type": "note_off",
                "note": 68,
                "channel": 0,
                "velocity": 114,
                "time": 480
            },
            {
                "type": "note_off",
                "note": 80,
                "channel": 0,
                "velocity": 114,
                "time": 0
            },
            {
                "type": "note_on",
                "note": 68,
                "channel": 0,
                "velocity": 101,
                "time": 0
            },
            {
                "type": "note_on",
                "note": 80,
                "channel": 0,
                "velocity": 101,
                "time": 0
            },
            {
                "type": "note_off",
                "note": 68,
                "channel": 0,
                "velocity": 101,
                "time": 240
            },
            {
                "type": "note_off",
                "note": 80,
                "channel": 0,
                "velocity": 101,
                "time": 0
            },
            {
                "type": "note_on",
                "note": 68,
                "channel": 0,
                "velocity": 101,
                "time": 0
            },
            {
                "type": "note_on",
                "note": 80,
                "channel": 0,
                "velocity": 101,
                "time": 0
            },
            {
                "type": "note_off",
                "note": 68,
                "channel": 0,
                "velocity": 101,
                "time": 240
            },
            {
                "type": "note_off",
                "note": 80,
                "channel": 0,
                "velocity": 101,
                "time": 0
            },
            {
                "type": "note_on",
                "note": 71,
                "channel": 0,
                "velocity": 107,
                "time": 0
            },
            {
                "type": "note_on",
                "note": 83,
                "channel": 0,
                "velocity": 107,
                "time": 0
            },
            {
                "type": "note_off",
                "note": 71,
                "channel": 0,
                "velocity": 107,
                "time": 480
            },
            {
                "type": "note_off",
                "note": 83,
                "channel": 0,
                "velocity": 107,
                "time": 0
            },
            {
                "type": "note_on",
                "note": 69,
                "channel": 0,
                "velocity": 101,
                "time": 0
            },
            {
                "type": "note_on",
                "note": 81,
                "channel": 0,
                "velocity": 101,
                "time": 0
            },
            {
                "type": "note_off",
                "note": 69,
                "channel": 0,
                "velocity": 101,
                "time": 240
            },
            {
                "type": "note_off",
                "note": 81,
                "channel": 0,
                "velocity": 101,
                "time": 0
            },
            {
                "type": "note_on",
                "note": 68,
                "channel": 0,
                "velocity": 101,
                "time": 0
            },
            {
                "type": "note_on",
                "note": 80,
                "channel": 0,
                "velocity": 101,
                "time": 0
            },
            {
                "type": "note_off",
                "note": 68,
                "channel": 0,
                "velocity": 101,
                "time": 240
            },
            {
                "type": "note_off",
                "note": 80,
                "channel": 0,
                "velocity": 101,
                "time": 0
            },
            {
                "type": "note_on",
                "note": 66,
                "channel": 0,
                "velocity": 114,
                "time": 0
            },
            {
                "type": "note_on",
                "note": 78,
                "channel": 0,
                "velocity": 114,
                "time": 0
            },
            {
                "type": "note_off",
                "note": 66,
                "channel": 0,
                "velocity": 114,
                "time": 480
            },
            {
                "type": "note_off",
                "note": 78,
                "channel": 0,
                "velocity": 114,
                "time": 0
            },
            {
                "type": "note_on",
                "note": 66,
                "channel": 0,
                "velocity": 101,
                "time": 0
            },
            {
                "type": "note_on",
                "note": 78,
                "channel": 0,
                "velocity": 101,
                "time": 0
            },
            {
                "type": "note_off",
                "note": 66,
                "channel": 0,
                "velocity": 101,
                "time": 240
            },
            {
                "type": "note_off",
                "note": 78,
                "channel": 0,
                "velocity": 101,
                "time": 0
            },
            {
                "type": "note_on",
                "note": 81,
                "channel": 0,
                "velocity": 101,
                "time": 0
            },
            {
                "type": "note_on",
                "note": 93,
                "channel": 0,
                "velocity": 101,
                "time": 0
            },
            {
                "type": "note_off",
                "note": 81,
                "channel": 0,
                "velocity": 101,
                "time": 240
            },
            {
                "type": "note_off",
                "note": 93,
                "channel": 0,
                "velocity": 101,
                "time": 0
            },
            {
                "type": "note_on",
                "note": 80,
                "channel": 0,
                "velocity": 107,
                "time": 0
            },
            {
                "type": "note_on",
                "note": 92,
                "channel": 0,
                "velocity": 107,
                "time": 0
            },
            {
                "type": "note_off",
                "note": 80,
                "channel": 0,
                "velocity": 107,
                "time": 240
            },
            {
                "type": "note_off",
                "note": 92,
                "channel": 0,
                "velocity": 107,
                "time": 0
            },
            {
                "type": "note_on",
                "note": 81,
                "channel": 0,
                "velocity": 107,
                "time": 0
            },
            {
                "type": "note_on",
                "note": 93,
                "channel": 0,
                "velocity": 107,
                "time": 0
            },
            {
                "type": "note_off",
                "note": 81,
                "channel": 0,
                "velocity": 107,
                "time": 240
            },
            {
                "type": "note_off",
                "note": 93,
                "channel": 0,
                "velocity": 107,
                "time": 0
            },
            {
                "type": "note_on",
                "note": 80,
                "channel": 0,
                "velocity": 101,
                "time": 0
            },
            {
                "type": "note_on",
                "note": 92,
                "channel": 0,
                "velocity": 101,
                "time": 0
            },
            {
                "type": "note_off",
                "note": 80,
                "channel": 0,
                "velocity": 101,
                "time": 240
            },
            {
                "type": "note_off",
                "note": 92,
                "channel": 0,
                "velocity": 101,
                "time": 0
            },
            {
                "type": "note_on",
                "note": 81,
                "channel": 0,
                "velocity": 101,
                "time": 0
            },
            {
                "type": "note_on",
                "note": 93,
                "channel": 0,
                "velocity": 101,
                "time": 0
            },
            {
                "type": "note_off",
                "note": 81,
                "channel": 0,
                "velocity": 101,
                "time": 240
            },
            {
                "type": "note_off",
                "note": 93,
                "channel": 0,
                "velocity": 101,
                "time": 0
            },
            {
                "type": "note_on",
                "note": 66,
                "channel": 0,
                "velocity": 114,
                "time": 0
            },
            {
                "type": "note_on",
                "note": 78,
                "channel": 0,
                "velocity": 114,
                "time": 0
            },
            {
                "type": "note_off",
                "note": 66,
                "channel": 0,
                "velocity": 114,
                "time": 480
            },
            {
                "type": "note_off",
                "note": 78,
                "channel": 0,
                "velocity": 114,
                "time": 0
            },
            {
                "type": "note_on",
                "note": 66,
                "channel": 0,
                "velocity": 101,
                "time": 0
            },
            {
                "type": "note_on",
                "note": 78,
                "channel": 0,
                "velocity": 101,
                "time": 0
            },
            {
                "type": "note_off",
                "note": 66,
                "channel": 0,
                "velocity": 101,
                "time": 240
            },
            {
                "type": "note_off",
                "note": 78,
                "channel": 0,
                "velocity": 101,
                "time": 0
            },
            {
                "type": "note_on",
                "note": 81,
                "channel": 0,
                "velocity": 101,
                "time": 0
            },
            {
                "type": "note_on",
                "note": 93,
                "channel": 0,
                "velocity": 101,
                "time": 0
            },
            {
                "type": "note_off",
                "note": 81,
                "channel": 0,
                "velocity": 101,
                "time": 240
            },
            {
                "type": "note_off",
                "note": 93,
                "channel": 0,
                "velocity": 101,
                "time": 0
            },
            {
                "type": "note_on",
                "note": 80,
                "channel": 0,
                "velocity": 107,
                "time": 0
            },
            {
                "type": "note_on",
                "note": 92,
                "channel": 0,
                "velocity": 107,
                "time": 0
            },
            {
                "type": "note_off",
                "note": 80,
                "channel": 0,
                "velocity": 107,
                "time": 240
            },
            {
                "type": "note_off",
                "note": 92,
                "channel": 0,
                "velocity": 107,
                "time": 0
            },
            {
                "type": "note_on",
                "note": 81,
                "channel": 0,
                "velocity": 107,
                "time": 0
            },
            {
                "type": "note_on",
                "note": 93,
                "channel": 0,
                "velocity": 107,
                "time": 0
            },
            {
                "type": "note_off",
                "note": 81,
                "channel": 0,
                "velocity": 107,
                "time": 240
            },
            {
                "type": "note_off",
                "note": 93,
                "channel": 0,
                "velocity": 107,
                "time": 0
            },
            {
                "type": "note_on",
                "note": 80,
                "channel": 0,
                "velocity": 101,
                "time": 0
            },
            {
                "type": "note_on",
                "note": 92,
                "channel": 0,
                "velocity": 101,
                "time": 0
            },
            {
                "type": "note_off",
                "note": 80,
                "channel": 0,
                "velocity": 101,
                "time": 240
            },
            {
                "type": "note_off",
                "note": 92,
                "channel": 0,
                "velocity": 101,
                "time": 0
            },
            {
                "type": "note_on",
                "note": 81,
                "channel": 0,
                "velocity": 101,
                "time": 0
            },
            {
                "type": "note_on",
                "note": 93,
                "channel": 0,
                "velocity": 101,
                "time": 0
            },
            {
                "type": "note_off",
                "note": 81,
                "channel": 0,
                "velocity": 101,
                "time": 240
            },
            {
                "type": "note_off",
                "note": 93,
                "channel": 0,
                "velocity": 101,
                "time": 0
            },
            {
                "type": "note_on",
                "note": 69,
                "channel": 0,
                "velocity": 114,
                "time": 0
            },
            {
                "type": "note_on",
                "note": 81,
                "channel": 0,
                "velocity": 114,
                "time": 0
            },
            {
                "type": "note_off",
                "note": 69,
                "channel": 0,
                "velocity": 114,
                "time": 240
            },
            {
                "type": "note_off",
                "note": 81,
                "channel": 0,
                "velocity": 114,
                "time": 0
            },
            {
                "type": "note_on",
                "note": 69,
                "channel": 0,
                "velocity": 114,
                "time": 0
            },
            {
                "type": "note_on",
                "note": 81,
                "channel": 0,
                "velocity": 114,
                "time": 0
            },
            {
                "type": "note_off",
                "note": 69,
                "channel": 0,
                "velocity": 114,
                "time": 240
            },
            {
                "type": "note_off",
                "note": 81,
                "channel": 0,
                "velocity": 114,
                "time": 0
            },
            {
                "type": "note_on",
                "note": 69,
                "channel": 0,
                "velocity": 101,
                "time": 0
            },
            {
                "type": "note_on",
                "note": 81,
                "channel": 0,
                "velocity": 101,
                "time": 0
            },
            {
                "type": "note_off",
                "note": 69,
                "channel": 0,
                "velocity": 101,
                "time": 240
            },
            {
                "type": "note_off",
                "note": 81,
                "channel": 0,
                "velocity": 101,
                "time": 0
            },
            {
                "type": "note_on",
                "note": 69,
                "channel": 0,
                "velocity": 101,
                "time": 0
            },
            {
                "type": "note_on",
                "note": 81,
                "channel": 0,
                "velocity": 101,
                "time": 0
            },
            {
                "type": "note_off",
                "note": 69,
                "channel": 0,
                "velocity": 101,
                "time": 240
            },
            {
                "type": "note_off",
                "note": 81,
                "channel": 0,
                "velocity": 101,
                "time": 0
            },
            {
                "type": "note_on",
                "note": 73,
                "channel": 0,
                "velocity": 107,
                "time": 0
            },
            {
                "type": "note_on",
                "note": 85,
                "channel": 0,
                "velocity": 107,
                "time": 0
            },
            {
                "type": "note_off",
                "note": 73,
                "channel": 0,
                "velocity": 107,
                "time": 240
            },
            {
                "type": "note_off",
                "note": 85,
                "channel": 0,
                "velocity": 107,
                "time": 0
            },
            {
                "type": "note_on",
                "note": 73,
                "channel": 0,
                "velocity": 107,
                "time": 0
            },
            {
                "type": "note_on",
                "note": 85,
                "channel": 0,
                "velocity": 107,
                "time": 0
            },
            {
                "type": "note_off",
                "note": 73,
                "channel": 0,
                "velocity": 107,
                "time": 240
            },
            {
                "type": "note_off",
                "note": 85,
                "channel": 0,
                "velocity": 107,
                "time": 0
            },
            {
                "type": "note_on",
                "note": 73,
                "channel": 0,
                "velocity": 101,
                "time": 0
            },
            {
                "type": "note_on",
                "note": 85,
                "channel": 0,
                "velocity": 101,
                "time": 0
            },
            {
                "type": "note_off",
                "note": 73,
                "channel": 0,
                "velocity": 101,
                "time": 240
            },
            {
                "type": "note_off",
                "note": 85,
                "channel": 0,
                "velocity": 101,
                "time": 0
            },
            {
                "type": "note_on",
                "note": 73,
                "channel": 0,
                "velocity": 101,
                "time": 0
            },
            {
                "type": "note_on",
                "note": 85,
                "channel": 0,
                "velocity": 101,
                "time": 0
            },
            {
                "type": "note_off",
                "note": 73,
                "channel": 0,
                "velocity": 101,
                "time": 240
            },
            {
                "type": "note_off",
                "note": 85,
                "channel": 0,
                "velocity": 101,
                "time": 0
            },
            {
                "type": "note_on",
                "note": 71,
                "channel": 0,
                "velocity": 114,
                "time": 0
            },
            {
                "type": "note_on",
                "note": 83,
                "channel": 0,
                "velocity": 114,
                "time": 0
            },
            {
                "type": "note_off",
                "note": 71,
                "channel": 0,
                "velocity": 114,
                "time": 240
            },
            {
                "type": "note_off",
                "note": 83,
                "channel": 0,
                "velocity": 114,
                "time": 0
            },
            {
                "type": "note_on",
                "note": 71,
                "channel": 0,
                "velocity": 114,
                "time": 0
            },
            {
                "type": "note_on",
                "note": 83,
                "channel": 0,
                "velocity": 114,
                "time": 0
            },
            {
                "type": "note_off",
                "note": 71,
                "channel": 0,
                "velocity": 114,
                "time": 240
            },
            {
                "type": "note_off",
                "note": 83,
                "channel": 0,
                "velocity": 114,
                "time": 0
            },
            {
                "type": "note_on",
                "note": 71,
                "channel": 0,
                "velocity": 101,
                "time": 0
            },
            {
                "type": "note_on",
                "note": 83,
                "channel": 0,
                "velocity": 101,
                "time": 0
            },
            {
                "type": "note_off",
                "note": 71,
                "channel": 0,
                "velocity": 101,
                "time": 240
            },
            {
                "type": "note_off",
                "note": 83,
                "channel": 0,
                "velocity": 101,
                "time": 0
            },
            {
                "type": "note_on",
                "note": 71,
                "channel": 0,
                "velocity": 101,
                "time": 0
            },
            {
                "type": "note_on",
                "note": 83,
                "channel": 0,
                "velocity": 101,
                "time": 0
            },
            {
                "type": "note_off",
                "note": 71,
                "channel": 0,
                "velocity": 101,
                "time": 240
            },
            {
                "type": "note_off",
                "note": 83,
                "channel": 0,
                "velocity": 101,
                "time": 0
            },
            {
                "type": "note_on",
                "note": 76,
                "channel": 0,
                "velocity": 107,
                "time": 0
            },
            {
                "type": "note_on",
                "note": 88,
                "channel": 0,
                "velocity": 107,
                "time": 0
            },
            {
                "type": "note_off",
                "note": 76,
                "channel": 0,
                "velocity": 107,
                "time": 240
            },
            {
                "type": "note_off",
                "note": 88,
                "channel": 0,
                "velocity": 107,
                "time": 0
            },
            {
                "type": "note_on",
                "note": 76,
                "channel": 0,
                "velocity": 107,
                "time": 0
            },
            {
                "type": "note_on",
                "note": 88,
                "channel": 0,
                "velocity": 107,
                "time": 0
            },
            {
                "type": "note_off",
                "note": 76,
                "channel": 0,
                "velocity": 107,
                "time": 240
            },
            {
                "type": "note_off",
                "note": 88,
                "channel": 0,
                "velocity": 107,
                "time": 0
            },
            {
                "type": "note_on",
                "note": 76,
                "channel": 0,
                "velocity": 101,
                "time": 0
            },
            {
                "type": "note_on",
                "note": 88,
                "channel": 0,
                "velocity": 101,
                "time": 0
            },
            {
                "type": "note_off",
                "note": 76,
                "channel": 0,
                "velocity": 101,
                "time": 240
            },
            {
                "type": "note_off",
                "note": 88,
                "channel": 0,
                "velocity": 101,
                "time": 0
            },
            {
                "type": "note_on",
                "note": 76,
                "channel": 0,
                "velocity": 101,
                "time": 0
            },
            {
                "type": "note_on",
                "note": 88,
                "channel": 0,
                "velocity": 101,
                "time": 0
            },
            {
                "type": "note_off",
                "note": 76,
                "channel": 0,
                "velocity": 101,
                "time": 240
            },
            {
                "type": "note_off",
                "note": 88,
                "channel": 0,
                "velocity": 101,
                "time": 0
            },
            {
                "type": "note_on",
                "note": 78,
                "channel": 0,
                "velocity": 114,
                "time": 0
            },
            {
                "type": "note_on",
                "note": 90,
                "channel": 0,
                "velocity": 114,
                "time": 0
            },
            {
                "type": "note_off",
                "note": 78,
                "channel": 0,
                "velocity": 114,
                "time": 240
            },
            {
                "type": "note_off",
                "note": 90,
                "channel": 0,
                "velocity": 114,
                "time": 0
            },
            {
                "type": "note_on",
                "note": 78,
                "channel": 0,
                "velocity": 114,
                "time": 0
            },
            {
                "type": "note_on",
                "note": 90,
                "channel": 0,
                "velocity": 114,
                "time": 0
            },
            {
                "type": "note_off",
                "note": 78,
                "channel": 0,
                "velocity": 114,
                "time": 240
            },
            {
                "type": "note_off",
                "note": 90,
                "channel": 0,
                "velocity": 114,
                "time": 0
            },
            {
                "type": "note_on",
                "note": 78,
                "channel": 0,
                "velocity": 101,
                "time": 0
            },
            {
                "type": "note_on",
                "note": 90,
                "channel": 0,
                "velocity": 101,
                "time": 0
            },
            {
                "type": "note_off",
                "note": 78,
                "channel": 0,
                "velocity": 101,
                "time": 240
            },
            {
                "type": "note_off",
                "note": 90,
                "channel": 0,
                "velocity": 101,
                "time": 0
            },
            {
                "type": "note_on",
                "note": 78,
                "channel": 0,
                "velocity": 101,
                "time": 0
            },
            {
                "type": "note_on",
                "note": 90,
                "channel": 0,
                "velocity": 101,
                "time": 0
            },
            {
                "type": "note_off",
                "note": 78,
                "channel": 0,
                "velocity": 101,
                "time": 240
            },
            {
                "type": "note_off",
                "note": 90,
                "channel": 0,
                "velocity": 101,
                "time": 0
            },
            {
                "type": "note_on",
                "note": 78,
                "channel": 0,
                "velocity": 107,
                "time": 0
            },
            {
                "type": "note_on",
                "note": 90,
                "channel": 0,
                "velocity": 107,
                "time": 0
            },
            {
                "type": "note_off",
                "note": 78,
                "channel": 0,
                "velocity": 107,
                "time": 240
            },
            {
                "type": "note_off",
                "note": 90,
                "channel": 0,
                "velocity": 107,
                "time": 0
            },
            {
                "type": "note_on",
                "note": 78,
                "channel": 0,
                "velocity": 107,
                "time": 0
            },
            {
                "type": "note_on",
                "note": 90,
                "channel": 0,
                "velocity": 107,
                "time": 0
            },
            {
                "type": "note_off",
                "note": 78,
                "channel": 0,
                "velocity": 107,
                "time": 240
            },
            {
                "type": "note_off",
                "note": 90,
                "channel": 0,
                "velocity": 107,
                "time": 0
            },
            {
                "type": "note_on",
                "note": 78,
                "channel": 0,
                "velocity": 101,
                "time": 0
            },
            {
                "type": "note_on",
                "note": 90,
                "channel": 0,
                "velocity": 101,
                "time": 0
            },
            {
                "type": "note_off",
                "note": 78,
                "channel": 0,
                "velocity": 101,
                "time": 240
            },
            {
                "type": "note_off",
                "note": 90,
                "channel": 0,
                "velocity": 101,
                "time": 0
            },
            {
                "type": "note_on",
                "note": 78,
                "channel": 0,
                "velocity": 101,
                "time": 0
            },
            {
                "type": "note_on",
                "note": 90,
                "channel": 0,
                "velocity": 101,
                "time": 0
            },
            {
                "type": "note_off",
                "note": 78,
                "channel": 0,
                "velocity": 101,
                "time": 240
            },
            {
                "type": "note_off",
                "note": 90,
                "channel": 0,
                "velocity": 101,
                "time": 0
            },
            {
                "type": "note_on",
                "note": 78,
                "channel": 0,
                "velocity": 114,
                "time": 0
            },
            {
                "type": "note_on",
                "note": 90,
                "channel": 0,
                "velocity": 114,
                "time": 0
            },
            {
                "type": "note_off",
                "note": 78,
                "channel": 0,
                "velocity": 114,
                "time": 240
            },
            {
                "type": "note_off",
                "note": 90,
                "channel": 0,
                "velocity": 114,
                "time": 0
            },
            {
                "type": "note_on",
                "note": 78,
                "channel": 0,
                "velocity": 114,
                "time": 0
            },
            {
                "type": "note_on",
                "note": 90,
                "channel": 0,
                "velocity": 114,
                "time": 0
            },
            {
                "type": "note_off",
                "note": 78,
                "channel": 0,
                "velocity": 114,
                "time": 240
            },
            {
                "type": "note_off",
                "note": 90,
                "channel": 0,
                "velocity": 114,
                "time": 0
            },
            {
                "type": "note_on",
                "note": 78,
                "channel": 0,
                "velocity": 101,
                "time": 0
            },
            {
                "type": "note_on",
                "note": 90,
                "channel": 0,
                "velocity": 101,
                "time": 0
            },
            {
                "type": "note_off",
                "note": 78,
                "channel": 0,
                "velocity": 101,
                "time": 240
            },
            {
                "type": "note_off",
                "note": 90,
                "channel": 0,
                "velocity": 101,
                "time": 0
            },
            {
                "type": "note_on",
                "note": 78,
                "channel": 0,
                "velocity": 101,
                "time": 0
            },
            {
                "type": "note_on",
                "note": 90,
                "channel": 0,
                "velocity": 101,
                "time": 0
            },
            {
                "type": "note_off",
                "note": 78,
                "channel": 0,
                "velocity": 101,
                "time": 240
            },
            {
                "type": "note_off",
                "note": 90,
                "channel": 0,
                "velocity": 101,
                "time": 0
            },
            {
                "type": "note_on",
                "note": 71,
                "channel": 0,
                "velocity": 107,
                "time": 0
            },
            {
                "type": "note_on",
                "note": 83,
                "channel": 0,
                "velocity": 107,
                "time": 0
            },
            {
                "type": "note_off",
                "note": 71,
                "channel": 0,
                "velocity": 107,
                "time": 240
            },
            {
                "type": "note_off",
                "note": 83,
                "channel": 0,
                "velocity": 107,
                "time": 0
            },
            {
                "type": "note_on",
                "note": 69,
                "channel": 0,
                "velocity": 107,
                "time": 0
            },
            {
                "type": "note_on",
                "note": 81,
                "channel": 0,
                "velocity": 107,
                "time": 0
            },
            {
                "type": "note_off",
                "note": 69,
                "channel": 0,
                "velocity": 107,
                "time": 240
            },
            {
                "type": "note_off",
                "note": 81,
                "channel": 0,
                "velocity": 107,
                "time": 0
            },
            {
                "type": "note_on",
                "note": 68,
                "channel": 0,
                "velocity": 101,
                "time": 0
            },
            {
                "type": "note_on",
                "note": 80,
                "channel": 0,
                "velocity": 101,
                "time": 0
            },
            {
                "type": "note_off",
                "note": 68,
                "channel": 0,
                "velocity": 101,
                "time": 240
            },
            {
                "type": "note_off",
                "note": 80,
                "channel": 0,
                "velocity": 101,
                "time": 0
            },
            {
                "type": "note_on",
                "note": 64,
                "channel": 0,
                "velocity": 101,
                "time": 0
            },
            {
                "type": "note_on",
                "note": 76,
                "channel": 0,
                "velocity": 101,
                "time": 0
            },
            {
                "type": "note_off",
                "note": 64,
                "channel": 0,
                "velocity": 101,
                "time": 240
            },
            {
                "type": "note_off",
                "note": 76,
                "channel": 0,
                "velocity": 101,
                "time": 0
            },
            {
                "type": "note_on",
                "note": 62,
                "channel": 0,
                "velocity": 114,
                "time": 0
            },
            {
                "type": "note_on",
                "note": 66,
                "channel": 0,
                "velocity": 114,
                "time": 0
            },
            {
                "type": "note_on",
                "note": 69,
                "channel": 0,
                "velocity": 114,
                "time": 0
            },
            {
                "type": "note_off",
                "note": 62,
                "channel": 0,
                "velocity": 114,
                "time": 480
            },
            {
                "type": "note_off",
                "note": 66,
                "channel": 0,
                "velocity": 114,
                "time": 0
            },
            {
                "type": "note_off",
                "note": 69,
                "channel": 0,
                "velocity": 114,
                "time": 0
            },
            {
                "type": "note_on",
                "note": 66,
                "channel": 0,
                "velocity": 101,
                "time": 0
            },
            {
                "type": "note_off",
                "note": 66,
                "channel": 0,
                "velocity": 101,
                "time": 240
            },
            {
                "type": "note_on",
                "note": 73,
                "channel": 0,
                "velocity": 101,
                "time": 0
            },
            {
                "type": "note_off",
                "note": 73,
                "channel": 0,
                "velocity": 101,
                "time": 240
            },
            {
                "type": "note_on",
                "note": 71,
                "channel": 0,
                "velocity": 107,
                "time": 0
            },
            {
                "type": "note_off",
                "note": 71,
                "channel": 0,
                "velocity": 107,
                "time": 480
            },
            {
                "type": "note_on",
                "note": 69,
                "channel": 0,
                "velocity": 101,
                "time": 0
            },
            {
                "type": "note_off",
                "note": 69,
                "channel": 0,
                "velocity": 101,
                "time": 480
            },
            {
                "type": "note_on",
                "note": 68,
                "channel": 0,
                "velocity": 114,
                "time": 0
            },
            {
                "type": "note_off",
                "note": 68,
                "channel": 0,
                "velocity": 114,
                "time": 480
            },
            {
                "type": "note_on",
                "note": 68,
                "channel": 0,
                "velocity": 101,
                "time": 0
            },
            {
                "type": "note_off",
                "note": 68,
                "channel": 0,
                "velocity": 101,
                "time": 240
            },
            {
                "type": "note_on",
                "note": 68,
                "channel": 0,
                "velocity": 101,
                "time": 0
            },
            {
                "type": "note_off",
                "note": 68,
                "channel": 0,
                "velocity": 101,
                "time": 240
            },
            {
                "type": "note_on",
                "note": 71,
                "channel": 0,
                "velocity": 107,
                "time": 0
            },
            {
                "type": "note_off",
                "note": 71,
                "channel": 0,
                "velocity": 107,
                "time": 480
            },
            {
                "type": "note_on",
                "note": 69,
                "channel": 0,
                "velocity": 101,
                "time": 0
            },
            {
                "type": "note_off",
                "note": 69,
                "channel": 0,
                "velocity": 101,
                "time": 240
            },
            {
                "type": "note_on",
                "note": 68,
                "channel": 0,
                "velocity": 101,
                "time": 0
            },
            {
                "type": "note_off",
                "note": 68,
                "channel": 0,
                "velocity": 101,
                "time": 240
            },
            {
                "type": "note_on",
                "note": 66,
                "channel": 0,
                "velocity": 114,
                "time": 0
            },
            {
                "type": "note_off",
                "note": 66,
                "channel": 0,
                "velocity": 114,
                "time": 720
            },
            {
                "type": "note_on",
                "note": 81,
                "channel": 0,
                "velocity": 101,
                "time": 0
            },
            {
                "type": "note_off",
                "note": 81,
                "channel": 0,
                "velocity": 101,
                "time": 240
            },
            {
                "type": "note_on",
                "note": 80,
                "channel": 0,
                "velocity": 107,
                "time": 0
            },
            {
                "type": "note_off",
                "note": 80,
                "channel": 0,
                "velocity": 107,
                "time": 240
            },
            {
                "type": "note_on",
                "note": 81,
                "channel": 0,
                "velocity": 107,
                "time": 0
            },
            {
                "type": "note_off",
                "note": 81,
                "channel": 0,
                "velocity": 107,
                "time": 240
            },
            {
                "type": "note_on",
                "note": 80,
                "channel": 0,
                "velocity": 101,
                "time": 0
            },
            {
                "type": "note_off",
                "note": 80,
                "channel": 0,
                "velocity": 101,
                "time": 240
            },
            {
                "type": "note_on",
                "note": 81,
                "channel": 0,
                "velocity": 101,
                "time": 0
            },
            {
                "type": "note_off",
                "note": 81,
                "channel": 0,
                "velocity": 101,
                "time": 240
            },
            {
                "type": "note_on",
                "note": 66,
                "channel": 0,
                "velocity": 114,
                "time": 0
            },
            {
                "type": "note_off",
                "note": 66,
                "channel": 0,
                "velocity": 114,
                "time": 720
            },
            {
                "type": "note_on",
                "note": 81,
                "channel": 0,
                "velocity": 101,
                "time": 0
            },
            {
                "type": "note_off",
                "note": 81,
                "channel": 0,
                "velocity": 101,
                "time": 240
            },
            {
                "type": "note_on",
                "note": 80,
                "channel": 0,
                "velocity": 107,
                "time": 0
            },
            {
                "type": "note_off",
                "note": 80,
                "channel": 0,
                "velocity": 107,
                "time": 240
            },
            {
                "type": "note_on",
                "note": 81,
                "channel": 0,
                "velocity": 107,
                "time": 0
            },
            {
                "type": "note_off",
                "note": 81,
                "channel": 0,
                "velocity": 107,
                "time": 240
            },
            {
                "type": "note_on",
                "note": 80,
                "channel": 0,
                "velocity": 101,
                "time": 0
            },
            {
                "type": "note_off",
                "note": 80,
                "channel": 0,
                "velocity": 101,
                "time": 240
            },
            {
                "type": "note_on",
                "note": 81,
                "channel": 0,
                "velocity": 101,
                "time": 0
            },
            {
                "type": "note_off",
                "note": 81,
                "channel": 0,
                "velocity": 101,
                "time": 240
            },
            {
                "type": "note_on",
                "note": 69,
                "channel": 0,
                "velocity": 114,
                "time": 0
            },
            {
                "type": "note_on",
                "note": 78,
                "channel": 0,
                "velocity": 114,
                "time": 0
            },
            {
                "type": "note_off",
                "note": 69,
                "channel": 0,
                "velocity": 114,
                "time": 480
            },
            {
                "type": "note_off",
                "note": 78,
                "channel": 0,
                "velocity": 114,
                "time": 0
            },
            {
                "type": "note_on",
                "note": 78,
                "channel": 0,
                "velocity": 101,
                "time": 0
            },
            {
                "type": "note_off",
                "note": 78,
                "channel": 0,
                "velocity": 101,
                "time": 240
            },
            {
                "type": "note_on",
                "note": 85,
                "channel": 0,
                "velocity": 101,
                "time": 0
            },
            {
                "type": "note_off",
                "note": 85,
                "channel": 0,
                "velocity": 101,
                "time": 240
            },
            {
                "type": "note_on",
                "note": 83,
                "channel": 0,
                "velocity": 107,
                "time": 0
            },
            {
                "type": "note_off",
                "note": 83,
                "channel": 0,
                "velocity": 107,
                "time": 480
            },
            {
                "type": "note_on",
                "note": 81,
                "channel": 0,
                "velocity": 101,
                "time": 0
            },
            {
                "type": "note_off",
                "note": 81,
                "channel": 0,
                "velocity": 101,
                "time": 480
            },
            {
                "type": "note_on",
                "note": 68,
                "channel": 0,
                "velocity": 114,
                "time": 0
            },
            {
                "type": "note_on",
                "note": 80,
                "channel": 0,
                "velocity": 114,
                "time": 0
            },
            {
                "type": "note_off",
                "note": 68,
                "channel": 0,
                "velocity": 114,
                "time": 480
            },
            {
                "type": "note_off",
                "note": 80,
                "channel": 0,
                "velocity": 114,
                "time": 0
            },
            {
                "type": "note_on",
                "note": 80,
                "channel": 0,
                "velocity": 101,
                "time": 0
            },
            {
                "type": "note_off",
                "note": 80,
                "channel": 0,
                "velocity": 101,
                "time": 240
            },
            {
                "type": "note_on",
                "note": 80,
                "channel": 0,
                "velocity": 101,
                "time": 0
            },
            {
                "type": "note_off",
                "note": 80,
                "channel": 0,
                "velocity": 101,
                "time": 240
            },
            {
                "type": "note_on",
                "note": 83,
                "channel": 0,
                "velocity": 107,
                "time": 0
            },
            {
                "type": "note_off",
                "note": 83,
                "channel": 0,
                "velocity": 107,
                "time": 480
            },
            {
                "type": "note_on",
                "note": 81,
                "channel": 0,
                "velocity": 101,
                "time": 0
            },
            {
                "type": "note_off",
                "note": 81,
                "channel": 0,
                "velocity": 101,
                "time": 240
            },
            {
                "type": "note_on",
                "note": 80,
                "channel": 0,
                "velocity": 101,
                "time": 0
            },
            {
                "type": "note_off",
                "note": 80,
                "channel": 0,
                "velocity": 101,
                "time": 240
            },
            {
                "type": "note_on",
                "note": 66,
                "channel": 0,
                "velocity": 114,
                "time": 0
            },
            {
                "type": "note_on",
                "note": 78,
                "channel": 0,
                "velocity": 114,
                "time": 0
            },
            {
                "type": "note_off",
                "note": 66,
                "channel": 0,
                "velocity": 114,
                "time": 480
            },
            {
                "type": "note_off",
                "note": 78,
                "channel": 0,
                "velocity": 114,
                "time": 0
            },
            {
                "type": "note_on",
                "note": 78,
                "channel": 0,
                "velocity": 101,
                "time": 0
            },
            {
                "type": "note_off",
                "note": 78,
                "channel": 0,
                "velocity": 101,
                "time": 240
            },
            {
                "type": "note_on",
                "note": 93,
                "channel": 0,
                "velocity": 101,
                "time": 0
            },
            {
                "type": "note_off",
                "note": 93,
                "channel": 0,
                "velocity": 101,
                "time": 240
            },
            {
                "type": "note_on",
                "note": 92,
                "channel": 0,
                "velocity": 107,
                "time": 0
            },
            {
                "type": "note_off",
                "note": 92,
                "channel": 0,
                "velocity": 107,
                "time": 240
            },
            {
                "type": "note_on",
                "note": 93,
                "channel": 0,
                "velocity": 107,
                "time": 0
            },
            {
                "type": "note_off",
                "note": 93,
                "channel": 0,
                "velocity": 107,
                "time": 240
            },
            {
                "type": "note_on",
                "note": 92,
                "channel": 0,
                "velocity": 101,
                "time": 0
            },
            {
                "type": "note_off",
                "note": 92,
                "channel": 0,
                "velocity": 101,
                "time": 240
            },
            {
                "type": "note_on",
                "note": 93,
                "channel": 0,
                "velocity": 101,
                "time": 0
            },
            {
                "type": "note_off",
                "note": 93,
                "channel": 0,
                "velocity": 101,
                "time": 240
            },
            {
                "type": "note_on",
                "note": 78,
                "channel": 0,
                "velocity": 114,
                "time": 0
            },
            {
                "type": "note_off",
                "note": 78,
                "channel": 0,
                "velocity": 114,
                "time": 480
            },
            {
                "type": "note_on",
                "note": 78,
                "channel": 0,
                "velocity": 101,
                "time": 0
            },
            {
                "type": "note_off",
                "note": 78,
                "channel": 0,
                "velocity": 101,
                "time": 240
            },
            {
                "type": "note_on",
                "note": 93,
                "channel": 0,
                "velocity": 101,
                "time": 0
            },
            {
                "type": "note_off",
                "note": 93,
                "channel": 0,
                "velocity": 101,
                "time": 240
            },
            {
                "type": "note_on",
                "note": 92,
                "channel": 0,
                "velocity": 107,
                "time": 0
            },
            {
                "type": "note_off",
                "note": 92,
                "channel": 0,
                "velocity": 107,
                "time": 240
            },
            {
                "type": "note_on",
                "note": 93,
                "channel": 0,
                "velocity": 107,
                "time": 0
            },
            {
                "type": "note_off",
                "note": 93,
                "channel": 0,
                "velocity": 107,
                "time": 240
            },
            {
                "type": "note_on",
                "note": 92,
                "channel": 0,
                "velocity": 101,
                "time": 0
            },
            {
                "type": "note_off",
                "note": 92,
                "channel": 0,
                "velocity": 101,
                "time": 240
            },
            {
                "type": "note_on",
                "note": 93,
                "channel": 0,
                "velocity": 101,
                "time": 0
            },
            {
                "type": "note_off",
                "note": 93,
                "channel": 0,
                "velocity": 101,
                "time": 240
            },
            {
                "type": "note_on",
                "note": 66,
                "channel": 0,
                "velocity": 114,
                "time": 0
            },
            {
                "type": "note_on",
                "note": 78,
                "channel": 0,
                "velocity": 114,
                "time": 0
            },
            {
                "type": "note_off",
                "note": 66,
                "channel": 0,
                "velocity": 114,
                "time": 480
            },
            {
                "type": "note_off",
                "note": 78,
                "channel": 0,
                "velocity": 114,
                "time": 0
            },
            {
                "type": "note_on",
                "note": 78,
                "channel": 0,
                "velocity": 101,
                "time": 0
            },
            {
                "type": "note_off",
                "note": 78,
                "channel": 0,
                "velocity": 101,
                "time": 240
            },
            {
                "type": "note_on",
                "note": 73,
                "channel": 0,
                "velocity": 101,
                "time": 0
            },
            {
                "type": "note_on",
                "note": 85,
                "channel": 0,
                "velocity": 101,
                "time": 0
            },
            {
                "type": "note_off",
                "note": 73,
                "channel": 0,
                "velocity": 101,
                "time": 240
            },
            {
                "type": "note_off",
                "note": 85,
                "channel": 0,
                "velocity": 101,
                "time": 0
            },
            {
                "type": "note_on",
                "note": 71,
                "channel": 0,
                "velocity": 107,
                "time": 0
            },
            {
                "type": "note_on",
                "note": 83,
                "channel": 0,
                "velocity": 107,
                "time": 0
            },
            {
                "type": "note_off",
                "note": 71,
                "channel": 0,
                "velocity": 107,
                "time": 480
            },
            {
                "type": "note_off",
                "note": 83,
                "channel": 0,
                "velocity": 107,
                "time": 0
            },
            {
                "type": "note_on",
                "note": 69,
                "channel": 0,
                "velocity": 101,
                "time": 0
            },
            {
                "type": "note_on",
                "note": 81,
                "channel": 0,
                "velocity": 101,
                "time": 0
            },
            {
                "type": "note_off",
                "note": 69,
                "channel": 0,
                "velocity": 101,
                "time": 480
            },
            {
                "type": "note_off",
                "note": 81,
                "channel": 0,
                "velocity": 101,
                "time": 0
            },
            {
                "type": "note_on",
                "note": 68,
                "channel": 0,
                "velocity": 114,
                "time": 0
            },
            {
                "type": "note_on",
                "note": 80,
                "channel": 0,
                "velocity": 114,
                "time": 0
            },
            {
                "type": "note_off",
                "note": 68,
                "channel": 0,
                "velocity": 114,
                "time": 480
            },
            {
                "type": "note_off",
                "note": 80,
                "channel": 0,
                "velocity": 114,
                "time": 0
            },
            {
                "type": "note_on",
                "note": 68,
                "channel": 0,
                "velocity": 101,
                "time": 0
            },
            {
                "type": "note_on",
                "note": 80,
                "channel": 0,
                "velocity": 101,
                "time": 0
            },
            {
                "type": "note_off",
                "note": 68,
                "channel": 0,
                "velocity": 101,
                "time": 240
            },
            {
                "type": "note_off",
                "note": 80,
                "channel": 0,
                "velocity": 101,
                "time": 0
            },
            {
                "type": "note_on",
                "note": 68,
                "channel": 0,
                "velocity": 101,
                "time": 0
            },
            {
                "type": "note_on",
                "note": 80,
                "channel": 0,
                "velocity": 101,
                "time": 0
            },
            {
                "type": "note_off",
                "note": 68,
                "channel": 0,
                "velocity": 101,
                "time": 240
            },
            {
                "type": "note_off",
                "note": 80,
                "channel": 0,
                "velocity": 101,
                "time": 0
            },
            {
                "type": "note_on",
                "note": 71,
                "channel": 0,
                "velocity": 107,
                "time": 0
            },
            {
                "type": "note_on",
                "note": 83,
                "channel": 0,
                "velocity": 107,
                "time": 0
            },
            {
                "type": "note_off",
                "note": 71,
                "channel": 0,
                "velocity": 107,
                "time": 480
            },
            {
                "type": "note_off",
                "note": 83,
                "channel": 0,
                "velocity": 107,
                "time": 0
            },
            {
                "type": "note_on",
                "note": 69,
                "channel": 0,
                "velocity": 101,
                "time": 0
            },
            {
                "type": "note_on",
                "note": 81,
                "channel": 0,
                "velocity": 101,
                "time": 0
            },
            {
                "type": "note_off",
                "note": 69,
                "channel": 0,
                "velocity": 101,
                "time": 240
            },
            {
                "type": "note_off",
                "note": 81,
                "channel": 0,
                "velocity": 101,
                "time": 0
            },
            {
                "type": "note_on",
                "note": 68,
                "channel": 0,
                "velocity": 101,
                "time": 0
            },
            {
                "type": "note_on",
                "note": 80,
                "channel": 0,
                "velocity": 101,
                "time": 0
            },
            {
                "type": "note_off",
                "note": 68,
                "channel": 0,
                "velocity": 101,
                "time": 240
            },
            {
                "type": "note_off",
                "note": 80,
                "channel": 0,
                "velocity": 101,
                "time": 0
            },
            {
                "type": "note_on",
                "note": 66,
                "channel": 0,
                "velocity": 114,
                "time": 0
            },
            {
                "type": "note_on",
                "note": 78,
                "channel": 0,
                "velocity": 114,
                "time": 0
            },
            {
                "type": "note_off",
                "note": 66,
                "channel": 0,
                "velocity": 114,
                "time": 480
            },
            {
                "type": "note_off",
                "note": 78,
                "channel": 0,
                "velocity": 114,
                "time": 0
            },
            {
                "type": "note_on",
                "note": 66,
                "channel": 0,
                "velocity": 101,
                "time": 0
            },
            {
                "type": "note_on",
                "note": 78,
                "channel": 0,
                "velocity": 101,
                "time": 0
            },
            {
                "type": "note_off",
                "note": 66,
                "channel": 0,
                "velocity": 101,
                "time": 240
            },
            {
                "type": "note_off",
                "note": 78,
                "channel": 0,
                "velocity": 101,
                "time": 0
            },
            {
                "type": "note_on",
                "note": 81,
                "channel": 0,
                "velocity": 101,
                "time": 0
            },
            {
                "type": "note_on",
                "note": 93,
                "channel": 0,
                "velocity": 101,
                "time": 0
            },
            {
                "type": "note_off",
                "note": 81,
                "channel": 0,
                "velocity": 101,
                "time": 240
            },
            {
                "type": "note_off",
                "note": 93,
                "channel": 0,
                "velocity": 101,
                "time": 0
            },
            {
                "type": "note_on",
                "note": 80,
                "channel": 0,
                "velocity": 107,
                "time": 0
            },
            {
                "type": "note_on",
                "note": 92,
                "channel": 0,
                "velocity": 107,
                "time": 0
            },
            {
                "type": "note_off",
                "note": 80,
                "channel": 0,
                "velocity": 107,
                "time": 240
            },
            {
                "type": "note_off",
                "note": 92,
                "channel": 0,
                "velocity": 107,
                "time": 0
            },
            {
                "type": "note_on",
                "note": 81,
                "channel": 0,
                "velocity": 107,
                "time": 0
            },
            {
                "type": "note_on",
                "note": 93,
                "channel": 0,
                "velocity": 107,
                "time": 0
            },
            {
                "type": "note_off",
                "note": 81,
                "channel": 0,
                "velocity": 107,
                "time": 240
            },
            {
                "type": "note_off",
                "note": 93,
                "channel": 0,
                "velocity": 107,
                "time": 0
            },
            {
                "type": "note_on",
                "note": 80,
                "channel": 0,
                "velocity": 101,
                "time": 0
            },
            {
                "type": "note_on",
                "note": 92,
                "channel": 0,
                "velocity": 101,
                "time": 0
            },
            {
                "type": "note_off",
                "note": 80,
                "channel": 0,
                "velocity": 101,
                "time": 240
            },
            {
                "type": "note_off",
                "note": 92,
                "channel": 0,
                "velocity": 101,
                "time": 0
            },
            {
                "type": "note_on",
                "note": 81,
                "channel": 0,
                "velocity": 101,
                "time": 0
            },
            {
                "type": "note_on",
                "note": 93,
                "channel": 0,
                "velocity": 101,
                "time": 0
            },
            {
                "type": "note_off",
                "note": 81,
                "channel": 0,
                "velocity": 101,
                "time": 240
            },
            {
                "type": "note_off",
                "note": 93,
                "channel": 0,
                "velocity": 101,
                "time": 0
            },
            {
                "type": "note_on",
                "note": 66,
                "channel": 0,
                "velocity": 114,
                "time": 0
            },
            {
                "type": "note_on",
                "note": 78,
                "channel": 0,
                "velocity": 114,
                "time": 0
            },
            {
                "type": "note_off",
                "note": 66,
                "channel": 0,
                "velocity": 114,
                "time": 480
            },
            {
                "type": "note_off",
                "note": 78,
                "channel": 0,
                "velocity": 114,
                "time": 0
            },
            {
                "type": "note_on",
                "note": 66,
                "channel": 0,
                "velocity": 101,
                "time": 0
            },
            {
                "type": "note_on",
                "note": 78,
                "channel": 0,
                "velocity": 101,
                "time": 0
            },
            {
                "type": "note_off",
                "note": 66,
                "channel": 0,
                "velocity": 101,
                "time": 240
            },
            {
                "type": "note_off",
                "note": 78,
                "channel": 0,
                "velocity": 101,
                "time": 0
            },
            {
                "type": "note_on",
                "note": 81,
                "channel": 0,
                "velocity": 101,
                "time": 0
            },
            {
                "type": "note_on",
                "note": 93,
                "channel": 0,
                "velocity": 101,
                "time": 0
            },
            {
                "type": "note_off",
                "note": 81,
                "channel": 0,
                "velocity": 101,
                "time": 240
            },
            {
                "type": "note_off",
                "note": 93,
                "channel": 0,
                "velocity": 101,
                "time": 0
            },
            {
                "type": "note_on",
                "note": 80,
                "channel": 0,
                "velocity": 107,
                "time": 0
            },
            {
                "type": "note_on",
                "note": 92,
                "channel": 0,
                "velocity": 107,
                "time": 0
            },
            {
                "type": "note_off",
                "note": 80,
                "channel": 0,
                "velocity": 107,
                "time": 240
            },
            {
                "type": "note_off",
                "note": 92,
                "channel": 0,
                "velocity": 107,
                "time": 0
            },
            {
                "type": "note_on",
                "note": 81,
                "channel": 0,
                "velocity": 107,
                "time": 0
            },
            {
                "type": "note_on",
                "note": 93,
                "channel": 0,
                "velocity": 107,
                "time": 0
            },
            {
                "type": "note_off",
                "note": 81,
                "channel": 0,
                "velocity": 107,
                "time": 240
            },
            {
                "type": "note_off",
                "note": 93,
                "channel": 0,
                "velocity": 107,
                "time": 0
            },
            {
                "type": "note_on",
                "note": 80,
                "channel": 0,
                "velocity": 101,
                "time": 0
            },
            {
                "type": "note_on",
                "note": 92,
                "channel": 0,
                "velocity": 101,
                "time": 0
            },
            {
                "type": "note_off",
                "note": 80,
                "channel": 0,
                "velocity": 101,
                "time": 240
            },
            {
                "type": "note_off",
                "note": 92,
                "channel": 0,
                "velocity": 101,
                "time": 0
            },
            {
                "type": "note_on",
                "note": 81,
                "channel": 0,
                "velocity": 101,
                "time": 0
            },
            {
                "type": "note_on",
                "note": 93,
                "channel": 0,
                "velocity": 101,
                "time": 0
            },
            {
                "type": "note_off",
                "note": 81,
                "channel": 0,
                "velocity": 101,
                "time": 240
            },
            {
                "type": "note_off",
                "note": 93,
                "channel": 0,
                "velocity": 101,
                "time": 0
            },
            {
                "type": "note_on",
                "note": 69,
                "channel": 0,
                "velocity": 114,
                "time": 0
            },
            {
                "type": "note_on",
                "note": 81,
                "channel": 0,
                "velocity": 114,
                "time": 0
            },
            {
                "type": "note_off",
                "note": 69,
                "channel": 0,
                "velocity": 114,
                "time": 240
            },
            {
                "type": "note_off",
                "note": 81,
                "channel": 0,
                "velocity": 114,
                "time": 0
            },
            {
                "type": "note_on",
                "note": 69,
                "channel": 0,
                "velocity": 114,
                "time": 0
            },
            {
                "type": "note_on",
                "note": 81,
                "channel": 0,
                "velocity": 114,
                "time": 0
            },
            {
                "type": "note_off",
                "note": 69,
                "channel": 0,
                "velocity": 114,
                "time": 240
            },
            {
                "type": "note_off",
                "note": 81,
                "channel": 0,
                "velocity": 114,
                "time": 0
            },
            {
                "type": "note_on",
                "note": 69,
                "channel": 0,
                "velocity": 101,
                "time": 0
            },
            {
                "type": "note_on",
                "note": 81,
                "channel": 0,
                "velocity": 101,
                "time": 0
            },
            {
                "type": "note_off",
                "note": 69,
                "channel": 0,
                "velocity": 101,
                "time": 240
            },
            {
                "type": "note_off",
                "note": 81,
                "channel": 0,
                "velocity": 101,
                "time": 0
            },
            {
                "type": "note_on",
                "note": 69,
                "channel": 0,
                "velocity": 101,
                "time": 0
            },
            {
                "type": "note_on",
                "note": 81,
                "channel": 0,
                "velocity": 101,
                "time": 0
            },
            {
                "type": "note_off",
                "note": 69,
                "channel": 0,
                "velocity": 101,
                "time": 240
            },
            {
                "type": "note_off",
                "note": 81,
                "channel": 0,
                "velocity": 101,
                "time": 0
            },
            {
                "type": "note_on",
                "note": 73,
                "channel": 0,
                "velocity": 107,
                "time": 0
            },
            {
                "type": "note_on",
                "note": 85,
                "channel": 0,
                "velocity": 107,
                "time": 0
            },
            {
                "type": "note_off",
                "note": 73,
                "channel": 0,
                "velocity": 107,
                "time": 240
            },
            {
                "type": "note_off",
                "note": 85,
                "channel": 0,
                "velocity": 107,
                "time": 0
            },
            {
                "type": "note_on",
                "note": 73,
                "channel": 0,
                "velocity": 107,
                "time": 0
            },
            {
                "type": "note_on",
                "note": 85,
                "channel": 0,
                "velocity": 107,
                "time": 0
            },
            {
                "type": "note_off",
                "note": 73,
                "channel": 0,
                "velocity": 107,
                "time": 240
            },
            {
                "type": "note_off",
                "note": 85,
                "channel": 0,
                "velocity": 107,
                "time": 0
            },
            {
                "type": "note_on",
                "note": 73,
                "channel": 0,
                "velocity": 101,
                "time": 0
            },
            {
                "type": "note_on",
                "note": 85,
                "channel": 0,
                "velocity": 101,
                "time": 0
            },
            {
                "type": "note_off",
                "note": 73,
                "channel": 0,
                "velocity": 101,
                "time": 240
            },
            {
                "type": "note_off",
                "note": 85,
                "channel": 0,
                "velocity": 101,
                "time": 0
            },
            {
                "type": "note_on",
                "note": 73,
                "channel": 0,
                "velocity": 101,
                "time": 0
            },
            {
                "type": "note_on",
                "note": 85,
                "channel": 0,
                "velocity": 101,
                "time": 0
            },
            {
                "type": "note_off",
                "note": 73,
                "channel": 0,
                "velocity": 101,
                "time": 240
            },
            {
                "type": "note_off",
                "note": 85,
                "channel": 0,
                "velocity": 101,
                "time": 0
            },
            {
                "type": "note_on",
                "note": 71,
                "channel": 0,
                "velocity": 114,
                "time": 0
            },
            {
                "type": "note_on",
                "note": 83,
                "channel": 0,
                "velocity": 114,
                "time": 0
            },
            {
                "type": "note_off",
                "note": 71,
                "channel": 0,
                "velocity": 114,
                "time": 240
            },
            {
                "type": "note_off",
                "note": 83,
                "channel": 0,
                "velocity": 114,
                "time": 0
            },
            {
                "type": "note_on",
                "note": 71,
                "channel": 0,
                "velocity": 114,
                "time": 0
            },
            {
                "type": "note_on",
                "note": 83,
                "channel": 0,
                "velocity": 114,
                "time": 0
            },
            {
                "type": "note_off",
                "note": 71,
                "channel": 0,
                "velocity": 114,
                "time": 240
            },
            {
                "type": "note_off",
                "note": 83,
                "channel": 0,
                "velocity": 114,
                "time": 0
            },
            {
                "type": "note_on",
                "note": 71,
                "channel": 0,
                "velocity": 101,
                "time": 0
            },
            {
                "type": "note_on",
                "note": 83,
                "channel": 0,
                "velocity": 101,
                "time": 0
            },
            {
                "type": "note_off",
                "note": 71,
                "channel": 0,
                "velocity": 101,
                "time": 240
            },
            {
                "type": "note_off",
                "note": 83,
                "channel": 0,
                "velocity": 101,
                "time": 0
            },
            {
                "type": "note_on",
                "note": 71,
                "channel": 0,
                "velocity": 101,
                "time": 0
            },
            {
                "type": "note_on",
                "note": 83,
                "channel": 0,
                "velocity": 101,
                "time": 0
            },
            {
                "type": "note_off",
                "note": 71,
                "channel": 0,
                "velocity": 101,
                "time": 240
            },
            {
                "type": "note_off",
                "note": 83,
                "channel": 0,
                "velocity": 101,
                "time": 0
            },
            {
                "type": "note_on",
                "note": 76,
                "channel": 0,
                "velocity": 107,
                "time": 0
            },
            {
                "type": "note_on",
                "note": 88,
                "channel": 0,
                "velocity": 107,
                "time": 0
            },
            {
                "type": "note_off",
                "note": 76,
                "channel": 0,
                "velocity": 107,
                "time": 240
            },
            {
                "type": "note_off",
                "note": 88,
                "channel": 0,
                "velocity": 107,
                "time": 0
            },
            {
                "type": "note_on",
                "note": 76,
                "channel": 0,
                "velocity": 107,
                "time": 0
            },
            {
                "type": "note_on",
                "note": 88,
                "channel": 0,
                "velocity": 107,
                "time": 0
            },
            {
                "type": "note_off",
                "note": 76,
                "channel": 0,
                "velocity": 107,
                "time": 240
            },
            {
                "type": "note_off",
                "note": 88,
                "channel": 0,
                "velocity": 107,
                "time": 0
            },
            {
                "type": "note_on",
                "note": 76,
                "channel": 0,
                "velocity": 101,
                "time": 0
            },
            {
                "type": "note_on",
                "note": 88,
                "channel": 0,
                "velocity": 101,
                "time": 0
            },
            {
                "type": "note_off",
                "note": 76,
                "channel": 0,
                "velocity": 101,
                "time": 240
            },
            {
                "type": "note_off",
                "note": 88,
                "channel": 0,
                "velocity": 101,
                "time": 0
            },
            {
                "type": "note_on",
                "note": 76,
                "channel": 0,
                "velocity": 101,
                "time": 0
            },
            {
                "type": "note_on",
                "note": 88,
                "channel": 0,
                "velocity": 101,
                "time": 0
            },
            {
                "type": "note_off",
                "note": 76,
                "channel": 0,
                "velocity": 101,
                "time": 240
            },
            {
                "type": "note_off",
                "note": 88,
                "channel": 0,
                "velocity": 101,
                "time": 0
            },
            {
                "type": "note_on",
                "note": 78,
                "channel": 0,
                "velocity": 114,
                "time": 0
            },
            {
                "type": "note_on",
                "note": 90,
                "channel": 0,
                "velocity": 114,
                "time": 0
            },
            {
                "type": "note_off",
                "note": 78,
                "channel": 0,
                "velocity": 114,
                "time": 240
            },
            {
                "type": "note_off",
                "note": 90,
                "channel": 0,
                "velocity": 114,
                "time": 0
            },
            {
                "type": "note_on",
                "note": 78,
                "channel": 0,
                "velocity": 114,
                "time": 0
            },
            {
                "type": "note_on",
                "note": 90,
                "channel": 0,
                "velocity": 114,
                "time": 0
            },
            {
                "type": "note_off",
                "note": 78,
                "channel": 0,
                "velocity": 114,
                "time": 240
            },
            {
                "type": "note_off",
                "note": 90,
                "channel": 0,
                "velocity": 114,
                "time": 0
            },
            {
                "type": "note_on",
                "note": 78,
                "channel": 0,
                "velocity": 101,
                "time": 0
            },
            {
                "type": "note_on",
                "note": 90,
                "channel": 0,
                "velocity": 101,
                "time": 0
            },
            {
                "type": "note_off",
                "note": 78,
                "channel": 0,
                "velocity": 101,
                "time": 240
            },
            {
                "type": "note_off",
                "note": 90,
                "channel": 0,
                "velocity": 101,
                "time": 0
            },
            {
                "type": "note_on",
                "note": 78,
                "channel": 0,
                "velocity": 101,
                "time": 0
            },
            {
                "type": "note_on",
                "note": 90,
                "channel": 0,
                "velocity": 101,
                "time": 0
            },
            {
                "type": "note_off",
                "note": 78,
                "channel": 0,
                "velocity": 101,
                "time": 240
            },
            {
                "type": "note_off",
                "note": 90,
                "channel": 0,
                "velocity": 101,
                "time": 0
            },
            {
                "type": "note_on",
                "note": 78,
                "channel": 0,
                "velocity": 107,
                "time": 0
            },
            {
                "type": "note_on",
                "note": 90,
                "channel": 0,
                "velocity": 107,
                "time": 0
            },
            {
                "type": "note_off",
                "note": 78,
                "channel": 0,
                "velocity": 107,
                "time": 240
            },
            {
                "type": "note_off",
                "note": 90,
                "channel": 0,
                "velocity": 107,
                "time": 0
            },
            {
                "type": "note_on",
                "note": 78,
                "channel": 0,
                "velocity": 107,
                "time": 0
            },
            {
                "type": "note_on",
                "note": 90,
                "channel": 0,
                "velocity": 107,
                "time": 0
            },
            {
                "type": "note_off",
                "note": 78,
                "channel": 0,
                "velocity": 107,
                "time": 240
            },
            {
                "type": "note_off",
                "note": 90,
                "channel": 0,
                "velocity": 107,
                "time": 0
            },
            {
                "type": "note_on",
                "note": 78,
                "channel": 0,
                "velocity": 101,
                "time": 0
            },
            {
                "type": "note_on",
                "note": 90,
                "channel": 0,
                "velocity": 101,
                "time": 0
            },
            {
                "type": "note_off",
                "note": 78,
                "channel": 0,
                "velocity": 101,
                "time": 240
            },
            {
                "type": "note_off",
                "note": 90,
                "channel": 0,
                "velocity": 101,
                "time": 0
            },
            {
                "type": "note_on",
                "note": 78,
                "channel": 0,
                "velocity": 101,
                "time": 0
            },
            {
                "type": "note_on",
                "note": 90,
                "channel": 0,
                "velocity": 101,
                "time": 0
            },
            {
                "type": "note_off",
                "note": 78,
                "channel": 0,
                "velocity": 101,
                "time": 240
            },
            {
                "type": "note_off",
                "note": 90,
                "channel": 0,
                "velocity": 101,
                "time": 0
            },
            {
                "type": "note_on",
                "note": 78,
                "channel": 0,
                "velocity": 114,
                "time": 0
            },
            {
                "type": "note_on",
                "note": 90,
                "channel": 0,
                "velocity": 114,
                "time": 0
            },
            {
                "type": "note_off",
                "note": 78,
                "channel": 0,
                "velocity": 114,
                "time": 240
            },
            {
                "type": "note_off",
                "note": 90,
                "channel": 0,
                "velocity": 114,
                "time": 0
            },
            {
                "type": "note_on",
                "note": 78,
                "channel": 0,
                "velocity": 114,
                "time": 0
            },
            {
                "type": "note_on",
                "note": 90,
                "channel": 0,
                "velocity": 114,
                "time": 0
            },
            {
                "type": "note_off",
                "note": 78,
                "channel": 0,
                "velocity": 114,
                "time": 240
            },
            {
                "type": "note_off",
                "note": 90,
                "channel": 0,
                "velocity": 114,
                "time": 0
            },
            {
                "type": "note_on",
                "note": 78,
                "channel": 0,
                "velocity": 101,
                "time": 0
            },
            {
                "type": "note_on",
                "note": 90,
                "channel": 0,
                "velocity": 101,
                "time": 0
            },
            {
                "type": "note_off",
                "note": 78,
                "channel": 0,
                "velocity": 101,
                "time": 240
            },
            {
                "type": "note_off",
                "note": 90,
                "channel": 0,
                "velocity": 101,
                "time": 0
            },
            {
                "type": "note_on",
                "note": 78,
                "channel": 0,
                "velocity": 101,
                "time": 0
            },
            {
                "type": "note_on",
                "note": 90,
                "channel": 0,
                "velocity": 101,
                "time": 0
            },
            {
                "type": "note_off",
                "note": 78,
                "channel": 0,
                "velocity": 101,
                "time": 240
            },
            {
                "type": "note_off",
                "note": 90,
                "channel": 0,
                "velocity": 101,
                "time": 0
            },
            {
                "type": "note_on",
                "note": 71,
                "channel": 0,
                "velocity": 107,
                "time": 0
            },
            {
                "type": "note_on",
                "note": 83,
                "channel": 0,
                "velocity": 107,
                "time": 0
            },
            {
                "type": "note_off",
                "note": 71,
                "channel": 0,
                "velocity": 107,
                "time": 240
            },
            {
                "type": "note_off",
                "note": 83,
                "channel": 0,
                "velocity": 107,
                "time": 0
            },
            {
                "type": "note_on",
                "note": 69,
                "channel": 0,
                "velocity": 107,
                "time": 0
            },
            {
                "type": "note_on",
                "note": 81,
                "channel": 0,
                "velocity": 107,
                "time": 0
            },
            {
                "type": "note_off",
                "note": 69,
                "channel": 0,
                "velocity": 107,
                "time": 240
            },
            {
                "type": "note_off",
                "note": 81,
                "channel": 0,
                "velocity": 107,
                "time": 0
            },
            {
                "type": "note_on",
                "note": 68,
                "channel": 0,
                "velocity": 101,
                "time": 0
            },
            {
                "type": "note_on",
                "note": 80,
                "channel": 0,
                "velocity": 101,
                "time": 0
            },
            {
                "type": "note_off",
                "note": 68,
                "channel": 0,
                "velocity": 101,
                "time": 240
            },
            {
                "type": "note_off",
                "note": 80,
                "channel": 0,
                "velocity": 101,
                "time": 0
            },
            {
                "type": "note_on",
                "note": 64,
                "channel": 0,
                "velocity": 101,
                "time": 0
            },
            {
                "type": "note_on",
                "note": 76,
                "channel": 0,
                "velocity": 101,
                "time": 0
            },
            {
                "type": "note_off",
                "note": 64,
                "channel": 0,
                "velocity": 101,
                "time": 240
            },
            {
                "type": "note_off",
                "note": 76,
                "channel": 0,
                "velocity": 101,
                "time": 0
            },
            {
                "type": "note_on",
                "note": 66,
                "channel": 0,
                "velocity": 114,
                "time": 0
            },
            {
                "type": "note_off",
                "note": 66,
                "channel": 0,
                "velocity": 114,
                "time": 480
            },
            {
                "type": "note_on",
                "note": 66,
                "channel": 0,
                "velocity": 101,
                "time": 0
            },
            {
                "type": "note_off",
                "note": 66,
                "channel": 0,
                "velocity": 101,
                "time": 240
            },
            {
                "type": "note_on",
                "note": 73,
                "channel": 0,
                "velocity": 101,
                "time": 0
            },
            {
                "type": "note_off",
                "note": 73,
                "channel": 0,
                "velocity": 101,
                "time": 240
            },
            {
                "type": "note_on",
                "note": 71,
                "channel": 0,
                "velocity": 107,
                "time": 0
            },
            {
                "type": "note_off",
                "note": 71,
                "channel": 0,
                "velocity": 107,
                "time": 480
            },
            {
                "type": "note_on",
                "note": 69,
                "channel": 0,
                "velocity": 101,
                "time": 0
            },
            {
                "type": "note_off",
                "note": 69,
                "channel": 0,
                "velocity": 101,
                "time": 480
            },
            {
                "type": "note_on",
                "note": 68,
                "channel": 0,
                "velocity": 114,
                "time": 0
            },
            {
                "type": "note_off",
                "note": 68,
                "channel": 0,
                "velocity": 114,
                "time": 480
            },
            {
                "type": "note_on",
                "note": 68,
                "channel": 0,
                "velocity": 101,
                "time": 0
            },
            {
                "type": "note_off",
                "note": 68,
                "channel": 0,
                "velocity": 101,
                "time": 240
            },
            {
                "type": "note_on",
                "note": 68,
                "channel": 0,
                "velocity": 101,
                "time": 0
            },
            {
                "type": "note_off",
                "note": 68,
                "channel": 0,
                "velocity": 101,
                "time": 240
            },
            {
                "type": "note_on",
                "note": 71,
                "channel": 0,
                "velocity": 107,
                "time": 0
            },
            {
                "type": "note_off",
                "note": 71,
                "channel": 0,
                "velocity": 107,
                "time": 480
            },
            {
                "type": "note_on",
                "note": 69,
                "channel": 0,
                "velocity": 101,
                "time": 0
            },
            {
                "type": "note_off",
                "note": 69,
                "channel": 0,
                "velocity": 101,
                "time": 240
            },
            {
                "type": "note_on",
                "note": 68,
                "channel": 0,
                "velocity": 101,
                "time": 0
            },
            {
                "type": "note_off",
                "note": 68,
                "channel": 0,
                "velocity": 101,
                "time": 240
            },
            {
                "type": "note_on",
                "note": 66,
                "channel": 0,
                "velocity": 114,
                "time": 0
            },
            {
                "type": "note_off",
                "note": 66,
                "channel": 0,
                "velocity": 114,
                "time": 480
            },
            {
                "type": "note_on",
                "note": 66,
                "channel": 0,
                "velocity": 101,
                "time": 0
            },
            {
                "type": "note_off",
                "note": 66,
                "channel": 0,
                "velocity": 101,
                "time": 240
            },
            {
                "type": "note_on",
                "note": 81,
                "channel": 0,
                "velocity": 101,
                "time": 0
            },
            {
                "type": "note_off",
                "note": 81,
                "channel": 0,
                "velocity": 101,
                "time": 240
            },
            {
                "type": "note_on",
                "note": 80,
                "channel": 0,
                "velocity": 107,
                "time": 0
            },
            {
                "type": "note_off",
                "note": 80,
                "channel": 0,
                "velocity": 107,
                "time": 240
            },
            {
                "type": "note_on",
                "note": 81,
                "channel": 0,
                "velocity": 107,
                "time": 0
            },
            {
                "type": "note_off",
                "note": 81,
                "channel": 0,
                "velocity": 107,
                "time": 240
            },
            {
                "type": "note_on",
                "note": 80,
                "channel": 0,
                "velocity": 101,
                "time": 0
            },
            {
                "type": "note_off",
                "note": 80,
                "channel": 0,
                "velocity": 101,
                "time": 240
            },
            {
                "type": "note_on",
                "note": 81,
                "channel": 0,
                "velocity": 101,
                "time": 0
            },
            {
                "type": "note_off",
                "note": 81,
                "channel": 0,
                "velocity": 101,
                "time": 240
            },
            {
                "type": "note_on",
                "note": 66,
                "channel": 0,
                "velocity": 114,
                "time": 0
            },
            {
                "type": "note_off",
                "note": 66,
                "channel": 0,
                "velocity": 114,
                "time": 480
            },
            {
                "type": "note_on",
                "note": 66,
                "channel": 0,
                "velocity": 101,
                "time": 0
            },
            {
                "type": "note_off",
                "note": 66,
                "channel": 0,
                "velocity": 101,
                "time": 240
            },
            {
                "type": "note_on",
                "note": 81,
                "channel": 0,
                "velocity": 101,
                "time": 0
            },
            {
                "type": "note_off",
                "note": 81,
                "channel": 0,
                "velocity": 101,
                "time": 240
            },
            {
                "type": "note_on",
                "note": 80,
                "channel": 0,
                "velocity": 107,
                "time": 0
            },
            {
                "type": "note_off",
                "note": 80,
                "channel": 0,
                "velocity": 107,
                "time": 240
            },
            {
                "type": "note_on",
                "note": 81,
                "channel": 0,
                "velocity": 107,
                "time": 0
            },
            {
                "type": "note_off",
                "note": 81,
                "channel": 0,
                "velocity": 107,
                "time": 240
            },
            {
                "type": "note_on",
                "note": 80,
                "channel": 0,
                "velocity": 101,
                "time": 0
            },
            {
                "type": "note_off",
                "note": 80,
                "channel": 0,
                "velocity": 101,
                "time": 240
            },
            {
                "type": "note_on",
                "note": 81,
                "channel": 0,
                "velocity": 101,
                "time": 0
            },
            {
                "type": "note_off",
                "note": 81,
                "channel": 0,
                "velocity": 101,
                "time": 240
            },
            {
                "type": "note_on",
                "note": 66,
                "channel": 0,
                "velocity": 114,
                "time": 0
            },
            {
                "type": "note_off",
                "note": 66,
                "channel": 0,
                "velocity": 114,
                "time": 480
            },
            {
                "type": "note_on",
                "note": 66,
                "channel": 0,
                "velocity": 101,
                "time": 0
            },
            {
                "type": "note_off",
                "note": 66,
                "channel": 0,
                "velocity": 101,
                "time": 240
            },
            {
                "type": "note_on",
                "note": 73,
                "channel": 0,
                "velocity": 101,
                "time": 0
            },
            {
                "type": "note_off",
                "note": 73,
                "channel": 0,
                "velocity": 101,
                "time": 240
            },
            {
                "type": "note_on",
                "note": 71,
                "channel": 0,
                "velocity": 107,
                "time": 0
            },
            {
                "type": "note_off",
                "note": 71,
                "channel": 0,
                "velocity": 107,
                "time": 480
            },
            {
                "type": "note_on",
                "note": 69,
                "channel": 0,
                "velocity": 101,
                "time": 0
            },
            {
                "type": "note_off",
                "note": 69,
                "channel": 0,
                "velocity": 101,
                "time": 480
            },
            {
                "type": "note_on",
                "note": 68,
                "channel": 0,
                "velocity": 114,
                "time": 0
            },
            {
                "type": "note_off",
                "note": 68,
                "channel": 0,
                "velocity": 114,
                "time": 480
            },
            {
                "type": "note_on",
                "note": 68,
                "channel": 0,
                "velocity": 101,
                "time": 0
            },
            {
                "type": "note_off",
                "note": 68,
                "channel": 0,
                "velocity": 101,
                "time": 240
            },
            {
                "type": "note_on",
                "note": 68,
                "channel": 0,
                "velocity": 101,
                "time": 0
            },
            {
                "type": "note_off",
                "note": 68,
                "channel": 0,
                "velocity": 101,
                "time": 240
            },
            {
                "type": "note_on",
                "note": 71,
                "channel": 0,
                "velocity": 107,
                "time": 0
            },
            {
                "type": "note_off",
                "note": 71,
                "channel": 0,
                "velocity": 107,
                "time": 480
            },
            {
                "type": "note_on",
                "note": 69,
                "channel": 0,
                "velocity": 101,
                "time": 0
            },
            {
                "type": "note_off",
                "note": 69,
                "channel": 0,
                "velocity": 101,
                "time": 240
            },
            {
                "type": "note_on",
                "note": 68,
                "channel": 0,
                "velocity": 101,
                "time": 0
            },
            {
                "type": "note_off",
                "note": 68,
                "channel": 0,
                "velocity": 101,
                "time": 240
            },
            {
                "type": "note_on",
                "note": 66,
                "channel": 0,
                "velocity": 114,
                "time": 0
            },
            {
                "type": "note_off",
                "note": 66,
                "channel": 0,
                "velocity": 114,
                "time": 480
            },
            {
                "type": "note_on",
                "note": 66,
                "channel": 0,
                "velocity": 101,
                "time": 0
            },
            {
                "type": "note_off",
                "note": 66,
                "channel": 0,
                "velocity": 101,
                "time": 240
            },
            {
                "type": "note_on",
                "note": 81,
                "channel": 0,
                "velocity": 101,
                "time": 0
            },
            {
                "type": "note_off",
                "note": 81,
                "channel": 0,
                "velocity": 101,
                "time": 240
            },
            {
                "type": "note_on",
                "note": 80,
                "channel": 0,
                "velocity": 107,
                "time": 0
            },
            {
                "type": "note_off",
                "note": 80,
                "channel": 0,
                "velocity": 107,
                "time": 240
            },
            {
                "type": "note_on",
                "note": 81,
                "channel": 0,
                "velocity": 107,
                "time": 0
            },
            {
                "type": "note_off",
                "note": 81,
                "channel": 0,
                "velocity": 107,
                "time": 240
            },
            {
                "type": "note_on",
                "note": 80,
                "channel": 0,
                "velocity": 101,
                "time": 0
            },
            {
                "type": "note_off",
                "note": 80,
                "channel": 0,
                "velocity": 101,
                "time": 240
            },
            {
                "type": "note_on",
                "note": 81,
                "channel": 0,
                "velocity": 101,
                "time": 0
            },
            {
                "type": "note_off",
                "note": 81,
                "channel": 0,
                "velocity": 101,
                "time": 240
            },
            {
                "type": "note_on",
                "note": 66,
                "channel": 0,
                "velocity": 114,
                "time": 0
            },
            {
                "type": "note_off",
                "note": 66,
                "channel": 0,
                "velocity": 114,
                "time": 480
            },
            {
                "type": "note_on",
                "note": 66,
                "channel": 0,
                "velocity": 101,
                "time": 0
            },
            {
                "type": "note_off",
                "note": 66,
                "channel": 0,
                "velocity": 101,
                "time": 240
            },
            {
                "type": "note_on",
                "note": 81,
                "channel": 0,
                "velocity": 101,
                "time": 0
            },
            {
                "type": "note_off",
                "note": 81,
                "channel": 0,
                "velocity": 101,
                "time": 240
            },
            {
                "type": "note_on",
                "note": 80,
                "channel": 0,
                "velocity": 107,
                "time": 0
            },
            {
                "type": "note_off",
                "note": 80,
                "channel": 0,
                "velocity": 107,
                "time": 240
            },
            {
                "type": "note_on",
                "note": 81,
                "channel": 0,
                "velocity": 107,
                "time": 0
            },
            {
                "type": "note_off",
                "note": 81,
                "channel": 0,
                "velocity": 107,
                "time": 240
            },
            {
                "type": "note_on",
                "note": 80,
                "channel": 0,
                "velocity": 101,
                "time": 0
            },
            {
                "type": "note_off",
                "note": 80,
                "channel": 0,
                "velocity": 101,
                "time": 240
            },
            {
                "type": "note_on",
                "note": 81,
                "channel": 0,
                "velocity": 101,
                "time": 0
            },
            {
                "type": "note_off",
                "note": 81,
                "channel": 0,
                "velocity": 101,
                "time": 240
            },
            {
                "type": "note_on",
                "note": 66,
                "channel": 0,
                "velocity": 114,
                "time": 0
            },
            {
                "type": "note_on",
                "note": 78,
                "channel": 0,
                "velocity": 114,
                "time": 0
            },
            {
                "type": "note_off",
                "note": 66,
                "channel": 0,
                "velocity": 114,
                "time": 480
            },
            {
                "type": "note_off",
                "note": 78,
                "channel": 0,
                "velocity": 114,
                "time": 0
            },
            {
                "type": "note_on",
                "note": 78,
                "channel": 0,
                "velocity": 101,
                "time": 0
            },
            {
                "type": "note_off",
                "note": 78,
                "channel": 0,
                "velocity": 101,
                "time": 240
            },
            {
                "type": "note_on",
                "note": 73,
                "channel": 0,
                "velocity": 101,
                "time": 0
            },
            {
                "type": "note_on",
                "note": 85,
                "channel": 0,
                "velocity": 101,
                "time": 0
            },
            {
                "type": "note_off",
                "note": 73,
                "channel": 0,
                "velocity": 101,
                "time": 240
            },
            {
                "type": "note_off",
                "note": 85,
                "channel": 0,
                "velocity": 101,
                "time": 0
            },
            {
                "type": "note_on",
                "note": 71,
                "channel": 0,
                "velocity": 107,
                "time": 0
            },
            {
                "type": "note_on",
                "note": 83,
                "channel": 0,
                "velocity": 107,
                "time": 0
            },
            {
                "type": "note_off",
                "note": 71,
                "channel": 0,
                "velocity": 107,
                "time": 480
            },
            {
                "type": "note_off",
                "note": 83,
                "channel": 0,
                "velocity": 107,
                "time": 0
            },
            {
                "type": "note_on",
                "note": 69,
                "channel": 0,
                "velocity": 101,
                "time": 0
            },
            {
                "type": "note_on",
                "note": 81,
                "channel": 0,
                "velocity": 101,
                "time": 0
            },
            {
                "type": "note_off",
                "note": 69,
                "channel": 0,
                "velocity": 101,
                "time": 480
            },
            {
                "type": "note_off",
                "note": 81,
                "channel": 0,
                "velocity": 101,
                "time": 0
            },
            {
                "type": "note_on",
                "note": 68,
                "channel": 0,
                "velocity": 114,
                "time": 0
            },
            {
                "type": "note_on",
                "note": 80,
                "channel": 0,
                "velocity": 114,
                "time": 0
            },
            {
                "type": "note_off",
                "note": 68,
                "channel": 0,
                "velocity": 114,
                "time": 480
            },
            {
                "type": "note_off",
                "note": 80,
                "channel": 0,
                "velocity": 114,
                "time": 0
            },
            {
                "type": "note_on",
                "note": 68,
                "channel": 0,
                "velocity": 101,
                "time": 0
            },
            {
                "type": "note_on",
                "note": 80,
                "channel": 0,
                "velocity": 101,
                "time": 0
            },
            {
                "type": "note_off",
                "note": 68,
                "channel": 0,
                "velocity": 101,
                "time": 240
            },
            {
                "type": "note_off",
                "note": 80,
                "channel": 0,
                "velocity": 101,
                "time": 0
            },
            {
                "type": "note_on",
                "note": 68,
                "channel": 0,
                "velocity": 101,
                "time": 0
            },
            {
                "type": "note_on",
                "note": 80,
                "channel": 0,
                "velocity": 101,
                "time": 0
            },
            {
                "type": "note_off",
                "note": 68,
                "channel": 0,
                "velocity": 101,
                "time": 240
            },
            {
                "type": "note_off",
                "note": 80,
                "channel": 0,
                "velocity": 101,
                "time": 0
            },
            {
                "type": "note_on",
                "note": 71,
                "channel": 0,
                "velocity": 107,
                "time": 0
            },
            {
                "type": "note_on",
                "note": 83,
                "channel": 0,
                "velocity": 107,
                "time": 0
            },
            {
                "type": "note_off",
                "note": 71,
                "channel": 0,
                "velocity": 107,
                "time": 480
            },
            {
                "type": "note_off",
                "note": 83,
                "channel": 0,
                "velocity": 107,
                "time": 0
            },
            {
                "type": "note_on",
                "note": 69,
                "channel": 0,
                "velocity": 101,
                "time": 0
            },
            {
                "type": "note_on",
                "note": 81,
                "channel": 0,
                "velocity": 101,
                "time": 0
            },
            {
                "type": "note_off",
                "note": 69,
                "channel": 0,
                "velocity": 101,
                "time": 240
            },
            {
                "type": "note_off",
                "note": 81,
                "channel": 0,
                "velocity": 101,
                "time": 0
            },
            {
                "type": "note_on",
                "note": 68,
                "channel": 0,
                "velocity": 101,
                "time": 0
            },
            {
                "type": "note_on",
                "note": 80,
                "channel": 0,
                "velocity": 101,
                "time": 0
            },
            {
                "type": "note_off",
                "note": 68,
                "channel": 0,
                "velocity": 101,
                "time": 240
            },
            {
                "type": "note_off",
                "note": 80,
                "channel": 0,
                "velocity": 101,
                "time": 0
            },
            {
                "type": "note_on",
                "note": 66,
                "channel": 0,
                "velocity": 114,
                "time": 0
            },
            {
                "type": "note_on",
                "note": 78,
                "channel": 0,
                "velocity": 114,
                "time": 0
            },
            {
                "type": "note_off",
                "note": 66,
                "channel": 0,
                "velocity": 114,
                "time": 480
            },
            {
                "type": "note_off",
                "note": 78,
                "channel": 0,
                "velocity": 114,
                "time": 0
            },
            {
                "type": "note_on",
                "note": 66,
                "channel": 0,
                "velocity": 101,
                "time": 0
            },
            {
                "type": "note_on",
                "note": 78,
                "channel": 0,
                "velocity": 101,
                "time": 0
            },
            {
                "type": "note_off",
                "note": 66,
                "channel": 0,
                "velocity": 101,
                "time": 240
            },
            {
                "type": "note_off",
                "note": 78,
                "channel": 0,
                "velocity": 101,
                "time": 0
            },
            {
                "type": "note_on",
                "note": 81,
                "channel": 0,
                "velocity": 101,
                "time": 0
            },
            {
                "type": "note_on",
                "note": 93,
                "channel": 0,
                "velocity": 101,
                "time": 0
            },
            {
                "type": "note_off",
                "note": 81,
                "channel": 0,
                "velocity": 101,
                "time": 240
            },
            {
                "type": "note_off",
                "note": 93,
                "channel": 0,
                "velocity": 101,
                "time": 0
            },
            {
                "type": "note_on",
                "note": 80,
                "channel": 0,
                "velocity": 107,
                "time": 0
            },
            {
                "type": "note_on",
                "note": 92,
                "channel": 0,
                "velocity": 107,
                "time": 0
            },
            {
                "type": "note_off",
                "note": 80,
                "channel": 0,
                "velocity": 107,
                "time": 240
            },
            {
                "type": "note_off",
                "note": 92,
                "channel": 0,
                "velocity": 107,
                "time": 0
            },
            {
                "type": "note_on",
                "note": 81,
                "channel": 0,
                "velocity": 107,
                "time": 0
            },
            {
                "type": "note_on",
                "note": 93,
                "channel": 0,
                "velocity": 107,
                "time": 0
            },
            {
                "type": "note_off",
                "note": 81,
                "channel": 0,
                "velocity": 107,
                "time": 240
            },
            {
                "type": "note_off",
                "note": 93,
                "channel": 0,
                "velocity": 107,
                "time": 0
            },
            {
                "type": "note_on",
                "note": 80,
                "channel": 0,
                "velocity": 101,
                "time": 0
            },
            {
                "type": "note_on",
                "note": 92,
                "channel": 0,
                "velocity": 101,
                "time": 0
            },
            {
                "type": "note_off",
                "note": 80,
                "channel": 0,
                "velocity": 101,
                "time": 240
            },
            {
                "type": "note_off",
                "note": 92,
                "channel": 0,
                "velocity": 101,
                "time": 0
            },
            {
                "type": "note_on",
                "note": 81,
                "channel": 0,
                "velocity": 101,
                "time": 0
            },
            {
                "type": "note_on",
                "note": 93,
                "channel": 0,
                "velocity": 101,
                "time": 0
            },
            {
                "type": "note_off",
                "note": 81,
                "channel": 0,
                "velocity": 101,
                "time": 240
            },
            {
                "type": "note_off",
                "note": 93,
                "channel": 0,
                "velocity": 101,
                "time": 0
            },
            {
                "type": "note_on",
                "note": 66,
                "channel": 0,
                "velocity": 114,
                "time": 0
            },
            {
                "type": "note_on",
                "note": 78,
                "channel": 0,
                "velocity": 114,
                "time": 0
            },
            {
                "type": "note_off",
                "note": 66,
                "channel": 0,
                "velocity": 114,
                "time": 480
            },
            {
                "type": "note_off",
                "note": 78,
                "channel": 0,
                "velocity": 114,
                "time": 0
            },
            {
                "type": "note_on",
                "note": 66,
                "channel": 0,
                "velocity": 101,
                "time": 0
            },
            {
                "type": "note_on",
                "note": 78,
                "channel": 0,
                "velocity": 101,
                "time": 0
            },
            {
                "type": "note_off",
                "note": 66,
                "channel": 0,
                "velocity": 101,
                "time": 240
            },
            {
                "type": "note_off",
                "note": 78,
                "channel": 0,
                "velocity": 101,
                "time": 0
            },
            {
                "type": "note_on",
                "note": 81,
                "channel": 0,
                "velocity": 101,
                "time": 0
            },
            {
                "type": "note_on",
                "note": 93,
                "channel": 0,
                "velocity": 101,
                "time": 0
            },
            {
                "type": "note_off",
                "note": 81,
                "channel": 0,
                "velocity": 101,
                "time": 240
            },
            {
                "type": "note_off",
                "note": 93,
                "channel": 0,
                "velocity": 101,
                "time": 0
            },
            {
                "type": "note_on",
                "note": 80,
                "channel": 0,
                "velocity": 107,
                "time": 0
            },
            {
                "type": "note_on",
                "note": 92,
                "channel": 0,
                "velocity": 107,
                "time": 0
            },
            {
                "type": "note_off",
                "note": 80,
                "channel": 0,
                "velocity": 107,
                "time": 240
            },
            {
                "type": "note_off",
                "note": 92,
                "channel": 0,
                "velocity": 107,
                "time": 0
            },
            {
                "type": "note_on",
                "note": 81,
                "channel": 0,
                "velocity": 107,
                "time": 0
            },
            {
                "type": "note_on",
                "note": 93,
                "channel": 0,
                "velocity": 107,
                "time": 0
            },
            {
                "type": "note_off",
                "note": 81,
                "channel": 0,
                "velocity": 107,
                "time": 240
            },
            {
                "type": "note_off",
                "note": 93,
                "channel": 0,
                "velocity": 107,
                "time": 0
            },
            {
                "type": "note_on",
                "note": 80,
                "channel": 0,
                "velocity": 101,
                "time": 0
            },
            {
                "type": "note_on",
                "note": 92,
                "channel": 0,
                "velocity": 101,
                "time": 0
            },
            {
                "type": "note_off",
                "note": 80,
                "channel": 0,
                "velocity": 101,
                "time": 240
            },
            {
                "type": "note_off",
                "note": 92,
                "channel": 0,
                "velocity": 101,
                "time": 0
            },
            {
                "type": "note_on",
                "note": 81,
                "channel": 0,
                "velocity": 101,
                "time": 0
            },
            {
                "type": "note_on",
                "note": 93,
                "channel": 0,
                "velocity": 101,
                "time": 0
            },
            {
                "type": "note_off",
                "note": 81,
                "channel": 0,
                "velocity": 101,
                "time": 240
            },
            {
                "type": "note_off",
                "note": 93,
                "channel": 0,
                "velocity": 101,
                "time": 0
            },
            {
                "type": "note_on",
                "note": 69,
                "channel": 0,
                "velocity": 114,
                "time": 0
            },
            {
                "type": "note_on",
                "note": 81,
                "channel": 0,
                "velocity": 114,
                "time": 0
            },
            {
                "type": "note_off",
                "note": 69,
                "channel": 0,
                "velocity": 114,
                "time": 240
            },
            {
                "type": "note_off",
                "note": 81,
                "channel": 0,
                "velocity": 114,
                "time": 0
            },
            {
                "type": "note_on",
                "note": 69,
                "channel": 0,
                "velocity": 114,
                "time": 0
            },
            {
                "type": "note_on",
                "note": 81,
                "channel": 0,
                "velocity": 114,
                "time": 0
            },
            {
                "type": "note_off",
                "note": 69,
                "channel": 0,
                "velocity": 114,
                "time": 240
            },
            {
                "type": "note_off",
                "note": 81,
                "channel": 0,
                "velocity": 114,
                "time": 0
            },
            {
                "type": "note_on",
                "note": 69,
                "channel": 0,
                "velocity": 101,
                "time": 0
            },
            {
                "type": "note_on",
                "note": 81,
                "channel": 0,
                "velocity": 101,
                "time": 0
            },
            {
                "type": "note_off",
                "note": 69,
                "channel": 0,
                "velocity": 101,
                "time": 240
            },
            {
                "type": "note_off",
                "note": 81,
                "channel": 0,
                "velocity": 101,
                "time": 0
            },
            {
                "type": "note_on",
                "note": 69,
                "channel": 0,
                "velocity": 101,
                "time": 0
            },
            {
                "type": "note_on",
                "note": 81,
                "channel": 0,
                "velocity": 101,
                "time": 0
            },
            {
                "type": "note_off",
                "note": 69,
                "channel": 0,
                "velocity": 101,
                "time": 240
            },
            {
                "type": "note_off",
                "note": 81,
                "channel": 0,
                "velocity": 101,
                "time": 0
            },
            {
                "type": "note_on",
                "note": 73,
                "channel": 0,
                "velocity": 107,
                "time": 0
            },
            {
                "type": "note_on",
                "note": 85,
                "channel": 0,
                "velocity": 107,
                "time": 0
            },
            {
                "type": "note_off",
                "note": 73,
                "channel": 0,
                "velocity": 107,
                "time": 240
            },
            {
                "type": "note_off",
                "note": 85,
                "channel": 0,
                "velocity": 107,
                "time": 0
            },
            {
                "type": "note_on",
                "note": 73,
                "channel": 0,
                "velocity": 107,
                "time": 0
            },
            {
                "type": "note_on",
                "note": 85,
                "channel": 0,
                "velocity": 107,
                "time": 0
            },
            {
                "type": "note_off",
                "note": 73,
                "channel": 0,
                "velocity": 107,
                "time": 240
            },
            {
                "type": "note_off",
                "note": 85,
                "channel": 0,
                "velocity": 107,
                "time": 0
            },
            {
                "type": "note_on",
                "note": 73,
                "channel": 0,
                "velocity": 101,
                "time": 0
            },
            {
                "type": "note_on",
                "note": 85,
                "channel": 0,
                "velocity": 101,
                "time": 0
            },
            {
                "type": "note_off",
                "note": 73,
                "channel": 0,
                "velocity": 101,
                "time": 240
            },
            {
                "type": "note_off",
                "note": 85,
                "channel": 0,
                "velocity": 101,
                "time": 0
            },
            {
                "type": "note_on",
                "note": 73,
                "channel": 0,
                "velocity": 101,
                "time": 0
            },
            {
                "type": "note_on",
                "note": 85,
                "channel": 0,
                "velocity": 101,
                "time": 0
            },
            {
                "type": "note_off",
                "note": 73,
                "channel": 0,
                "velocity": 101,
                "time": 240
            },
            {
                "type": "note_off",
                "note": 85,
                "channel": 0,
                "velocity": 101,
                "time": 0
            },
            {
                "type": "note_on",
                "note": 71,
                "channel": 0,
                "velocity": 114,
                "time": 0
            },
            {
                "type": "note_on",
                "note": 83,
                "channel": 0,
                "velocity": 114,
                "time": 0
            },
            {
                "type": "note_off",
                "note": 71,
                "channel": 0,
                "velocity": 114,
                "time": 240
            },
            {
                "type": "note_off",
                "note": 83,
                "channel": 0,
                "velocity": 114,
                "time": 0
            },
            {
                "type": "note_on",
                "note": 71,
                "channel": 0,
                "velocity": 114,
                "time": 0
            },
            {
                "type": "note_on",
                "note": 83,
                "channel": 0,
                "velocity": 114,
                "time": 0
            },
            {
                "type": "note_off",
                "note": 71,
                "channel": 0,
                "velocity": 114,
                "time": 240
            },
            {
                "type": "note_off",
                "note": 83,
                "channel": 0,
                "velocity": 114,
                "time": 0
            },
            {
                "type": "note_on",
                "note": 71,
                "channel": 0,
                "velocity": 101,
                "time": 0
            },
            {
                "type": "note_on",
                "note": 83,
                "channel": 0,
                "velocity": 101,
                "time": 0
            },
            {
                "type": "note_off",
                "note": 71,
                "channel": 0,
                "velocity": 101,
                "time": 240
            },
            {
                "type": "note_off",
                "note": 83,
                "channel": 0,
                "velocity": 101,
                "time": 0
            },
            {
                "type": "note_on",
                "note": 71,
                "channel": 0,
                "velocity": 101,
                "time": 0
            },
            {
                "type": "note_on",
                "note": 83,
                "channel": 0,
                "velocity": 101,
                "time": 0
            },
            {
                "type": "note_off",
                "note": 71,
                "channel": 0,
                "velocity": 101,
                "time": 240
            },
            {
                "type": "note_off",
                "note": 83,
                "channel": 0,
                "velocity": 101,
                "time": 0
            },
            {
                "type": "note_on",
                "note": 76,
                "channel": 0,
                "velocity": 107,
                "time": 0
            },
            {
                "type": "note_on",
                "note": 88,
                "channel": 0,
                "velocity": 107,
                "time": 0
            },
            {
                "type": "note_off",
                "note": 76,
                "channel": 0,
                "velocity": 107,
                "time": 240
            },
            {
                "type": "note_off",
                "note": 88,
                "channel": 0,
                "velocity": 107,
                "time": 0
            },
            {
                "type": "note_on",
                "note": 76,
                "channel": 0,
                "velocity": 107,
                "time": 0
            },
            {
                "type": "note_on",
                "note": 88,
                "channel": 0,
                "velocity": 107,
                "time": 0
            },
            {
                "type": "note_off",
                "note": 76,
                "channel": 0,
                "velocity": 107,
                "time": 240
            },
            {
                "type": "note_off",
                "note": 88,
                "channel": 0,
                "velocity": 107,
                "time": 0
            },
            {
                "type": "note_on",
                "note": 76,
                "channel": 0,
                "velocity": 101,
                "time": 0
            },
            {
                "type": "note_on",
                "note": 88,
                "channel": 0,
                "velocity": 101,
                "time": 0
            },
            {
                "type": "note_off",
                "note": 76,
                "channel": 0,
                "velocity": 101,
                "time": 240
            },
            {
                "type": "note_off",
                "note": 88,
                "channel": 0,
                "velocity": 101,
                "time": 0
            },
            {
                "type": "note_on",
                "note": 76,
                "channel": 0,
                "velocity": 101,
                "time": 0
            },
            {
                "type": "note_on",
                "note": 88,
                "channel": 0,
                "velocity": 101,
                "time": 0
            },
            {
                "type": "note_off",
                "note": 76,
                "channel": 0,
                "velocity": 101,
                "time": 240
            },
            {
                "type": "note_off",
                "note": 88,
                "channel": 0,
                "velocity": 101,
                "time": 0
            },
            {
                "type": "note_on",
                "note": 78,
                "channel": 0,
                "velocity": 114,
                "time": 0
            },
            {
                "type": "note_on",
                "note": 90,
                "channel": 0,
                "velocity": 114,
                "time": 0
            },
            {
                "type": "note_off",
                "note": 78,
                "channel": 0,
                "velocity": 114,
                "time": 240
            },
            {
                "type": "note_off",
                "note": 90,
                "channel": 0,
                "velocity": 114,
                "time": 0
            },
            {
                "type": "note_on",
                "note": 78,
                "channel": 0,
                "velocity": 114,
                "time": 0
            },
            {
                "type": "note_on",
                "note": 90,
                "channel": 0,
                "velocity": 114,
                "time": 0
            },
            {
                "type": "note_off",
                "note": 78,
                "channel": 0,
                "velocity": 114,
                "time": 240
            },
            {
                "type": "note_off",
                "note": 90,
                "channel": 0,
                "velocity": 114,
                "time": 0
            },
            {
                "type": "note_on",
                "note": 78,
                "channel": 0,
                "velocity": 101,
                "time": 0
            },
            {
                "type": "note_on",
                "note": 90,
                "channel": 0,
                "velocity": 101,
                "time": 0
            },
            {
                "type": "note_off",
                "note": 78,
                "channel": 0,
                "velocity": 101,
                "time": 240
            },
            {
                "type": "note_off",
                "note": 90,
                "channel": 0,
                "velocity": 101,
                "time": 0
            },
            {
                "type": "note_on",
                "note": 78,
                "channel": 0,
                "velocity": 101,
                "time": 0
            },
            {
                "type": "note_on",
                "note": 90,
                "channel": 0,
                "velocity": 101,
                "time": 0
            },
            {
                "type": "note_off",
                "note": 78,
                "channel": 0,
                "velocity": 101,
                "time": 240
            },
            {
                "type": "note_off",
                "note": 90,
                "channel": 0,
                "velocity": 101,
                "time": 0
            },
            {
                "type": "note_on",
                "note": 78,
                "channel": 0,
                "velocity": 107,
                "time": 0
            },
            {
                "type": "note_on",
                "note": 90,
                "channel": 0,
                "velocity": 107,
                "time": 0
            },
            {
                "type": "note_off",
                "note": 78,
                "channel": 0,
                "velocity": 107,
                "time": 240
            },
            {
                "type": "note_off",
                "note": 90,
                "channel": 0,
                "velocity": 107,
                "time": 0
            },
            {
                "type": "note_on",
                "note": 78,
                "channel": 0,
                "velocity": 107,
                "time": 0
            },
            {
                "type": "note_on",
                "note": 90,
                "channel": 0,
                "velocity": 107,
                "time": 0
            },
            {
                "type": "note_off",
                "note": 78,
                "channel": 0,
                "velocity": 107,
                "time": 240
            },
            {
                "type": "note_off",
                "note": 90,
                "channel": 0,
                "velocity": 107,
                "time": 0
            },
            {
                "type": "note_on",
                "note": 78,
                "channel": 0,
                "velocity": 101,
                "time": 0
            },
            {
                "type": "note_on",
                "note": 90,
                "channel": 0,
                "velocity": 101,
                "time": 0
            },
            {
                "type": "note_off",
                "note": 78,
                "channel": 0,
                "velocity": 101,
                "time": 240
            },
            {
                "type": "note_off",
                "note": 90,
                "channel": 0,
                "velocity": 101,
                "time": 0
            },
            {
                "type": "note_on",
                "note": 78,
                "channel": 0,
                "velocity": 101,
                "time": 0
            },
            {
                "type": "note_on",
                "note": 90,
                "channel": 0,
                "velocity": 101,
                "time": 0
            },
            {
                "type": "note_off",
                "note": 78,
                "channel": 0,
                "velocity": 101,
                "time": 240
            },
            {
                "type": "note_off",
                "note": 90,
                "channel": 0,
                "velocity": 101,
                "time": 0
            },
            {
                "type": "note_on",
                "note": 78,
                "channel": 0,
                "velocity": 114,
                "time": 0
            },
            {
                "type": "note_on",
                "note": 90,
                "channel": 0,
                "velocity": 114,
                "time": 0
            },
            {
                "type": "note_off",
                "note": 78,
                "channel": 0,
                "velocity": 114,
                "time": 240
            },
            {
                "type": "note_off",
                "note": 90,
                "channel": 0,
                "velocity": 114,
                "time": 0
            },
            {
                "type": "note_on",
                "note": 78,
                "channel": 0,
                "velocity": 114,
                "time": 0
            },
            {
                "type": "note_on",
                "note": 90,
                "channel": 0,
                "velocity": 114,
                "time": 0
            },
            {
                "type": "note_off",
                "note": 78,
                "channel": 0,
                "velocity": 114,
                "time": 240
            },
            {
                "type": "note_off",
                "note": 90,
                "channel": 0,
                "velocity": 114,
                "time": 0
            },
            {
                "type": "note_on",
                "note": 78,
                "channel": 0,
                "velocity": 101,
                "time": 0
            },
            {
                "type": "note_on",
                "note": 90,
                "channel": 0,
                "velocity": 101,
                "time": 0
            },
            {
                "type": "note_off",
                "note": 78,
                "channel": 0,
                "velocity": 101,
                "time": 240
            },
            {
                "type": "note_off",
                "note": 90,
                "channel": 0,
                "velocity": 101,
                "time": 0
            },
            {
                "type": "note_on",
                "note": 78,
                "channel": 0,
                "velocity": 101,
                "time": 0
            },
            {
                "type": "note_on",
                "note": 90,
                "channel": 0,
                "velocity": 101,
                "time": 0
            },
            {
                "type": "note_off",
                "note": 78,
                "channel": 0,
                "velocity": 101,
                "time": 240
            },
            {
                "type": "note_off",
                "note": 90,
                "channel": 0,
                "velocity": 101,
                "time": 0
            },
            {
                "type": "note_on",
                "note": 71,
                "channel": 0,
                "velocity": 107,
                "time": 0
            },
            {
                "type": "note_on",
                "note": 83,
                "channel": 0,
                "velocity": 107,
                "time": 0
            },
            {
                "type": "note_off",
                "note": 71,
                "channel": 0,
                "velocity": 107,
                "time": 240
            },
            {
                "type": "note_off",
                "note": 83,
                "channel": 0,
                "velocity": 107,
                "time": 0
            },
            {
                "type": "note_on",
                "note": 69,
                "channel": 0,
                "velocity": 107,
                "time": 0
            },
            {
                "type": "note_on",
                "note": 81,
                "channel": 0,
                "velocity": 107,
                "time": 0
            },
            {
                "type": "note_off",
                "note": 69,
                "channel": 0,
                "velocity": 107,
                "time": 240
            },
            {
                "type": "note_off",
                "note": 81,
                "channel": 0,
                "velocity": 107,
                "time": 0
            },
            {
                "type": "note_on",
                "note": 68,
                "channel": 0,
                "velocity": 101,
                "time": 0
            },
            {
                "type": "note_on",
                "note": 80,
                "channel": 0,
                "velocity": 101,
                "time": 0
            },
            {
                "type": "note_off",
                "note": 68,
                "channel": 0,
                "velocity": 101,
                "time": 240
            },
            {
                "type": "note_off",
                "note": 80,
                "channel": 0,
                "velocity": 101,
                "time": 0
            },
            {
                "type": "note_on",
                "note": 64,
                "channel": 0,
                "velocity": 101,
                "time": 0
            },
            {
                "type": "note_on",
                "note": 76,
                "channel": 0,
                "velocity": 101,
                "time": 0
            },
            {
                "type": "note_off",
                "note": 64,
                "channel": 0,
                "velocity": 101,
                "time": 240
            },
            {
                "type": "note_off",
                "note": 76,
                "channel": 0,
                "velocity": 101,
                "time": 0
            },
            {
                "type": "note_on",
                "note": 78,
                "channel": 0,
                "velocity": 114,
                "time": 0
            },
            {
                "type": "note_off",
                "note": 78,
                "channel": 0,
                "velocity": 114,
                "time": 480
            },
            {
                "type": "note_on",
                "note": 78,
                "channel": 0,
                "velocity": 101,
                "time": 0
            },
            {
                "type": "note_off",
                "note": 78,
                "channel": 0,
                "velocity": 101,
                "time": 240
            },
            {
                "type": "note_on",
                "note": 85,
                "channel": 0,
                "velocity": 101,
                "time": 0
            },
            {
                "type": "note_off",
                "note": 85,
                "channel": 0,
                "velocity": 101,
                "time": 240
            },
            {
                "type": "note_on",
                "note": 83,
                "channel": 0,
                "velocity": 107,
                "time": 0
            },
            {
                "type": "note_off",
                "note": 83,
                "channel": 0,
                "velocity": 107,
                "time": 480
            },
            {
                "type": "note_on",
                "note": 81,
                "channel": 0,
                "velocity": 101,
                "time": 0
            },
            {
                "type": "note_off",
                "note": 81,
                "channel": 0,
                "velocity": 101,
                "time": 480
            },
            {
                "type": "note_on",
                "note": 80,
                "channel": 0,
                "velocity": 114,
                "time": 0
            },
            {
                "type": "note_off",
                "note": 80,
                "channel": 0,
                "velocity": 114,
                "time": 480
            },
            {
                "type": "note_on",
                "note": 80,
                "channel": 0,
                "velocity": 101,
                "time": 0
            },
            {
                "type": "note_off",
                "note": 80,
                "channel": 0,
                "velocity": 101,
                "time": 240
            },
            {
                "type": "note_on",
                "note": 80,
                "channel": 0,
                "velocity": 101,
                "time": 0
            },
            {
                "type": "note_off",
                "note": 80,
                "channel": 0,
                "velocity": 101,
                "time": 240
            },
            {
                "type": "note_on",
                "note": 83,
                "channel": 0,
                "velocity": 107,
                "time": 0
            },
            {
                "type": "note_off",
                "note": 83,
                "channel": 0,
                "velocity": 107,
                "time": 480
            },
            {
                "type": "note_on",
                "note": 81,
                "channel": 0,
                "velocity": 101,
                "time": 0
            },
            {
                "type": "note_off",
                "note": 81,
                "channel": 0,
                "velocity": 101,
                "time": 240
            },
            {
                "type": "note_on",
                "note": 80,
                "channel": 0,
                "velocity": 101,
                "time": 0
            },
            {
                "type": "note_off",
                "note": 80,
                "channel": 0,
                "velocity": 101,
                "time": 240
            },
            {
                "type": "note_on",
                "note": 78,
                "channel": 0,
                "velocity": 114,
                "time": 0
            },
            {
                "type": "note_off",
                "note": 78,
                "channel": 0,
                "velocity": 114,
                "time": 480
            },
            {
                "type": "note_on",
                "note": 78,
                "channel": 0,
                "velocity": 101,
                "time": 0
            },
            {
                "type": "note_off",
                "note": 78,
                "channel": 0,
                "velocity": 101,
                "time": 240
            },
            {
                "type": "note_on",
                "note": 93,
                "channel": 0,
                "velocity": 101,
                "time": 0
            },
            {
                "type": "note_off",
                "note": 93,
                "channel": 0,
                "velocity": 101,
                "time": 240
            },
            {
                "type": "note_on",
                "note": 92,
                "channel": 0,
                "velocity": 107,
                "time": 0
            },
            {
                "type": "note_off",
                "note": 92,
                "channel": 0,
                "velocity": 107,
                "time": 240
            },
            {
                "type": "note_on",
                "note": 93,
                "channel": 0,
                "velocity": 107,
                "time": 0
            },
            {
                "type": "note_off",
                "note": 93,
                "channel": 0,
                "velocity": 107,
                "time": 240
            },
            {
                "type": "note_on",
                "note": 92,
                "channel": 0,
                "velocity": 101,
                "time": 0
            },
            {
                "type": "note_off",
                "note": 92,
                "channel": 0,
                "velocity": 101,
                "time": 240
            },
            {
                "type": "note_on",
                "note": 93,
                "channel": 0,
                "velocity": 101,
                "time": 0
            },
            {
                "type": "note_off",
                "note": 93,
                "channel": 0,
                "velocity": 101,
                "time": 240
            },
            {
                "type": "note_on",
                "note": 78,
                "channel": 0,
                "velocity": 114,
                "time": 0
            },
            {
                "type": "note_off",
                "note": 78,
                "channel": 0,
                "velocity": 114,
                "time": 480
            },
            {
                "type": "note_on",
                "note": 78,
                "channel": 0,
                "velocity": 101,
                "time": 0
            },
            {
                "type": "note_off",
                "note": 78,
                "channel": 0,
                "velocity": 101,
                "time": 240
            },
            {
                "type": "note_on",
                "note": 93,
                "channel": 0,
                "velocity": 101,
                "time": 0
            },
            {
                "type": "note_off",
                "note": 93,
                "channel": 0,
                "velocity": 101,
                "time": 240
            },
            {
                "type": "note_on",
                "note": 92,
                "channel": 0,
                "velocity": 107,
                "time": 0
            },
            {
                "type": "note_off",
                "note": 92,
                "channel": 0,
                "velocity": 107,
                "time": 240
            },
            {
                "type": "note_on",
                "note": 93,
                "channel": 0,
                "velocity": 107,
                "time": 0
            },
            {
                "type": "note_off",
                "note": 93,
                "channel": 0,
                "velocity": 107,
                "time": 240
            },
            {
                "type": "note_on",
                "note": 92,
                "channel": 0,
                "velocity": 101,
                "time": 0
            },
            {
                "type": "note_off",
                "note": 92,
                "channel": 0,
                "velocity": 101,
                "time": 240
            },
            {
                "type": "note_on",
                "note": 93,
                "channel": 0,
                "velocity": 101,
                "time": 0
            },
            {
                "type": "note_off",
                "note": 93,
                "channel": 0,
                "velocity": 101,
                "time": 240
            },
            {
                "type": "note_on",
                "note": 78,
                "channel": 0,
                "velocity": 114,
                "time": 0
            },
            {
                "type": "note_off",
                "note": 78,
                "channel": 0,
                "velocity": 114,
                "time": 480
            },
            {
                "type": "note_on",
                "note": 78,
                "channel": 0,
                "velocity": 101,
                "time": 0
            },
            {
                "type": "note_off",
                "note": 78,
                "channel": 0,
                "velocity": 101,
                "time": 240
            },
            {
                "type": "note_on",
                "note": 85,
                "channel": 0,
                "velocity": 101,
                "time": 0
            },
            {
                "type": "note_off",
                "note": 85,
                "channel": 0,
                "velocity": 101,
                "time": 240
            },
            {
                "type": "note_on",
                "note": 83,
                "channel": 0,
                "velocity": 107,
                "time": 0
            },
            {
                "type": "note_off",
                "note": 83,
                "channel": 0,
                "velocity": 107,
                "time": 480
            },
            {
                "type": "note_on",
                "note": 81,
                "channel": 0,
                "velocity": 101,
                "time": 0
            },
            {
                "type": "note_off",
                "note": 81,
                "channel": 0,
                "velocity": 101,
                "time": 480
            },
            {
                "type": "note_on",
                "note": 80,
                "channel": 0,
                "velocity": 114,
                "time": 0
            },
            {
                "type": "note_off",
                "note": 80,
                "channel": 0,
                "velocity": 114,
                "time": 480
            },
            {
                "type": "note_on",
                "note": 80,
                "channel": 0,
                "velocity": 101,
                "time": 0
            },
            {
                "type": "note_off",
                "note": 80,
                "channel": 0,
                "velocity": 101,
                "time": 240
            },
            {
                "type": "note_on",
                "note": 80,
                "channel": 0,
                "velocity": 101,
                "time": 0
            },
            {
                "type": "note_off",
                "note": 80,
                "channel": 0,
                "velocity": 101,
                "time": 240
            },
            {
                "type": "note_on",
                "note": 83,
                "channel": 0,
                "velocity": 107,
                "time": 0
            },
            {
                "type": "note_off",
                "note": 83,
                "channel": 0,
                "velocity": 107,
                "time": 480
            },
            {
                "type": "note_on",
                "note": 81,
                "channel": 0,
                "velocity": 101,
                "time": 0
            },
            {
                "type": "note_off",
                "note": 81,
                "channel": 0,
                "velocity": 101,
                "time": 240
            },
            {
                "type": "note_on",
                "note": 80,
                "channel": 0,
                "velocity": 101,
                "time": 0
            },
            {
                "type": "note_off",
                "note": 80,
                "channel": 0,
                "velocity": 101,
                "time": 240
            },
            {
                "type": "note_on",
                "note": 78,
                "channel": 0,
                "velocity": 114,
                "time": 0
            },
            {
                "type": "note_off",
                "note": 78,
                "channel": 0,
                "velocity": 114,
                "time": 480
            },
            {
                "type": "note_on",
                "note": 78,
                "channel": 0,
                "velocity": 101,
                "time": 0
            },
            {
                "type": "note_off",
                "note": 78,
                "channel": 0,
                "velocity": 101,
                "time": 240
            },
            {
                "type": "note_on",
                "note": 93,
                "channel": 0,
                "velocity": 101,
                "time": 0
            },
            {
                "type": "note_off",
                "note": 93,
                "channel": 0,
                "velocity": 101,
                "time": 240
            },
            {
                "type": "note_on",
                "note": 92,
                "channel": 0,
                "velocity": 107,
                "time": 0
            },
            {
                "type": "note_off",
                "note": 92,
                "channel": 0,
                "velocity": 107,
                "time": 240
            },
            {
                "type": "note_on",
                "note": 93,
                "channel": 0,
                "velocity": 107,
                "time": 0
            },
            {
                "type": "note_off",
                "note": 93,
                "channel": 0,
                "velocity": 107,
                "time": 240
            },
            {
                "type": "note_on",
                "note": 92,
                "channel": 0,
                "velocity": 101,
                "time": 0
            },
            {
                "type": "note_off",
                "note": 92,
                "channel": 0,
                "velocity": 101,
                "time": 240
            },
            {
                "type": "note_on",
                "note": 93,
                "channel": 0,
                "velocity": 101,
                "time": 0
            },
            {
                "type": "note_off",
                "note": 93,
                "channel": 0,
                "velocity": 101,
                "time": 240
            },
            {
                "type": "note_on",
                "note": 78,
                "channel": 0,
                "velocity": 114,
                "time": 0
            },
            {
                "type": "note_off",
                "note": 78,
                "channel": 0,
                "velocity": 114,
                "time": 480
            },
            {
                "type": "note_on",
                "note": 78,
                "channel": 0,
                "velocity": 101,
                "time": 0
            },
            {
                "type": "note_off",
                "note": 78,
                "channel": 0,
                "velocity": 101,
                "time": 240
            },
            {
                "type": "note_on",
                "note": 93,
                "channel": 0,
                "velocity": 101,
                "time": 0
            },
            {
                "type": "note_off",
                "note": 93,
                "channel": 0,
                "velocity": 101,
                "time": 240
            },
            {
                "type": "note_on",
                "note": 92,
                "channel": 0,
                "velocity": 107,
                "time": 0
            },
            {
                "type": "note_off",
                "note": 92,
                "channel": 0,
                "velocity": 107,
                "time": 240
            },
            {
                "type": "note_on",
                "note": 93,
                "channel": 0,
                "velocity": 107,
                "time": 0
            },
            {
                "type": "note_off",
                "note": 93,
                "channel": 0,
                "velocity": 107,
                "time": 240
            },
            {
                "type": "note_on",
                "note": 92,
                "channel": 0,
                "velocity": 101,
                "time": 0
            },
            {
                "type": "note_off",
                "note": 92,
                "channel": 0,
                "velocity": 101,
                "time": 240
            },
            {
                "type": "note_on",
                "note": 93,
                "channel": 0,
                "velocity": 101,
                "time": 0
            },
            {
                "type": "note_off",
                "note": 93,
                "channel": 0,
                "velocity": 101,
                "time": 240
            },
            {
                "type": "note_on",
                "note": 66,
                "channel": 0,
                "velocity": 114,
                "time": 0
            },
            {
                "type": "note_on",
                "note": 78,
                "channel": 0,
                "velocity": 114,
                "time": 0
            },
            {
                "type": "note_off",
                "note": 66,
                "channel": 0,
                "velocity": 114,
                "time": 480
            },
            {
                "type": "note_off",
                "note": 78,
                "channel": 0,
                "velocity": 114,
                "time": 0
            },
            {
                "type": "note_on",
                "note": 78,
                "channel": 0,
                "velocity": 101,
                "time": 0
            },
            {
                "type": "note_off",
                "note": 78,
                "channel": 0,
                "velocity": 101,
                "time": 240
            },
            {
                "type": "note_on",
                "note": 73,
                "channel": 0,
                "velocity": 101,
                "time": 0
            },
            {
                "type": "note_on",
                "note": 85,
                "channel": 0,
                "velocity": 101,
                "time": 0
            },
            {
                "type": "note_off",
                "note": 73,
                "channel": 0,
                "velocity": 101,
                "time": 240
            },
            {
                "type": "note_off",
                "note": 85,
                "channel": 0,
                "velocity": 101,
                "time": 0
            },
            {
                "type": "note_on",
                "note": 71,
                "channel": 0,
                "velocity": 107,
                "time": 0
            },
            {
                "type": "note_on",
                "note": 83,
                "channel": 0,
                "velocity": 107,
                "time": 0
            },
            {
                "type": "note_off",
                "note": 71,
                "channel": 0,
                "velocity": 107,
                "time": 480
            },
            {
                "type": "note_off",
                "note": 83,
                "channel": 0,
                "velocity": 107,
                "time": 0
            },
            {
                "type": "note_on",
                "note": 69,
                "channel": 0,
                "velocity": 101,
                "time": 0
            },
            {
                "type": "note_on",
                "note": 81,
                "channel": 0,
                "velocity": 101,
                "time": 0
            },
            {
                "type": "note_off",
                "note": 69,
                "channel": 0,
                "velocity": 101,
                "time": 480
            },
            {
                "type": "note_off",
                "note": 81,
                "channel": 0,
                "velocity": 101,
                "time": 0
            },
            {
                "type": "note_on",
                "note": 68,
                "channel": 0,
                "velocity": 114,
                "time": 0
            },
            {
                "type": "note_on",
                "note": 80,
                "channel": 0,
                "velocity": 114,
                "time": 0
            },
            {
                "type": "note_off",
                "note": 68,
                "channel": 0,
                "velocity": 114,
                "time": 480
            },
            {
                "type": "note_off",
                "note": 80,
                "channel": 0,
                "velocity": 114,
                "time": 0
            },
            {
                "type": "note_on",
                "note": 68,
                "channel": 0,
                "velocity": 101,
                "time": 0
            },
            {
                "type": "note_on",
                "note": 80,
                "channel": 0,
                "velocity": 101,
                "time": 0
            },
            {
                "type": "note_off",
                "note": 68,
                "channel": 0,
                "velocity": 101,
                "time": 240
            },
            {
                "type": "note_off",
                "note": 80,
                "channel": 0,
                "velocity": 101,
                "time": 0
            },
            {
                "type": "note_on",
                "note": 68,
                "channel": 0,
                "velocity": 101,
                "time": 0
            },
            {
                "type": "note_on",
                "note": 80,
                "channel": 0,
                "velocity": 101,
                "time": 0
            },
            {
                "type": "note_off",
                "note": 68,
                "channel": 0,
                "velocity": 101,
                "time": 240
            },
            {
                "type": "note_off",
                "note": 80,
                "channel": 0,
                "velocity": 101,
                "time": 0
            },
            {
                "type": "note_on",
                "note": 71,
                "channel": 0,
                "velocity": 107,
                "time": 0
            },
            {
                "type": "note_on",
                "note": 83,
                "channel": 0,
                "velocity": 107,
                "time": 0
            },
            {
                "type": "note_off",
                "note": 71,
                "channel": 0,
                "velocity": 107,
                "time": 480
            },
            {
                "type": "note_off",
                "note": 83,
                "channel": 0,
                "velocity": 107,
                "time": 0
            },
            {
                "type": "note_on",
                "note": 69,
                "channel": 0,
                "velocity": 101,
                "time": 0
            },
            {
                "type": "note_on",
                "note": 81,
                "channel": 0,
                "velocity": 101,
                "time": 0
            },
            {
                "type": "note_off",
                "note": 69,
                "channel": 0,
                "velocity": 101,
                "time": 240
            },
            {
                "type": "note_off",
                "note": 81,
                "channel": 0,
                "velocity": 101,
                "time": 0
            },
            {
                "type": "note_on",
                "note": 68,
                "channel": 0,
                "velocity": 101,
                "time": 0
            },
            {
                "type": "note_on",
                "note": 80,
                "channel": 0,
                "velocity": 101,
                "time": 0
            },
            {
                "type": "note_off",
                "note": 68,
                "channel": 0,
                "velocity": 101,
                "time": 240
            },
            {
                "type": "note_off",
                "note": 80,
                "channel": 0,
                "velocity": 101,
                "time": 0
            },
            {
                "type": "note_on",
                "note": 66,
                "channel": 0,
                "velocity": 114,
                "time": 0
            },
            {
                "type": "note_on",
                "note": 78,
                "channel": 0,
                "velocity": 114,
                "time": 0
            },
            {
                "type": "note_off",
                "note": 66,
                "channel": 0,
                "velocity": 114,
                "time": 480
            },
            {
                "type": "note_off",
                "note": 78,
                "channel": 0,
                "velocity": 114,
                "time": 0
            },
            {
                "type": "note_on",
                "note": 66,
                "channel": 0,
                "velocity": 101,
                "time": 0
            },
            {
                "type": "note_on",
                "note": 78,
                "channel": 0,
                "velocity": 101,
                "time": 0
            },
            {
                "type": "note_off",
                "note": 66,
                "channel": 0,
                "velocity": 101,
                "time": 240
            },
            {
                "type": "note_off",
                "note": 78,
                "channel": 0,
                "velocity": 101,
                "time": 0
            },
            {
                "type": "note_on",
                "note": 81,
                "channel": 0,
                "velocity": 101,
                "time": 0
            },
            {
                "type": "note_on",
                "note": 93,
                "channel": 0,
                "velocity": 101,
                "time": 0
            },
            {
                "type": "note_off",
                "note": 81,
                "channel": 0,
                "velocity": 101,
                "time": 240
            },
            {
                "type": "note_off",
                "note": 93,
                "channel": 0,
                "velocity": 101,
                "time": 0
            },
            {
                "type": "note_on",
                "note": 80,
                "channel": 0,
                "velocity": 107,
                "time": 0
            },
            {
                "type": "note_on",
                "note": 92,
                "channel": 0,
                "velocity": 107,
                "time": 0
            },
            {
                "type": "note_off",
                "note": 80,
                "channel": 0,
                "velocity": 107,
                "time": 240
            },
            {
                "type": "note_off",
                "note": 92,
                "channel": 0,
                "velocity": 107,
                "time": 0
            },
            {
                "type": "note_on",
                "note": 81,
                "channel": 0,
                "velocity": 107,
                "time": 0
            },
            {
                "type": "note_on",
                "note": 93,
                "channel": 0,
                "velocity": 107,
                "time": 0
            },
            {
                "type": "note_off",
                "note": 81,
                "channel": 0,
                "velocity": 107,
                "time": 240
            },
            {
                "type": "note_off",
                "note": 93,
                "channel": 0,
                "velocity": 107,
                "time": 0
            },
            {
                "type": "note_on",
                "note": 80,
                "channel": 0,
                "velocity": 101,
                "time": 0
            },
            {
                "type": "note_on",
                "note": 92,
                "channel": 0,
                "velocity": 101,
                "time": 0
            },
            {
                "type": "note_off",
                "note": 80,
                "channel": 0,
                "velocity": 101,
                "time": 240
            },
            {
                "type": "note_off",
                "note": 92,
                "channel": 0,
                "velocity": 101,
                "time": 0
            },
            {
                "type": "note_on",
                "note": 81,
                "channel": 0,
                "velocity": 101,
                "time": 0
            },
            {
                "type": "note_on",
                "note": 93,
                "channel": 0,
                "velocity": 101,
                "time": 0
            },
            {
                "type": "note_off",
                "note": 81,
                "channel": 0,
                "velocity": 101,
                "time": 240
            },
            {
                "type": "note_off",
                "note": 93,
                "channel": 0,
                "velocity": 101,
                "time": 0
            },
            {
                "type": "note_on",
                "note": 66,
                "channel": 0,
                "velocity": 114,
                "time": 0
            },
            {
                "type": "note_on",
                "note": 78,
                "channel": 0,
                "velocity": 114,
                "time": 0
            },
            {
                "type": "note_off",
                "note": 66,
                "channel": 0,
                "velocity": 114,
                "time": 480
            },
            {
                "type": "note_off",
                "note": 78,
                "channel": 0,
                "velocity": 114,
                "time": 0
            },
            {
                "type": "note_on",
                "note": 66,
                "channel": 0,
                "velocity": 101,
                "time": 0
            },
            {
                "type": "note_on",
                "note": 78,
                "channel": 0,
                "velocity": 101,
                "time": 0
            },
            {
                "type": "note_off",
                "note": 66,
                "channel": 0,
                "velocity": 101,
                "time": 240
            },
            {
                "type": "note_off",
                "note": 78,
                "channel": 0,
                "velocity": 101,
                "time": 0
            },
            {
                "type": "note_on",
                "note": 81,
                "channel": 0,
                "velocity": 101,
                "time": 0
            },
            {
                "type": "note_on",
                "note": 93,
                "channel": 0,
                "velocity": 101,
                "time": 0
            },
            {
                "type": "note_off",
                "note": 81,
                "channel": 0,
                "velocity": 101,
                "time": 240
            },
            {
                "type": "note_off",
                "note": 93,
                "channel": 0,
                "velocity": 101,
                "time": 0
            },
            {
                "type": "note_on",
                "note": 80,
                "channel": 0,
                "velocity": 107,
                "time": 0
            },
            {
                "type": "note_on",
                "note": 92,
                "channel": 0,
                "velocity": 107,
                "time": 0
            },
            {
                "type": "note_off",
                "note": 80,
                "channel": 0,
                "velocity": 107,
                "time": 240
            },
            {
                "type": "note_off",
                "note": 92,
                "channel": 0,
                "velocity": 107,
                "time": 0
            },
            {
                "type": "note_on",
                "note": 81,
                "channel": 0,
                "velocity": 107,
                "time": 0
            },
            {
                "type": "note_on",
                "note": 93,
                "channel": 0,
                "velocity": 107,
                "time": 0
            },
            {
                "type": "note_off",
                "note": 81,
                "channel": 0,
                "velocity": 107,
                "time": 240
            },
            {
                "type": "note_off",
                "note": 93,
                "channel": 0,
                "velocity": 107,
                "time": 0
            },
            {
                "type": "note_on",
                "note": 80,
                "channel": 0,
                "velocity": 101,
                "time": 0
            },
            {
                "type": "note_on",
                "note": 92,
                "channel": 0,
                "velocity": 101,
                "time": 0
            },
            {
                "type": "note_off",
                "note": 80,
                "channel": 0,
                "velocity": 101,
                "time": 240
            },
            {
                "type": "note_off",
                "note": 92,
                "channel": 0,
                "velocity": 101,
                "time": 0
            },
            {
                "type": "note_on",
                "note": 81,
                "channel": 0,
                "velocity": 101,
                "time": 0
            },
            {
                "type": "note_on",
                "note": 93,
                "channel": 0,
                "velocity": 101,
                "time": 0
            },
            {
                "type": "note_off",
                "note": 81,
                "channel": 0,
                "velocity": 101,
                "time": 240
            },
            {
                "type": "note_off",
                "note": 93,
                "channel": 0,
                "velocity": 101,
                "time": 0
            },
            {
                "type": "note_on",
                "note": 69,
                "channel": 0,
                "velocity": 114,
                "time": 0
            },
            {
                "type": "note_on",
                "note": 81,
                "channel": 0,
                "velocity": 114,
                "time": 0
            },
            {
                "type": "note_off",
                "note": 69,
                "channel": 0,
                "velocity": 114,
                "time": 240
            },
            {
                "type": "note_off",
                "note": 81,
                "channel": 0,
                "velocity": 114,
                "time": 0
            },
            {
                "type": "note_on",
                "note": 69,
                "channel": 0,
                "velocity": 114,
                "time": 0
            },
            {
                "type": "note_on",
                "note": 81,
                "channel": 0,
                "velocity": 114,
                "time": 0
            },
            {
                "type": "note_off",
                "note": 69,
                "channel": 0,
                "velocity": 114,
                "time": 240
            },
            {
                "type": "note_off",
                "note": 81,
                "channel": 0,
                "velocity": 114,
                "time": 0
            },
            {
                "type": "note_on",
                "note": 69,
                "channel": 0,
                "velocity": 101,
                "time": 0
            },
            {
                "type": "note_on",
                "note": 81,
                "channel": 0,
                "velocity": 101,
                "time": 0
            },
            {
                "type": "note_off",
                "note": 69,
                "channel": 0,
                "velocity": 101,
                "time": 240
            },
            {
                "type": "note_off",
                "note": 81,
                "channel": 0,
                "velocity": 101,
                "time": 0
            },
            {
                "type": "note_on",
                "note": 69,
                "channel": 0,
                "velocity": 101,
                "time": 0
            },
            {
                "type": "note_on",
                "note": 81,
                "channel": 0,
                "velocity": 101,
                "time": 0
            },
            {
                "type": "note_off",
                "note": 69,
                "channel": 0,
                "velocity": 101,
                "time": 240
            },
            {
                "type": "note_off",
                "note": 81,
                "channel": 0,
                "velocity": 101,
                "time": 0
            },
            {
                "type": "note_on",
                "note": 73,
                "channel": 0,
                "velocity": 107,
                "time": 0
            },
            {
                "type": "note_on",
                "note": 85,
                "channel": 0,
                "velocity": 107,
                "time": 0
            },
            {
                "type": "note_off",
                "note": 73,
                "channel": 0,
                "velocity": 107,
                "time": 240
            },
            {
                "type": "note_off",
                "note": 85,
                "channel": 0,
                "velocity": 107,
                "time": 0
            },
            {
                "type": "note_on",
                "note": 73,
                "channel": 0,
                "velocity": 107,
                "time": 0
            },
            {
                "type": "note_on",
                "note": 85,
                "channel": 0,
                "velocity": 107,
                "time": 0
            },
            {
                "type": "note_off",
                "note": 73,
                "channel": 0,
                "velocity": 107,
                "time": 240
            },
            {
                "type": "note_off",
                "note": 85,
                "channel": 0,
                "velocity": 107,
                "time": 0
            },
            {
                "type": "note_on",
                "note": 73,
                "channel": 0,
                "velocity": 101,
                "time": 0
            },
            {
                "type": "note_on",
                "note": 85,
                "channel": 0,
                "velocity": 101,
                "time": 0
            },
            {
                "type": "note_off",
                "note": 73,
                "channel": 0,
                "velocity": 101,
                "time": 240
            },
            {
                "type": "note_off",
                "note": 85,
                "channel": 0,
                "velocity": 101,
                "time": 0
            },
            {
                "type": "note_on",
                "note": 73,
                "channel": 0,
                "velocity": 101,
                "time": 0
            },
            {
                "type": "note_on",
                "note": 85,
                "channel": 0,
                "velocity": 101,
                "time": 0
            },
            {
                "type": "note_off",
                "note": 73,
                "channel": 0,
                "velocity": 101,
                "time": 240
            },
            {
                "type": "note_off",
                "note": 85,
                "channel": 0,
                "velocity": 101,
                "time": 0
            },
            {
                "type": "note_on",
                "note": 71,
                "channel": 0,
                "velocity": 114,
                "time": 0
            },
            {
                "type": "note_on",
                "note": 83,
                "channel": 0,
                "velocity": 114,
                "time": 0
            },
            {
                "type": "note_off",
                "note": 71,
                "channel": 0,
                "velocity": 114,
                "time": 240
            },
            {
                "type": "note_off",
                "note": 83,
                "channel": 0,
                "velocity": 114,
                "time": 0
            },
            {
                "type": "note_on",
                "note": 71,
                "channel": 0,
                "velocity": 114,
                "time": 0
            },
            {
                "type": "note_on",
                "note": 83,
                "channel": 0,
                "velocity": 114,
                "time": 0
            },
            {
                "type": "note_off",
                "note": 71,
                "channel": 0,
                "velocity": 114,
                "time": 240
            },
            {
                "type": "note_off",
                "note": 83,
                "channel": 0,
                "velocity": 114,
                "time": 0
            },
            {
                "type": "note_on",
                "note": 71,
                "channel": 0,
                "velocity": 101,
                "time": 0
            },
            {
                "type": "note_on",
                "note": 83,
                "channel": 0,
                "velocity": 101,
                "time": 0
            },
            {
                "type": "note_off",
                "note": 71,
                "channel": 0,
                "velocity": 101,
                "time": 240
            },
            {
                "type": "note_off",
                "note": 83,
                "channel": 0,
                "velocity": 101,
                "time": 0
            },
            {
                "type": "note_on",
                "note": 71,
                "channel": 0,
                "velocity": 101,
                "time": 0
            },
            {
                "type": "note_on",
                "note": 83,
                "channel": 0,
                "velocity": 101,
                "time": 0
            },
            {
                "type": "note_off",
                "note": 71,
                "channel": 0,
                "velocity": 101,
                "time": 240
            },
            {
                "type": "note_off",
                "note": 83,
                "channel": 0,
                "velocity": 101,
                "time": 0
            },
            {
                "type": "note_on",
                "note": 76,
                "channel": 0,
                "velocity": 107,
                "time": 0
            },
            {
                "type": "note_on",
                "note": 88,
                "channel": 0,
                "velocity": 107,
                "time": 0
            },
            {
                "type": "note_off",
                "note": 76,
                "channel": 0,
                "velocity": 107,
                "time": 240
            },
            {
                "type": "note_off",
                "note": 88,
                "channel": 0,
                "velocity": 107,
                "time": 0
            },
            {
                "type": "note_on",
                "note": 76,
                "channel": 0,
                "velocity": 107,
                "time": 0
            },
            {
                "type": "note_on",
                "note": 88,
                "channel": 0,
                "velocity": 107,
                "time": 0
            },
            {
                "type": "note_off",
                "note": 76,
                "channel": 0,
                "velocity": 107,
                "time": 240
            },
            {
                "type": "note_off",
                "note": 88,
                "channel": 0,
                "velocity": 107,
                "time": 0
            },
            {
                "type": "note_on",
                "note": 76,
                "channel": 0,
                "velocity": 101,
                "time": 0
            },
            {
                "type": "note_on",
                "note": 88,
                "channel": 0,
                "velocity": 101,
                "time": 0
            },
            {
                "type": "note_off",
                "note": 76,
                "channel": 0,
                "velocity": 101,
                "time": 240
            },
            {
                "type": "note_off",
                "note": 88,
                "channel": 0,
                "velocity": 101,
                "time": 0
            },
            {
                "type": "note_on",
                "note": 76,
                "channel": 0,
                "velocity": 101,
                "time": 0
            },
            {
                "type": "note_on",
                "note": 88,
                "channel": 0,
                "velocity": 101,
                "time": 0
            },
            {
                "type": "note_off",
                "note": 76,
                "channel": 0,
                "velocity": 101,
                "time": 240
            },
            {
                "type": "note_off",
                "note": 88,
                "channel": 0,
                "velocity": 101,
                "time": 0
            },
            {
                "type": "note_on",
                "note": 78,
                "channel": 0,
                "velocity": 114,
                "time": 0
            },
            {
                "type": "note_on",
                "note": 90,
                "channel": 0,
                "velocity": 114,
                "time": 0
            },
            {
                "type": "note_off",
                "note": 78,
                "channel": 0,
                "velocity": 114,
                "time": 240
            },
            {
                "type": "note_off",
                "note": 90,
                "channel": 0,
                "velocity": 114,
                "time": 0
            },
            {
                "type": "note_on",
                "note": 78,
                "channel": 0,
                "velocity": 114,
                "time": 0
            },
            {
                "type": "note_on",
                "note": 90,
                "channel": 0,
                "velocity": 114,
                "time": 0
            },
            {
                "type": "note_off",
                "note": 78,
                "channel": 0,
                "velocity": 114,
                "time": 240
            },
            {
                "type": "note_off",
                "note": 90,
                "channel": 0,
                "velocity": 114,
                "time": 0
            },
            {
                "type": "note_on",
                "note": 78,
                "channel": 0,
                "velocity": 101,
                "time": 0
            },
            {
                "type": "note_on",
                "note": 90,
                "channel": 0,
                "velocity": 101,
                "time": 0
            },
            {
                "type": "note_off",
                "note": 78,
                "channel": 0,
                "velocity": 101,
                "time": 240
            },
            {
                "type": "note_off",
                "note": 90,
                "channel": 0,
                "velocity": 101,
                "time": 0
            },
            {
                "type": "note_on",
                "note": 78,
                "channel": 0,
                "velocity": 101,
                "time": 0
            },
            {
                "type": "note_on",
                "note": 90,
                "channel": 0,
                "velocity": 101,
                "time": 0
            },
            {
                "type": "note_off",
                "note": 78,
                "channel": 0,
                "velocity": 101,
                "time": 240
            },
            {
                "type": "note_off",
                "note": 90,
                "channel": 0,
                "velocity": 101,
                "time": 0
            },
            {
                "type": "note_on",
                "note": 78,
                "channel": 0,
                "velocity": 107,
                "time": 0
            },
            {
                "type": "note_on",
                "note": 90,
                "channel": 0,
                "velocity": 107,
                "time": 0
            },
            {
                "type": "note_off",
                "note": 78,
                "channel": 0,
                "velocity": 107,
                "time": 240
            },
            {
                "type": "note_off",
                "note": 90,
                "channel": 0,
                "velocity": 107,
                "time": 0
            },
            {
                "type": "note_on",
                "note": 78,
                "channel": 0,
                "velocity": 107,
                "time": 0
            },
            {
                "type": "note_on",
                "note": 90,
                "channel": 0,
                "velocity": 107,
                "time": 0
            },
            {
                "type": "note_off",
                "note": 78,
                "channel": 0,
                "velocity": 107,
                "time": 240
            },
            {
                "type": "note_off",
                "note": 90,
                "channel": 0,
                "velocity": 107,
                "time": 0
            },
            {
                "type": "note_on",
                "note": 78,
                "channel": 0,
                "velocity": 101,
                "time": 0
            },
            {
                "type": "note_on",
                "note": 90,
                "channel": 0,
                "velocity": 101,
                "time": 0
            },
            {
                "type": "note_off",
                "note": 78,
                "channel": 0,
                "velocity": 101,
                "time": 240
            },
            {
                "type": "note_off",
                "note": 90,
                "channel": 0,
                "velocity": 101,
                "time": 0
            },
            {
                "type": "note_on",
                "note": 78,
                "channel": 0,
                "velocity": 101,
                "time": 0
            },
            {
                "type": "note_on",
                "note": 90,
                "channel": 0,
                "velocity": 101,
                "time": 0
            },
            {
                "type": "note_off",
                "note": 78,
                "channel": 0,
                "velocity": 101,
                "time": 240
            },
            {
                "type": "note_off",
                "note": 90,
                "channel": 0,
                "velocity": 101,
                "time": 0
            },
            {
                "type": "note_on",
                "note": 78,
                "channel": 0,
                "velocity": 114,
                "time": 0
            },
            {
                "type": "note_on",
                "note": 90,
                "channel": 0,
                "velocity": 114,
                "time": 0
            },
            {
                "type": "note_off",
                "note": 78,
                "channel": 0,
                "velocity": 114,
                "time": 240
            },
            {
                "type": "note_off",
                "note": 90,
                "channel": 0,
                "velocity": 114,
                "time": 0
            },
            {
                "type": "note_on",
                "note": 78,
                "channel": 0,
                "velocity": 114,
                "time": 0
            },
            {
                "type": "note_on",
                "note": 90,
                "channel": 0,
                "velocity": 114,
                "time": 0
            },
            {
                "type": "note_off",
                "note": 78,
                "channel": 0,
                "velocity": 114,
                "time": 240
            },
            {
                "type": "note_off",
                "note": 90,
                "channel": 0,
                "velocity": 114,
                "time": 0
            },
            {
                "type": "note_on",
                "note": 78,
                "channel": 0,
                "velocity": 101,
                "time": 0
            },
            {
                "type": "note_on",
                "note": 90,
                "channel": 0,
                "velocity": 101,
                "time": 0
            },
            {
                "type": "note_off",
                "note": 78,
                "channel": 0,
                "velocity": 101,
                "time": 240
            },
            {
                "type": "note_off",
                "note": 90,
                "channel": 0,
                "velocity": 101,
                "time": 0
            },
            {
                "type": "note_on",
                "note": 78,
                "channel": 0,
                "velocity": 101,
                "time": 0
            },
            {
                "type": "note_on",
                "note": 90,
                "channel": 0,
                "velocity": 101,
                "time": 0
            },
            {
                "type": "note_off",
                "note": 78,
                "channel": 0,
                "velocity": 101,
                "time": 240
            },
            {
                "type": "note_off",
                "note": 90,
                "channel": 0,
                "velocity": 101,
                "time": 0
            },
            {
                "type": "note_on",
                "note": 71,
                "channel": 0,
                "velocity": 107,
                "time": 0
            },
            {
                "type": "note_on",
                "note": 83,
                "channel": 0,
                "velocity": 107,
                "time": 0
            },
            {
                "type": "note_off",
                "note": 71,
                "channel": 0,
                "velocity": 107,
                "time": 240
            },
            {
                "type": "note_off",
                "note": 83,
                "channel": 0,
                "velocity": 107,
                "time": 0
            },
            {
                "type": "note_on",
                "note": 69,
                "channel": 0,
                "velocity": 107,
                "time": 0
            },
            {
                "type": "note_on",
                "note": 81,
                "channel": 0,
                "velocity": 107,
                "time": 0
            },
            {
                "type": "note_off",
                "note": 69,
                "channel": 0,
                "velocity": 107,
                "time": 240
            },
            {
                "type": "note_off",
                "note": 81,
                "channel": 0,
                "velocity": 107,
                "time": 0
            },
            {
                "type": "note_on",
                "note": 68,
                "channel": 0,
                "velocity": 101,
                "time": 0
            },
            {
                "type": "note_on",
                "note": 80,
                "channel": 0,
                "velocity": 101,
                "time": 0
            },
            {
                "type": "note_off",
                "note": 68,
                "channel": 0,
                "velocity": 101,
                "time": 240
            },
            {
                "type": "note_off",
                "note": 80,
                "channel": 0,
                "velocity": 101,
                "time": 0
            },
            {
                "type": "note_on",
                "note": 64,
                "channel": 0,
                "velocity": 101,
                "time": 0
            },
            {
                "type": "note_on",
                "note": 76,
                "channel": 0,
                "velocity": 101,
                "time": 0
            },
            {
                "type": "note_off",
                "note": 64,
                "channel": 0,
                "velocity": 101,
                "time": 240
            },
            {
                "type": "note_off",
                "note": 76,
                "channel": 0,
                "velocity": 101,
                "time": 0
            }
        ]
    },
    "Track2": {
        "time_signature": [],
        "set_tempo": [],
        "program_change": [
            {
                "program": 0,
                "channel": 0,
                "time": 0
            }
        ],
        "key_signature": [
            {
                "key": "A",
                "time": 0
            }
        ],
        "note": [
            {
                "type": "note_on",
                "note": 38,
                "channel": 0,
                "velocity": 88,
                "time": 0
            },
            {
                "type": "note_on",
                "note": 45,
                "channel": 0,
                "velocity": 88,
                "time": 0
            },
            {
                "type": "note_on",
                "note": 50,
                "channel": 0,
                "velocity": 88,
                "time": 0
            },
            {
                "type": "note_off",
                "note": 38,
                "channel": 0,
                "velocity": 88,
                "time": 1920
            },
            {
                "type": "note_off",
                "note": 45,
                "channel": 0,
                "velocity": 88,
                "time": 0
            },
            {
                "type": "note_off",
                "note": 50,
                "channel": 0,
                "velocity": 88,
                "time": 0
            },
            {
                "type": "note_on",
                "note": 40,
                "channel": 0,
                "velocity": 88,
                "time": 0
            },
            {
                "type": "note_on",
                "note": 47,
                "channel": 0,
                "velocity": 88,
                "time": 0
            },
            {
                "type": "note_on",
                "note": 52,
                "channel": 0,
                "velocity": 88,
                "time": 0
            },
            {
                "type": "note_off",
                "note": 40,
                "channel": 0,
                "velocity": 88,
                "time": 1920
            },
            {
                "type": "note_off",
                "note": 47,
                "channel": 0,
                "velocity": 88,
                "time": 0
            },
            {
                "type": "note_off",
                "note": 52,
                "channel": 0,
                "velocity": 88,
                "time": 0
            },
            {
                "type": "note_on",
                "note": 42,
                "channel": 0,
                "velocity": 88,
                "time": 0
            },
            {
                "type": "note_on",
                "note": 49,
                "channel": 0,
                "velocity": 88,
                "time": 0
            },
            {
                "type": "note_on",
                "note": 54,
                "channel": 0,
                "velocity": 88,
                "time": 0
            },
            {
                "type": "note_off",
                "note": 42,
                "channel": 0,
                "velocity": 88,
                "time": 1920
            },
            {
                "type": "note_off",
                "note": 49,
                "channel": 0,
                "velocity": 88,
                "time": 0
            },
            {
                "type": "note_off",
                "note": 54,
                "channel": 0,
                "velocity": 88,
                "time": 0
            },
            {
                "type": "note_on",
                "note": 42,
                "channel": 0,
                "velocity": 88,
                "time": 0
            },
            {
                "type": "note_on",
                "note": 49,
                "channel": 0,
                "velocity": 88,
                "time": 0
            },
            {
                "type": "note_on",
                "note": 54,
                "channel": 0,
                "velocity": 88,
                "time": 0
            },
            {
                "type": "note_off",
                "note": 42,
                "channel": 0,
                "velocity": 88,
                "time": 1920
            },
            {
                "type": "note_off",
                "note": 49,
                "channel": 0,
                "velocity": 88,
                "time": 0
            },
            {
                "type": "note_off",
                "note": 54,
                "channel": 0,
                "velocity": 88,
                "time": 0
            },
            {
                "type": "note_on",
                "note": 38,
                "channel": 0,
                "velocity": 88,
                "time": 0
            },
            {
                "type": "note_on",
                "note": 45,
                "channel": 0,
                "velocity": 88,
                "time": 0
            },
            {
                "type": "note_on",
                "note": 50,
                "channel": 0,
                "velocity": 88,
                "time": 0
            },
            {
                "type": "note_off",
                "note": 38,
                "channel": 0,
                "velocity": 88,
                "time": 1920
            },
            {
                "type": "note_off",
                "note": 45,
                "channel": 0,
                "velocity": 88,
                "time": 0
            },
            {
                "type": "note_off",
                "note": 50,
                "channel": 0,
                "velocity": 88,
                "time": 0
            },
            {
                "type": "note_on",
                "note": 40,
                "channel": 0,
                "velocity": 88,
                "time": 0
            },
            {
                "type": "note_on",
                "note": 47,
                "channel": 0,
                "velocity": 88,
                "time": 0
            },
            {
                "type": "note_on",
                "note": 52,
                "channel": 0,
                "velocity": 88,
                "time": 0
            },
            {
                "type": "note_off",
                "note": 40,
                "channel": 0,
                "velocity": 88,
                "time": 1920
            },
            {
                "type": "note_off",
                "note": 47,
                "channel": 0,
                "velocity": 88,
                "time": 0
            },
            {
                "type": "note_off",
                "note": 52,
                "channel": 0,
                "velocity": 88,
                "time": 0
            },
            {
                "type": "note_on",
                "note": 42,
                "channel": 0,
                "velocity": 88,
                "time": 0
            },
            {
                "type": "note_on",
                "note": 49,
                "channel": 0,
                "velocity": 88,
                "time": 0
            },
            {
                "type": "note_on",
                "note": 54,
                "channel": 0,
                "velocity": 88,
                "time": 0
            },
            {
                "type": "note_off",
                "note": 42,
                "channel": 0,
                "velocity": 88,
                "time": 1920
            },
            {
                "type": "note_off",
                "note": 49,
                "channel": 0,
                "velocity": 88,
                "time": 0
            },
            {
                "type": "note_off",
                "note": 54,
                "channel": 0,
                "velocity": 88,
                "time": 0
            },
            {
                "type": "note_on",
                "note": 42,
                "channel": 0,
                "velocity": 88,
                "time": 0
            },
            {
                "type": "note_on",
                "note": 49,
                "channel": 0,
                "velocity": 88,
                "time": 0
            },
            {
                "type": "note_on",
                "note": 54,
                "channel": 0,
                "velocity": 88,
                "time": 0
            },
            {
                "type": "note_off",
                "note": 42,
                "channel": 0,
                "velocity": 88,
                "time": 1920
            },
            {
                "type": "note_off",
                "note": 49,
                "channel": 0,
                "velocity": 88,
                "time": 0
            },
            {
                "type": "note_off",
                "note": 54,
                "channel": 0,
                "velocity": 88,
                "time": 0
            },
            {
                "type": "note_on",
                "note": 38,
                "channel": 0,
                "velocity": 88,
                "time": 0
            },
            {
                "type": "note_on",
                "note": 45,
                "channel": 0,
                "velocity": 88,
                "time": 0
            },
            {
                "type": "note_on",
                "note": 50,
                "channel": 0,
                "velocity": 88,
                "time": 0
            },
            {
                "type": "note_off",
                "note": 38,
                "channel": 0,
                "velocity": 88,
                "time": 720
            },
            {
                "type": "note_off",
                "note": 45,
                "channel": 0,
                "velocity": 88,
                "time": 0
            },
            {
                "type": "note_off",
                "note": 50,
                "channel": 0,
                "velocity": 88,
                "time": 0
            },
            {
                "type": "note_on",
                "note": 50,
                "channel": 0,
                "velocity": 76,
                "time": 0
            },
            {
                "type": "note_on",
                "note": 57,
                "channel": 0,
                "velocity": 76,
                "time": 0
            },
            {
                "type": "note_off",
                "note": 50,
                "channel": 0,
                "velocity": 76,
                "time": 720
            },
            {
                "type": "note_off",
                "note": 57,
                "channel": 0,
                "velocity": 76,
                "time": 0
            },
            {
                "type": "note_on",
                "note": 50,
                "channel": 0,
                "velocity": 76,
                "time": 0
            },
            {
                "type": "note_on",
                "note": 57,
                "channel": 0,
                "velocity": 76,
                "time": 0
            },
            {
                "type": "note_off",
                "note": 50,
                "channel": 0,
                "velocity": 76,
                "time": 240
            },
            {
                "type": "note_off",
                "note": 57,
                "channel": 0,
                "velocity": 76,
                "time": 0
            },
            {
                "type": "note_on",
                "note": 38,
                "channel": 0,
                "velocity": 76,
                "time": 0
            },
            {
                "type": "note_on",
                "note": 50,
                "channel": 0,
                "velocity": 76,
                "time": 0
            },
            {
                "type": "note_off",
                "note": 38,
                "channel": 0,
                "velocity": 76,
                "time": 240
            },
            {
                "type": "note_off",
                "note": 50,
                "channel": 0,
                "velocity": 76,
                "time": 0
            },
            {
                "type": "note_on",
                "note": 40,
                "channel": 0,
                "velocity": 88,
                "time": 0
            },
            {
                "type": "note_on",
                "note": 47,
                "channel": 0,
                "velocity": 88,
                "time": 0
            },
            {
                "type": "note_on",
                "note": 52,
                "channel": 0,
                "velocity": 88,
                "time": 0
            },
            {
                "type": "note_off",
                "note": 40,
                "channel": 0,
                "velocity": 88,
                "time": 720
            },
            {
                "type": "note_off",
                "note": 47,
                "channel": 0,
                "velocity": 88,
                "time": 0
            },
            {
                "type": "note_off",
                "note": 52,
                "channel": 0,
                "velocity": 88,
                "time": 0
            },
            {
                "type": "note_on",
                "note": 52,
                "channel": 0,
                "velocity": 76,
                "time": 0
            },
            {
                "type": "note_on",
                "note": 59,
                "channel": 0,
                "velocity": 76,
                "time": 0
            },
            {
                "type": "note_off",
                "note": 52,
                "channel": 0,
                "velocity": 76,
                "time": 720
            },
            {
                "type": "note_off",
                "note": 59,
                "channel": 0,
                "velocity": 76,
                "time": 0
            },
            {
                "type": "note_on",
                "note": 52,
                "channel": 0,
                "velocity": 76,
                "time": 0
            },
            {
                "type": "note_on",
                "note": 59,
                "channel": 0,
                "velocity": 76,
                "time": 0
            },
            {
                "type": "note_off",
                "note": 52,
                "channel": 0,
                "velocity": 76,
                "time": 240
            },
            {
                "type": "note_off",
                "note": 59,
                "channel": 0,
                "velocity": 76,
                "time": 0
            },
            {
                "type": "note_on",
                "note": 40,
                "channel": 0,
                "velocity": 76,
                "time": 0
            },
            {
                "type": "note_on",
                "note": 52,
                "channel": 0,
                "velocity": 76,
                "time": 0
            },
            {
                "type": "note_off",
                "note": 40,
                "channel": 0,
                "velocity": 76,
                "time": 240
            },
            {
                "type": "note_off",
                "note": 52,
                "channel": 0,
                "velocity": 76,
                "time": 0
            },
            {
                "type": "note_on",
                "note": 42,
                "channel": 0,
                "velocity": 88,
                "time": 0
            },
            {
                "type": "note_on",
                "note": 49,
                "channel": 0,
                "velocity": 88,
                "time": 0
            },
            {
                "type": "note_on",
                "note": 54,
                "channel": 0,
                "velocity": 88,
                "time": 0
            },
            {
                "type": "note_off",
                "note": 42,
                "channel": 0,
                "velocity": 88,
                "time": 720
            },
            {
                "type": "note_off",
                "note": 49,
                "channel": 0,
                "velocity": 88,
                "time": 0
            },
            {
                "type": "note_off",
                "note": 54,
                "channel": 0,
                "velocity": 88,
                "time": 0
            },
            {
                "type": "note_on",
                "note": 54,
                "channel": 0,
                "velocity": 76,
                "time": 0
            },
            {
                "type": "note_on",
                "note": 61,
                "channel": 0,
                "velocity": 76,
                "time": 0
            },
            {
                "type": "note_off",
                "note": 54,
                "channel": 0,
                "velocity": 76,
                "time": 720
            },
            {
                "type": "note_off",
                "note": 61,
                "channel": 0,
                "velocity": 76,
                "time": 0
            },
            {
                "type": "note_on",
                "note": 54,
                "channel": 0,
                "velocity": 76,
                "time": 0
            },
            {
                "type": "note_on",
                "note": 61,
                "channel": 0,
                "velocity": 76,
                "time": 0
            },
            {
                "type": "note_off",
                "note": 54,
                "channel": 0,
                "velocity": 76,
                "time": 240
            },
            {
                "type": "note_off",
                "note": 61,
                "channel": 0,
                "velocity": 76,
                "time": 0
            },
            {
                "type": "note_on",
                "note": 42,
                "channel": 0,
                "velocity": 76,
                "time": 0
            },
            {
                "type": "note_on",
                "note": 54,
                "channel": 0,
                "velocity": 76,
                "time": 0
            },
            {
                "type": "note_off",
                "note": 42,
                "channel": 0,
                "velocity": 76,
                "time": 240
            },
            {
                "type": "note_off",
                "note": 54,
                "channel": 0,
                "velocity": 76,
                "time": 0
            },
            {
                "type": "note_on",
                "note": 42,
                "channel": 0,
                "velocity": 88,
                "time": 0
            },
            {
                "type": "note_on",
                "note": 49,
                "channel": 0,
                "velocity": 88,
                "time": 0
            },
            {
                "type": "note_on",
                "note": 54,
                "channel": 0,
                "velocity": 88,
                "time": 0
            },
            {
                "type": "note_off",
                "note": 42,
                "channel": 0,
                "velocity": 88,
                "time": 720
            },
            {
                "type": "note_off",
                "note": 49,
                "channel": 0,
                "velocity": 88,
                "time": 0
            },
            {
                "type": "note_off",
                "note": 54,
                "channel": 0,
                "velocity": 88,
                "time": 0
            },
            {
                "type": "note_on",
                "note": 54,
                "channel": 0,
                "velocity": 76,
                "time": 0
            },
            {
                "type": "note_on",
                "note": 61,
                "channel": 0,
                "velocity": 76,
                "time": 0
            },
            {
                "type": "note_off",
                "note": 54,
                "channel": 0,
                "velocity": 76,
                "time": 720
            },
            {
                "type": "note_off",
                "note": 61,
                "channel": 0,
                "velocity": 76,
                "time": 0
            },
            {
                "type": "note_on",
                "note": 54,
                "channel": 0,
                "velocity": 76,
                "time": 0
            },
            {
                "type": "note_on",
                "note": 61,
                "channel": 0,
                "velocity": 76,
                "time": 0
            },
            {
                "type": "note_off",
                "note": 54,
                "channel": 0,
                "velocity": 76,
                "time": 240
            },
            {
                "type": "note_off",
                "note": 61,
                "channel": 0,
                "velocity": 76,
                "time": 0
            },
            {
                "type": "note_on",
                "note": 42,
                "channel": 0,
                "velocity": 76,
                "time": 0
            },
            {
                "type": "note_on",
                "note": 54,
                "channel": 0,
                "velocity": 76,
                "time": 0
            },
            {
                "type": "note_off",
                "note": 42,
                "channel": 0,
                "velocity": 76,
                "time": 240
            },
            {
                "type": "note_off",
                "note": 54,
                "channel": 0,
                "velocity": 76,
                "time": 0
            },
            {
                "type": "note_on",
                "note": 38,
                "channel": 0,
                "velocity": 88,
                "time": 0
            },
            {
                "type": "note_on",
                "note": 45,
                "channel": 0,
                "velocity": 88,
                "time": 0
            },
            {
                "type": "note_on",
                "note": 50,
                "channel": 0,
                "velocity": 88,
                "time": 0
            },
            {
                "type": "note_off",
                "note": 38,
                "channel": 0,
                "velocity": 88,
                "time": 240
            },
            {
                "type": "note_off",
                "note": 45,
                "channel": 0,
                "velocity": 88,
                "time": 0
            },
            {
                "type": "note_off",
                "note": 50,
                "channel": 0,
                "velocity": 88,
                "time": 0
            },
            {
                "type": "note_on",
                "note": 45,
                "channel": 0,
                "velocity": 88,
                "time": 0
            },
            {
                "type": "note_off",
                "note": 45,
                "channel": 0,
                "velocity": 88,
                "time": 120
            },
            {
                "type": "note_on",
                "note": 50,
                "channel": 0,
                "velocity": 88,
                "time": 0
            },
            {
                "type": "note_off",
                "note": 50,
                "channel": 0,
                "velocity": 88,
                "time": 120
            },
            {
                "type": "note_on",
                "note": 62,
                "channel": 0,
                "velocity": 76,
                "time": 0
            },
            {
                "type": "note_off",
                "note": 62,
                "channel": 0,
                "velocity": 76,
                "time": 120
            },
            {
                "type": "note_on",
                "note": 57,
                "channel": 0,
                "velocity": 76,
                "time": 0
            },
            {
                "type": "note_off",
                "note": 57,
                "channel": 0,
                "velocity": 76,
                "time": 120
            },
            {
                "type": "note_on",
                "note": 54,
                "channel": 0,
                "velocity": 76,
                "time": 0
            },
            {
                "type": "note_off",
                "note": 54,
                "channel": 0,
                "velocity": 76,
                "time": 120
            },
            {
                "type": "note_on",
                "note": 50,
                "channel": 0,
                "velocity": 76,
                "time": 0
            },
            {
                "type": "note_off",
                "note": 50,
                "channel": 0,
                "velocity": 76,
                "time": 120
            },
            {
                "type": "note_on",
                "note": 38,
                "channel": 0,
                "velocity": 82,
                "time": 0
            },
            {
                "type": "note_off",
                "note": 38,
                "channel": 0,
                "velocity": 82,
                "time": 120
            },
            {
                "type": "note_on",
                "note": 45,
                "channel": 0,
                "velocity": 82,
                "time": 0
            },
            {
                "type": "note_off",
                "note": 45,
                "channel": 0,
                "velocity": 82,
                "time": 120
            },
            {
                "type": "note_on",
                "note": 50,
                "channel": 0,
                "velocity": 82,
                "time": 0
            },
            {
                "type": "note_off",
                "note": 50,
                "channel": 0,
                "velocity": 82,
                "time": 120
            },
            {
                "type": "note_on",
                "note": 50,
                "channel": 0,
                "velocity": 82,
                "time": 0
            },
            {
                "type": "note_off",
                "note": 50,
                "channel": 0,
                "velocity": 82,
                "time": 120
            },
            {
                "type": "note_on",
                "note": 62,
                "channel": 0,
                "velocity": 76,
                "time": 0
            },
            {
                "type": "note_off",
                "note": 62,
                "channel": 0,
                "velocity": 76,
                "time": 120
            },
            {
                "type": "note_on",
                "note": 57,
                "channel": 0,
                "velocity": 76,
                "time": 0
            },
            {
                "type": "note_off",
                "note": 57,
                "channel": 0,
                "velocity": 76,
                "time": 120
            },
            {
                "type": "note_on",
                "note": 54,
                "channel": 0,
                "velocity": 76,
                "time": 0
            },
            {
                "type": "note_off",
                "note": 54,
                "channel": 0,
                "velocity": 76,
                "time": 120
            },
            {
                "type": "note_on",
                "note": 50,
                "channel": 0,
                "velocity": 76,
                "time": 0
            },
            {
                "type": "note_off",
                "note": 50,
                "channel": 0,
                "velocity": 76,
                "time": 120
            },
            {
                "type": "note_on",
                "note": 40,
                "channel": 0,
                "velocity": 88,
                "time": 0
            },
            {
                "type": "note_on",
                "note": 47,
                "channel": 0,
                "velocity": 88,
                "time": 0
            },
            {
                "type": "note_on",
                "note": 52,
                "channel": 0,
                "velocity": 88,
                "time": 0
            },
            {
                "type": "note_off",
                "note": 40,
                "channel": 0,
                "velocity": 88,
                "time": 240
            },
            {
                "type": "note_off",
                "note": 47,
                "channel": 0,
                "velocity": 88,
                "time": 0
            },
            {
                "type": "note_off",
                "note": 52,
                "channel": 0,
                "velocity": 88,
                "time": 0
            },
            {
                "type": "note_on",
                "note": 47,
                "channel": 0,
                "velocity": 88,
                "time": 0
            },
            {
                "type": "note_off",
                "note": 47,
                "channel": 0,
                "velocity": 88,
                "time": 120
            },
            {
                "type": "note_on",
                "note": 52,
                "channel": 0,
                "velocity": 88,
                "time": 0
            },
            {
                "type": "note_off",
                "note": 52,
                "channel": 0,
                "velocity": 88,
                "time": 120
            },
            {
                "type": "note_on",
                "note": 64,
                "channel": 0,
                "velocity": 76,
                "time": 0
            },
            {
                "type": "note_off",
                "note": 64,
                "channel": 0,
                "velocity": 76,
                "time": 120
            },
            {
                "type": "note_on",
                "note": 59,
                "channel": 0,
                "velocity": 76,
                "time": 0
            },
            {
                "type": "note_off",
                "note": 59,
                "channel": 0,
                "velocity": 76,
                "time": 120
            },
            {
                "type": "note_on",
                "note": 56,
                "channel": 0,
                "velocity": 76,
                "time": 0
            },
            {
                "type": "note_off",
                "note": 56,
                "channel": 0,
                "velocity": 76,
                "time": 120
            },
            {
                "type": "note_on",
                "note": 52,
                "channel": 0,
                "velocity": 76,
                "time": 0
            },
            {
                "type": "note_off",
                "note": 52,
                "channel": 0,
                "velocity": 76,
                "time": 120
            },
            {
                "type": "note_on",
                "note": 40,
                "channel": 0,
                "velocity": 82,
                "time": 0
            },
            {
                "type": "note_off",
                "note": 40,
                "channel": 0,
                "velocity": 82,
                "time": 120
            },
            {
                "type": "note_on",
                "note": 47,
                "channel": 0,
                "velocity": 82,
                "time": 0
            },
            {
                "type": "note_off",
                "note": 47,
                "channel": 0,
                "velocity": 82,
                "time": 120
            },
            {
                "type": "note_on",
                "note": 52,
                "channel": 0,
                "velocity": 82,
                "time": 0
            },
            {
                "type": "note_off",
                "note": 52,
                "channel": 0,
                "velocity": 82,
                "time": 120
            },
            {
                "type": "note_on",
                "note": 52,
                "channel": 0,
                "velocity": 82,
                "time": 0
            },
            {
                "type": "note_off",
                "note": 52,
                "channel": 0,
                "velocity": 82,
                "time": 120
            },
            {
                "type": "note_on",
                "note": 64,
                "channel": 0,
                "velocity": 76,
                "time": 0
            },
            {
                "type": "note_off",
                "note": 64,
                "channel": 0,
                "velocity": 76,
                "time": 120
            },
            {
                "type": "note_on",
                "note": 59,
                "channel": 0,
                "velocity": 76,
                "time": 0
            },
            {
                "type": "note_off",
                "note": 59,
                "channel": 0,
                "velocity": 76,
                "time": 120
            },
            {
                "type": "note_on",
                "note": 56,
                "channel": 0,
                "velocity": 76,
                "time": 0
            },
            {
                "type": "note_off",
                "note": 56,
                "channel": 0,
                "velocity": 76,
                "time": 120
            },
            {
                "type": "note_on",
                "note": 52,
                "channel": 0,
                "velocity": 76,
                "time": 0
            },
            {
                "type": "note_off",
                "note": 52,
                "channel": 0,
                "velocity": 76,
                "time": 120
            },
            {
                "type": "note_on",
                "note": 42,
                "channel": 0,
                "velocity": 88,
                "time": 0
            },
            {
                "type": "note_on",
                "note": 49,
                "channel": 0,
                "velocity": 88,
                "time": 0
            },
            {
                "type": "note_on",
                "note": 54,
                "channel": 0,
                "velocity": 88,
                "time": 0
            },
            {
                "type": "note_off",
                "note": 42,
                "channel": 0,
                "velocity": 88,
                "time": 240
            },
            {
                "type": "note_off",
                "note": 49,
                "channel": 0,
                "velocity": 88,
                "time": 0
            },
            {
                "type": "note_off",
                "note": 54,
                "channel": 0,
                "velocity": 88,
                "time": 0
            },
            {
                "type": "note_on",
                "note": 42,
                "channel": 0,
                "velocity": 88,
                "time": 0
            },
            {
                "type": "note_off",
                "note": 42,
                "channel": 0,
                "velocity": 88,
                "time": 120
            },
            {
                "type": "note_on",
                "note": 49,
                "channel": 0,
                "velocity": 88,
                "time": 0
            },
            {
                "type": "note_off",
                "note": 49,
                "channel": 0,
                "velocity": 88,
                "time": 120
            },
            {
                "type": "note_on",
                "note": 54,
                "channel": 0,
                "velocity": 76,
                "time": 0
            },
            {
                "type": "note_off",
                "note": 54,
                "channel": 0,
                "velocity": 76,
                "time": 120
            },
            {
                "type": "note_on",
                "note": 49,
                "channel": 0,
                "velocity": 76,
                "time": 0
            },
            {
                "type": "note_off",
                "note": 49,
                "channel": 0,
                "velocity": 76,
                "time": 120
            },
            {
                "type": "note_on",
                "note": 42,
                "channel": 0,
                "velocity": 76,
                "time": 0
            },
            {
                "type": "note_off",
                "note": 42,
                "channel": 0,
                "velocity": 76,
                "time": 120
            },
            {
                "type": "note_on",
                "note": 54,
                "channel": 0,
                "velocity": 76,
                "time": 0
            },
            {
                "type": "note_off",
                "note": 54,
                "channel": 0,
                "velocity": 76,
                "time": 120
            },
            {
                "type": "note_on",
                "note": 42,
                "channel": 0,
                "velocity": 82,
                "time": 0
            },
            {
                "type": "note_off",
                "note": 42,
                "channel": 0,
                "velocity": 82,
                "time": 240
            },
            {
                "type": "note_on",
                "note": 42,
                "channel": 0,
                "velocity": 82,
                "time": 0
            },
            {
                "type": "note_off",
                "note": 42,
                "channel": 0,
                "velocity": 82,
                "time": 120
            },
            {
                "type": "note_on",
                "note": 49,
                "channel": 0,
                "velocity": 82,
                "time": 0
            },
            {
                "type": "note_off",
                "note": 49,
                "channel": 0,
                "velocity": 82,
                "time": 120
            },
            {
                "type": "note_on",
                "note": 54,
                "channel": 0,
                "velocity": 76,
                "time": 0
            },
            {
                "type": "note_off",
                "note": 54,
                "channel": 0,
                "velocity": 76,
                "time": 120
            },
            {
                "type": "note_on",
                "note": 49,
                "channel": 0,
                "velocity": 76,
                "time": 0
            },
            {
                "type": "note_off",
                "note": 49,
                "channel": 0,
                "velocity": 76,
                "time": 120
            },
            {
                "type": "note_on",
                "note": 42,
                "channel": 0,
                "velocity": 76,
                "time": 0
            },
            {
                "type": "note_off",
                "note": 42,
                "channel": 0,
                "velocity": 76,
                "time": 120
            },
            {
                "type": "note_on",
                "note": 42,
                "channel": 0,
                "velocity": 76,
                "time": 0
            },
            {
                "type": "note_off",
                "note": 42,
                "channel": 0,
                "velocity": 76,
                "time": 120
            },
            {
                "type": "note_on",
                "note": 30,
                "channel": 0,
                "velocity": 88,
                "time": 0
            },
            {
                "type": "note_on",
                "note": 42,
                "channel": 0,
                "velocity": 88,
                "time": 0
            },
            {
                "type": "note_off",
                "note": 30,
                "channel": 0,
                "velocity": 88,
                "time": 240
            },
            {
                "type": "note_off",
                "note": 42,
                "channel": 0,
                "velocity": 88,
                "time": 0
            },
            {
                "type": "note_on",
                "note": 42,
                "channel": 0,
                "velocity": 82,
                "time": 720
            },
            {
                "type": "note_off",
                "note": 42,
                "channel": 0,
                "velocity": 82,
                "time": 240
            },
            {
                "type": "note_on",
                "note": 49,
                "channel": 0,
                "velocity": 82,
                "time": 0
            },
            {
                "type": "note_on",
                "note": 54,
                "channel": 0,
                "velocity": 82,
                "time": 0
            },
            {
                "type": "note_off",
                "note": 49,
                "channel": 0,
                "velocity": 82,
                "time": 120
            },
            {
                "type": "note_off",
                "note": 54,
                "channel": 0,
                "velocity": 82,
                "time": 0
            },
            {
                "type": "note_on",
                "note": 42,
                "channel": 0,
                "velocity": 82,
                "time": 0
            },
            {
                "type": "note_off",
                "note": 42,
                "channel": 0,
                "velocity": 82,
                "time": 120
            },
            {
                "type": "note_on",
                "note": 42,
                "channel": 0,
                "velocity": 76,
                "time": 0
            },
            {
                "type": "note_off",
                "note": 42,
                "channel": 0,
                "velocity": 76,
                "time": 120
            },
            {
                "type": "note_on",
                "note": 42,
                "channel": 0,
                "velocity": 76,
                "time": 0
            },
            {
                "type": "note_off",
                "note": 42,
                "channel": 0,
                "velocity": 76,
                "time": 120
            },
            {
                "type": "note_on",
                "note": 30,
                "channel": 0,
                "velocity": 76,
                "time": 0
            },
            {
                "type": "note_off",
                "note": 30,
                "channel": 0,
                "velocity": 76,
                "time": 240
            },
            {
                "type": "note_on",
                "note": 38,
                "channel": 0,
                "velocity": 88,
                "time": 0
            },
            {
                "type": "note_on",
                "note": 50,
                "channel": 0,
                "velocity": 88,
                "time": 0
            },
            {
                "type": "note_off",
                "note": 38,
                "channel": 0,
                "velocity": 88,
                "time": 360
            },
            {
                "type": "note_off",
                "note": 50,
                "channel": 0,
                "velocity": 88,
                "time": 0
            },
            {
                "type": "note_on",
                "note": 38,
                "channel": 0,
                "velocity": 88,
                "time": 0
            },
            {
                "type": "note_off",
                "note": 38,
                "channel": 0,
                "velocity": 88,
                "time": 120
            },
            {
                "type": "note_on",
                "note": 50,
                "channel": 0,
                "velocity": 76,
                "time": 0
            },
            {
                "type": "note_off",
                "note": 50,
                "channel": 0,
                "velocity": 76,
                "time": 240
            },
            {
                "type": "note_on",
                "note": 38,
                "channel": 0,
                "velocity": 76,
                "time": 0
            },
            {
                "type": "note_off",
                "note": 38,
                "channel": 0,
                "velocity": 76,
                "time": 480
            },
            {
                "type": "note_on",
                "note": 38,
                "channel": 0,
                "velocity": 82,
                "time": 0
            },
            {
                "type": "note_off",
                "note": 38,
                "channel": 0,
                "velocity": 82,
                "time": 240
            },
            {
                "type": "note_on",
                "note": 50,
                "channel": 0,
                "velocity": 76,
                "time": 0
            },
            {
                "type": "note_off",
                "note": 50,
                "channel": 0,
                "velocity": 76,
                "time": 240
            },
            {
                "type": "note_on",
                "note": 38,
                "channel": 0,
                "velocity": 76,
                "time": 0
            },
            {
                "type": "note_off",
                "note": 38,
                "channel": 0,
                "velocity": 76,
                "time": 240
            },
            {
                "type": "note_on",
                "note": 40,
                "channel": 0,
                "velocity": 88,
                "time": 0
            },
            {
                "type": "note_on",
                "note": 52,
                "channel": 0,
                "velocity": 88,
                "time": 0
            },
            {
                "type": "note_off",
                "note": 40,
                "channel": 0,
                "velocity": 88,
                "time": 360
            },
            {
                "type": "note_off",
                "note": 52,
                "channel": 0,
                "velocity": 88,
                "time": 0
            },
            {
                "type": "note_on",
                "note": 40,
                "channel": 0,
                "velocity": 88,
                "time": 0
            },
            {
                "type": "note_off",
                "note": 40,
                "channel": 0,
                "velocity": 88,
                "time": 120
            },
            {
                "type": "note_on",
                "note": 52,
                "channel": 0,
                "velocity": 76,
                "time": 0
            },
            {
                "type": "note_off",
                "note": 52,
                "channel": 0,
                "velocity": 76,
                "time": 240
            },
            {
                "type": "note_on",
                "note": 40,
                "channel": 0,
                "velocity": 76,
                "time": 0
            },
            {
                "type": "note_off",
                "note": 40,
                "channel": 0,
                "velocity": 76,
                "time": 480
            },
            {
                "type": "note_on",
                "note": 40,
                "channel": 0,
                "velocity": 82,
                "time": 0
            },
            {
                "type": "note_off",
                "note": 40,
                "channel": 0,
                "velocity": 82,
                "time": 240
            },
            {
                "type": "note_on",
                "note": 52,
                "channel": 0,
                "velocity": 76,
                "time": 0
            },
            {
                "type": "note_off",
                "note": 52,
                "channel": 0,
                "velocity": 76,
                "time": 120
            },
            {
                "type": "note_on",
                "note": 40,
                "channel": 0,
                "velocity": 76,
                "time": 0
            },
            {
                "type": "note_off",
                "note": 40,
                "channel": 0,
                "velocity": 76,
                "time": 360
            },
            {
                "type": "note_on",
                "note": 42,
                "channel": 0,
                "velocity": 88,
                "time": 0
            },
            {
                "type": "note_on",
                "note": 54,
                "channel": 0,
                "velocity": 88,
                "time": 0
            },
            {
                "type": "note_off",
                "note": 42,
                "channel": 0,
                "velocity": 88,
                "time": 360
            },
            {
                "type": "note_off",
                "note": 54,
                "channel": 0,
                "velocity": 88,
                "time": 0
            },
            {
                "type": "note_on",
                "note": 42,
                "channel": 0,
                "velocity": 88,
                "time": 0
            },
            {
                "type": "note_off",
                "note": 42,
                "channel": 0,
                "velocity": 88,
                "time": 120
            },
            {
                "type": "note_on",
                "note": 54,
                "channel": 0,
                "velocity": 76,
                "time": 0
            },
            {
                "type": "note_off",
                "note": 54,
                "channel": 0,
                "velocity": 76,
                "time": 240
            },
            {
                "type": "note_on",
                "note": 42,
                "channel": 0,
                "velocity": 76,
                "time": 0
            },
            {
                "type": "note_off",
                "note": 42,
                "channel": 0,
                "velocity": 76,
                "time": 480
            },
            {
                "type": "note_on",
                "note": 42,
                "channel": 0,
                "velocity": 82,
                "time": 0
            },
            {
                "type": "note_off",
                "note": 42,
                "channel": 0,
                "velocity": 82,
                "time": 240
            },
            {
                "type": "note_on",
                "note": 54,
                "channel": 0,
                "velocity": 76,
                "time": 0
            },
            {
                "type": "note_off",
                "note": 54,
                "channel": 0,
                "velocity": 76,
                "time": 240
            },
            {
                "type": "note_on",
                "note": 42,
                "channel": 0,
                "velocity": 76,
                "time": 0
            },
            {
                "type": "note_off",
                "note": 42,
                "channel": 0,
                "velocity": 76,
                "time": 240
            },
            {
                "type": "note_on",
                "note": 42,
                "channel": 0,
                "velocity": 88,
                "time": 0
            },
            {
                "type": "note_on",
                "note": 54,
                "channel": 0,
                "velocity": 88,
                "time": 0
            },
            {
                "type": "note_off",
                "note": 42,
                "channel": 0,
                "velocity": 88,
                "time": 360
            },
            {
                "type": "note_off",
                "note": 54,
                "channel": 0,
                "velocity": 88,
                "time": 0
            },
            {
                "type": "note_on",
                "note": 42,
                "channel": 0,
                "velocity": 88,
                "time": 0
            },
            {
                "type": "note_off",
                "note": 42,
                "channel": 0,
                "velocity": 88,
                "time": 120
            },
            {
                "type": "note_on",
                "note": 54,
                "channel": 0,
                "velocity": 76,
                "time": 0
            },
            {
                "type": "note_off",
                "note": 54,
                "channel": 0,
                "velocity": 76,
                "time": 240
            },
            {
                "type": "note_on",
                "note": 42,
                "channel": 0,
                "velocity": 76,
                "time": 0
            },
            {
                "type": "note_off",
                "note": 42,
                "channel": 0,
                "velocity": 76,
                "time": 480
            },
            {
                "type": "note_on",
                "note": 42,
                "channel": 0,
                "velocity": 82,
                "time": 0
            },
            {
                "type": "note_off",
                "note": 42,
                "channel": 0,
                "velocity": 82,
                "time": 240
            },
            {
                "type": "note_on",
                "note": 54,
                "channel": 0,
                "velocity": 76,
                "time": 0
            },
            {
                "type": "note_off",
                "note": 54,
                "channel": 0,
                "velocity": 76,
                "time": 120
            },
            {
                "type": "note_on",
                "note": 42,
                "channel": 0,
                "velocity": 76,
                "time": 0
            },
            {
                "type": "note_off",
                "note": 42,
                "channel": 0,
                "velocity": 76,
                "time": 360
            },
            {
                "type": "note_on",
                "note": 50,
                "channel": 0,
                "velocity": 88,
                "time": 360
            },
            {
                "type": "note_off",
                "note": 50,
                "channel": 0,
                "velocity": 88,
                "time": 120
            },
            {
                "type": "note_on",
                "note": 54,
                "channel": 0,
                "velocity": 76,
                "time": 0
            },
            {
                "type": "note_on",
                "note": 57,
                "channel": 0,
                "velocity": 76,
                "time": 0
            },
            {
                "type": "note_on",
                "note": 62,
                "channel": 0,
                "velocity": 76,
                "time": 0
            },
            {
                "type": "note_off",
                "note": 54,
                "channel": 0,
                "velocity": 76,
                "time": 240
            },
            {
                "type": "note_off",
                "note": 57,
                "channel": 0,
                "velocity": 76,
                "time": 0
            },
            {
                "type": "note_off",
                "note": 62,
                "channel": 0,
                "velocity": 76,
                "time": 0
            },
            {
                "type": "note_on",
                "note": 50,
                "channel": 0,
                "velocity": 76,
                "time": 0
            },
            {
                "type": "note_off",
                "note": 50,
                "channel": 0,
                "velocity": 76,
                "time": 240
            },
            {
                "type": "note_on",
                "note": 38,
                "channel": 0,
                "velocity": 82,
                "time": 0
            },
            {
                "type": "note_off",
                "note": 38,
                "channel": 0,
                "velocity": 82,
                "time": 120
            },
            {
                "type": "note_on",
                "note": 50,
                "channel": 0,
                "velocity": 82,
                "time": 0
            },
            {
                "type": "note_off",
                "note": 50,
                "channel": 0,
                "velocity": 82,
                "time": 360
            },
            {
                "type": "note_on",
                "note": 54,
                "channel": 0,
                "velocity": 76,
                "time": 0
            },
            {
                "type": "note_on",
                "note": 57,
                "channel": 0,
                "velocity": 76,
                "time": 0
            },
            {
                "type": "note_on",
                "note": 62,
                "channel": 0,
                "velocity": 76,
                "time": 0
            },
            {
                "type": "note_off",
                "note": 54,
                "channel": 0,
                "velocity": 76,
                "time": 240
            },
            {
                "type": "note_off",
                "note": 57,
                "channel": 0,
                "velocity": 76,
                "time": 0
            },
            {
                "type": "note_off",
                "note": 62,
                "channel": 0,
                "velocity": 76,
                "time": 0
            },
            {
                "type": "note_on",
                "note": 50,
                "channel": 0,
                "velocity": 76,
                "time": 0
            },
            {
                "type": "note_off",
                "note": 50,
                "channel": 0,
                "velocity": 76,
                "time": 240
            },
            {
                "type": "note_on",
                "note": 40,
                "channel": 0,
                "velocity": 88,
                "time": 0
            },
            {
                "type": "note_on",
                "note": 52,
                "channel": 0,
                "velocity": 88,
                "time": 0
            },
            {
                "type": "note_off",
                "note": 40,
                "channel": 0,
                "velocity": 88,
                "time": 120
            },
            {
                "type": "note_off",
                "note": 52,
                "channel": 0,
                "velocity": 88,
                "time": 0
            },
            {
                "type": "note_on",
                "note": 40,
                "channel": 0,
                "velocity": 88,
                "time": 0
            },
            {
                "type": "note_off",
                "note": 40,
                "channel": 0,
                "velocity": 88,
                "time": 240
            },
            {
                "type": "note_on",
                "note": 52,
                "channel": 0,
                "velocity": 88,
                "time": 0
            },
            {
                "type": "note_off",
                "note": 52,
                "channel": 0,
                "velocity": 88,
                "time": 120
            },
            {
                "type": "note_on",
                "note": 56,
                "channel": 0,
                "velocity": 76,
                "time": 0
            },
            {
                "type": "note_on",
                "note": 59,
                "channel": 0,
                "velocity": 76,
                "time": 0
            },
            {
                "type": "note_on",
                "note": 64,
                "channel": 0,
                "velocity": 76,
                "time": 0
            },
            {
                "type": "note_off",
                "note": 56,
                "channel": 0,
                "velocity": 76,
                "time": 240
            },
            {
                "type": "note_off",
                "note": 59,
                "channel": 0,
                "velocity": 76,
                "time": 0
            },
            {
                "type": "note_off",
                "note": 64,
                "channel": 0,
                "velocity": 76,
                "time": 0
            },
            {
                "type": "note_on",
                "note": 52,
                "channel": 0,
                "velocity": 76,
                "time": 0
            },
            {
                "type": "note_off",
                "note": 52,
                "channel": 0,
                "velocity": 76,
                "time": 240
            },
            {
                "type": "note_on",
                "note": 40,
                "channel": 0,
                "velocity": 82,
                "time": 0
            },
            {
                "type": "note_off",
                "note": 40,
                "channel": 0,
                "velocity": 82,
                "time": 120
            },
            {
                "type": "note_on",
                "note": 52,
                "channel": 0,
                "velocity": 82,
                "time": 0
            },
            {
                "type": "note_off",
                "note": 52,
                "channel": 0,
                "velocity": 82,
                "time": 360
            },
            {
                "type": "note_on",
                "note": 56,
                "channel": 0,
                "velocity": 76,
                "time": 0
            },
            {
                "type": "note_on",
                "note": 59,
                "channel": 0,
                "velocity": 76,
                "time": 0
            },
            {
                "type": "note_on",
                "note": 64,
                "channel": 0,
                "velocity": 76,
                "time": 0
            },
            {
                "type": "note_off",
                "note": 56,
                "channel": 0,
                "velocity": 76,
                "time": 240
            },
            {
                "type": "note_off",
                "note": 59,
                "channel": 0,
                "velocity": 76,
                "time": 0
            },
            {
                "type": "note_off",
                "note": 64,
                "channel": 0,
                "velocity": 76,
                "time": 0
            },
            {
                "type": "note_on",
                "note": 52,
                "channel": 0,
                "velocity": 76,
                "time": 0
            },
            {
                "type": "note_off",
                "note": 52,
                "channel": 0,
                "velocity": 76,
                "time": 240
            },
            {
                "type": "note_on",
                "note": 42,
                "channel": 0,
                "velocity": 88,
                "time": 0
            },
            {
                "type": "note_on",
                "note": 54,
                "channel": 0,
                "velocity": 88,
                "time": 0
            },
            {
                "type": "note_off",
                "note": 42,
                "channel": 0,
                "velocity": 88,
                "time": 120
            },
            {
                "type": "note_off",
                "note": 54,
                "channel": 0,
                "velocity": 88,
                "time": 0
            },
            {
                "type": "note_on",
                "note": 42,
                "channel": 0,
                "velocity": 88,
                "time": 0
            },
            {
                "type": "note_off",
                "note": 42,
                "channel": 0,
                "velocity": 88,
                "time": 240
            },
            {
                "type": "note_on",
                "note": 54,
                "channel": 0,
                "velocity": 88,
                "time": 0
            },
            {
                "type": "note_off",
                "note": 54,
                "channel": 0,
                "velocity": 88,
                "time": 120
            },
            {
                "type": "note_on",
                "note": 57,
                "channel": 0,
                "velocity": 76,
                "time": 0
            },
            {
                "type": "note_on",
                "note": 61,
                "channel": 0,
                "velocity": 76,
                "time": 0
            },
            {
                "type": "note_off",
                "note": 57,
                "channel": 0,
                "velocity": 76,
                "time": 240
            },
            {
                "type": "note_off",
                "note": 61,
                "channel": 0,
                "velocity": 76,
                "time": 0
            },
            {
                "type": "note_on",
                "note": 54,
                "channel": 0,
                "velocity": 76,
                "time": 0
            },
            {
                "type": "note_off",
                "note": 54,
                "channel": 0,
                "velocity": 76,
                "time": 240
            },
            {
                "type": "note_on",
                "note": 42,
                "channel": 0,
                "velocity": 82,
                "time": 0
            },
            {
                "type": "note_off",
                "note": 42,
                "channel": 0,
                "velocity": 82,
                "time": 120
            },
            {
                "type": "note_on",
                "note": 54,
                "channel": 0,
                "velocity": 82,
                "time": 0
            },
            {
                "type": "note_off",
                "note": 54,
                "channel": 0,
                "velocity": 82,
                "time": 360
            },
            {
                "type": "note_on",
                "note": 57,
                "channel": 0,
                "velocity": 76,
                "time": 0
            },
            {
                "type": "note_on",
                "note": 61,
                "channel": 0,
                "velocity": 76,
                "time": 0
            },
            {
                "type": "note_off",
                "note": 57,
                "channel": 0,
                "velocity": 76,
                "time": 240
            },
            {
                "type": "note_off",
                "note": 61,
                "channel": 0,
                "velocity": 76,
                "time": 0
            },
            {
                "type": "note_on",
                "note": 54,
                "channel": 0,
                "velocity": 76,
                "time": 0
            },
            {
                "type": "note_off",
                "note": 54,
                "channel": 0,
                "velocity": 76,
                "time": 240
            },
            {
                "type": "note_on",
                "note": 42,
                "channel": 0,
                "velocity": 88,
                "time": 0
            },
            {
                "type": "note_on",
                "note": 54,
                "channel": 0,
                "velocity": 88,
                "time": 0
            },
            {
                "type": "note_off",
                "note": 42,
                "channel": 0,
                "velocity": 88,
                "time": 120
            },
            {
                "type": "note_off",
                "note": 54,
                "channel": 0,
                "velocity": 88,
                "time": 0
            },
            {
                "type": "note_on",
                "note": 42,
                "channel": 0,
                "velocity": 88,
                "time": 0
            },
            {
                "type": "note_off",
                "note": 42,
                "channel": 0,
                "velocity": 88,
                "time": 240
            },
            {
                "type": "note_on",
                "note": 54,
                "channel": 0,
                "velocity": 88,
                "time": 0
            },
            {
                "type": "note_off",
                "note": 54,
                "channel": 0,
                "velocity": 88,
                "time": 120
            },
            {
                "type": "note_on",
                "note": 57,
                "channel": 0,
                "velocity": 76,
                "time": 0
            },
            {
                "type": "note_on",
                "note": 61,
                "channel": 0,
                "velocity": 76,
                "time": 0
            },
            {
                "type": "note_off",
                "note": 57,
                "channel": 0,
                "velocity": 76,
                "time": 240
            },
            {
                "type": "note_off",
                "note": 61,
                "channel": 0,
                "velocity": 76,
                "time": 0
            },
            {
                "type": "note_on",
                "note": 54,
                "channel": 0,
                "velocity": 76,
                "time": 0
            },
            {
                "type": "note_off",
                "note": 54,
                "channel": 0,
                "velocity": 76,
                "time": 240
            },
            {
                "type": "note_on",
                "note": 38,
                "channel": 0,
                "velocity": 88,
                "time": 960
            },
            {
                "type": "note_on",
                "note": 50,
                "channel": 0,
                "velocity": 88,
                "time": 0
            },
            {
                "type": "note_off",
                "note": 38,
                "channel": 0,
                "velocity": 88,
                "time": 120
            },
            {
                "type": "note_off",
                "note": 50,
                "channel": 0,
                "velocity": 88,
                "time": 0
            },
            {
                "type": "note_on",
                "note": 38,
                "channel": 0,
                "velocity": 88,
                "time": 0
            },
            {
                "type": "note_off",
                "note": 38,
                "channel": 0,
                "velocity": 88,
                "time": 240
            },
            {
                "type": "note_on",
                "note": 50,
                "channel": 0,
                "velocity": 88,
                "time": 0
            },
            {
                "type": "note_off",
                "note": 50,
                "channel": 0,
                "velocity": 88,
                "time": 120
            },
            {
                "type": "note_on",
                "note": 54,
                "channel": 0,
                "velocity": 76,
                "time": 0
            },
            {
                "type": "note_on",
                "note": 57,
                "channel": 0,
                "velocity": 76,
                "time": 0
            },
            {
                "type": "note_on",
                "note": 62,
                "channel": 0,
                "velocity": 76,
                "time": 0
            },
            {
                "type": "note_off",
                "note": 54,
                "channel": 0,
                "velocity": 76,
                "time": 240
            },
            {
                "type": "note_off",
                "note": 57,
                "channel": 0,
                "velocity": 76,
                "time": 0
            },
            {
                "type": "note_off",
                "note": 62,
                "channel": 0,
                "velocity": 76,
                "time": 0
            },
            {
                "type": "note_on",
                "note": 50,
                "channel": 0,
                "velocity": 76,
                "time": 0
            },
            {
                "type": "note_off",
                "note": 50,
                "channel": 0,
                "velocity": 76,
                "time": 240
            },
            {
                "type": "note_on",
                "note": 38,
                "channel": 0,
                "velocity": 82,
                "time": 0
            },
            {
                "type": "note_off",
                "note": 38,
                "channel": 0,
                "velocity": 82,
                "time": 120
            },
            {
                "type": "note_on",
                "note": 50,
                "channel": 0,
                "velocity": 82,
                "time": 0
            },
            {
                "type": "note_off",
                "note": 50,
                "channel": 0,
                "velocity": 82,
                "time": 360
            },
            {
                "type": "note_on",
                "note": 54,
                "channel": 0,
                "velocity": 76,
                "time": 0
            },
            {
                "type": "note_on",
                "note": 57,
                "channel": 0,
                "velocity": 76,
                "time": 0
            },
            {
                "type": "note_on",
                "note": 62,
                "channel": 0,
                "velocity": 76,
                "time": 0
            },
            {
                "type": "note_off",
                "note": 54,
                "channel": 0,
                "velocity": 76,
                "time": 240
            },
            {
                "type": "note_off",
                "note": 57,
                "channel": 0,
                "velocity": 76,
                "time": 0
            },
            {
                "type": "note_off",
                "note": 62,
                "channel": 0,
                "velocity": 76,
                "time": 0
            },
            {
                "type": "note_on",
                "note": 50,
                "channel": 0,
                "velocity": 76,
                "time": 0
            },
            {
                "type": "note_off",
                "note": 50,
                "channel": 0,
                "velocity": 76,
                "time": 240
            },
            {
                "type": "note_on",
                "note": 40,
                "channel": 0,
                "velocity": 88,
                "time": 0
            },
            {
                "type": "note_on",
                "note": 52,
                "channel": 0,
                "velocity": 88,
                "time": 0
            },
            {
                "type": "note_off",
                "note": 40,
                "channel": 0,
                "velocity": 88,
                "time": 120
            },
            {
                "type": "note_off",
                "note": 52,
                "channel": 0,
                "velocity": 88,
                "time": 0
            },
            {
                "type": "note_on",
                "note": 40,
                "channel": 0,
                "velocity": 88,
                "time": 0
            },
            {
                "type": "note_off",
                "note": 40,
                "channel": 0,
                "velocity": 88,
                "time": 240
            },
            {
                "type": "note_on",
                "note": 52,
                "channel": 0,
                "velocity": 88,
                "time": 0
            },
            {
                "type": "note_off",
                "note": 52,
                "channel": 0,
                "velocity": 88,
                "time": 120
            },
            {
                "type": "note_on",
                "note": 56,
                "channel": 0,
                "velocity": 76,
                "time": 0
            },
            {
                "type": "note_on",
                "note": 59,
                "channel": 0,
                "velocity": 76,
                "time": 0
            },
            {
                "type": "note_on",
                "note": 64,
                "channel": 0,
                "velocity": 76,
                "time": 0
            },
            {
                "type": "note_off",
                "note": 56,
                "channel": 0,
                "velocity": 76,
                "time": 240
            },
            {
                "type": "note_off",
                "note": 59,
                "channel": 0,
                "velocity": 76,
                "time": 0
            },
            {
                "type": "note_off",
                "note": 64,
                "channel": 0,
                "velocity": 76,
                "time": 0
            },
            {
                "type": "note_on",
                "note": 52,
                "channel": 0,
                "velocity": 76,
                "time": 0
            },
            {
                "type": "note_off",
                "note": 52,
                "channel": 0,
                "velocity": 76,
                "time": 240
            },
            {
                "type": "note_on",
                "note": 40,
                "channel": 0,
                "velocity": 82,
                "time": 0
            },
            {
                "type": "note_off",
                "note": 40,
                "channel": 0,
                "velocity": 82,
                "time": 120
            },
            {
                "type": "note_on",
                "note": 52,
                "channel": 0,
                "velocity": 82,
                "time": 0
            },
            {
                "type": "note_off",
                "note": 52,
                "channel": 0,
                "velocity": 82,
                "time": 360
            },
            {
                "type": "note_on",
                "note": 56,
                "channel": 0,
                "velocity": 76,
                "time": 0
            },
            {
                "type": "note_on",
                "note": 59,
                "channel": 0,
                "velocity": 76,
                "time": 0
            },
            {
                "type": "note_on",
                "note": 64,
                "channel": 0,
                "velocity": 76,
                "time": 0
            },
            {
                "type": "note_off",
                "note": 56,
                "channel": 0,
                "velocity": 76,
                "time": 240
            },
            {
                "type": "note_off",
                "note": 59,
                "channel": 0,
                "velocity": 76,
                "time": 0
            },
            {
                "type": "note_off",
                "note": 64,
                "channel": 0,
                "velocity": 76,
                "time": 0
            },
            {
                "type": "note_on",
                "note": 52,
                "channel": 0,
                "velocity": 76,
                "time": 0
            },
            {
                "type": "note_off",
                "note": 52,
                "channel": 0,
                "velocity": 76,
                "time": 240
            },
            {
                "type": "note_on",
                "note": 42,
                "channel": 0,
                "velocity": 88,
                "time": 0
            },
            {
                "type": "note_on",
                "note": 54,
                "channel": 0,
                "velocity": 88,
                "time": 0
            },
            {
                "type": "note_off",
                "note": 42,
                "channel": 0,
                "velocity": 88,
                "time": 120
            },
            {
                "type": "note_off",
                "note": 54,
                "channel": 0,
                "velocity": 88,
                "time": 0
            },
            {
                "type": "note_on",
                "note": 42,
                "channel": 0,
                "velocity": 88,
                "time": 0
            },
            {
                "type": "note_off",
                "note": 42,
                "channel": 0,
                "velocity": 88,
                "time": 240
            },
            {
                "type": "note_on",
                "note": 54,
                "channel": 0,
                "velocity": 88,
                "time": 0
            },
            {
                "type": "note_off",
                "note": 54,
                "channel": 0,
                "velocity": 88,
                "time": 120
            },
            {
                "type": "note_on",
                "note": 57,
                "channel": 0,
                "velocity": 76,
                "time": 0
            },
            {
                "type": "note_on",
                "note": 61,
                "channel": 0,
                "velocity": 76,
                "time": 0
            },
            {
                "type": "note_off",
                "note": 57,
                "channel": 0,
                "velocity": 76,
                "time": 240
            },
            {
                "type": "note_off",
                "note": 61,
                "channel": 0,
                "velocity": 76,
                "time": 0
            },
            {
                "type": "note_on",
                "note": 54,
                "channel": 0,
                "velocity": 76,
                "time": 0
            },
            {
                "type": "note_off",
                "note": 54,
                "channel": 0,
                "velocity": 76,
                "time": 240
            },
            {
                "type": "note_on",
                "note": 42,
                "channel": 0,
                "velocity": 82,
                "time": 0
            },
            {
                "type": "note_off",
                "note": 42,
                "channel": 0,
                "velocity": 82,
                "time": 120
            },
            {
                "type": "note_on",
                "note": 54,
                "channel": 0,
                "velocity": 82,
                "time": 0
            },
            {
                "type": "note_off",
                "note": 54,
                "channel": 0,
                "velocity": 82,
                "time": 360
            },
            {
                "type": "note_on",
                "note": 57,
                "channel": 0,
                "velocity": 76,
                "time": 0
            },
            {
                "type": "note_on",
                "note": 61,
                "channel": 0,
                "velocity": 76,
                "time": 0
            },
            {
                "type": "note_off",
                "note": 57,
                "channel": 0,
                "velocity": 76,
                "time": 240
            },
            {
                "type": "note_off",
                "note": 61,
                "channel": 0,
                "velocity": 76,
                "time": 0
            },
            {
                "type": "note_on",
                "note": 54,
                "channel": 0,
                "velocity": 76,
                "time": 0
            },
            {
                "type": "note_off",
                "note": 54,
                "channel": 0,
                "velocity": 76,
                "time": 240
            },
            {
                "type": "note_on",
                "note": 42,
                "channel": 0,
                "velocity": 88,
                "time": 0
            },
            {
                "type": "note_on",
                "note": 54,
                "channel": 0,
                "velocity": 88,
                "time": 0
            },
            {
                "type": "note_off",
                "note": 42,
                "channel": 0,
                "velocity": 88,
                "time": 120
            },
            {
                "type": "note_off",
                "note": 54,
                "channel": 0,
                "velocity": 88,
                "time": 0
            },
            {
                "type": "note_on",
                "note": 42,
                "channel": 0,
                "velocity": 88,
                "time": 0
            },
            {
                "type": "note_off",
                "note": 42,
                "channel": 0,
                "velocity": 88,
                "time": 240
            },
            {
                "type": "note_on",
                "note": 54,
                "channel": 0,
                "velocity": 88,
                "time": 0
            },
            {
                "type": "note_off",
                "note": 54,
                "channel": 0,
                "velocity": 88,
                "time": 120
            },
            {
                "type": "note_on",
                "note": 57,
                "channel": 0,
                "velocity": 76,
                "time": 0
            },
            {
                "type": "note_on",
                "note": 61,
                "channel": 0,
                "velocity": 76,
                "time": 0
            },
            {
                "type": "note_off",
                "note": 57,
                "channel": 0,
                "velocity": 76,
                "time": 240
            },
            {
                "type": "note_off",
                "note": 61,
                "channel": 0,
                "velocity": 76,
                "time": 0
            },
            {
                "type": "note_on",
                "note": 54,
                "channel": 0,
                "velocity": 76,
                "time": 0
            },
            {
                "type": "note_off",
                "note": 54,
                "channel": 0,
                "velocity": 76,
                "time": 240
            },
            {
                "type": "note_on",
                "note": 38,
                "channel": 0,
                "velocity": 88,
                "time": 960
            },
            {
                "type": "note_on",
                "note": 50,
                "channel": 0,
                "velocity": 88,
                "time": 0
            },
            {
                "type": "note_off",
                "note": 38,
                "channel": 0,
                "velocity": 88,
                "time": 120
            },
            {
                "type": "note_off",
                "note": 50,
                "channel": 0,
                "velocity": 88,
                "time": 0
            },
            {
                "type": "note_on",
                "note": 38,
                "channel": 0,
                "velocity": 88,
                "time": 0
            },
            {
                "type": "note_off",
                "note": 38,
                "channel": 0,
                "velocity": 88,
                "time": 240
            },
            {
                "type": "note_on",
                "note": 50,
                "channel": 0,
                "velocity": 88,
                "time": 0
            },
            {
                "type": "note_off",
                "note": 50,
                "channel": 0,
                "velocity": 88,
                "time": 120
            },
            {
                "type": "note_on",
                "note": 54,
                "channel": 0,
                "velocity": 76,
                "time": 0
            },
            {
                "type": "note_on",
                "note": 57,
                "channel": 0,
                "velocity": 76,
                "time": 0
            },
            {
                "type": "note_on",
                "note": 62,
                "channel": 0,
                "velocity": 76,
                "time": 0
            },
            {
                "type": "note_off",
                "note": 54,
                "channel": 0,
                "velocity": 76,
                "time": 240
            },
            {
                "type": "note_off",
                "note": 57,
                "channel": 0,
                "velocity": 76,
                "time": 0
            },
            {
                "type": "note_off",
                "note": 62,
                "channel": 0,
                "velocity": 76,
                "time": 0
            },
            {
                "type": "note_on",
                "note": 50,
                "channel": 0,
                "velocity": 76,
                "time": 0
            },
            {
                "type": "note_off",
                "note": 50,
                "channel": 0,
                "velocity": 76,
                "time": 240
            },
            {
                "type": "note_on",
                "note": 38,
                "channel": 0,
                "velocity": 82,
                "time": 0
            },
            {
                "type": "note_off",
                "note": 38,
                "channel": 0,
                "velocity": 82,
                "time": 120
            },
            {
                "type": "note_on",
                "note": 50,
                "channel": 0,
                "velocity": 82,
                "time": 0
            },
            {
                "type": "note_off",
                "note": 50,
                "channel": 0,
                "velocity": 82,
                "time": 360
            },
            {
                "type": "note_on",
                "note": 54,
                "channel": 0,
                "velocity": 76,
                "time": 0
            },
            {
                "type": "note_on",
                "note": 57,
                "channel": 0,
                "velocity": 76,
                "time": 0
            },
            {
                "type": "note_on",
                "note": 62,
                "channel": 0,
                "velocity": 76,
                "time": 0
            },
            {
                "type": "note_off",
                "note": 54,
                "channel": 0,
                "velocity": 76,
                "time": 240
            },
            {
                "type": "note_off",
                "note": 57,
                "channel": 0,
                "velocity": 76,
                "time": 0
            },
            {
                "type": "note_off",
                "note": 62,
                "channel": 0,
                "velocity": 76,
                "time": 0
            },
            {
                "type": "note_on",
                "note": 50,
                "channel": 0,
                "velocity": 76,
                "time": 0
            },
            {
                "type": "note_off",
                "note": 50,
                "channel": 0,
                "velocity": 76,
                "time": 240
            },
            {
                "type": "note_on",
                "note": 40,
                "channel": 0,
                "velocity": 88,
                "time": 0
            },
            {
                "type": "note_on",
                "note": 52,
                "channel": 0,
                "velocity": 88,
                "time": 0
            },
            {
                "type": "note_off",
                "note": 40,
                "channel": 0,
                "velocity": 88,
                "time": 120
            },
            {
                "type": "note_off",
                "note": 52,
                "channel": 0,
                "velocity": 88,
                "time": 0
            },
            {
                "type": "note_on",
                "note": 40,
                "channel": 0,
                "velocity": 88,
                "time": 0
            },
            {
                "type": "note_off",
                "note": 40,
                "channel": 0,
                "velocity": 88,
                "time": 240
            },
            {
                "type": "note_on",
                "note": 52,
                "channel": 0,
                "velocity": 88,
                "time": 0
            },
            {
                "type": "note_off",
                "note": 52,
                "channel": 0,
                "velocity": 88,
                "time": 120
            },
            {
                "type": "note_on",
                "note": 56,
                "channel": 0,
                "velocity": 76,
                "time": 0
            },
            {
                "type": "note_on",
                "note": 59,
                "channel": 0,
                "velocity": 76,
                "time": 0
            },
            {
                "type": "note_on",
                "note": 64,
                "channel": 0,
                "velocity": 76,
                "time": 0
            },
            {
                "type": "note_off",
                "note": 56,
                "channel": 0,
                "velocity": 76,
                "time": 240
            },
            {
                "type": "note_off",
                "note": 59,
                "channel": 0,
                "velocity": 76,
                "time": 0
            },
            {
                "type": "note_off",
                "note": 64,
                "channel": 0,
                "velocity": 76,
                "time": 0
            },
            {
                "type": "note_on",
                "note": 52,
                "channel": 0,
                "velocity": 76,
                "time": 0
            },
            {
                "type": "note_off",
                "note": 52,
                "channel": 0,
                "velocity": 76,
                "time": 240
            },
            {
                "type": "note_on",
                "note": 40,
                "channel": 0,
                "velocity": 82,
                "time": 0
            },
            {
                "type": "note_off",
                "note": 40,
                "channel": 0,
                "velocity": 82,
                "time": 120
            },
            {
                "type": "note_on",
                "note": 52,
                "channel": 0,
                "velocity": 82,
                "time": 0
            },
            {
                "type": "note_off",
                "note": 52,
                "channel": 0,
                "velocity": 82,
                "time": 360
            },
            {
                "type": "note_on",
                "note": 56,
                "channel": 0,
                "velocity": 76,
                "time": 0
            },
            {
                "type": "note_on",
                "note": 59,
                "channel": 0,
                "velocity": 76,
                "time": 0
            },
            {
                "type": "note_on",
                "note": 64,
                "channel": 0,
                "velocity": 76,
                "time": 0
            },
            {
                "type": "note_off",
                "note": 56,
                "channel": 0,
                "velocity": 76,
                "time": 240
            },
            {
                "type": "note_off",
                "note": 59,
                "channel": 0,
                "velocity": 76,
                "time": 0
            },
            {
                "type": "note_off",
                "note": 64,
                "channel": 0,
                "velocity": 76,
                "time": 0
            },
            {
                "type": "note_on",
                "note": 52,
                "channel": 0,
                "velocity": 76,
                "time": 0
            },
            {
                "type": "note_off",
                "note": 52,
                "channel": 0,
                "velocity": 76,
                "time": 240
            },
            {
                "type": "note_on",
                "note": 42,
                "channel": 0,
                "velocity": 88,
                "time": 0
            },
            {
                "type": "note_on",
                "note": 54,
                "channel": 0,
                "velocity": 88,
                "time": 0
            },
            {
                "type": "note_off",
                "note": 42,
                "channel": 0,
                "velocity": 88,
                "time": 120
            },
            {
                "type": "note_off",
                "note": 54,
                "channel": 0,
                "velocity": 88,
                "time": 0
            },
            {
                "type": "note_on",
                "note": 42,
                "channel": 0,
                "velocity": 88,
                "time": 0
            },
            {
                "type": "note_off",
                "note": 42,
                "channel": 0,
                "velocity": 88,
                "time": 240
            },
            {
                "type": "note_on",
                "note": 54,
                "channel": 0,
                "velocity": 88,
                "time": 0
            },
            {
                "type": "note_off",
                "note": 54,
                "channel": 0,
                "velocity": 88,
                "time": 120
            },
            {
                "type": "note_on",
                "note": 61,
                "channel": 0,
                "velocity": 76,
                "time": 0
            },
            {
                "type": "note_on",
                "note": 66,
                "channel": 0,
                "velocity": 76,
                "time": 0
            },
            {
                "type": "note_off",
                "note": 61,
                "channel": 0,
                "velocity": 76,
                "time": 240
            },
            {
                "type": "note_off",
                "note": 66,
                "channel": 0,
                "velocity": 76,
                "time": 0
            },
            {
                "type": "note_on",
                "note": 54,
                "channel": 0,
                "velocity": 76,
                "time": 0
            },
            {
                "type": "note_off",
                "note": 54,
                "channel": 0,
                "velocity": 76,
                "time": 240
            },
            {
                "type": "note_on",
                "note": 42,
                "channel": 0,
                "velocity": 82,
                "time": 0
            },
            {
                "type": "note_off",
                "note": 42,
                "channel": 0,
                "velocity": 82,
                "time": 120
            },
            {
                "type": "note_on",
                "note": 54,
                "channel": 0,
                "velocity": 82,
                "time": 0
            },
            {
                "type": "note_off",
                "note": 54,
                "channel": 0,
                "velocity": 82,
                "time": 360
            },
            {
                "type": "note_on",
                "note": 61,
                "channel": 0,
                "velocity": 76,
                "time": 0
            },
            {
                "type": "note_on",
                "note": 66,
                "channel": 0,
                "velocity": 76,
                "time": 0
            },
            {
                "type": "note_off",
                "note": 61,
                "channel": 0,
                "velocity": 76,
                "time": 240
            },
            {
                "type": "note_off",
                "note": 66,
                "channel": 0,
                "velocity": 76,
                "time": 0
            },
            {
                "type": "note_on",
                "note": 54,
                "channel": 0,
                "velocity": 76,
                "time": 0
            },
            {
                "type": "note_off",
                "note": 54,
                "channel": 0,
                "velocity": 76,
                "time": 240
            },
            {
                "type": "note_on",
                "note": 42,
                "channel": 0,
                "velocity": 88,
                "time": 0
            },
            {
                "type": "note_on",
                "note": 54,
                "channel": 0,
                "velocity": 88,
                "time": 0
            },
            {
                "type": "note_off",
                "note": 42,
                "channel": 0,
                "velocity": 88,
                "time": 120
            },
            {
                "type": "note_off",
                "note": 54,
                "channel": 0,
                "velocity": 88,
                "time": 0
            },
            {
                "type": "note_on",
                "note": 42,
                "channel": 0,
                "velocity": 88,
                "time": 0
            },
            {
                "type": "note_off",
                "note": 42,
                "channel": 0,
                "velocity": 88,
                "time": 240
            },
            {
                "type": "note_on",
                "note": 54,
                "channel": 0,
                "velocity": 88,
                "time": 0
            },
            {
                "type": "note_off",
                "note": 54,
                "channel": 0,
                "velocity": 88,
                "time": 120
            },
            {
                "type": "note_on",
                "note": 61,
                "channel": 0,
                "velocity": 76,
                "time": 0
            },
            {
                "type": "note_on",
                "note": 66,
                "channel": 0,
                "velocity": 76,
                "time": 0
            },
            {
                "type": "note_off",
                "note": 61,
                "channel": 0,
                "velocity": 76,
                "time": 240
            },
            {
                "type": "note_off",
                "note": 66,
                "channel": 0,
                "velocity": 76,
                "time": 0
            },
            {
                "type": "note_on",
                "note": 54,
                "channel": 0,
                "velocity": 76,
                "time": 0
            },
            {
                "type": "note_off",
                "note": 54,
                "channel": 0,
                "velocity": 76,
                "time": 120
            },
            {
                "type": "note_on",
                "note": 42,
                "channel": 0,
                "velocity": 76,
                "time": 0
            },
            {
                "type": "note_off",
                "note": 42,
                "channel": 0,
                "velocity": 76,
                "time": 120
            },
            {
                "type": "note_on",
                "note": 30,
                "channel": 0,
                "velocity": 82,
                "time": 0
            },
            {
                "type": "note_on",
                "note": 42,
                "channel": 0,
                "velocity": 82,
                "time": 0
            },
            {
                "type": "note_off",
                "note": 30,
                "channel": 0,
                "velocity": 82,
                "time": 240
            },
            {
                "type": "note_off",
                "note": 42,
                "channel": 0,
                "velocity": 82,
                "time": 0
            },
            {
                "type": "note_on",
                "note": 38,
                "channel": 0,
                "velocity": 88,
                "time": 720
            },
            {
                "type": "note_on",
                "note": 50,
                "channel": 0,
                "velocity": 88,
                "time": 0
            },
            {
                "type": "note_off",
                "note": 38,
                "channel": 0,
                "velocity": 88,
                "time": 240
            },
            {
                "type": "note_off",
                "note": 50,
                "channel": 0,
                "velocity": 88,
                "time": 0
            },
            {
                "type": "note_on",
                "note": 62,
                "channel": 0,
                "velocity": 88,
                "time": 0
            },
            {
                "type": "note_on",
                "note": 66,
                "channel": 0,
                "velocity": 88,
                "time": 0
            },
            {
                "type": "note_off",
                "note": 62,
                "channel": 0,
                "velocity": 88,
                "time": 120
            },
            {
                "type": "note_off",
                "note": 66,
                "channel": 0,
                "velocity": 88,
                "time": 0
            },
            {
                "type": "note_on",
                "note": 57,
                "channel": 0,
                "velocity": 88,
                "time": 0
            },
            {
                "type": "note_off",
                "note": 57,
                "channel": 0,
                "velocity": 88,
                "time": 360
            },
            {
                "type": "note_on",
                "note": 62,
                "channel": 0,
                "velocity": 76,
                "time": 0
            },
            {
                "type": "note_on",
                "note": 66,
                "channel": 0,
                "velocity": 76,
                "time": 0
            },
            {
                "type": "note_off",
                "note": 62,
                "channel": 0,
                "velocity": 76,
                "time": 240
            },
            {
                "type": "note_off",
                "note": 66,
                "channel": 0,
                "velocity": 76,
                "time": 0
            },
            {
                "type": "note_on",
                "note": 50,
                "channel": 0,
                "velocity": 82,
                "time": 0
            },
            {
                "type": "note_off",
                "note": 50,
                "channel": 0,
                "velocity": 82,
                "time": 240
            },
            {
                "type": "note_on",
                "note": 62,
                "channel": 0,
                "velocity": 82,
                "time": 0
            },
            {
                "type": "note_on",
                "note": 66,
                "channel": 0,
                "velocity": 82,
                "time": 0
            },
            {
                "type": "note_off",
                "note": 62,
                "channel": 0,
                "velocity": 82,
                "time": 120
            },
            {
                "type": "note_off",
                "note": 66,
                "channel": 0,
                "velocity": 82,
                "time": 0
            },
            {
                "type": "note_on",
                "note": 57,
                "channel": 0,
                "velocity": 82,
                "time": 0
            },
            {
                "type": "note_off",
                "note": 57,
                "channel": 0,
                "velocity": 82,
                "time": 360
            },
            {
                "type": "note_on",
                "note": 62,
                "channel": 0,
                "velocity": 76,
                "time": 0
            },
            {
                "type": "note_on",
                "note": 66,
                "channel": 0,
                "velocity": 76,
                "time": 0
            },
            {
                "type": "note_off",
                "note": 62,
                "channel": 0,
                "velocity": 76,
                "time": 240
            },
            {
                "type": "note_off",
                "note": 66,
                "channel": 0,
                "velocity": 76,
                "time": 0
            },
            {
                "type": "note_on",
                "note": 40,
                "channel": 0,
                "velocity": 88,
                "time": 0
            },
            {
                "type": "note_on",
                "note": 52,
                "channel": 0,
                "velocity": 88,
                "time": 0
            },
            {
                "type": "note_off",
                "note": 40,
                "channel": 0,
                "velocity": 88,
                "time": 240
            },
            {
                "type": "note_off",
                "note": 52,
                "channel": 0,
                "velocity": 88,
                "time": 0
            },
            {
                "type": "note_on",
                "note": 64,
                "channel": 0,
                "velocity": 88,
                "time": 0
            },
            {
                "type": "note_on",
                "note": 68,
                "channel": 0,
                "velocity": 88,
                "time": 0
            },
            {
                "type": "note_off",
                "note": 64,
                "channel": 0,
                "velocity": 88,
                "time": 120
            },
            {
                "type": "note_off",
                "note": 68,
                "channel": 0,
                "velocity": 88,
                "time": 0
            },
            {
                "type": "note_on",
                "note": 52,
                "channel": 0,
                "velocity": 88,
                "time": 0
            },
            {
                "type": "note_off",
                "note": 52,
                "channel": 0,
                "velocity": 88,
                "time": 360
            },
            {
                "type": "note_on",
                "note": 64,
                "channel": 0,
                "velocity": 76,
                "time": 0
            },
            {
                "type": "note_on",
                "note": 68,
                "channel": 0,
                "velocity": 76,
                "time": 0
            },
            {
                "type": "note_off",
                "note": 64,
                "channel": 0,
                "velocity": 76,
                "time": 240
            },
            {
                "type": "note_off",
                "note": 68,
                "channel": 0,
                "velocity": 76,
                "time": 0
            },
            {
                "type": "note_on",
                "note": 40,
                "channel": 0,
                "velocity": 82,
                "time": 0
            },
            {
                "type": "note_off",
                "note": 40,
                "channel": 0,
                "velocity": 82,
                "time": 240
            },
            {
                "type": "note_on",
                "note": 64,
                "channel": 0,
                "velocity": 82,
                "time": 0
            },
            {
                "type": "note_on",
                "note": 68,
                "channel": 0,
                "velocity": 82,
                "time": 0
            },
            {
                "type": "note_off",
                "note": 64,
                "channel": 0,
                "velocity": 82,
                "time": 120
            },
            {
                "type": "note_off",
                "note": 68,
                "channel": 0,
                "velocity": 82,
                "time": 0
            },
            {
                "type": "note_on",
                "note": 52,
                "channel": 0,
                "velocity": 82,
                "time": 0
            },
            {
                "type": "note_off",
                "note": 52,
                "channel": 0,
                "velocity": 82,
                "time": 360
            },
            {
                "type": "note_on",
                "note": 64,
                "channel": 0,
                "velocity": 76,
                "time": 0
            },
            {
                "type": "note_on",
                "note": 68,
                "channel": 0,
                "velocity": 76,
                "time": 0
            },
            {
                "type": "note_off",
                "note": 64,
                "channel": 0,
                "velocity": 76,
                "time": 240
            },
            {
                "type": "note_off",
                "note": 68,
                "channel": 0,
                "velocity": 76,
                "time": 0
            },
            {
                "type": "note_on",
                "note": 42,
                "channel": 0,
                "velocity": 88,
                "time": 0
            },
            {
                "type": "note_on",
                "note": 54,
                "channel": 0,
                "velocity": 88,
                "time": 0
            },
            {
                "type": "note_off",
                "note": 42,
                "channel": 0,
                "velocity": 88,
                "time": 240
            },
            {
                "type": "note_off",
                "note": 54,
                "channel": 0,
                "velocity": 88,
                "time": 0
            },
            {
                "type": "note_on",
                "note": 61,
                "channel": 0,
                "velocity": 88,
                "time": 0
            },
            {
                "type": "note_on",
                "note": 66,
                "channel": 0,
                "velocity": 88,
                "time": 0
            },
            {
                "type": "note_off",
                "note": 61,
                "channel": 0,
                "velocity": 88,
                "time": 120
            },
            {
                "type": "note_off",
                "note": 66,
                "channel": 0,
                "velocity": 88,
                "time": 0
            },
            {
                "type": "note_on",
                "note": 54,
                "channel": 0,
                "velocity": 88,
                "time": 0
            },
            {
                "type": "note_off",
                "note": 54,
                "channel": 0,
                "velocity": 88,
                "time": 360
            },
            {
                "type": "note_on",
                "note": 61,
                "channel": 0,
                "velocity": 76,
                "time": 0
            },
            {
                "type": "note_on",
                "note": 66,
                "channel": 0,
                "velocity": 76,
                "time": 0
            },
            {
                "type": "note_off",
                "note": 61,
                "channel": 0,
                "velocity": 76,
                "time": 240
            },
            {
                "type": "note_off",
                "note": 66,
                "channel": 0,
                "velocity": 76,
                "time": 0
            },
            {
                "type": "note_on",
                "note": 42,
                "channel": 0,
                "velocity": 82,
                "time": 0
            },
            {
                "type": "note_off",
                "note": 42,
                "channel": 0,
                "velocity": 82,
                "time": 240
            },
            {
                "type": "note_on",
                "note": 61,
                "channel": 0,
                "velocity": 82,
                "time": 0
            },
            {
                "type": "note_on",
                "note": 66,
                "channel": 0,
                "velocity": 82,
                "time": 0
            },
            {
                "type": "note_off",
                "note": 61,
                "channel": 0,
                "velocity": 82,
                "time": 120
            },
            {
                "type": "note_off",
                "note": 66,
                "channel": 0,
                "velocity": 82,
                "time": 0
            },
            {
                "type": "note_on",
                "note": 54,
                "channel": 0,
                "velocity": 82,
                "time": 0
            },
            {
                "type": "note_off",
                "note": 54,
                "channel": 0,
                "velocity": 82,
                "time": 360
            },
            {
                "type": "note_on",
                "note": 61,
                "channel": 0,
                "velocity": 76,
                "time": 0
            },
            {
                "type": "note_on",
                "note": 66,
                "channel": 0,
                "velocity": 76,
                "time": 0
            },
            {
                "type": "note_off",
                "note": 61,
                "channel": 0,
                "velocity": 76,
                "time": 240
            },
            {
                "type": "note_off",
                "note": 66,
                "channel": 0,
                "velocity": 76,
                "time": 0
            },
            {
                "type": "note_on",
                "note": 42,
                "channel": 0,
                "velocity": 88,
                "time": 0
            },
            {
                "type": "note_on",
                "note": 54,
                "channel": 0,
                "velocity": 88,
                "time": 0
            },
            {
                "type": "note_off",
                "note": 42,
                "channel": 0,
                "velocity": 88,
                "time": 240
            },
            {
                "type": "note_off",
                "note": 54,
                "channel": 0,
                "velocity": 88,
                "time": 0
            },
            {
                "type": "note_on",
                "note": 61,
                "channel": 0,
                "velocity": 88,
                "time": 0
            },
            {
                "type": "note_on",
                "note": 66,
                "channel": 0,
                "velocity": 88,
                "time": 0
            },
            {
                "type": "note_off",
                "note": 61,
                "channel": 0,
                "velocity": 88,
                "time": 120
            },
            {
                "type": "note_off",
                "note": 66,
                "channel": 0,
                "velocity": 88,
                "time": 0
            },
            {
                "type": "note_on",
                "note": 54,
                "channel": 0,
                "velocity": 88,
                "time": 0
            },
            {
                "type": "note_off",
                "note": 54,
                "channel": 0,
                "velocity": 88,
                "time": 360
            },
            {
                "type": "note_on",
                "note": 61,
                "channel": 0,
                "velocity": 76,
                "time": 0
            },
            {
                "type": "note_on",
                "note": 66,
                "channel": 0,
                "velocity": 76,
                "time": 0
            },
            {
                "type": "note_off",
                "note": 61,
                "channel": 0,
                "velocity": 76,
                "time": 240
            },
            {
                "type": "note_off",
                "note": 66,
                "channel": 0,
                "velocity": 76,
                "time": 0
            },
            {
                "type": "note_on",
                "note": 42,
                "channel": 0,
                "velocity": 82,
                "time": 0
            },
            {
                "type": "note_off",
                "note": 42,
                "channel": 0,
                "velocity": 82,
                "time": 240
            },
            {
                "type": "note_on",
                "note": 61,
                "channel": 0,
                "velocity": 82,
                "time": 0
            },
            {
                "type": "note_on",
                "note": 66,
                "channel": 0,
                "velocity": 82,
                "time": 0
            },
            {
                "type": "note_off",
                "note": 61,
                "channel": 0,
                "velocity": 82,
                "time": 120
            },
            {
                "type": "note_off",
                "note": 66,
                "channel": 0,
                "velocity": 82,
                "time": 0
            },
            {
                "type": "note_on",
                "note": 54,
                "channel": 0,
                "velocity": 82,
                "time": 0
            },
            {
                "type": "note_off",
                "note": 54,
                "channel": 0,
                "velocity": 82,
                "time": 240
            },
            {
                "type": "note_on",
                "note": 54,
                "channel": 0,
                "velocity": 76,
                "time": 0
            },
            {
                "type": "note_off",
                "note": 54,
                "channel": 0,
                "velocity": 76,
                "time": 120
            },
            {
                "type": "note_on",
                "note": 61,
                "channel": 0,
                "velocity": 76,
                "time": 0
            },
            {
                "type": "note_on",
                "note": 66,
                "channel": 0,
                "velocity": 76,
                "time": 0
            },
            {
                "type": "note_off",
                "note": 61,
                "channel": 0,
                "velocity": 76,
                "time": 240
            },
            {
                "type": "note_off",
                "note": 66,
                "channel": 0,
                "velocity": 76,
                "time": 0
            },
            {
                "type": "note_on",
                "note": 38,
                "channel": 0,
                "velocity": 88,
                "time": 0
            },
            {
                "type": "note_on",
                "note": 50,
                "channel": 0,
                "velocity": 88,
                "time": 0
            },
            {
                "type": "note_off",
                "note": 38,
                "channel": 0,
                "velocity": 88,
                "time": 240
            },
            {
                "type": "note_off",
                "note": 50,
                "channel": 0,
                "velocity": 88,
                "time": 0
            },
            {
                "type": "note_on",
                "note": 62,
                "channel": 0,
                "velocity": 88,
                "time": 0
            },
            {
                "type": "note_on",
                "note": 66,
                "channel": 0,
                "velocity": 88,
                "time": 0
            },
            {
                "type": "note_off",
                "note": 62,
                "channel": 0,
                "velocity": 88,
                "time": 120
            },
            {
                "type": "note_off",
                "note": 66,
                "channel": 0,
                "velocity": 88,
                "time": 0
            },
            {
                "type": "note_on",
                "note": 57,
                "channel": 0,
                "velocity": 88,
                "time": 0
            },
            {
                "type": "note_off",
                "note": 57,
                "channel": 0,
                "velocity": 88,
                "time": 360
            },
            {
                "type": "note_on",
                "note": 62,
                "channel": 0,
                "velocity": 76,
                "time": 0
            },
            {
                "type": "note_on",
                "note": 66,
                "channel": 0,
                "velocity": 76,
                "time": 0
            },
            {
                "type": "note_off",
                "note": 62,
                "channel": 0,
                "velocity": 76,
                "time": 240
            },
            {
                "type": "note_off",
                "note": 66,
                "channel": 0,
                "velocity": 76,
                "time": 0
            },
            {
                "type": "note_on",
                "note": 50,
                "channel": 0,
                "velocity": 82,
                "time": 0
            },
            {
                "type": "note_off",
                "note": 50,
                "channel": 0,
                "velocity": 82,
                "time": 240
            },
            {
                "type": "note_on",
                "note": 62,
                "channel": 0,
                "velocity": 82,
                "time": 0
            },
            {
                "type": "note_on",
                "note": 66,
                "channel": 0,
                "velocity": 82,
                "time": 0
            },
            {
                "type": "note_off",
                "note": 62,
                "channel": 0,
                "velocity": 82,
                "time": 120
            },
            {
                "type": "note_off",
                "note": 66,
                "channel": 0,
                "velocity": 82,
                "time": 0
            },
            {
                "type": "note_on",
                "note": 57,
                "channel": 0,
                "velocity": 82,
                "time": 0
            },
            {
                "type": "note_off",
                "note": 57,
                "channel": 0,
                "velocity": 82,
                "time": 360
            },
            {
                "type": "note_on",
                "note": 62,
                "channel": 0,
                "velocity": 76,
                "time": 0
            },
            {
                "type": "note_on",
                "note": 66,
                "channel": 0,
                "velocity": 76,
                "time": 0
            },
            {
                "type": "note_off",
                "note": 62,
                "channel": 0,
                "velocity": 76,
                "time": 240
            },
            {
                "type": "note_off",
                "note": 66,
                "channel": 0,
                "velocity": 76,
                "time": 0
            },
            {
                "type": "note_on",
                "note": 40,
                "channel": 0,
                "velocity": 88,
                "time": 0
            },
            {
                "type": "note_on",
                "note": 52,
                "channel": 0,
                "velocity": 88,
                "time": 0
            },
            {
                "type": "note_off",
                "note": 40,
                "channel": 0,
                "velocity": 88,
                "time": 240
            },
            {
                "type": "note_off",
                "note": 52,
                "channel": 0,
                "velocity": 88,
                "time": 0
            },
            {
                "type": "note_on",
                "note": 64,
                "channel": 0,
                "velocity": 88,
                "time": 0
            },
            {
                "type": "note_on",
                "note": 68,
                "channel": 0,
                "velocity": 88,
                "time": 0
            },
            {
                "type": "note_off",
                "note": 64,
                "channel": 0,
                "velocity": 88,
                "time": 120
            },
            {
                "type": "note_off",
                "note": 68,
                "channel": 0,
                "velocity": 88,
                "time": 0
            },
            {
                "type": "note_on",
                "note": 52,
                "channel": 0,
                "velocity": 88,
                "time": 0
            },
            {
                "type": "note_off",
                "note": 52,
                "channel": 0,
                "velocity": 88,
                "time": 360
            },
            {
                "type": "note_on",
                "note": 64,
                "channel": 0,
                "velocity": 76,
                "time": 0
            },
            {
                "type": "note_on",
                "note": 68,
                "channel": 0,
                "velocity": 76,
                "time": 0
            },
            {
                "type": "note_off",
                "note": 64,
                "channel": 0,
                "velocity": 76,
                "time": 240
            },
            {
                "type": "note_off",
                "note": 68,
                "channel": 0,
                "velocity": 76,
                "time": 0
            },
            {
                "type": "note_on",
                "note": 40,
                "channel": 0,
                "velocity": 82,
                "time": 0
            },
            {
                "type": "note_off",
                "note": 40,
                "channel": 0,
                "velocity": 82,
                "time": 240
            },
            {
                "type": "note_on",
                "note": 64,
                "channel": 0,
                "velocity": 82,
                "time": 0
            },
            {
                "type": "note_on",
                "note": 68,
                "channel": 0,
                "velocity": 82,
                "time": 0
            },
            {
                "type": "note_off",
                "note": 64,
                "channel": 0,
                "velocity": 82,
                "time": 120
            },
            {
                "type": "note_off",
                "note": 68,
                "channel": 0,
                "velocity": 82,
                "time": 0
            },
            {
                "type": "note_on",
                "note": 52,
                "channel": 0,
                "velocity": 82,
                "time": 0
            },
            {
                "type": "note_off",
                "note": 52,
                "channel": 0,
                "velocity": 82,
                "time": 360
            },
            {
                "type": "note_on",
                "note": 64,
                "channel": 0,
                "velocity": 76,
                "time": 0
            },
            {
                "type": "note_on",
                "note": 68,
                "channel": 0,
                "velocity": 76,
                "time": 0
            },
            {
                "type": "note_off",
                "note": 64,
                "channel": 0,
                "velocity": 76,
                "time": 240
            },
            {
                "type": "note_off",
                "note": 68,
                "channel": 0,
                "velocity": 76,
                "time": 0
            },
            {
                "type": "note_on",
                "note": 42,
                "channel": 0,
                "velocity": 88,
                "time": 0
            },
            {
                "type": "note_on",
                "note": 54,
                "channel": 0,
                "velocity": 88,
                "time": 0
            },
            {
                "type": "note_off",
                "note": 42,
                "channel": 0,
                "velocity": 88,
                "time": 240
            },
            {
                "type": "note_off",
                "note": 54,
                "channel": 0,
                "velocity": 88,
                "time": 0
            },
            {
                "type": "note_on",
                "note": 61,
                "channel": 0,
                "velocity": 88,
                "time": 0
            },
            {
                "type": "note_on",
                "note": 66,
                "channel": 0,
                "velocity": 88,
                "time": 0
            },
            {
                "type": "note_off",
                "note": 61,
                "channel": 0,
                "velocity": 88,
                "time": 120
            },
            {
                "type": "note_off",
                "note": 66,
                "channel": 0,
                "velocity": 88,
                "time": 0
            },
            {
                "type": "note_on",
                "note": 54,
                "channel": 0,
                "velocity": 88,
                "time": 0
            },
            {
                "type": "note_off",
                "note": 54,
                "channel": 0,
                "velocity": 88,
                "time": 360
            },
            {
                "type": "note_on",
                "note": 61,
                "channel": 0,
                "velocity": 76,
                "time": 0
            },
            {
                "type": "note_on",
                "note": 66,
                "channel": 0,
                "velocity": 76,
                "time": 0
            },
            {
                "type": "note_off",
                "note": 61,
                "channel": 0,
                "velocity": 76,
                "time": 240
            },
            {
                "type": "note_off",
                "note": 66,
                "channel": 0,
                "velocity": 76,
                "time": 0
            },
            {
                "type": "note_on",
                "note": 42,
                "channel": 0,
                "velocity": 82,
                "time": 0
            },
            {
                "type": "note_off",
                "note": 42,
                "channel": 0,
                "velocity": 82,
                "time": 240
            },
            {
                "type": "note_on",
                "note": 61,
                "channel": 0,
                "velocity": 82,
                "time": 0
            },
            {
                "type": "note_on",
                "note": 66,
                "channel": 0,
                "velocity": 82,
                "time": 0
            },
            {
                "type": "note_off",
                "note": 61,
                "channel": 0,
                "velocity": 82,
                "time": 120
            },
            {
                "type": "note_off",
                "note": 66,
                "channel": 0,
                "velocity": 82,
                "time": 0
            },
            {
                "type": "note_on",
                "note": 54,
                "channel": 0,
                "velocity": 82,
                "time": 0
            },
            {
                "type": "note_off",
                "note": 54,
                "channel": 0,
                "velocity": 82,
                "time": 360
            },
            {
                "type": "note_on",
                "note": 61,
                "channel": 0,
                "velocity": 76,
                "time": 0
            },
            {
                "type": "note_on",
                "note": 66,
                "channel": 0,
                "velocity": 76,
                "time": 0
            },
            {
                "type": "note_off",
                "note": 61,
                "channel": 0,
                "velocity": 76,
                "time": 240
            },
            {
                "type": "note_off",
                "note": 66,
                "channel": 0,
                "velocity": 76,
                "time": 0
            },
            {
                "type": "note_on",
                "note": 42,
                "channel": 0,
                "velocity": 88,
                "time": 0
            },
            {
                "type": "note_on",
                "note": 54,
                "channel": 0,
                "velocity": 88,
                "time": 0
            },
            {
                "type": "note_off",
                "note": 42,
                "channel": 0,
                "velocity": 88,
                "time": 240
            },
            {
                "type": "note_off",
                "note": 54,
                "channel": 0,
                "velocity": 88,
                "time": 0
            },
            {
                "type": "note_on",
                "note": 61,
                "channel": 0,
                "velocity": 88,
                "time": 0
            },
            {
                "type": "note_on",
                "note": 66,
                "channel": 0,
                "velocity": 88,
                "time": 0
            },
            {
                "type": "note_off",
                "note": 61,
                "channel": 0,
                "velocity": 88,
                "time": 120
            },
            {
                "type": "note_off",
                "note": 66,
                "channel": 0,
                "velocity": 88,
                "time": 0
            },
            {
                "type": "note_on",
                "note": 54,
                "channel": 0,
                "velocity": 88,
                "time": 0
            },
            {
                "type": "note_off",
                "note": 54,
                "channel": 0,
                "velocity": 88,
                "time": 360
            },
            {
                "type": "note_on",
                "note": 61,
                "channel": 0,
                "velocity": 76,
                "time": 0
            },
            {
                "type": "note_on",
                "note": 66,
                "channel": 0,
                "velocity": 76,
                "time": 0
            },
            {
                "type": "note_off",
                "note": 61,
                "channel": 0,
                "velocity": 76,
                "time": 240
            },
            {
                "type": "note_off",
                "note": 66,
                "channel": 0,
                "velocity": 76,
                "time": 0
            },
            {
                "type": "note_on",
                "note": 42,
                "channel": 0,
                "velocity": 82,
                "time": 0
            },
            {
                "type": "note_off",
                "note": 42,
                "channel": 0,
                "velocity": 82,
                "time": 240
            },
            {
                "type": "note_on",
                "note": 61,
                "channel": 0,
                "velocity": 82,
                "time": 0
            },
            {
                "type": "note_on",
                "note": 66,
                "channel": 0,
                "velocity": 82,
                "time": 0
            },
            {
                "type": "note_off",
                "note": 61,
                "channel": 0,
                "velocity": 82,
                "time": 120
            },
            {
                "type": "note_off",
                "note": 66,
                "channel": 0,
                "velocity": 82,
                "time": 0
            },
            {
                "type": "note_on",
                "note": 54,
                "channel": 0,
                "velocity": 82,
                "time": 0
            },
            {
                "type": "note_off",
                "note": 54,
                "channel": 0,
                "velocity": 82,
                "time": 240
            },
            {
                "type": "note_on",
                "note": 54,
                "channel": 0,
                "velocity": 76,
                "time": 0
            },
            {
                "type": "note_off",
                "note": 54,
                "channel": 0,
                "velocity": 76,
                "time": 120
            },
            {
                "type": "note_on",
                "note": 61,
                "channel": 0,
                "velocity": 76,
                "time": 0
            },
            {
                "type": "note_on",
                "note": 66,
                "channel": 0,
                "velocity": 76,
                "time": 0
            },
            {
                "type": "note_off",
                "note": 61,
                "channel": 0,
                "velocity": 76,
                "time": 240
            },
            {
                "type": "note_off",
                "note": 66,
                "channel": 0,
                "velocity": 76,
                "time": 0
            },
            {
                "type": "note_on",
                "note": 38,
                "channel": 0,
                "velocity": 88,
                "time": 0
            },
            {
                "type": "note_on",
                "note": 50,
                "channel": 0,
                "velocity": 88,
                "time": 0
            },
            {
                "type": "note_off",
                "note": 38,
                "channel": 0,
                "velocity": 88,
                "time": 240
            },
            {
                "type": "note_off",
                "note": 50,
                "channel": 0,
                "velocity": 88,
                "time": 0
            },
            {
                "type": "note_on",
                "note": 62,
                "channel": 0,
                "velocity": 88,
                "time": 0
            },
            {
                "type": "note_off",
                "note": 62,
                "channel": 0,
                "velocity": 88,
                "time": 120
            },
            {
                "type": "note_on",
                "note": 57,
                "channel": 0,
                "velocity": 88,
                "time": 0
            },
            {
                "type": "note_off",
                "note": 57,
                "channel": 0,
                "velocity": 88,
                "time": 120
            },
            {
                "type": "note_on",
                "note": 66,
                "channel": 0,
                "velocity": 76,
                "time": 0
            },
            {
                "type": "note_off",
                "note": 66,
                "channel": 0,
                "velocity": 76,
                "time": 240
            },
            {
                "type": "note_on",
                "note": 62,
                "channel": 0,
                "velocity": 76,
                "time": 0
            },
            {
                "type": "note_off",
                "note": 62,
                "channel": 0,
                "velocity": 76,
                "time": 240
            },
            {
                "type": "note_on",
                "note": 50,
                "channel": 0,
                "velocity": 82,
                "time": 0
            },
            {
                "type": "note_off",
                "note": 50,
                "channel": 0,
                "velocity": 82,
                "time": 240
            },
            {
                "type": "note_on",
                "note": 62,
                "channel": 0,
                "velocity": 82,
                "time": 0
            },
            {
                "type": "note_off",
                "note": 62,
                "channel": 0,
                "velocity": 82,
                "time": 120
            },
            {
                "type": "note_on",
                "note": 57,
                "channel": 0,
                "velocity": 82,
                "time": 0
            },
            {
                "type": "note_off",
                "note": 57,
                "channel": 0,
                "velocity": 82,
                "time": 360
            },
            {
                "type": "note_on",
                "note": 62,
                "channel": 0,
                "velocity": 76,
                "time": 0
            },
            {
                "type": "note_off",
                "note": 62,
                "channel": 0,
                "velocity": 76,
                "time": 240
            },
            {
                "type": "note_on",
                "note": 40,
                "channel": 0,
                "velocity": 88,
                "time": 0
            },
            {
                "type": "note_on",
                "note": 52,
                "channel": 0,
                "velocity": 88,
                "time": 0
            },
            {
                "type": "note_off",
                "note": 40,
                "channel": 0,
                "velocity": 88,
                "time": 240
            },
            {
                "type": "note_off",
                "note": 52,
                "channel": 0,
                "velocity": 88,
                "time": 0
            },
            {
                "type": "note_on",
                "note": 59,
                "channel": 0,
                "velocity": 88,
                "time": 0
            },
            {
                "type": "note_on",
                "note": 64,
                "channel": 0,
                "velocity": 88,
                "time": 0
            },
            {
                "type": "note_off",
                "note": 59,
                "channel": 0,
                "velocity": 88,
                "time": 120
            },
            {
                "type": "note_off",
                "note": 64,
                "channel": 0,
                "velocity": 88,
                "time": 0
            },
            {
                "type": "note_on",
                "note": 52,
                "channel": 0,
                "velocity": 88,
                "time": 0
            },
            {
                "type": "note_off",
                "note": 52,
                "channel": 0,
                "velocity": 88,
                "time": 120
            },
            {
                "type": "note_on",
                "note": 52,
                "channel": 0,
                "velocity": 76,
                "time": 0
            },
            {
                "type": "note_off",
                "note": 52,
                "channel": 0,
                "velocity": 76,
                "time": 240
            },
            {
                "type": "note_on",
                "note": 59,
                "channel": 0,
                "velocity": 76,
                "time": 0
            },
            {
                "type": "note_on",
                "note": 64,
                "channel": 0,
                "velocity": 76,
                "time": 0
            },
            {
                "type": "note_off",
                "note": 59,
                "channel": 0,
                "velocity": 76,
                "time": 240
            },
            {
                "type": "note_off",
                "note": 64,
                "channel": 0,
                "velocity": 76,
                "time": 0
            },
            {
                "type": "note_on",
                "note": 40,
                "channel": 0,
                "velocity": 82,
                "time": 0
            },
            {
                "type": "note_off",
                "note": 40,
                "channel": 0,
                "velocity": 82,
                "time": 240
            },
            {
                "type": "note_on",
                "note": 59,
                "channel": 0,
                "velocity": 82,
                "time": 0
            },
            {
                "type": "note_on",
                "note": 64,
                "channel": 0,
                "velocity": 82,
                "time": 0
            },
            {
                "type": "note_off",
                "note": 59,
                "channel": 0,
                "velocity": 82,
                "time": 120
            },
            {
                "type": "note_off",
                "note": 64,
                "channel": 0,
                "velocity": 82,
                "time": 0
            },
            {
                "type": "note_on",
                "note": 52,
                "channel": 0,
                "velocity": 82,
                "time": 0
            },
            {
                "type": "note_off",
                "note": 52,
                "channel": 0,
                "velocity": 82,
                "time": 360
            },
            {
                "type": "note_on",
                "note": 59,
                "channel": 0,
                "velocity": 76,
                "time": 0
            },
            {
                "type": "note_on",
                "note": 64,
                "channel": 0,
                "velocity": 76,
                "time": 0
            },
            {
                "type": "note_off",
                "note": 59,
                "channel": 0,
                "velocity": 76,
                "time": 240
            },
            {
                "type": "note_off",
                "note": 64,
                "channel": 0,
                "velocity": 76,
                "time": 0
            },
            {
                "type": "note_on",
                "note": 42,
                "channel": 0,
                "velocity": 88,
                "time": 0
            },
            {
                "type": "note_on",
                "note": 54,
                "channel": 0,
                "velocity": 88,
                "time": 0
            },
            {
                "type": "note_off",
                "note": 42,
                "channel": 0,
                "velocity": 88,
                "time": 240
            },
            {
                "type": "note_off",
                "note": 54,
                "channel": 0,
                "velocity": 88,
                "time": 0
            },
            {
                "type": "note_on",
                "note": 61,
                "channel": 0,
                "velocity": 88,
                "time": 0
            },
            {
                "type": "note_off",
                "note": 61,
                "channel": 0,
                "velocity": 88,
                "time": 120
            },
            {
                "type": "note_on",
                "note": 54,
                "channel": 0,
                "velocity": 88,
                "time": 0
            },
            {
                "type": "note_off",
                "note": 54,
                "channel": 0,
                "velocity": 88,
                "time": 120
            },
            {
                "type": "note_on",
                "note": 54,
                "channel": 0,
                "velocity": 76,
                "time": 0
            },
            {
                "type": "note_off",
                "note": 54,
                "channel": 0,
                "velocity": 76,
                "time": 240
            },
            {
                "type": "note_on",
                "note": 61,
                "channel": 0,
                "velocity": 76,
                "time": 0
            },
            {
                "type": "note_off",
                "note": 61,
                "channel": 0,
                "velocity": 76,
                "time": 240
            },
            {
                "type": "note_on",
                "note": 42,
                "channel": 0,
                "velocity": 82,
                "time": 0
            },
            {
                "type": "note_off",
                "note": 42,
                "channel": 0,
                "velocity": 82,
                "time": 240
            },
            {
                "type": "note_on",
                "note": 61,
                "channel": 0,
                "velocity": 82,
                "time": 0
            },
            {
                "type": "note_on",
                "note": 66,
                "channel": 0,
                "velocity": 82,
                "time": 0
            },
            {
                "type": "note_off",
                "note": 61,
                "channel": 0,
                "velocity": 82,
                "time": 120
            },
            {
                "type": "note_off",
                "note": 66,
                "channel": 0,
                "velocity": 82,
                "time": 0
            },
            {
                "type": "note_on",
                "note": 54,
                "channel": 0,
                "velocity": 82,
                "time": 0
            },
            {
                "type": "note_off",
                "note": 54,
                "channel": 0,
                "velocity": 82,
                "time": 360
            },
            {
                "type": "note_on",
                "note": 61,
                "channel": 0,
                "velocity": 76,
                "time": 0
            },
            {
                "type": "note_on",
                "note": 66,
                "channel": 0,
                "velocity": 76,
                "time": 0
            },
            {
                "type": "note_off",
                "note": 61,
                "channel": 0,
                "velocity": 76,
                "time": 240
            },
            {
                "type": "note_off",
                "note": 66,
                "channel": 0,
                "velocity": 76,
                "time": 0
            },
            {
                "type": "note_on",
                "note": 42,
                "channel": 0,
                "velocity": 88,
                "time": 0
            },
            {
                "type": "note_on",
                "note": 54,
                "channel": 0,
                "velocity": 88,
                "time": 0
            },
            {
                "type": "note_off",
                "note": 42,
                "channel": 0,
                "velocity": 88,
                "time": 240
            },
            {
                "type": "note_off",
                "note": 54,
                "channel": 0,
                "velocity": 88,
                "time": 0
            },
            {
                "type": "note_on",
                "note": 61,
                "channel": 0,
                "velocity": 88,
                "time": 0
            },
            {
                "type": "note_off",
                "note": 61,
                "channel": 0,
                "velocity": 88,
                "time": 120
            },
            {
                "type": "note_on",
                "note": 54,
                "channel": 0,
                "velocity": 88,
                "time": 0
            },
            {
                "type": "note_off",
                "note": 54,
                "channel": 0,
                "velocity": 88,
                "time": 120
            },
            {
                "type": "note_on",
                "note": 54,
                "channel": 0,
                "velocity": 76,
                "time": 0
            },
            {
                "type": "note_off",
                "note": 54,
                "channel": 0,
                "velocity": 76,
                "time": 240
            },
            {
                "type": "note_on",
                "note": 61,
                "channel": 0,
                "velocity": 76,
                "time": 0
            },
            {
                "type": "note_off",
                "note": 61,
                "channel": 0,
                "velocity": 76,
                "time": 240
            },
            {
                "type": "note_on",
                "note": 42,
                "channel": 0,
                "velocity": 82,
                "time": 0
            },
            {
                "type": "note_off",
                "note": 42,
                "channel": 0,
                "velocity": 82,
                "time": 240
            },
            {
                "type": "note_on",
                "note": 61,
                "channel": 0,
                "velocity": 82,
                "time": 0
            },
            {
                "type": "note_on",
                "note": 66,
                "channel": 0,
                "velocity": 82,
                "time": 0
            },
            {
                "type": "note_off",
                "note": 61,
                "channel": 0,
                "velocity": 82,
                "time": 120
            },
            {
                "type": "note_off",
                "note": 66,
                "channel": 0,
                "velocity": 82,
                "time": 0
            },
            {
                "type": "note_on",
                "note": 54,
                "channel": 0,
                "velocity": 82,
                "time": 0
            },
            {
                "type": "note_off",
                "note": 54,
                "channel": 0,
                "velocity": 82,
                "time": 360
            },
            {
                "type": "note_on",
                "note": 61,
                "channel": 0,
                "velocity": 76,
                "time": 0
            },
            {
                "type": "note_on",
                "note": 66,
                "channel": 0,
                "velocity": 76,
                "time": 0
            },
            {
                "type": "note_off",
                "note": 61,
                "channel": 0,
                "velocity": 76,
                "time": 240
            },
            {
                "type": "note_off",
                "note": 66,
                "channel": 0,
                "velocity": 76,
                "time": 0
            },
            {
                "type": "note_on",
                "note": 38,
                "channel": 0,
                "velocity": 88,
                "time": 0
            },
            {
                "type": "note_on",
                "note": 50,
                "channel": 0,
                "velocity": 88,
                "time": 0
            },
            {
                "type": "note_off",
                "note": 38,
                "channel": 0,
                "velocity": 88,
                "time": 240
            },
            {
                "type": "note_off",
                "note": 50,
                "channel": 0,
                "velocity": 88,
                "time": 0
            },
            {
                "type": "note_on",
                "note": 62,
                "channel": 0,
                "velocity": 88,
                "time": 0
            },
            {
                "type": "note_off",
                "note": 62,
                "channel": 0,
                "velocity": 88,
                "time": 120
            },
            {
                "type": "note_on",
                "note": 57,
                "channel": 0,
                "velocity": 88,
                "time": 0
            },
            {
                "type": "note_off",
                "note": 57,
                "channel": 0,
                "velocity": 88,
                "time": 360
            },
            {
                "type": "note_on",
                "note": 62,
                "channel": 0,
                "velocity": 76,
                "time": 0
            },
            {
                "type": "note_off",
                "note": 62,
                "channel": 0,
                "velocity": 76,
                "time": 240
            },
            {
                "type": "note_on",
                "note": 50,
                "channel": 0,
                "velocity": 82,
                "time": 0
            },
            {
                "type": "note_off",
                "note": 50,
                "channel": 0,
                "velocity": 82,
                "time": 240
            },
            {
                "type": "note_on",
                "note": 62,
                "channel": 0,
                "velocity": 82,
                "time": 0
            },
            {
                "type": "note_on",
                "note": 66,
                "channel": 0,
                "velocity": 82,
                "time": 0
            },
            {
                "type": "note_off",
                "note": 62,
                "channel": 0,
                "velocity": 82,
                "time": 120
            },
            {
                "type": "note_off",
                "note": 66,
                "channel": 0,
                "velocity": 82,
                "time": 0
            },
            {
                "type": "note_on",
                "note": 57,
                "channel": 0,
                "velocity": 82,
                "time": 0
            },
            {
                "type": "note_off",
                "note": 57,
                "channel": 0,
                "velocity": 82,
                "time": 360
            },
            {
                "type": "note_on",
                "note": 62,
                "channel": 0,
                "velocity": 76,
                "time": 0
            },
            {
                "type": "note_on",
                "note": 66,
                "channel": 0,
                "velocity": 76,
                "time": 0
            },
            {
                "type": "note_off",
                "note": 62,
                "channel": 0,
                "velocity": 76,
                "time": 240
            },
            {
                "type": "note_off",
                "note": 66,
                "channel": 0,
                "velocity": 76,
                "time": 0
            },
            {
                "type": "note_on",
                "note": 40,
                "channel": 0,
                "velocity": 88,
                "time": 0
            },
            {
                "type": "note_on",
                "note": 52,
                "channel": 0,
                "velocity": 88,
                "time": 0
            },
            {
                "type": "note_off",
                "note": 40,
                "channel": 0,
                "velocity": 88,
                "time": 240
            },
            {
                "type": "note_off",
                "note": 52,
                "channel": 0,
                "velocity": 88,
                "time": 0
            },
            {
                "type": "note_on",
                "note": 59,
                "channel": 0,
                "velocity": 88,
                "time": 0
            },
            {
                "type": "note_on",
                "note": 64,
                "channel": 0,
                "velocity": 88,
                "time": 0
            },
            {
                "type": "note_off",
                "note": 59,
                "channel": 0,
                "velocity": 88,
                "time": 120
            },
            {
                "type": "note_off",
                "note": 64,
                "channel": 0,
                "velocity": 88,
                "time": 0
            },
            {
                "type": "note_on",
                "note": 52,
                "channel": 0,
                "velocity": 88,
                "time": 0
            },
            {
                "type": "note_off",
                "note": 52,
                "channel": 0,
                "velocity": 88,
                "time": 120
            },
            {
                "type": "note_on",
                "note": 52,
                "channel": 0,
                "velocity": 76,
                "time": 0
            },
            {
                "type": "note_off",
                "note": 52,
                "channel": 0,
                "velocity": 76,
                "time": 240
            },
            {
                "type": "note_on",
                "note": 59,
                "channel": 0,
                "velocity": 76,
                "time": 0
            },
            {
                "type": "note_on",
                "note": 64,
                "channel": 0,
                "velocity": 76,
                "time": 0
            },
            {
                "type": "note_off",
                "note": 59,
                "channel": 0,
                "velocity": 76,
                "time": 240
            },
            {
                "type": "note_off",
                "note": 64,
                "channel": 0,
                "velocity": 76,
                "time": 0
            },
            {
                "type": "note_on",
                "note": 40,
                "channel": 0,
                "velocity": 82,
                "time": 0
            },
            {
                "type": "note_off",
                "note": 40,
                "channel": 0,
                "velocity": 82,
                "time": 240
            },
            {
                "type": "note_on",
                "note": 59,
                "channel": 0,
                "velocity": 82,
                "time": 0
            },
            {
                "type": "note_on",
                "note": 64,
                "channel": 0,
                "velocity": 82,
                "time": 0
            },
            {
                "type": "note_off",
                "note": 59,
                "channel": 0,
                "velocity": 82,
                "time": 120
            },
            {
                "type": "note_off",
                "note": 64,
                "channel": 0,
                "velocity": 82,
                "time": 0
            },
            {
                "type": "note_on",
                "note": 52,
                "channel": 0,
                "velocity": 82,
                "time": 0
            },
            {
                "type": "note_off",
                "note": 52,
                "channel": 0,
                "velocity": 82,
                "time": 360
            },
            {
                "type": "note_on",
                "note": 59,
                "channel": 0,
                "velocity": 76,
                "time": 0
            },
            {
                "type": "note_on",
                "note": 64,
                "channel": 0,
                "velocity": 76,
                "time": 0
            },
            {
                "type": "note_off",
                "note": 59,
                "channel": 0,
                "velocity": 76,
                "time": 240
            },
            {
                "type": "note_off",
                "note": 64,
                "channel": 0,
                "velocity": 76,
                "time": 0
            },
            {
                "type": "note_on",
                "note": 42,
                "channel": 0,
                "velocity": 88,
                "time": 0
            },
            {
                "type": "note_on",
                "note": 54,
                "channel": 0,
                "velocity": 88,
                "time": 0
            },
            {
                "type": "note_off",
                "note": 42,
                "channel": 0,
                "velocity": 88,
                "time": 240
            },
            {
                "type": "note_off",
                "note": 54,
                "channel": 0,
                "velocity": 88,
                "time": 0
            },
            {
                "type": "note_on",
                "note": 61,
                "channel": 0,
                "velocity": 88,
                "time": 0
            },
            {
                "type": "note_on",
                "note": 66,
                "channel": 0,
                "velocity": 88,
                "time": 0
            },
            {
                "type": "note_off",
                "note": 61,
                "channel": 0,
                "velocity": 88,
                "time": 120
            },
            {
                "type": "note_off",
                "note": 66,
                "channel": 0,
                "velocity": 88,
                "time": 0
            },
            {
                "type": "note_on",
                "note": 54,
                "channel": 0,
                "velocity": 88,
                "time": 0
            },
            {
                "type": "note_off",
                "note": 54,
                "channel": 0,
                "velocity": 88,
                "time": 120
            },
            {
                "type": "note_on",
                "note": 42,
                "channel": 0,
                "velocity": 76,
                "time": 0
            },
            {
                "type": "note_off",
                "note": 42,
                "channel": 0,
                "velocity": 76,
                "time": 120
            },
            {
                "type": "note_on",
                "note": 54,
                "channel": 0,
                "velocity": 76,
                "time": 0
            },
            {
                "type": "note_off",
                "note": 54,
                "channel": 0,
                "velocity": 76,
                "time": 120
            },
            {
                "type": "note_on",
                "note": 61,
                "channel": 0,
                "velocity": 76,
                "time": 0
            },
            {
                "type": "note_on",
                "note": 66,
                "channel": 0,
                "velocity": 76,
                "time": 0
            },
            {
                "type": "note_off",
                "note": 61,
                "channel": 0,
                "velocity": 76,
                "time": 120
            },
            {
                "type": "note_off",
                "note": 66,
                "channel": 0,
                "velocity": 76,
                "time": 0
            },
            {
                "type": "note_on",
                "note": 54,
                "channel": 0,
                "velocity": 76,
                "time": 0
            },
            {
                "type": "note_off",
                "note": 54,
                "channel": 0,
                "velocity": 76,
                "time": 120
            },
            {
                "type": "note_on",
                "note": 42,
                "channel": 0,
                "velocity": 82,
                "time": 0
            },
            {
                "type": "note_off",
                "note": 42,
                "channel": 0,
                "velocity": 82,
                "time": 120
            },
            {
                "type": "note_on",
                "note": 54,
                "channel": 0,
                "velocity": 82,
                "time": 0
            },
            {
                "type": "note_off",
                "note": 54,
                "channel": 0,
                "velocity": 82,
                "time": 120
            },
            {
                "type": "note_on",
                "note": 61,
                "channel": 0,
                "velocity": 82,
                "time": 0
            },
            {
                "type": "note_on",
                "note": 66,
                "channel": 0,
                "velocity": 82,
                "time": 0
            },
            {
                "type": "note_off",
                "note": 61,
                "channel": 0,
                "velocity": 82,
                "time": 120
            },
            {
                "type": "note_off",
                "note": 66,
                "channel": 0,
                "velocity": 82,
                "time": 0
            },
            {
                "type": "note_on",
                "note": 54,
                "channel": 0,
                "velocity": 82,
                "time": 0
            },
            {
                "type": "note_off",
                "note": 54,
                "channel": 0,
                "velocity": 82,
                "time": 120
            },
            {
                "type": "note_on",
                "note": 42,
                "channel": 0,
                "velocity": 76,
                "time": 0
            },
            {
                "type": "note_off",
                "note": 42,
                "channel": 0,
                "velocity": 76,
                "time": 120
            },
            {
                "type": "note_on",
                "note": 54,
                "channel": 0,
                "velocity": 76,
                "time": 0
            },
            {
                "type": "note_off",
                "note": 54,
                "channel": 0,
                "velocity": 76,
                "time": 120
            },
            {
                "type": "note_on",
                "note": 61,
                "channel": 0,
                "velocity": 76,
                "time": 0
            },
            {
                "type": "note_on",
                "note": 66,
                "channel": 0,
                "velocity": 76,
                "time": 0
            },
            {
                "type": "note_off",
                "note": 61,
                "channel": 0,
                "velocity": 76,
                "time": 120
            },
            {
                "type": "note_off",
                "note": 66,
                "channel": 0,
                "velocity": 76,
                "time": 0
            },
            {
                "type": "note_on",
                "note": 54,
                "channel": 0,
                "velocity": 76,
                "time": 0
            },
            {
                "type": "note_off",
                "note": 54,
                "channel": 0,
                "velocity": 76,
                "time": 120
            },
            {
                "type": "note_on",
                "note": 42,
                "channel": 0,
                "velocity": 88,
                "time": 0
            },
            {
                "type": "note_on",
                "note": 54,
                "channel": 0,
                "velocity": 88,
                "time": 0
            },
            {
                "type": "note_off",
                "note": 42,
                "channel": 0,
                "velocity": 88,
                "time": 240
            },
            {
                "type": "note_off",
                "note": 54,
                "channel": 0,
                "velocity": 88,
                "time": 0
            },
            {
                "type": "note_on",
                "note": 61,
                "channel": 0,
                "velocity": 88,
                "time": 0
            },
            {
                "type": "note_on",
                "note": 66,
                "channel": 0,
                "velocity": 88,
                "time": 0
            },
            {
                "type": "note_off",
                "note": 61,
                "channel": 0,
                "velocity": 88,
                "time": 120
            },
            {
                "type": "note_off",
                "note": 66,
                "channel": 0,
                "velocity": 88,
                "time": 0
            },
            {
                "type": "note_on",
                "note": 54,
                "channel": 0,
                "velocity": 88,
                "time": 0
            },
            {
                "type": "note_off",
                "note": 54,
                "channel": 0,
                "velocity": 88,
                "time": 120
            },
            {
                "type": "note_on",
                "note": 42,
                "channel": 0,
                "velocity": 76,
                "time": 0
            },
            {
                "type": "note_off",
                "note": 42,
                "channel": 0,
                "velocity": 76,
                "time": 120
            },
            {
                "type": "note_on",
                "note": 54,
                "channel": 0,
                "velocity": 76,
                "time": 0
            },
            {
                "type": "note_off",
                "note": 54,
                "channel": 0,
                "velocity": 76,
                "time": 120
            },
            {
                "type": "note_on",
                "note": 61,
                "channel": 0,
                "velocity": 76,
                "time": 0
            },
            {
                "type": "note_on",
                "note": 66,
                "channel": 0,
                "velocity": 76,
                "time": 0
            },
            {
                "type": "note_off",
                "note": 61,
                "channel": 0,
                "velocity": 76,
                "time": 120
            },
            {
                "type": "note_off",
                "note": 66,
                "channel": 0,
                "velocity": 76,
                "time": 0
            },
            {
                "type": "note_on",
                "note": 54,
                "channel": 0,
                "velocity": 76,
                "time": 0
            },
            {
                "type": "note_off",
                "note": 54,
                "channel": 0,
                "velocity": 76,
                "time": 120
            },
            {
                "type": "note_on",
                "note": 30,
                "channel": 0,
                "velocity": 82,
                "time": 0
            },
            {
                "type": "note_on",
                "note": 42,
                "channel": 0,
                "velocity": 82,
                "time": 0
            },
            {
                "type": "note_off",
                "note": 30,
                "channel": 0,
                "velocity": 82,
                "time": 240
            },
            {
                "type": "note_off",
                "note": 42,
                "channel": 0,
                "velocity": 82,
                "time": 0
            },
            {
                "type": "note_on",
                "note": 38,
                "channel": 0,
                "velocity": 88,
                "time": 720
            },
            {
                "type": "note_on",
                "note": 45,
                "channel": 0,
                "velocity": 88,
                "time": 0
            },
            {
                "type": "note_on",
                "note": 50,
                "channel": 0,
                "velocity": 88,
                "time": 0
            },
            {
                "type": "note_off",
                "note": 38,
                "channel": 0,
                "velocity": 88,
                "time": 240
            },
            {
                "type": "note_off",
                "note": 45,
                "channel": 0,
                "velocity": 88,
                "time": 0
            },
            {
                "type": "note_off",
                "note": 50,
                "channel": 0,
                "velocity": 88,
                "time": 0
            },
            {
                "type": "note_on",
                "note": 50,
                "channel": 0,
                "velocity": 88,
                "time": 0
            },
            {
                "type": "note_off",
                "note": 50,
                "channel": 0,
                "velocity": 88,
                "time": 240
            },
            {
                "type": "note_on",
                "note": 57,
                "channel": 0,
                "velocity": 76,
                "time": 0
            },
            {
                "type": "note_off",
                "note": 57,
                "channel": 0,
                "velocity": 76,
                "time": 240
            },
            {
                "type": "note_on",
                "note": 57,
                "channel": 0,
                "velocity": 76,
                "time": 0
            },
            {
                "type": "note_off",
                "note": 57,
                "channel": 0,
                "velocity": 76,
                "time": 240
            },
            {
                "type": "note_on",
                "note": 57,
                "channel": 0,
                "velocity": 82,
                "time": 0
            },
            {
                "type": "note_off",
                "note": 57,
                "channel": 0,
                "velocity": 82,
                "time": 240
            },
            {
                "type": "note_on",
                "note": 57,
                "channel": 0,
                "velocity": 82,
                "time": 0
            },
            {
                "type": "note_off",
                "note": 57,
                "channel": 0,
                "velocity": 82,
                "time": 240
            },
            {
                "type": "note_on",
                "note": 57,
                "channel": 0,
                "velocity": 76,
                "time": 0
            },
            {
                "type": "note_off",
                "note": 57,
                "channel": 0,
                "velocity": 76,
                "time": 240
            },
            {
                "type": "note_on",
                "note": 57,
                "channel": 0,
                "velocity": 76,
                "time": 0
            },
            {
                "type": "note_off",
                "note": 57,
                "channel": 0,
                "velocity": 76,
                "time": 240
            },
            {
                "type": "note_on",
                "note": 40,
                "channel": 0,
                "velocity": 88,
                "time": 0
            },
            {
                "type": "note_on",
                "note": 47,
                "channel": 0,
                "velocity": 88,
                "time": 0
            },
            {
                "type": "note_on",
                "note": 52,
                "channel": 0,
                "velocity": 88,
                "time": 0
            },
            {
                "type": "note_off",
                "note": 40,
                "channel": 0,
                "velocity": 88,
                "time": 240
            },
            {
                "type": "note_off",
                "note": 47,
                "channel": 0,
                "velocity": 88,
                "time": 0
            },
            {
                "type": "note_off",
                "note": 52,
                "channel": 0,
                "velocity": 88,
                "time": 0
            },
            {
                "type": "note_on",
                "note": 52,
                "channel": 0,
                "velocity": 88,
                "time": 0
            },
            {
                "type": "note_off",
                "note": 52,
                "channel": 0,
                "velocity": 88,
                "time": 240
            },
            {
                "type": "note_on",
                "note": 64,
                "channel": 0,
                "velocity": 76,
                "time": 0
            },
            {
                "type": "note_off",
                "note": 64,
                "channel": 0,
                "velocity": 76,
                "time": 240
            },
            {
                "type": "note_on",
                "note": 64,
                "channel": 0,
                "velocity": 76,
                "time": 0
            },
            {
                "type": "note_off",
                "note": 64,
                "channel": 0,
                "velocity": 76,
                "time": 240
            },
            {
                "type": "note_on",
                "note": 64,
                "channel": 0,
                "velocity": 82,
                "time": 0
            },
            {
                "type": "note_off",
                "note": 64,
                "channel": 0,
                "velocity": 82,
                "time": 240
            },
            {
                "type": "note_on",
                "note": 64,
                "channel": 0,
                "velocity": 82,
                "time": 0
            },
            {
                "type": "note_off",
                "note": 64,
                "channel": 0,
                "velocity": 82,
                "time": 240
            },
            {
                "type": "note_on",
                "note": 64,
                "channel": 0,
                "velocity": 76,
                "time": 0
            },
            {
                "type": "note_off",
                "note": 64,
                "channel": 0,
                "velocity": 76,
                "time": 240
            },
            {
                "type": "note_on",
                "note": 64,
                "channel": 0,
                "velocity": 76,
                "time": 0
            },
            {
                "type": "note_off",
                "note": 64,
                "channel": 0,
                "velocity": 76,
                "time": 240
            },
            {
                "type": "note_on",
                "note": 42,
                "channel": 0,
                "velocity": 88,
                "time": 0
            },
            {
                "type": "note_on",
                "note": 49,
                "channel": 0,
                "velocity": 88,
                "time": 0
            },
            {
                "type": "note_on",
                "note": 54,
                "channel": 0,
                "velocity": 88,
                "time": 0
            },
            {
                "type": "note_off",
                "note": 42,
                "channel": 0,
                "velocity": 88,
                "time": 240
            },
            {
                "type": "note_off",
                "note": 49,
                "channel": 0,
                "velocity": 88,
                "time": 0
            },
            {
                "type": "note_off",
                "note": 54,
                "channel": 0,
                "velocity": 88,
                "time": 0
            },
            {
                "type": "note_on",
                "note": 54,
                "channel": 0,
                "velocity": 88,
                "time": 0
            },
            {
                "type": "note_off",
                "note": 54,
                "channel": 0,
                "velocity": 88,
                "time": 240
            },
            {
                "type": "note_on",
                "note": 66,
                "channel": 0,
                "velocity": 76,
                "time": 0
            },
            {
                "type": "note_off",
                "note": 66,
                "channel": 0,
                "velocity": 76,
                "time": 240
            },
            {
                "type": "note_on",
                "note": 66,
                "channel": 0,
                "velocity": 76,
                "time": 0
            },
            {
                "type": "note_off",
                "note": 66,
                "channel": 0,
                "velocity": 76,
                "time": 240
            },
            {
                "type": "note_on",
                "note": 66,
                "channel": 0,
                "velocity": 82,
                "time": 0
            },
            {
                "type": "note_off",
                "note": 66,
                "channel": 0,
                "velocity": 82,
                "time": 240
            },
            {
                "type": "note_on",
                "note": 66,
                "channel": 0,
                "velocity": 82,
                "time": 0
            },
            {
                "type": "note_off",
                "note": 66,
                "channel": 0,
                "velocity": 82,
                "time": 240
            },
            {
                "type": "note_on",
                "note": 66,
                "channel": 0,
                "velocity": 76,
                "time": 0
            },
            {
                "type": "note_off",
                "note": 66,
                "channel": 0,
                "velocity": 76,
                "time": 240
            },
            {
                "type": "note_on",
                "note": 66,
                "channel": 0,
                "velocity": 76,
                "time": 0
            },
            {
                "type": "note_off",
                "note": 66,
                "channel": 0,
                "velocity": 76,
                "time": 240
            },
            {
                "type": "note_on",
                "note": 49,
                "channel": 0,
                "velocity": 88,
                "time": 0
            },
            {
                "type": "note_on",
                "note": 54,
                "channel": 0,
                "velocity": 88,
                "time": 0
            },
            {
                "type": "note_off",
                "note": 49,
                "channel": 0,
                "velocity": 88,
                "time": 240
            },
            {
                "type": "note_off",
                "note": 54,
                "channel": 0,
                "velocity": 88,
                "time": 0
            },
            {
                "type": "note_on",
                "note": 54,
                "channel": 0,
                "velocity": 88,
                "time": 0
            },
            {
                "type": "note_off",
                "note": 54,
                "channel": 0,
                "velocity": 88,
                "time": 240
            },
            {
                "type": "note_on",
                "note": 66,
                "channel": 0,
                "velocity": 76,
                "time": 0
            },
            {
                "type": "note_off",
                "note": 66,
                "channel": 0,
                "velocity": 76,
                "time": 240
            },
            {
                "type": "note_on",
                "note": 66,
                "channel": 0,
                "velocity": 76,
                "time": 0
            },
            {
                "type": "note_off",
                "note": 66,
                "channel": 0,
                "velocity": 76,
                "time": 240
            },
            {
                "type": "note_on",
                "note": 66,
                "channel": 0,
                "velocity": 82,
                "time": 0
            },
            {
                "type": "note_off",
                "note": 66,
                "channel": 0,
                "velocity": 82,
                "time": 240
            },
            {
                "type": "note_on",
                "note": 66,
                "channel": 0,
                "velocity": 82,
                "time": 0
            },
            {
                "type": "note_off",
                "note": 66,
                "channel": 0,
                "velocity": 82,
                "time": 240
            },
            {
                "type": "note_on",
                "note": 66,
                "channel": 0,
                "velocity": 76,
                "time": 0
            },
            {
                "type": "note_off",
                "note": 66,
                "channel": 0,
                "velocity": 76,
                "time": 240
            },
            {
                "type": "note_on",
                "note": 66,
                "channel": 0,
                "velocity": 76,
                "time": 0
            },
            {
                "type": "note_off",
                "note": 66,
                "channel": 0,
                "velocity": 76,
                "time": 240
            },
            {
                "type": "note_on",
                "note": 38,
                "channel": 0,
                "velocity": 88,
                "time": 0
            },
            {
                "type": "note_on",
                "note": 45,
                "channel": 0,
                "velocity": 88,
                "time": 0
            },
            {
                "type": "note_on",
                "note": 50,
                "channel": 0,
                "velocity": 88,
                "time": 0
            },
            {
                "type": "note_off",
                "note": 38,
                "channel": 0,
                "velocity": 88,
                "time": 240
            },
            {
                "type": "note_off",
                "note": 45,
                "channel": 0,
                "velocity": 88,
                "time": 0
            },
            {
                "type": "note_off",
                "note": 50,
                "channel": 0,
                "velocity": 88,
                "time": 0
            },
            {
                "type": "note_on",
                "note": 50,
                "channel": 0,
                "velocity": 88,
                "time": 0
            },
            {
                "type": "note_off",
                "note": 50,
                "channel": 0,
                "velocity": 88,
                "time": 240
            },
            {
                "type": "note_on",
                "note": 69,
                "channel": 0,
                "velocity": 76,
                "time": 0
            },
            {
                "type": "note_off",
                "note": 69,
                "channel": 0,
                "velocity": 76,
                "time": 240
            },
            {
                "type": "note_on",
                "note": 69,
                "channel": 0,
                "velocity": 76,
                "time": 0
            },
            {
                "type": "note_off",
                "note": 69,
                "channel": 0,
                "velocity": 76,
                "time": 240
            },
            {
                "type": "note_on",
                "note": 69,
                "channel": 0,
                "velocity": 82,
                "time": 0
            },
            {
                "type": "note_off",
                "note": 69,
                "channel": 0,
                "velocity": 82,
                "time": 240
            },
            {
                "type": "note_on",
                "note": 69,
                "channel": 0,
                "velocity": 82,
                "time": 0
            },
            {
                "type": "note_off",
                "note": 69,
                "channel": 0,
                "velocity": 82,
                "time": 240
            },
            {
                "type": "note_on",
                "note": 69,
                "channel": 0,
                "velocity": 76,
                "time": 0
            },
            {
                "type": "note_off",
                "note": 69,
                "channel": 0,
                "velocity": 76,
                "time": 240
            },
            {
                "type": "note_on",
                "note": 69,
                "channel": 0,
                "velocity": 76,
                "time": 0
            },
            {
                "type": "note_off",
                "note": 69,
                "channel": 0,
                "velocity": 76,
                "time": 240
            },
            {
                "type": "note_on",
                "note": 40,
                "channel": 0,
                "velocity": 88,
                "time": 0
            },
            {
                "type": "note_on",
                "note": 47,
                "channel": 0,
                "velocity": 88,
                "time": 0
            },
            {
                "type": "note_on",
                "note": 52,
                "channel": 0,
                "velocity": 88,
                "time": 0
            },
            {
                "type": "note_off",
                "note": 40,
                "channel": 0,
                "velocity": 88,
                "time": 240
            },
            {
                "type": "note_off",
                "note": 47,
                "channel": 0,
                "velocity": 88,
                "time": 0
            },
            {
                "type": "note_off",
                "note": 52,
                "channel": 0,
                "velocity": 88,
                "time": 0
            },
            {
                "type": "note_on",
                "note": 52,
                "channel": 0,
                "velocity": 88,
                "time": 0
            },
            {
                "type": "note_off",
                "note": 52,
                "channel": 0,
                "velocity": 88,
                "time": 240
            },
            {
                "type": "note_on",
                "note": 71,
                "channel": 0,
                "velocity": 76,
                "time": 0
            },
            {
                "type": "note_off",
                "note": 71,
                "channel": 0,
                "velocity": 76,
                "time": 240
            },
            {
                "type": "note_on",
                "note": 71,
                "channel": 0,
                "velocity": 76,
                "time": 0
            },
            {
                "type": "note_off",
                "note": 71,
                "channel": 0,
                "velocity": 76,
                "time": 240
            },
            {
                "type": "note_on",
                "note": 71,
                "channel": 0,
                "velocity": 82,
                "time": 0
            },
            {
                "type": "note_off",
                "note": 71,
                "channel": 0,
                "velocity": 82,
                "time": 240
            },
            {
                "type": "note_on",
                "note": 71,
                "channel": 0,
                "velocity": 82,
                "time": 0
            },
            {
                "type": "note_off",
                "note": 71,
                "channel": 0,
                "velocity": 82,
                "time": 240
            },
            {
                "type": "note_on",
                "note": 71,
                "channel": 0,
                "velocity": 76,
                "time": 0
            },
            {
                "type": "note_off",
                "note": 71,
                "channel": 0,
                "velocity": 76,
                "time": 240
            },
            {
                "type": "note_on",
                "note": 71,
                "channel": 0,
                "velocity": 76,
                "time": 0
            },
            {
                "type": "note_off",
                "note": 71,
                "channel": 0,
                "velocity": 76,
                "time": 240
            },
            {
                "type": "note_on",
                "note": 42,
                "channel": 0,
                "velocity": 88,
                "time": 0
            },
            {
                "type": "note_on",
                "note": 49,
                "channel": 0,
                "velocity": 88,
                "time": 0
            },
            {
                "type": "note_on",
                "note": 54,
                "channel": 0,
                "velocity": 88,
                "time": 0
            },
            {
                "type": "note_off",
                "note": 42,
                "channel": 0,
                "velocity": 88,
                "time": 240
            },
            {
                "type": "note_off",
                "note": 49,
                "channel": 0,
                "velocity": 88,
                "time": 0
            },
            {
                "type": "note_off",
                "note": 54,
                "channel": 0,
                "velocity": 88,
                "time": 0
            },
            {
                "type": "note_on",
                "note": 54,
                "channel": 0,
                "velocity": 88,
                "time": 0
            },
            {
                "type": "note_off",
                "note": 54,
                "channel": 0,
                "velocity": 88,
                "time": 240
            },
            {
                "type": "note_on",
                "note": 66,
                "channel": 0,
                "velocity": 76,
                "time": 0
            },
            {
                "type": "note_off",
                "note": 66,
                "channel": 0,
                "velocity": 76,
                "time": 240
            },
            {
                "type": "note_on",
                "note": 66,
                "channel": 0,
                "velocity": 76,
                "time": 0
            },
            {
                "type": "note_off",
                "note": 66,
                "channel": 0,
                "velocity": 76,
                "time": 240
            },
            {
                "type": "note_on",
                "note": 66,
                "channel": 0,
                "velocity": 82,
                "time": 0
            },
            {
                "type": "note_off",
                "note": 66,
                "channel": 0,
                "velocity": 82,
                "time": 240
            },
            {
                "type": "note_on",
                "note": 66,
                "channel": 0,
                "velocity": 82,
                "time": 0
            },
            {
                "type": "note_off",
                "note": 66,
                "channel": 0,
                "velocity": 82,
                "time": 240
            },
            {
                "type": "note_on",
                "note": 66,
                "channel": 0,
                "velocity": 76,
                "time": 0
            },
            {
                "type": "note_off",
                "note": 66,
                "channel": 0,
                "velocity": 76,
                "time": 240
            },
            {
                "type": "note_on",
                "note": 66,
                "channel": 0,
                "velocity": 76,
                "time": 0
            },
            {
                "type": "note_off",
                "note": 66,
                "channel": 0,
                "velocity": 76,
                "time": 240
            },
            {
                "type": "note_on",
                "note": 42,
                "channel": 0,
                "velocity": 88,
                "time": 0
            },
            {
                "type": "note_on",
                "note": 49,
                "channel": 0,
                "velocity": 88,
                "time": 0
            },
            {
                "type": "note_on",
                "note": 54,
                "channel": 0,
                "velocity": 88,
                "time": 0
            },
            {
                "type": "note_off",
                "note": 42,
                "channel": 0,
                "velocity": 88,
                "time": 240
            },
            {
                "type": "note_off",
                "note": 49,
                "channel": 0,
                "velocity": 88,
                "time": 0
            },
            {
                "type": "note_off",
                "note": 54,
                "channel": 0,
                "velocity": 88,
                "time": 0
            },
            {
                "type": "note_on",
                "note": 54,
                "channel": 0,
                "velocity": 88,
                "time": 0
            },
            {
                "type": "note_off",
                "note": 54,
                "channel": 0,
                "velocity": 88,
                "time": 240
            },
            {
                "type": "note_on",
                "note": 66,
                "channel": 0,
                "velocity": 76,
                "time": 0
            },
            {
                "type": "note_off",
                "note": 66,
                "channel": 0,
                "velocity": 76,
                "time": 240
            },
            {
                "type": "note_on",
                "note": 66,
                "channel": 0,
                "velocity": 76,
                "time": 0
            },
            {
                "type": "note_off",
                "note": 66,
                "channel": 0,
                "velocity": 76,
                "time": 240
            },
            {
                "type": "note_on",
                "note": 66,
                "channel": 0,
                "velocity": 82,
                "time": 0
            },
            {
                "type": "note_off",
                "note": 66,
                "channel": 0,
                "velocity": 82,
                "time": 240
            },
            {
                "type": "note_on",
                "note": 66,
                "channel": 0,
                "velocity": 82,
                "time": 0
            },
            {
                "type": "note_off",
                "note": 66,
                "channel": 0,
                "velocity": 82,
                "time": 240
            },
            {
                "type": "note_on",
                "note": 66,
                "channel": 0,
                "velocity": 76,
                "time": 0
            },
            {
                "type": "note_off",
                "note": 66,
                "channel": 0,
                "velocity": 76,
                "time": 240
            },
            {
                "type": "note_on",
                "note": 66,
                "channel": 0,
                "velocity": 76,
                "time": 0
            },
            {
                "type": "note_off",
                "note": 66,
                "channel": 0,
                "velocity": 76,
                "time": 240
            },
            {
                "type": "note_on",
                "note": 38,
                "channel": 0,
                "velocity": 88,
                "time": 0
            },
            {
                "type": "note_on",
                "note": 45,
                "channel": 0,
                "velocity": 88,
                "time": 0
            },
            {
                "type": "note_on",
                "note": 50,
                "channel": 0,
                "velocity": 88,
                "time": 0
            },
            {
                "type": "note_off",
                "note": 38,
                "channel": 0,
                "velocity": 88,
                "time": 240
            },
            {
                "type": "note_off",
                "note": 45,
                "channel": 0,
                "velocity": 88,
                "time": 0
            },
            {
                "type": "note_off",
                "note": 50,
                "channel": 0,
                "velocity": 88,
                "time": 0
            },
            {
                "type": "note_on",
                "note": 50,
                "channel": 0,
                "velocity": 88,
                "time": 0
            },
            {
                "type": "note_off",
                "note": 50,
                "channel": 0,
                "velocity": 88,
                "time": 240
            },
            {
                "type": "note_on",
                "note": 57,
                "channel": 0,
                "velocity": 76,
                "time": 0
            },
            {
                "type": "note_on",
                "note": 62,
                "channel": 0,
                "velocity": 76,
                "time": 0
            },
            {
                "type": "note_off",
                "note": 57,
                "channel": 0,
                "velocity": 76,
                "time": 240
            },
            {
                "type": "note_off",
                "note": 62,
                "channel": 0,
                "velocity": 76,
                "time": 0
            },
            {
                "type": "note_on",
                "note": 50,
                "channel": 0,
                "velocity": 76,
                "time": 0
            },
            {
                "type": "note_off",
                "note": 50,
                "channel": 0,
                "velocity": 76,
                "time": 240
            },
            {
                "type": "note_on",
                "note": 57,
                "channel": 0,
                "velocity": 82,
                "time": 0
            },
            {
                "type": "note_on",
                "note": 62,
                "channel": 0,
                "velocity": 82,
                "time": 0
            },
            {
                "type": "note_off",
                "note": 57,
                "channel": 0,
                "velocity": 82,
                "time": 240
            },
            {
                "type": "note_off",
                "note": 62,
                "channel": 0,
                "velocity": 82,
                "time": 0
            },
            {
                "type": "note_on",
                "note": 50,
                "channel": 0,
                "velocity": 82,
                "time": 0
            },
            {
                "type": "note_off",
                "note": 50,
                "channel": 0,
                "velocity": 82,
                "time": 240
            },
            {
                "type": "note_on",
                "note": 57,
                "channel": 0,
                "velocity": 76,
                "time": 0
            },
            {
                "type": "note_on",
                "note": 62,
                "channel": 0,
                "velocity": 76,
                "time": 0
            },
            {
                "type": "note_off",
                "note": 57,
                "channel": 0,
                "velocity": 76,
                "time": 240
            },
            {
                "type": "note_off",
                "note": 62,
                "channel": 0,
                "velocity": 76,
                "time": 0
            },
            {
                "type": "note_on",
                "note": 50,
                "channel": 0,
                "velocity": 76,
                "time": 0
            },
            {
                "type": "note_off",
                "note": 50,
                "channel": 0,
                "velocity": 76,
                "time": 240
            },
            {
                "type": "note_on",
                "note": 40,
                "channel": 0,
                "velocity": 88,
                "time": 0
            },
            {
                "type": "note_on",
                "note": 47,
                "channel": 0,
                "velocity": 88,
                "time": 0
            },
            {
                "type": "note_on",
                "note": 52,
                "channel": 0,
                "velocity": 88,
                "time": 0
            },
            {
                "type": "note_off",
                "note": 40,
                "channel": 0,
                "velocity": 88,
                "time": 240
            },
            {
                "type": "note_off",
                "note": 47,
                "channel": 0,
                "velocity": 88,
                "time": 0
            },
            {
                "type": "note_off",
                "note": 52,
                "channel": 0,
                "velocity": 88,
                "time": 0
            },
            {
                "type": "note_on",
                "note": 52,
                "channel": 0,
                "velocity": 88,
                "time": 0
            },
            {
                "type": "note_off",
                "note": 52,
                "channel": 0,
                "velocity": 88,
                "time": 240
            },
            {
                "type": "note_on",
                "note": 59,
                "channel": 0,
                "velocity": 76,
                "time": 0
            },
            {
                "type": "note_on",
                "note": 64,
                "channel": 0,
                "velocity": 76,
                "time": 0
            },
            {
                "type": "note_off",
                "note": 59,
                "channel": 0,
                "velocity": 76,
                "time": 240
            },
            {
                "type": "note_off",
                "note": 64,
                "channel": 0,
                "velocity": 76,
                "time": 0
            },
            {
                "type": "note_on",
                "note": 52,
                "channel": 0,
                "velocity": 76,
                "time": 0
            },
            {
                "type": "note_off",
                "note": 52,
                "channel": 0,
                "velocity": 76,
                "time": 240
            },
            {
                "type": "note_on",
                "note": 59,
                "channel": 0,
                "velocity": 82,
                "time": 0
            },
            {
                "type": "note_on",
                "note": 64,
                "channel": 0,
                "velocity": 82,
                "time": 0
            },
            {
                "type": "note_off",
                "note": 59,
                "channel": 0,
                "velocity": 82,
                "time": 240
            },
            {
                "type": "note_off",
                "note": 64,
                "channel": 0,
                "velocity": 82,
                "time": 0
            },
            {
                "type": "note_on",
                "note": 52,
                "channel": 0,
                "velocity": 82,
                "time": 0
            },
            {
                "type": "note_off",
                "note": 52,
                "channel": 0,
                "velocity": 82,
                "time": 240
            },
            {
                "type": "note_on",
                "note": 59,
                "channel": 0,
                "velocity": 76,
                "time": 0
            },
            {
                "type": "note_on",
                "note": 64,
                "channel": 0,
                "velocity": 76,
                "time": 0
            },
            {
                "type": "note_off",
                "note": 59,
                "channel": 0,
                "velocity": 76,
                "time": 240
            },
            {
                "type": "note_off",
                "note": 64,
                "channel": 0,
                "velocity": 76,
                "time": 0
            },
            {
                "type": "note_on",
                "note": 52,
                "channel": 0,
                "velocity": 76,
                "time": 0
            },
            {
                "type": "note_off",
                "note": 52,
                "channel": 0,
                "velocity": 76,
                "time": 240
            },
            {
                "type": "note_on",
                "note": 42,
                "channel": 0,
                "velocity": 88,
                "time": 0
            },
            {
                "type": "note_on",
                "note": 49,
                "channel": 0,
                "velocity": 88,
                "time": 0
            },
            {
                "type": "note_on",
                "note": 54,
                "channel": 0,
                "velocity": 88,
                "time": 0
            },
            {
                "type": "note_off",
                "note": 42,
                "channel": 0,
                "velocity": 88,
                "time": 240
            },
            {
                "type": "note_off",
                "note": 49,
                "channel": 0,
                "velocity": 88,
                "time": 0
            },
            {
                "type": "note_off",
                "note": 54,
                "channel": 0,
                "velocity": 88,
                "time": 0
            },
            {
                "type": "note_on",
                "note": 54,
                "channel": 0,
                "velocity": 88,
                "time": 0
            },
            {
                "type": "note_off",
                "note": 54,
                "channel": 0,
                "velocity": 88,
                "time": 240
            },
            {
                "type": "note_on",
                "note": 61,
                "channel": 0,
                "velocity": 76,
                "time": 0
            },
            {
                "type": "note_on",
                "note": 66,
                "channel": 0,
                "velocity": 76,
                "time": 0
            },
            {
                "type": "note_off",
                "note": 61,
                "channel": 0,
                "velocity": 76,
                "time": 240
            },
            {
                "type": "note_off",
                "note": 66,
                "channel": 0,
                "velocity": 76,
                "time": 0
            },
            {
                "type": "note_on",
                "note": 54,
                "channel": 0,
                "velocity": 76,
                "time": 0
            },
            {
                "type": "note_off",
                "note": 54,
                "channel": 0,
                "velocity": 76,
                "time": 240
            },
            {
                "type": "note_on",
                "note": 61,
                "channel": 0,
                "velocity": 82,
                "time": 0
            },
            {
                "type": "note_on",
                "note": 66,
                "channel": 0,
                "velocity": 82,
                "time": 0
            },
            {
                "type": "note_off",
                "note": 61,
                "channel": 0,
                "velocity": 82,
                "time": 240
            },
            {
                "type": "note_off",
                "note": 66,
                "channel": 0,
                "velocity": 82,
                "time": 0
            },
            {
                "type": "note_on",
                "note": 54,
                "channel": 0,
                "velocity": 82,
                "time": 0
            },
            {
                "type": "note_off",
                "note": 54,
                "channel": 0,
                "velocity": 82,
                "time": 240
            },
            {
                "type": "note_on",
                "note": 61,
                "channel": 0,
                "velocity": 76,
                "time": 0
            },
            {
                "type": "note_on",
                "note": 66,
                "channel": 0,
                "velocity": 76,
                "time": 0
            },
            {
                "type": "note_off",
                "note": 61,
                "channel": 0,
                "velocity": 76,
                "time": 240
            },
            {
                "type": "note_off",
                "note": 66,
                "channel": 0,
                "velocity": 76,
                "time": 0
            },
            {
                "type": "note_on",
                "note": 54,
                "channel": 0,
                "velocity": 76,
                "time": 0
            },
            {
                "type": "note_off",
                "note": 54,
                "channel": 0,
                "velocity": 76,
                "time": 240
            },
            {
                "type": "note_on",
                "note": 42,
                "channel": 0,
                "velocity": 88,
                "time": 0
            },
            {
                "type": "note_on",
                "note": 49,
                "channel": 0,
                "velocity": 88,
                "time": 0
            },
            {
                "type": "note_on",
                "note": 54,
                "channel": 0,
                "velocity": 88,
                "time": 0
            },
            {
                "type": "note_off",
                "note": 42,
                "channel": 0,
                "velocity": 88,
                "time": 240
            },
            {
                "type": "note_off",
                "note": 49,
                "channel": 0,
                "velocity": 88,
                "time": 0
            },
            {
                "type": "note_off",
                "note": 54,
                "channel": 0,
                "velocity": 88,
                "time": 0
            },
            {
                "type": "note_on",
                "note": 54,
                "channel": 0,
                "velocity": 88,
                "time": 0
            },
            {
                "type": "note_off",
                "note": 54,
                "channel": 0,
                "velocity": 88,
                "time": 240
            },
            {
                "type": "note_on",
                "note": 61,
                "channel": 0,
                "velocity": 76,
                "time": 0
            },
            {
                "type": "note_on",
                "note": 66,
                "channel": 0,
                "velocity": 76,
                "time": 0
            },
            {
                "type": "note_off",
                "note": 61,
                "channel": 0,
                "velocity": 76,
                "time": 240
            },
            {
                "type": "note_off",
                "note": 66,
                "channel": 0,
                "velocity": 76,
                "time": 0
            },
            {
                "type": "note_on",
                "note": 54,
                "channel": 0,
                "velocity": 76,
                "time": 0
            },
            {
                "type": "note_off",
                "note": 54,
                "channel": 0,
                "velocity": 76,
                "time": 240
            },
            {
                "type": "note_on",
                "note": 61,
                "channel": 0,
                "velocity": 82,
                "time": 0
            },
            {
                "type": "note_on",
                "note": 66,
                "channel": 0,
                "velocity": 82,
                "time": 0
            },
            {
                "type": "note_off",
                "note": 61,
                "channel": 0,
                "velocity": 82,
                "time": 240
            },
            {
                "type": "note_off",
                "note": 66,
                "channel": 0,
                "velocity": 82,
                "time": 0
            },
            {
                "type": "note_on",
                "note": 54,
                "channel": 0,
                "velocity": 82,
                "time": 0
            },
            {
                "type": "note_off",
                "note": 54,
                "channel": 0,
                "velocity": 82,
                "time": 240
            },
            {
                "type": "note_on",
                "note": 61,
                "channel": 0,
                "velocity": 76,
                "time": 0
            },
            {
                "type": "note_on",
                "note": 66,
                "channel": 0,
                "velocity": 76,
                "time": 0
            },
            {
                "type": "note_off",
                "note": 61,
                "channel": 0,
                "velocity": 76,
                "time": 240
            },
            {
                "type": "note_off",
                "note": 66,
                "channel": 0,
                "velocity": 76,
                "time": 0
            },
            {
                "type": "note_on",
                "note": 54,
                "channel": 0,
                "velocity": 76,
                "time": 0
            },
            {
                "type": "note_off",
                "note": 54,
                "channel": 0,
                "velocity": 76,
                "time": 240
            },
            {
                "type": "note_on",
                "note": 38,
                "channel": 0,
                "velocity": 88,
                "time": 0
            },
            {
                "type": "note_on",
                "note": 45,
                "channel": 0,
                "velocity": 88,
                "time": 0
            },
            {
                "type": "note_on",
                "note": 50,
                "channel": 0,
                "velocity": 88,
                "time": 0
            },
            {
                "type": "note_off",
                "note": 38,
                "channel": 0,
                "velocity": 88,
                "time": 240
            },
            {
                "type": "note_off",
                "note": 45,
                "channel": 0,
                "velocity": 88,
                "time": 0
            },
            {
                "type": "note_off",
                "note": 50,
                "channel": 0,
                "velocity": 88,
                "time": 0
            },
            {
                "type": "note_on",
                "note": 50,
                "channel": 0,
                "velocity": 88,
                "time": 0
            },
            {
                "type": "note_off",
                "note": 50,
                "channel": 0,
                "velocity": 88,
                "time": 120
            },
            {
                "type": "note_on",
                "note": 57,
                "channel": 0,
                "velocity": 88,
                "time": 0
            },
            {
                "type": "note_off",
                "note": 57,
                "channel": 0,
                "velocity": 88,
                "time": 120
            },
            {
                "type": "note_on",
                "note": 62,
                "channel": 0,
                "velocity": 76,
                "time": 0
            },
            {
                "type": "note_off",
                "note": 62,
                "channel": 0,
                "velocity": 76,
                "time": 120
            },
            {
                "type": "note_on",
                "note": 57,
                "channel": 0,
                "velocity": 76,
                "time": 0
            },
            {
                "type": "note_off",
                "note": 57,
                "channel": 0,
                "velocity": 76,
                "time": 120
            },
            {
                "type": "note_on",
                "note": 50,
                "channel": 0,
                "velocity": 76,
                "time": 0
            },
            {
                "type": "note_off",
                "note": 50,
                "channel": 0,
                "velocity": 76,
                "time": 240
            },
            {
                "type": "note_on",
                "note": 38,
                "channel": 0,
                "velocity": 82,
                "time": 0
            },
            {
                "type": "note_on",
                "note": 50,
                "channel": 0,
                "velocity": 82,
                "time": 0
            },
            {
                "type": "note_off",
                "note": 38,
                "channel": 0,
                "velocity": 82,
                "time": 240
            },
            {
                "type": "note_off",
                "note": 50,
                "channel": 0,
                "velocity": 82,
                "time": 0
            },
            {
                "type": "note_on",
                "note": 50,
                "channel": 0,
                "velocity": 82,
                "time": 0
            },
            {
                "type": "note_off",
                "note": 50,
                "channel": 0,
                "velocity": 82,
                "time": 120
            },
            {
                "type": "note_on",
                "note": 57,
                "channel": 0,
                "velocity": 82,
                "time": 0
            },
            {
                "type": "note_off",
                "note": 57,
                "channel": 0,
                "velocity": 82,
                "time": 120
            },
            {
                "type": "note_on",
                "note": 62,
                "channel": 0,
                "velocity": 76,
                "time": 0
            },
            {
                "type": "note_off",
                "note": 62,
                "channel": 0,
                "velocity": 76,
                "time": 120
            },
            {
                "type": "note_on",
                "note": 57,
                "channel": 0,
                "velocity": 76,
                "time": 0
            },
            {
                "type": "note_off",
                "note": 57,
                "channel": 0,
                "velocity": 76,
                "time": 120
            },
            {
                "type": "note_on",
                "note": 50,
                "channel": 0,
                "velocity": 76,
                "time": 0
            },
            {
                "type": "note_off",
                "note": 50,
                "channel": 0,
                "velocity": 76,
                "time": 120
            },
            {
                "type": "note_on",
                "note": 38,
                "channel": 0,
                "velocity": 76,
                "time": 0
            },
            {
                "type": "note_off",
                "note": 38,
                "channel": 0,
                "velocity": 76,
                "time": 120
            },
            {
                "type": "note_on",
                "note": 40,
                "channel": 0,
                "velocity": 88,
                "time": 0
            },
            {
                "type": "note_on",
                "note": 47,
                "channel": 0,
                "velocity": 88,
                "time": 0
            },
            {
                "type": "note_on",
                "note": 52,
                "channel": 0,
                "velocity": 88,
                "time": 0
            },
            {
                "type": "note_off",
                "note": 40,
                "channel": 0,
                "velocity": 88,
                "time": 240
            },
            {
                "type": "note_off",
                "note": 47,
                "channel": 0,
                "velocity": 88,
                "time": 0
            },
            {
                "type": "note_off",
                "note": 52,
                "channel": 0,
                "velocity": 88,
                "time": 0
            },
            {
                "type": "note_on",
                "note": 52,
                "channel": 0,
                "velocity": 88,
                "time": 0
            },
            {
                "type": "note_off",
                "note": 52,
                "channel": 0,
                "velocity": 88,
                "time": 120
            },
            {
                "type": "note_on",
                "note": 59,
                "channel": 0,
                "velocity": 88,
                "time": 0
            },
            {
                "type": "note_off",
                "note": 59,
                "channel": 0,
                "velocity": 88,
                "time": 120
            },
            {
                "type": "note_on",
                "note": 64,
                "channel": 0,
                "velocity": 76,
                "time": 0
            },
            {
                "type": "note_off",
                "note": 64,
                "channel": 0,
                "velocity": 76,
                "time": 120
            },
            {
                "type": "note_on",
                "note": 59,
                "channel": 0,
                "velocity": 76,
                "time": 0
            },
            {
                "type": "note_off",
                "note": 59,
                "channel": 0,
                "velocity": 76,
                "time": 120
            },
            {
                "type": "note_on",
                "note": 52,
                "channel": 0,
                "velocity": 76,
                "time": 0
            },
            {
                "type": "note_off",
                "note": 52,
                "channel": 0,
                "velocity": 76,
                "time": 240
            },
            {
                "type": "note_on",
                "note": 40,
                "channel": 0,
                "velocity": 82,
                "time": 0
            },
            {
                "type": "note_on",
                "note": 52,
                "channel": 0,
                "velocity": 82,
                "time": 0
            },
            {
                "type": "note_off",
                "note": 40,
                "channel": 0,
                "velocity": 82,
                "time": 240
            },
            {
                "type": "note_off",
                "note": 52,
                "channel": 0,
                "velocity": 82,
                "time": 0
            },
            {
                "type": "note_on",
                "note": 52,
                "channel": 0,
                "velocity": 82,
                "time": 0
            },
            {
                "type": "note_off",
                "note": 52,
                "channel": 0,
                "velocity": 82,
                "time": 120
            },
            {
                "type": "note_on",
                "note": 59,
                "channel": 0,
                "velocity": 82,
                "time": 0
            },
            {
                "type": "note_off",
                "note": 59,
                "channel": 0,
                "velocity": 82,
                "time": 120
            },
            {
                "type": "note_on",
                "note": 64,
                "channel": 0,
                "velocity": 76,
                "time": 0
            },
            {
                "type": "note_off",
                "note": 64,
                "channel": 0,
                "velocity": 76,
                "time": 120
            },
            {
                "type": "note_on",
                "note": 59,
                "channel": 0,
                "velocity": 76,
                "time": 0
            },
            {
                "type": "note_off",
                "note": 59,
                "channel": 0,
                "velocity": 76,
                "time": 120
            },
            {
                "type": "note_on",
                "note": 52,
                "channel": 0,
                "velocity": 76,
                "time": 0
            },
            {
                "type": "note_off",
                "note": 52,
                "channel": 0,
                "velocity": 76,
                "time": 120
            },
            {
                "type": "note_on",
                "note": 40,
                "channel": 0,
                "velocity": 76,
                "time": 0
            },
            {
                "type": "note_off",
                "note": 40,
                "channel": 0,
                "velocity": 76,
                "time": 120
            },
            {
                "type": "note_on",
                "note": 42,
                "channel": 0,
                "velocity": 88,
                "time": 0
            },
            {
                "type": "note_on",
                "note": 49,
                "channel": 0,
                "velocity": 88,
                "time": 0
            },
            {
                "type": "note_on",
                "note": 54,
                "channel": 0,
                "velocity": 88,
                "time": 0
            },
            {
                "type": "note_off",
                "note": 42,
                "channel": 0,
                "velocity": 88,
                "time": 120
            },
            {
                "type": "note_off",
                "note": 49,
                "channel": 0,
                "velocity": 88,
                "time": 0
            },
            {
                "type": "note_off",
                "note": 54,
                "channel": 0,
                "velocity": 88,
                "time": 0
            },
            {
                "type": "note_on",
                "note": 42,
                "channel": 0,
                "velocity": 88,
                "time": 0
            },
            {
                "type": "note_off",
                "note": 42,
                "channel": 0,
                "velocity": 88,
                "time": 120
            },
            {
                "type": "note_on",
                "note": 49,
                "channel": 0,
                "velocity": 88,
                "time": 0
            },
            {
                "type": "note_off",
                "note": 49,
                "channel": 0,
                "velocity": 88,
                "time": 120
            },
            {
                "type": "note_on",
                "note": 54,
                "channel": 0,
                "velocity": 88,
                "time": 0
            },
            {
                "type": "note_off",
                "note": 54,
                "channel": 0,
                "velocity": 88,
                "time": 120
            },
            {
                "type": "note_on",
                "note": 66,
                "channel": 0,
                "velocity": 76,
                "time": 0
            },
            {
                "type": "note_off",
                "note": 66,
                "channel": 0,
                "velocity": 76,
                "time": 120
            },
            {
                "type": "note_on",
                "note": 61,
                "channel": 0,
                "velocity": 76,
                "time": 0
            },
            {
                "type": "note_off",
                "note": 61,
                "channel": 0,
                "velocity": 76,
                "time": 120
            },
            {
                "type": "note_on",
                "note": 54,
                "channel": 0,
                "velocity": 76,
                "time": 0
            },
            {
                "type": "note_off",
                "note": 54,
                "channel": 0,
                "velocity": 76,
                "time": 120
            },
            {
                "type": "note_on",
                "note": 54,
                "channel": 0,
                "velocity": 76,
                "time": 0
            },
            {
                "type": "note_off",
                "note": 54,
                "channel": 0,
                "velocity": 76,
                "time": 120
            },
            {
                "type": "note_on",
                "note": 42,
                "channel": 0,
                "velocity": 82,
                "time": 0
            },
            {
                "type": "note_off",
                "note": 42,
                "channel": 0,
                "velocity": 82,
                "time": 120
            },
            {
                "type": "note_on",
                "note": 49,
                "channel": 0,
                "velocity": 82,
                "time": 0
            },
            {
                "type": "note_off",
                "note": 49,
                "channel": 0,
                "velocity": 82,
                "time": 120
            },
            {
                "type": "note_on",
                "note": 54,
                "channel": 0,
                "velocity": 82,
                "time": 0
            },
            {
                "type": "note_off",
                "note": 54,
                "channel": 0,
                "velocity": 82,
                "time": 120
            },
            {
                "type": "note_on",
                "note": 54,
                "channel": 0,
                "velocity": 82,
                "time": 0
            },
            {
                "type": "note_off",
                "note": 54,
                "channel": 0,
                "velocity": 82,
                "time": 120
            },
            {
                "type": "note_on",
                "note": 66,
                "channel": 0,
                "velocity": 76,
                "time": 0
            },
            {
                "type": "note_off",
                "note": 66,
                "channel": 0,
                "velocity": 76,
                "time": 120
            },
            {
                "type": "note_on",
                "note": 61,
                "channel": 0,
                "velocity": 76,
                "time": 0
            },
            {
                "type": "note_off",
                "note": 61,
                "channel": 0,
                "velocity": 76,
                "time": 120
            },
            {
                "type": "note_on",
                "note": 54,
                "channel": 0,
                "velocity": 76,
                "time": 0
            },
            {
                "type": "note_off",
                "note": 54,
                "channel": 0,
                "velocity": 76,
                "time": 120
            },
            {
                "type": "note_on",
                "note": 42,
                "channel": 0,
                "velocity": 76,
                "time": 0
            },
            {
                "type": "note_off",
                "note": 42,
                "channel": 0,
                "velocity": 76,
                "time": 120
            },
            {
                "type": "note_on",
                "note": 30,
                "channel": 0,
                "velocity": 88,
                "time": 0
            },
            {
                "type": "note_on",
                "note": 42,
                "channel": 0,
                "velocity": 88,
                "time": 0
            },
            {
                "type": "note_off",
                "note": 30,
                "channel": 0,
                "velocity": 88,
                "time": 240
            },
            {
                "type": "note_off",
                "note": 42,
                "channel": 0,
                "velocity": 88,
                "time": 0
            },
            {
                "type": "note_on",
                "note": 42,
                "channel": 0,
                "velocity": 82,
                "time": 720
            },
            {
                "type": "note_off",
                "note": 42,
                "channel": 0,
                "velocity": 82,
                "time": 240
            },
            {
                "type": "note_on",
                "note": 49,
                "channel": 0,
                "velocity": 82,
                "time": 0
            },
            {
                "type": "note_on",
                "note": 54,
                "channel": 0,
                "velocity": 82,
                "time": 0
            },
            {
                "type": "note_off",
                "note": 49,
                "channel": 0,
                "velocity": 82,
                "time": 120
            },
            {
                "type": "note_off",
                "note": 54,
                "channel": 0,
                "velocity": 82,
                "time": 0
            },
            {
                "type": "note_on",
                "note": 42,
                "channel": 0,
                "velocity": 82,
                "time": 0
            },
            {
                "type": "note_off",
                "note": 42,
                "channel": 0,
                "velocity": 82,
                "time": 240
            },
            {
                "type": "note_on",
                "note": 42,
                "channel": 0,
                "velocity": 76,
                "time": 0
            },
            {
                "type": "note_off",
                "note": 42,
                "channel": 0,
                "velocity": 76,
                "time": 120
            },
            {
                "type": "note_on",
                "note": 30,
                "channel": 0,
                "velocity": 76,
                "time": 0
            },
            {
                "type": "note_off",
                "note": 30,
                "channel": 0,
                "velocity": 76,
                "time": 240
            },
            {
                "type": "note_on",
                "note": 38,
                "channel": 0,
                "velocity": 88,
                "time": 0
            },
            {
                "type": "note_on",
                "note": 50,
                "channel": 0,
                "velocity": 88,
                "time": 0
            },
            {
                "type": "note_off",
                "note": 38,
                "channel": 0,
                "velocity": 88,
                "time": 360
            },
            {
                "type": "note_off",
                "note": 50,
                "channel": 0,
                "velocity": 88,
                "time": 0
            },
            {
                "type": "note_on",
                "note": 38,
                "channel": 0,
                "velocity": 88,
                "time": 0
            },
            {
                "type": "note_off",
                "note": 38,
                "channel": 0,
                "velocity": 88,
                "time": 120
            },
            {
                "type": "note_on",
                "note": 50,
                "channel": 0,
                "velocity": 76,
                "time": 0
            },
            {
                "type": "note_off",
                "note": 50,
                "channel": 0,
                "velocity": 76,
                "time": 240
            },
            {
                "type": "note_on",
                "note": 38,
                "channel": 0,
                "velocity": 76,
                "time": 0
            },
            {
                "type": "note_off",
                "note": 38,
                "channel": 0,
                "velocity": 76,
                "time": 480
            },
            {
                "type": "note_on",
                "note": 38,
                "channel": 0,
                "velocity": 82,
                "time": 0
            },
            {
                "type": "note_off",
                "note": 38,
                "channel": 0,
                "velocity": 82,
                "time": 240
            },
            {
                "type": "note_on",
                "note": 50,
                "channel": 0,
                "velocity": 76,
                "time": 0
            },
            {
                "type": "note_off",
                "note": 50,
                "channel": 0,
                "velocity": 76,
                "time": 240
            },
            {
                "type": "note_on",
                "note": 38,
                "channel": 0,
                "velocity": 76,
                "time": 0
            },
            {
                "type": "note_off",
                "note": 38,
                "channel": 0,
                "velocity": 76,
                "time": 240
            },
            {
                "type": "note_on",
                "note": 40,
                "channel": 0,
                "velocity": 88,
                "time": 0
            },
            {
                "type": "note_on",
                "note": 52,
                "channel": 0,
                "velocity": 88,
                "time": 0
            },
            {
                "type": "note_off",
                "note": 40,
                "channel": 0,
                "velocity": 88,
                "time": 360
            },
            {
                "type": "note_off",
                "note": 52,
                "channel": 0,
                "velocity": 88,
                "time": 0
            },
            {
                "type": "note_on",
                "note": 40,
                "channel": 0,
                "velocity": 88,
                "time": 0
            },
            {
                "type": "note_off",
                "note": 40,
                "channel": 0,
                "velocity": 88,
                "time": 120
            },
            {
                "type": "note_on",
                "note": 52,
                "channel": 0,
                "velocity": 76,
                "time": 0
            },
            {
                "type": "note_off",
                "note": 52,
                "channel": 0,
                "velocity": 76,
                "time": 240
            },
            {
                "type": "note_on",
                "note": 40,
                "channel": 0,
                "velocity": 76,
                "time": 0
            },
            {
                "type": "note_off",
                "note": 40,
                "channel": 0,
                "velocity": 76,
                "time": 480
            },
            {
                "type": "note_on",
                "note": 40,
                "channel": 0,
                "velocity": 82,
                "time": 0
            },
            {
                "type": "note_off",
                "note": 40,
                "channel": 0,
                "velocity": 82,
                "time": 240
            },
            {
                "type": "note_on",
                "note": 52,
                "channel": 0,
                "velocity": 76,
                "time": 0
            },
            {
                "type": "note_off",
                "note": 52,
                "channel": 0,
                "velocity": 76,
                "time": 240
            },
            {
                "type": "note_on",
                "note": 40,
                "channel": 0,
                "velocity": 76,
                "time": 0
            },
            {
                "type": "note_off",
                "note": 40,
                "channel": 0,
                "velocity": 76,
                "time": 240
            },
            {
                "type": "note_on",
                "note": 42,
                "channel": 0,
                "velocity": 88,
                "time": 0
            },
            {
                "type": "note_on",
                "note": 54,
                "channel": 0,
                "velocity": 88,
                "time": 0
            },
            {
                "type": "note_off",
                "note": 42,
                "channel": 0,
                "velocity": 88,
                "time": 360
            },
            {
                "type": "note_off",
                "note": 54,
                "channel": 0,
                "velocity": 88,
                "time": 0
            },
            {
                "type": "note_on",
                "note": 42,
                "channel": 0,
                "velocity": 88,
                "time": 0
            },
            {
                "type": "note_off",
                "note": 42,
                "channel": 0,
                "velocity": 88,
                "time": 120
            },
            {
                "type": "note_on",
                "note": 54,
                "channel": 0,
                "velocity": 76,
                "time": 0
            },
            {
                "type": "note_off",
                "note": 54,
                "channel": 0,
                "velocity": 76,
                "time": 240
            },
            {
                "type": "note_on",
                "note": 42,
                "channel": 0,
                "velocity": 76,
                "time": 0
            },
            {
                "type": "note_off",
                "note": 42,
                "channel": 0,
                "velocity": 76,
                "time": 480
            },
            {
                "type": "note_on",
                "note": 42,
                "channel": 0,
                "velocity": 82,
                "time": 0
            },
            {
                "type": "note_off",
                "note": 42,
                "channel": 0,
                "velocity": 82,
                "time": 240
            },
            {
                "type": "note_on",
                "note": 54,
                "channel": 0,
                "velocity": 76,
                "time": 0
            },
            {
                "type": "note_off",
                "note": 54,
                "channel": 0,
                "velocity": 76,
                "time": 240
            },
            {
                "type": "note_on",
                "note": 42,
                "channel": 0,
                "velocity": 76,
                "time": 0
            },
            {
                "type": "note_off",
                "note": 42,
                "channel": 0,
                "velocity": 76,
                "time": 240
            },
            {
                "type": "note_on",
                "note": 42,
                "channel": 0,
                "velocity": 88,
                "time": 0
            },
            {
                "type": "note_on",
                "note": 54,
                "channel": 0,
                "velocity": 88,
                "time": 0
            },
            {
                "type": "note_off",
                "note": 42,
                "channel": 0,
                "velocity": 88,
                "time": 360
            },
            {
                "type": "note_off",
                "note": 54,
                "channel": 0,
                "velocity": 88,
                "time": 0
            },
            {
                "type": "note_on",
                "note": 42,
                "channel": 0,
                "velocity": 88,
                "time": 0
            },
            {
                "type": "note_off",
                "note": 42,
                "channel": 0,
                "velocity": 88,
                "time": 120
            },
            {
                "type": "note_on",
                "note": 54,
                "channel": 0,
                "velocity": 76,
                "time": 0
            },
            {
                "type": "note_off",
                "note": 54,
                "channel": 0,
                "velocity": 76,
                "time": 240
            },
            {
                "type": "note_on",
                "note": 42,
                "channel": 0,
                "velocity": 76,
                "time": 0
            },
            {
                "type": "note_off",
                "note": 42,
                "channel": 0,
                "velocity": 76,
                "time": 480
            },
            {
                "type": "note_on",
                "note": 42,
                "channel": 0,
                "velocity": 82,
                "time": 0
            },
            {
                "type": "note_off",
                "note": 42,
                "channel": 0,
                "velocity": 82,
                "time": 240
            },
            {
                "type": "note_on",
                "note": 54,
                "channel": 0,
                "velocity": 76,
                "time": 0
            },
            {
                "type": "note_off",
                "note": 54,
                "channel": 0,
                "velocity": 76,
                "time": 120
            },
            {
                "type": "note_on",
                "note": 42,
                "channel": 0,
                "velocity": 76,
                "time": 0
            },
            {
                "type": "note_off",
                "note": 42,
                "channel": 0,
                "velocity": 76,
                "time": 360
            },
            {
                "type": "note_on",
                "note": 50,
                "channel": 0,
                "velocity": 88,
                "time": 360
            },
            {
                "type": "note_off",
                "note": 50,
                "channel": 0,
                "velocity": 88,
                "time": 120
            },
            {
                "type": "note_on",
                "note": 54,
                "channel": 0,
                "velocity": 76,
                "time": 0
            },
            {
                "type": "note_on",
                "note": 57,
                "channel": 0,
                "velocity": 76,
                "time": 0
            },
            {
                "type": "note_on",
                "note": 62,
                "channel": 0,
                "velocity": 76,
                "time": 0
            },
            {
                "type": "note_off",
                "note": 54,
                "channel": 0,
                "velocity": 76,
                "time": 240
            },
            {
                "type": "note_off",
                "note": 57,
                "channel": 0,
                "velocity": 76,
                "time": 0
            },
            {
                "type": "note_off",
                "note": 62,
                "channel": 0,
                "velocity": 76,
                "time": 0
            },
            {
                "type": "note_on",
                "note": 50,
                "channel": 0,
                "velocity": 76,
                "time": 0
            },
            {
                "type": "note_off",
                "note": 50,
                "channel": 0,
                "velocity": 76,
                "time": 240
            },
            {
                "type": "note_on",
                "note": 38,
                "channel": 0,
                "velocity": 82,
                "time": 0
            },
            {
                "type": "note_off",
                "note": 38,
                "channel": 0,
                "velocity": 82,
                "time": 120
            },
            {
                "type": "note_on",
                "note": 50,
                "channel": 0,
                "velocity": 82,
                "time": 0
            },
            {
                "type": "note_off",
                "note": 50,
                "channel": 0,
                "velocity": 82,
                "time": 360
            },
            {
                "type": "note_on",
                "note": 54,
                "channel": 0,
                "velocity": 76,
                "time": 0
            },
            {
                "type": "note_on",
                "note": 57,
                "channel": 0,
                "velocity": 76,
                "time": 0
            },
            {
                "type": "note_on",
                "note": 62,
                "channel": 0,
                "velocity": 76,
                "time": 0
            },
            {
                "type": "note_off",
                "note": 54,
                "channel": 0,
                "velocity": 76,
                "time": 240
            },
            {
                "type": "note_off",
                "note": 57,
                "channel": 0,
                "velocity": 76,
                "time": 0
            },
            {
                "type": "note_off",
                "note": 62,
                "channel": 0,
                "velocity": 76,
                "time": 0
            },
            {
                "type": "note_on",
                "note": 50,
                "channel": 0,
                "velocity": 76,
                "time": 0
            },
            {
                "type": "note_off",
                "note": 50,
                "channel": 0,
                "velocity": 76,
                "time": 240
            },
            {
                "type": "note_on",
                "note": 40,
                "channel": 0,
                "velocity": 88,
                "time": 0
            },
            {
                "type": "note_on",
                "note": 52,
                "channel": 0,
                "velocity": 88,
                "time": 0
            },
            {
                "type": "note_off",
                "note": 40,
                "channel": 0,
                "velocity": 88,
                "time": 120
            },
            {
                "type": "note_off",
                "note": 52,
                "channel": 0,
                "velocity": 88,
                "time": 0
            },
            {
                "type": "note_on",
                "note": 40,
                "channel": 0,
                "velocity": 88,
                "time": 0
            },
            {
                "type": "note_off",
                "note": 40,
                "channel": 0,
                "velocity": 88,
                "time": 240
            },
            {
                "type": "note_on",
                "note": 52,
                "channel": 0,
                "velocity": 88,
                "time": 0
            },
            {
                "type": "note_off",
                "note": 52,
                "channel": 0,
                "velocity": 88,
                "time": 120
            },
            {
                "type": "note_on",
                "note": 56,
                "channel": 0,
                "velocity": 76,
                "time": 0
            },
            {
                "type": "note_on",
                "note": 59,
                "channel": 0,
                "velocity": 76,
                "time": 0
            },
            {
                "type": "note_on",
                "note": 64,
                "channel": 0,
                "velocity": 76,
                "time": 0
            },
            {
                "type": "note_off",
                "note": 56,
                "channel": 0,
                "velocity": 76,
                "time": 240
            },
            {
                "type": "note_off",
                "note": 59,
                "channel": 0,
                "velocity": 76,
                "time": 0
            },
            {
                "type": "note_off",
                "note": 64,
                "channel": 0,
                "velocity": 76,
                "time": 0
            },
            {
                "type": "note_on",
                "note": 52,
                "channel": 0,
                "velocity": 76,
                "time": 0
            },
            {
                "type": "note_off",
                "note": 52,
                "channel": 0,
                "velocity": 76,
                "time": 240
            },
            {
                "type": "note_on",
                "note": 40,
                "channel": 0,
                "velocity": 82,
                "time": 0
            },
            {
                "type": "note_off",
                "note": 40,
                "channel": 0,
                "velocity": 82,
                "time": 120
            },
            {
                "type": "note_on",
                "note": 52,
                "channel": 0,
                "velocity": 82,
                "time": 0
            },
            {
                "type": "note_off",
                "note": 52,
                "channel": 0,
                "velocity": 82,
                "time": 360
            },
            {
                "type": "note_on",
                "note": 56,
                "channel": 0,
                "velocity": 76,
                "time": 0
            },
            {
                "type": "note_on",
                "note": 59,
                "channel": 0,
                "velocity": 76,
                "time": 0
            },
            {
                "type": "note_on",
                "note": 64,
                "channel": 0,
                "velocity": 76,
                "time": 0
            },
            {
                "type": "note_off",
                "note": 56,
                "channel": 0,
                "velocity": 76,
                "time": 240
            },
            {
                "type": "note_off",
                "note": 59,
                "channel": 0,
                "velocity": 76,
                "time": 0
            },
            {
                "type": "note_off",
                "note": 64,
                "channel": 0,
                "velocity": 76,
                "time": 0
            },
            {
                "type": "note_on",
                "note": 52,
                "channel": 0,
                "velocity": 76,
                "time": 0
            },
            {
                "type": "note_off",
                "note": 52,
                "channel": 0,
                "velocity": 76,
                "time": 240
            },
            {
                "type": "note_on",
                "note": 42,
                "channel": 0,
                "velocity": 88,
                "time": 0
            },
            {
                "type": "note_on",
                "note": 54,
                "channel": 0,
                "velocity": 88,
                "time": 0
            },
            {
                "type": "note_off",
                "note": 42,
                "channel": 0,
                "velocity": 88,
                "time": 120
            },
            {
                "type": "note_off",
                "note": 54,
                "channel": 0,
                "velocity": 88,
                "time": 0
            },
            {
                "type": "note_on",
                "note": 42,
                "channel": 0,
                "velocity": 88,
                "time": 0
            },
            {
                "type": "note_off",
                "note": 42,
                "channel": 0,
                "velocity": 88,
                "time": 240
            },
            {
                "type": "note_on",
                "note": 54,
                "channel": 0,
                "velocity": 88,
                "time": 0
            },
            {
                "type": "note_off",
                "note": 54,
                "channel": 0,
                "velocity": 88,
                "time": 120
            },
            {
                "type": "note_on",
                "note": 57,
                "channel": 0,
                "velocity": 76,
                "time": 0
            },
            {
                "type": "note_on",
                "note": 61,
                "channel": 0,
                "velocity": 76,
                "time": 0
            },
            {
                "type": "note_off",
                "note": 57,
                "channel": 0,
                "velocity": 76,
                "time": 240
            },
            {
                "type": "note_off",
                "note": 61,
                "channel": 0,
                "velocity": 76,
                "time": 0
            },
            {
                "type": "note_on",
                "note": 54,
                "channel": 0,
                "velocity": 76,
                "time": 0
            },
            {
                "type": "note_off",
                "note": 54,
                "channel": 0,
                "velocity": 76,
                "time": 240
            },
            {
                "type": "note_on",
                "note": 42,
                "channel": 0,
                "velocity": 82,
                "time": 0
            },
            {
                "type": "note_off",
                "note": 42,
                "channel": 0,
                "velocity": 82,
                "time": 120
            },
            {
                "type": "note_on",
                "note": 54,
                "channel": 0,
                "velocity": 82,
                "time": 0
            },
            {
                "type": "note_off",
                "note": 54,
                "channel": 0,
                "velocity": 82,
                "time": 360
            },
            {
                "type": "note_on",
                "note": 57,
                "channel": 0,
                "velocity": 76,
                "time": 0
            },
            {
                "type": "note_on",
                "note": 61,
                "channel": 0,
                "velocity": 76,
                "time": 0
            },
            {
                "type": "note_off",
                "note": 57,
                "channel": 0,
                "velocity": 76,
                "time": 240
            },
            {
                "type": "note_off",
                "note": 61,
                "channel": 0,
                "velocity": 76,
                "time": 0
            },
            {
                "type": "note_on",
                "note": 54,
                "channel": 0,
                "velocity": 76,
                "time": 0
            },
            {
                "type": "note_off",
                "note": 54,
                "channel": 0,
                "velocity": 76,
                "time": 240
            },
            {
                "type": "note_on",
                "note": 42,
                "channel": 0,
                "velocity": 88,
                "time": 0
            },
            {
                "type": "note_on",
                "note": 54,
                "channel": 0,
                "velocity": 88,
                "time": 0
            },
            {
                "type": "note_off",
                "note": 42,
                "channel": 0,
                "velocity": 88,
                "time": 120
            },
            {
                "type": "note_off",
                "note": 54,
                "channel": 0,
                "velocity": 88,
                "time": 0
            },
            {
                "type": "note_on",
                "note": 42,
                "channel": 0,
                "velocity": 88,
                "time": 0
            },
            {
                "type": "note_off",
                "note": 42,
                "channel": 0,
                "velocity": 88,
                "time": 240
            },
            {
                "type": "note_on",
                "note": 54,
                "channel": 0,
                "velocity": 88,
                "time": 0
            },
            {
                "type": "note_off",
                "note": 54,
                "channel": 0,
                "velocity": 88,
                "time": 120
            },
            {
                "type": "note_on",
                "note": 57,
                "channel": 0,
                "velocity": 76,
                "time": 0
            },
            {
                "type": "note_on",
                "note": 61,
                "channel": 0,
                "velocity": 76,
                "time": 0
            },
            {
                "type": "note_off",
                "note": 57,
                "channel": 0,
                "velocity": 76,
                "time": 240
            },
            {
                "type": "note_off",
                "note": 61,
                "channel": 0,
                "velocity": 76,
                "time": 0
            },
            {
                "type": "note_on",
                "note": 54,
                "channel": 0,
                "velocity": 76,
                "time": 0
            },
            {
                "type": "note_off",
                "note": 54,
                "channel": 0,
                "velocity": 76,
                "time": 240
            },
            {
                "type": "note_on",
                "note": 38,
                "channel": 0,
                "velocity": 88,
                "time": 960
            },
            {
                "type": "note_on",
                "note": 50,
                "channel": 0,
                "velocity": 88,
                "time": 0
            },
            {
                "type": "note_off",
                "note": 38,
                "channel": 0,
                "velocity": 88,
                "time": 120
            },
            {
                "type": "note_off",
                "note": 50,
                "channel": 0,
                "velocity": 88,
                "time": 0
            },
            {
                "type": "note_on",
                "note": 38,
                "channel": 0,
                "velocity": 88,
                "time": 0
            },
            {
                "type": "note_off",
                "note": 38,
                "channel": 0,
                "velocity": 88,
                "time": 240
            },
            {
                "type": "note_on",
                "note": 50,
                "channel": 0,
                "velocity": 88,
                "time": 0
            },
            {
                "type": "note_off",
                "note": 50,
                "channel": 0,
                "velocity": 88,
                "time": 120
            },
            {
                "type": "note_on",
                "note": 54,
                "channel": 0,
                "velocity": 76,
                "time": 0
            },
            {
                "type": "note_on",
                "note": 57,
                "channel": 0,
                "velocity": 76,
                "time": 0
            },
            {
                "type": "note_on",
                "note": 62,
                "channel": 0,
                "velocity": 76,
                "time": 0
            },
            {
                "type": "note_off",
                "note": 54,
                "channel": 0,
                "velocity": 76,
                "time": 240
            },
            {
                "type": "note_off",
                "note": 57,
                "channel": 0,
                "velocity": 76,
                "time": 0
            },
            {
                "type": "note_off",
                "note": 62,
                "channel": 0,
                "velocity": 76,
                "time": 0
            },
            {
                "type": "note_on",
                "note": 50,
                "channel": 0,
                "velocity": 76,
                "time": 0
            },
            {
                "type": "note_off",
                "note": 50,
                "channel": 0,
                "velocity": 76,
                "time": 240
            },
            {
                "type": "note_on",
                "note": 38,
                "channel": 0,
                "velocity": 82,
                "time": 0
            },
            {
                "type": "note_off",
                "note": 38,
                "channel": 0,
                "velocity": 82,
                "time": 120
            },
            {
                "type": "note_on",
                "note": 50,
                "channel": 0,
                "velocity": 82,
                "time": 0
            },
            {
                "type": "note_off",
                "note": 50,
                "channel": 0,
                "velocity": 82,
                "time": 360
            },
            {
                "type": "note_on",
                "note": 54,
                "channel": 0,
                "velocity": 76,
                "time": 0
            },
            {
                "type": "note_on",
                "note": 57,
                "channel": 0,
                "velocity": 76,
                "time": 0
            },
            {
                "type": "note_on",
                "note": 62,
                "channel": 0,
                "velocity": 76,
                "time": 0
            },
            {
                "type": "note_off",
                "note": 54,
                "channel": 0,
                "velocity": 76,
                "time": 240
            },
            {
                "type": "note_off",
                "note": 57,
                "channel": 0,
                "velocity": 76,
                "time": 0
            },
            {
                "type": "note_off",
                "note": 62,
                "channel": 0,
                "velocity": 76,
                "time": 0
            },
            {
                "type": "note_on",
                "note": 50,
                "channel": 0,
                "velocity": 76,
                "time": 0
            },
            {
                "type": "note_off",
                "note": 50,
                "channel": 0,
                "velocity": 76,
                "time": 240
            },
            {
                "type": "note_on",
                "note": 40,
                "channel": 0,
                "velocity": 88,
                "time": 0
            },
            {
                "type": "note_on",
                "note": 52,
                "channel": 0,
                "velocity": 88,
                "time": 0
            },
            {
                "type": "note_off",
                "note": 40,
                "channel": 0,
                "velocity": 88,
                "time": 120
            },
            {
                "type": "note_off",
                "note": 52,
                "channel": 0,
                "velocity": 88,
                "time": 0
            },
            {
                "type": "note_on",
                "note": 40,
                "channel": 0,
                "velocity": 88,
                "time": 0
            },
            {
                "type": "note_off",
                "note": 40,
                "channel": 0,
                "velocity": 88,
                "time": 240
            },
            {
                "type": "note_on",
                "note": 52,
                "channel": 0,
                "velocity": 88,
                "time": 0
            },
            {
                "type": "note_off",
                "note": 52,
                "channel": 0,
                "velocity": 88,
                "time": 120
            },
            {
                "type": "note_on",
                "note": 56,
                "channel": 0,
                "velocity": 76,
                "time": 0
            },
            {
                "type": "note_on",
                "note": 59,
                "channel": 0,
                "velocity": 76,
                "time": 0
            },
            {
                "type": "note_on",
                "note": 64,
                "channel": 0,
                "velocity": 76,
                "time": 0
            },
            {
                "type": "note_off",
                "note": 56,
                "channel": 0,
                "velocity": 76,
                "time": 240
            },
            {
                "type": "note_off",
                "note": 59,
                "channel": 0,
                "velocity": 76,
                "time": 0
            },
            {
                "type": "note_off",
                "note": 64,
                "channel": 0,
                "velocity": 76,
                "time": 0
            },
            {
                "type": "note_on",
                "note": 52,
                "channel": 0,
                "velocity": 76,
                "time": 0
            },
            {
                "type": "note_off",
                "note": 52,
                "channel": 0,
                "velocity": 76,
                "time": 240
            },
            {
                "type": "note_on",
                "note": 40,
                "channel": 0,
                "velocity": 82,
                "time": 0
            },
            {
                "type": "note_off",
                "note": 40,
                "channel": 0,
                "velocity": 82,
                "time": 120
            },
            {
                "type": "note_on",
                "note": 52,
                "channel": 0,
                "velocity": 82,
                "time": 0
            },
            {
                "type": "note_off",
                "note": 52,
                "channel": 0,
                "velocity": 82,
                "time": 360
            },
            {
                "type": "note_on",
                "note": 56,
                "channel": 0,
                "velocity": 76,
                "time": 0
            },
            {
                "type": "note_on",
                "note": 59,
                "channel": 0,
                "velocity": 76,
                "time": 0
            },
            {
                "type": "note_on",
                "note": 64,
                "channel": 0,
                "velocity": 76,
                "time": 0
            },
            {
                "type": "note_off",
                "note": 56,
                "channel": 0,
                "velocity": 76,
                "time": 240
            },
            {
                "type": "note_off",
                "note": 59,
                "channel": 0,
                "velocity": 76,
                "time": 0
            },
            {
                "type": "note_off",
                "note": 64,
                "channel": 0,
                "velocity": 76,
                "time": 0
            },
            {
                "type": "note_on",
                "note": 52,
                "channel": 0,
                "velocity": 76,
                "time": 0
            },
            {
                "type": "note_off",
                "note": 52,
                "channel": 0,
                "velocity": 76,
                "time": 240
            },
            {
                "type": "note_on",
                "note": 42,
                "channel": 0,
                "velocity": 88,
                "time": 0
            },
            {
                "type": "note_on",
                "note": 54,
                "channel": 0,
                "velocity": 88,
                "time": 0
            },
            {
                "type": "note_off",
                "note": 42,
                "channel": 0,
                "velocity": 88,
                "time": 120
            },
            {
                "type": "note_off",
                "note": 54,
                "channel": 0,
                "velocity": 88,
                "time": 0
            },
            {
                "type": "note_on",
                "note": 42,
                "channel": 0,
                "velocity": 88,
                "time": 0
            },
            {
                "type": "note_off",
                "note": 42,
                "channel": 0,
                "velocity": 88,
                "time": 240
            },
            {
                "type": "note_on",
                "note": 54,
                "channel": 0,
                "velocity": 88,
                "time": 0
            },
            {
                "type": "note_off",
                "note": 54,
                "channel": 0,
                "velocity": 88,
                "time": 120
            },
            {
                "type": "note_on",
                "note": 57,
                "channel": 0,
                "velocity": 76,
                "time": 0
            },
            {
                "type": "note_on",
                "note": 61,
                "channel": 0,
                "velocity": 76,
                "time": 0
            },
            {
                "type": "note_off",
                "note": 57,
                "channel": 0,
                "velocity": 76,
                "time": 240
            },
            {
                "type": "note_off",
                "note": 61,
                "channel": 0,
                "velocity": 76,
                "time": 0
            },
            {
                "type": "note_on",
                "note": 54,
                "channel": 0,
                "velocity": 76,
                "time": 0
            },
            {
                "type": "note_off",
                "note": 54,
                "channel": 0,
                "velocity": 76,
                "time": 240
            },
            {
                "type": "note_on",
                "note": 42,
                "channel": 0,
                "velocity": 82,
                "time": 0
            },
            {
                "type": "note_off",
                "note": 42,
                "channel": 0,
                "velocity": 82,
                "time": 120
            },
            {
                "type": "note_on",
                "note": 54,
                "channel": 0,
                "velocity": 82,
                "time": 0
            },
            {
                "type": "note_off",
                "note": 54,
                "channel": 0,
                "velocity": 82,
                "time": 360
            },
            {
                "type": "note_on",
                "note": 57,
                "channel": 0,
                "velocity": 76,
                "time": 0
            },
            {
                "type": "note_on",
                "note": 61,
                "channel": 0,
                "velocity": 76,
                "time": 0
            },
            {
                "type": "note_off",
                "note": 57,
                "channel": 0,
                "velocity": 76,
                "time": 240
            },
            {
                "type": "note_off",
                "note": 61,
                "channel": 0,
                "velocity": 76,
                "time": 0
            },
            {
                "type": "note_on",
                "note": 54,
                "channel": 0,
                "velocity": 76,
                "time": 0
            },
            {
                "type": "note_off",
                "note": 54,
                "channel": 0,
                "velocity": 76,
                "time": 240
            },
            {
                "type": "note_on",
                "note": 42,
                "channel": 0,
                "velocity": 88,
                "time": 0
            },
            {
                "type": "note_on",
                "note": 54,
                "channel": 0,
                "velocity": 88,
                "time": 0
            },
            {
                "type": "note_off",
                "note": 42,
                "channel": 0,
                "velocity": 88,
                "time": 120
            },
            {
                "type": "note_off",
                "note": 54,
                "channel": 0,
                "velocity": 88,
                "time": 0
            },
            {
                "type": "note_on",
                "note": 42,
                "channel": 0,
                "velocity": 88,
                "time": 0
            },
            {
                "type": "note_off",
                "note": 42,
                "channel": 0,
                "velocity": 88,
                "time": 240
            },
            {
                "type": "note_on",
                "note": 54,
                "channel": 0,
                "velocity": 88,
                "time": 0
            },
            {
                "type": "note_off",
                "note": 54,
                "channel": 0,
                "velocity": 88,
                "time": 120
            },
            {
                "type": "note_on",
                "note": 57,
                "channel": 0,
                "velocity": 76,
                "time": 0
            },
            {
                "type": "note_on",
                "note": 61,
                "channel": 0,
                "velocity": 76,
                "time": 0
            },
            {
                "type": "note_off",
                "note": 57,
                "channel": 0,
                "velocity": 76,
                "time": 240
            },
            {
                "type": "note_off",
                "note": 61,
                "channel": 0,
                "velocity": 76,
                "time": 0
            },
            {
                "type": "note_on",
                "note": 54,
                "channel": 0,
                "velocity": 76,
                "time": 0
            },
            {
                "type": "note_off",
                "note": 54,
                "channel": 0,
                "velocity": 76,
                "time": 240
            },
            {
                "type": "note_on",
                "note": 38,
                "channel": 0,
                "velocity": 88,
                "time": 960
            },
            {
                "type": "note_on",
                "note": 50,
                "channel": 0,
                "velocity": 88,
                "time": 0
            },
            {
                "type": "note_off",
                "note": 38,
                "channel": 0,
                "velocity": 88,
                "time": 120
            },
            {
                "type": "note_off",
                "note": 50,
                "channel": 0,
                "velocity": 88,
                "time": 0
            },
            {
                "type": "note_on",
                "note": 38,
                "channel": 0,
                "velocity": 88,
                "time": 0
            },
            {
                "type": "note_off",
                "note": 38,
                "channel": 0,
                "velocity": 88,
                "time": 240
            },
            {
                "type": "note_on",
                "note": 50,
                "channel": 0,
                "velocity": 88,
                "time": 0
            },
            {
                "type": "note_off",
                "note": 50,
                "channel": 0,
                "velocity": 88,
                "time": 120
            },
            {
                "type": "note_on",
                "note": 54,
                "channel": 0,
                "velocity": 76,
                "time": 0
            },
            {
                "type": "note_on",
                "note": 57,
                "channel": 0,
                "velocity": 76,
                "time": 0
            },
            {
                "type": "note_on",
                "note": 62,
                "channel": 0,
                "velocity": 76,
                "time": 0
            },
            {
                "type": "note_off",
                "note": 54,
                "channel": 0,
                "velocity": 76,
                "time": 240
            },
            {
                "type": "note_off",
                "note": 57,
                "channel": 0,
                "velocity": 76,
                "time": 0
            },
            {
                "type": "note_off",
                "note": 62,
                "channel": 0,
                "velocity": 76,
                "time": 0
            },
            {
                "type": "note_on",
                "note": 50,
                "channel": 0,
                "velocity": 76,
                "time": 0
            },
            {
                "type": "note_off",
                "note": 50,
                "channel": 0,
                "velocity": 76,
                "time": 240
            },
            {
                "type": "note_on",
                "note": 38,
                "channel": 0,
                "velocity": 82,
                "time": 0
            },
            {
                "type": "note_off",
                "note": 38,
                "channel": 0,
                "velocity": 82,
                "time": 120
            },
            {
                "type": "note_on",
                "note": 50,
                "channel": 0,
                "velocity": 82,
                "time": 0
            },
            {
                "type": "note_off",
                "note": 50,
                "channel": 0,
                "velocity": 82,
                "time": 360
            },
            {
                "type": "note_on",
                "note": 54,
                "channel": 0,
                "velocity": 76,
                "time": 0
            },
            {
                "type": "note_on",
                "note": 57,
                "channel": 0,
                "velocity": 76,
                "time": 0
            },
            {
                "type": "note_on",
                "note": 62,
                "channel": 0,
                "velocity": 76,
                "time": 0
            },
            {
                "type": "note_off",
                "note": 54,
                "channel": 0,
                "velocity": 76,
                "time": 240
            },
            {
                "type": "note_off",
                "note": 57,
                "channel": 0,
                "velocity": 76,
                "time": 0
            },
            {
                "type": "note_off",
                "note": 62,
                "channel": 0,
                "velocity": 76,
                "time": 0
            },
            {
                "type": "note_on",
                "note": 50,
                "channel": 0,
                "velocity": 76,
                "time": 0
            },
            {
                "type": "note_off",
                "note": 50,
                "channel": 0,
                "velocity": 76,
                "time": 240
            },
            {
                "type": "note_on",
                "note": 40,
                "channel": 0,
                "velocity": 88,
                "time": 0
            },
            {
                "type": "note_on",
                "note": 52,
                "channel": 0,
                "velocity": 88,
                "time": 0
            },
            {
                "type": "note_off",
                "note": 40,
                "channel": 0,
                "velocity": 88,
                "time": 120
            },
            {
                "type": "note_off",
                "note": 52,
                "channel": 0,
                "velocity": 88,
                "time": 0
            },
            {
                "type": "note_on",
                "note": 40,
                "channel": 0,
                "velocity": 88,
                "time": 0
            },
            {
                "type": "note_off",
                "note": 40,
                "channel": 0,
                "velocity": 88,
                "time": 240
            },
            {
                "type": "note_on",
                "note": 52,
                "channel": 0,
                "velocity": 88,
                "time": 0
            },
            {
                "type": "note_off",
                "note": 52,
                "channel": 0,
                "velocity": 88,
                "time": 120
            },
            {
                "type": "note_on",
                "note": 56,
                "channel": 0,
                "velocity": 76,
                "time": 0
            },
            {
                "type": "note_on",
                "note": 59,
                "channel": 0,
                "velocity": 76,
                "time": 0
            },
            {
                "type": "note_on",
                "note": 64,
                "channel": 0,
                "velocity": 76,
                "time": 0
            },
            {
                "type": "note_off",
                "note": 56,
                "channel": 0,
                "velocity": 76,
                "time": 240
            },
            {
                "type": "note_off",
                "note": 59,
                "channel": 0,
                "velocity": 76,
                "time": 0
            },
            {
                "type": "note_off",
                "note": 64,
                "channel": 0,
                "velocity": 76,
                "time": 0
            },
            {
                "type": "note_on",
                "note": 52,
                "channel": 0,
                "velocity": 76,
                "time": 0
            },
            {
                "type": "note_off",
                "note": 52,
                "channel": 0,
                "velocity": 76,
                "time": 240
            },
            {
                "type": "note_on",
                "note": 40,
                "channel": 0,
                "velocity": 82,
                "time": 0
            },
            {
                "type": "note_off",
                "note": 40,
                "channel": 0,
                "velocity": 82,
                "time": 120
            },
            {
                "type": "note_on",
                "note": 52,
                "channel": 0,
                "velocity": 82,
                "time": 0
            },
            {
                "type": "note_off",
                "note": 52,
                "channel": 0,
                "velocity": 82,
                "time": 240
            },
            {
                "type": "note_on",
                "note": 52,
                "channel": 0,
                "velocity": 82,
                "time": 0
            },
            {
                "type": "note_off",
                "note": 52,
                "channel": 0,
                "velocity": 82,
                "time": 120
            },
            {
                "type": "note_on",
                "note": 56,
                "channel": 0,
                "velocity": 76,
                "time": 0
            },
            {
                "type": "note_on",
                "note": 59,
                "channel": 0,
                "velocity": 76,
                "time": 0
            },
            {
                "type": "note_on",
                "note": 64,
                "channel": 0,
                "velocity": 76,
                "time": 0
            },
            {
                "type": "note_off",
                "note": 56,
                "channel": 0,
                "velocity": 76,
                "time": 240
            },
            {
                "type": "note_off",
                "note": 59,
                "channel": 0,
                "velocity": 76,
                "time": 0
            },
            {
                "type": "note_off",
                "note": 64,
                "channel": 0,
                "velocity": 76,
                "time": 0
            },
            {
                "type": "note_on",
                "note": 52,
                "channel": 0,
                "velocity": 76,
                "time": 0
            },
            {
                "type": "note_off",
                "note": 52,
                "channel": 0,
                "velocity": 76,
                "time": 240
            },
            {
                "type": "note_on",
                "note": 42,
                "channel": 0,
                "velocity": 88,
                "time": 0
            },
            {
                "type": "note_on",
                "note": 54,
                "channel": 0,
                "velocity": 88,
                "time": 0
            },
            {
                "type": "note_off",
                "note": 42,
                "channel": 0,
                "velocity": 88,
                "time": 120
            },
            {
                "type": "note_off",
                "note": 54,
                "channel": 0,
                "velocity": 88,
                "time": 0
            },
            {
                "type": "note_on",
                "note": 42,
                "channel": 0,
                "velocity": 88,
                "time": 0
            },
            {
                "type": "note_off",
                "note": 42,
                "channel": 0,
                "velocity": 88,
                "time": 240
            },
            {
                "type": "note_on",
                "note": 54,
                "channel": 0,
                "velocity": 88,
                "time": 0
            },
            {
                "type": "note_off",
                "note": 54,
                "channel": 0,
                "velocity": 88,
                "time": 120
            },
            {
                "type": "note_on",
                "note": 57,
                "channel": 0,
                "velocity": 76,
                "time": 0
            },
            {
                "type": "note_on",
                "note": 61,
                "channel": 0,
                "velocity": 76,
                "time": 0
            },
            {
                "type": "note_off",
                "note": 57,
                "channel": 0,
                "velocity": 76,
                "time": 240
            },
            {
                "type": "note_off",
                "note": 61,
                "channel": 0,
                "velocity": 76,
                "time": 0
            },
            {
                "type": "note_on",
                "note": 54,
                "channel": 0,
                "velocity": 76,
                "time": 0
            },
            {
                "type": "note_off",
                "note": 54,
                "channel": 0,
                "velocity": 76,
                "time": 240
            },
            {
                "type": "note_on",
                "note": 42,
                "channel": 0,
                "velocity": 82,
                "time": 0
            },
            {
                "type": "note_off",
                "note": 42,
                "channel": 0,
                "velocity": 82,
                "time": 120
            },
            {
                "type": "note_on",
                "note": 54,
                "channel": 0,
                "velocity": 82,
                "time": 0
            },
            {
                "type": "note_off",
                "note": 54,
                "channel": 0,
                "velocity": 82,
                "time": 240
            },
            {
                "type": "note_on",
                "note": 54,
                "channel": 0,
                "velocity": 82,
                "time": 0
            },
            {
                "type": "note_off",
                "note": 54,
                "channel": 0,
                "velocity": 82,
                "time": 120
            },
            {
                "type": "note_on",
                "note": 57,
                "channel": 0,
                "velocity": 76,
                "time": 0
            },
            {
                "type": "note_on",
                "note": 61,
                "channel": 0,
                "velocity": 76,
                "time": 0
            },
            {
                "type": "note_off",
                "note": 57,
                "channel": 0,
                "velocity": 76,
                "time": 240
            },
            {
                "type": "note_off",
                "note": 61,
                "channel": 0,
                "velocity": 76,
                "time": 0
            },
            {
                "type": "note_on",
                "note": 54,
                "channel": 0,
                "velocity": 76,
                "time": 0
            },
            {
                "type": "note_off",
                "note": 54,
                "channel": 0,
                "velocity": 76,
                "time": 240
            },
            {
                "type": "note_on",
                "note": 42,
                "channel": 0,
                "velocity": 88,
                "time": 0
            },
            {
                "type": "note_on",
                "note": 54,
                "channel": 0,
                "velocity": 88,
                "time": 0
            },
            {
                "type": "note_off",
                "note": 42,
                "channel": 0,
                "velocity": 88,
                "time": 120
            },
            {
                "type": "note_off",
                "note": 54,
                "channel": 0,
                "velocity": 88,
                "time": 0
            },
            {
                "type": "note_on",
                "note": 42,
                "channel": 0,
                "velocity": 88,
                "time": 0
            },
            {
                "type": "note_off",
                "note": 42,
                "channel": 0,
                "velocity": 88,
                "time": 240
            },
            {
                "type": "note_on",
                "note": 54,
                "channel": 0,
                "velocity": 88,
                "time": 0
            },
            {
                "type": "note_off",
                "note": 54,
                "channel": 0,
                "velocity": 88,
                "time": 120
            },
            {
                "type": "note_on",
                "note": 57,
                "channel": 0,
                "velocity": 76,
                "time": 0
            },
            {
                "type": "note_on",
                "note": 61,
                "channel": 0,
                "velocity": 76,
                "time": 0
            },
            {
                "type": "note_off",
                "note": 57,
                "channel": 0,
                "velocity": 76,
                "time": 240
            },
            {
                "type": "note_off",
                "note": 61,
                "channel": 0,
                "velocity": 76,
                "time": 0
            },
            {
                "type": "note_on",
                "note": 54,
                "channel": 0,
                "velocity": 76,
                "time": 0
            },
            {
                "type": "note_off",
                "note": 54,
                "channel": 0,
                "velocity": 76,
                "time": 120
            },
            {
                "type": "note_on",
                "note": 42,
                "channel": 0,
                "velocity": 76,
                "time": 0
            },
            {
                "type": "note_off",
                "note": 42,
                "channel": 0,
                "velocity": 76,
                "time": 120
            },
            {
                "type": "note_on",
                "note": 30,
                "channel": 0,
                "velocity": 82,
                "time": 0
            },
            {
                "type": "note_on",
                "note": 42,
                "channel": 0,
                "velocity": 82,
                "time": 0
            },
            {
                "type": "note_off",
                "note": 30,
                "channel": 0,
                "velocity": 82,
                "time": 240
            },
            {
                "type": "note_off",
                "note": 42,
                "channel": 0,
                "velocity": 82,
                "time": 0
            },
            {
                "type": "note_on",
                "note": 38,
                "channel": 0,
                "velocity": 88,
                "time": 720
            },
            {
                "type": "note_on",
                "note": 50,
                "channel": 0,
                "velocity": 88,
                "time": 0
            },
            {
                "type": "note_off",
                "note": 38,
                "channel": 0,
                "velocity": 88,
                "time": 240
            },
            {
                "type": "note_off",
                "note": 50,
                "channel": 0,
                "velocity": 88,
                "time": 0
            },
            {
                "type": "note_on",
                "note": 62,
                "channel": 0,
                "velocity": 88,
                "time": 0
            },
            {
                "type": "note_on",
                "note": 66,
                "channel": 0,
                "velocity": 88,
                "time": 0
            },
            {
                "type": "note_off",
                "note": 62,
                "channel": 0,
                "velocity": 88,
                "time": 120
            },
            {
                "type": "note_off",
                "note": 66,
                "channel": 0,
                "velocity": 88,
                "time": 0
            },
            {
                "type": "note_on",
                "note": 57,
                "channel": 0,
                "velocity": 88,
                "time": 0
            },
            {
                "type": "note_off",
                "note": 57,
                "channel": 0,
                "velocity": 88,
                "time": 360
            },
            {
                "type": "note_on",
                "note": 62,
                "channel": 0,
                "velocity": 76,
                "time": 0
            },
            {
                "type": "note_on",
                "note": 66,
                "channel": 0,
                "velocity": 76,
                "time": 0
            },
            {
                "type": "note_off",
                "note": 62,
                "channel": 0,
                "velocity": 76,
                "time": 240
            },
            {
                "type": "note_off",
                "note": 66,
                "channel": 0,
                "velocity": 76,
                "time": 0
            },
            {
                "type": "note_on",
                "note": 50,
                "channel": 0,
                "velocity": 82,
                "time": 0
            },
            {
                "type": "note_off",
                "note": 50,
                "channel": 0,
                "velocity": 82,
                "time": 240
            },
            {
                "type": "note_on",
                "note": 62,
                "channel": 0,
                "velocity": 82,
                "time": 0
            },
            {
                "type": "note_on",
                "note": 66,
                "channel": 0,
                "velocity": 82,
                "time": 0
            },
            {
                "type": "note_off",
                "note": 62,
                "channel": 0,
                "velocity": 82,
                "time": 120
            },
            {
                "type": "note_off",
                "note": 66,
                "channel": 0,
                "velocity": 82,
                "time": 0
            },
            {
                "type": "note_on",
                "note": 57,
                "channel": 0,
                "velocity": 82,
                "time": 0
            },
            {
                "type": "note_off",
                "note": 57,
                "channel": 0,
                "velocity": 82,
                "time": 360
            },
            {
                "type": "note_on",
                "note": 62,
                "channel": 0,
                "velocity": 76,
                "time": 0
            },
            {
                "type": "note_on",
                "note": 66,
                "channel": 0,
                "velocity": 76,
                "time": 0
            },
            {
                "type": "note_off",
                "note": 62,
                "channel": 0,
                "velocity": 76,
                "time": 240
            },
            {
                "type": "note_off",
                "note": 66,
                "channel": 0,
                "velocity": 76,
                "time": 0
            },
            {
                "type": "note_on",
                "note": 40,
                "channel": 0,
                "velocity": 88,
                "time": 0
            },
            {
                "type": "note_on",
                "note": 52,
                "channel": 0,
                "velocity": 88,
                "time": 0
            },
            {
                "type": "note_off",
                "note": 40,
                "channel": 0,
                "velocity": 88,
                "time": 240
            },
            {
                "type": "note_off",
                "note": 52,
                "channel": 0,
                "velocity": 88,
                "time": 0
            },
            {
                "type": "note_on",
                "note": 59,
                "channel": 0,
                "velocity": 88,
                "time": 0
            },
            {
                "type": "note_on",
                "note": 64,
                "channel": 0,
                "velocity": 88,
                "time": 0
            },
            {
                "type": "note_off",
                "note": 59,
                "channel": 0,
                "velocity": 88,
                "time": 120
            },
            {
                "type": "note_off",
                "note": 64,
                "channel": 0,
                "velocity": 88,
                "time": 0
            },
            {
                "type": "note_on",
                "note": 52,
                "channel": 0,
                "velocity": 88,
                "time": 0
            },
            {
                "type": "note_off",
                "note": 52,
                "channel": 0,
                "velocity": 88,
                "time": 360
            },
            {
                "type": "note_on",
                "note": 59,
                "channel": 0,
                "velocity": 76,
                "time": 0
            },
            {
                "type": "note_on",
                "note": 64,
                "channel": 0,
                "velocity": 76,
                "time": 0
            },
            {
                "type": "note_off",
                "note": 59,
                "channel": 0,
                "velocity": 76,
                "time": 240
            },
            {
                "type": "note_off",
                "note": 64,
                "channel": 0,
                "velocity": 76,
                "time": 0
            },
            {
                "type": "note_on",
                "note": 40,
                "channel": 0,
                "velocity": 82,
                "time": 0
            },
            {
                "type": "note_off",
                "note": 40,
                "channel": 0,
                "velocity": 82,
                "time": 240
            },
            {
                "type": "note_on",
                "note": 59,
                "channel": 0,
                "velocity": 82,
                "time": 0
            },
            {
                "type": "note_on",
                "note": 64,
                "channel": 0,
                "velocity": 82,
                "time": 0
            },
            {
                "type": "note_off",
                "note": 59,
                "channel": 0,
                "velocity": 82,
                "time": 120
            },
            {
                "type": "note_off",
                "note": 64,
                "channel": 0,
                "velocity": 82,
                "time": 0
            },
            {
                "type": "note_on",
                "note": 52,
                "channel": 0,
                "velocity": 82,
                "time": 0
            },
            {
                "type": "note_off",
                "note": 52,
                "channel": 0,
                "velocity": 82,
                "time": 360
            },
            {
                "type": "note_on",
                "note": 59,
                "channel": 0,
                "velocity": 76,
                "time": 0
            },
            {
                "type": "note_on",
                "note": 64,
                "channel": 0,
                "velocity": 76,
                "time": 0
            },
            {
                "type": "note_off",
                "note": 59,
                "channel": 0,
                "velocity": 76,
                "time": 240
            },
            {
                "type": "note_off",
                "note": 64,
                "channel": 0,
                "velocity": 76,
                "time": 0
            },
            {
                "type": "note_on",
                "note": 42,
                "channel": 0,
                "velocity": 88,
                "time": 0
            },
            {
                "type": "note_on",
                "note": 54,
                "channel": 0,
                "velocity": 88,
                "time": 0
            },
            {
                "type": "note_off",
                "note": 42,
                "channel": 0,
                "velocity": 88,
                "time": 240
            },
            {
                "type": "note_off",
                "note": 54,
                "channel": 0,
                "velocity": 88,
                "time": 0
            },
            {
                "type": "note_on",
                "note": 61,
                "channel": 0,
                "velocity": 88,
                "time": 0
            },
            {
                "type": "note_on",
                "note": 66,
                "channel": 0,
                "velocity": 88,
                "time": 0
            },
            {
                "type": "note_off",
                "note": 61,
                "channel": 0,
                "velocity": 88,
                "time": 120
            },
            {
                "type": "note_off",
                "note": 66,
                "channel": 0,
                "velocity": 88,
                "time": 0
            },
            {
                "type": "note_on",
                "note": 54,
                "channel": 0,
                "velocity": 88,
                "time": 0
            },
            {
                "type": "note_off",
                "note": 54,
                "channel": 0,
                "velocity": 88,
                "time": 360
            },
            {
                "type": "note_on",
                "note": 61,
                "channel": 0,
                "velocity": 76,
                "time": 0
            },
            {
                "type": "note_on",
                "note": 66,
                "channel": 0,
                "velocity": 76,
                "time": 0
            },
            {
                "type": "note_off",
                "note": 61,
                "channel": 0,
                "velocity": 76,
                "time": 240
            },
            {
                "type": "note_off",
                "note": 66,
                "channel": 0,
                "velocity": 76,
                "time": 0
            },
            {
                "type": "note_on",
                "note": 42,
                "channel": 0,
                "velocity": 82,
                "time": 0
            },
            {
                "type": "note_off",
                "note": 42,
                "channel": 0,
                "velocity": 82,
                "time": 240
            },
            {
                "type": "note_on",
                "note": 61,
                "channel": 0,
                "velocity": 82,
                "time": 0
            },
            {
                "type": "note_on",
                "note": 66,
                "channel": 0,
                "velocity": 82,
                "time": 0
            },
            {
                "type": "note_off",
                "note": 61,
                "channel": 0,
                "velocity": 82,
                "time": 120
            },
            {
                "type": "note_off",
                "note": 66,
                "channel": 0,
                "velocity": 82,
                "time": 0
            },
            {
                "type": "note_on",
                "note": 54,
                "channel": 0,
                "velocity": 82,
                "time": 0
            },
            {
                "type": "note_off",
                "note": 54,
                "channel": 0,
                "velocity": 82,
                "time": 360
            },
            {
                "type": "note_on",
                "note": 61,
                "channel": 0,
                "velocity": 76,
                "time": 0
            },
            {
                "type": "note_on",
                "note": 66,
                "channel": 0,
                "velocity": 76,
                "time": 0
            },
            {
                "type": "note_off",
                "note": 61,
                "channel": 0,
                "velocity": 76,
                "time": 240
            },
            {
                "type": "note_off",
                "note": 66,
                "channel": 0,
                "velocity": 76,
                "time": 0
            },
            {
                "type": "note_on",
                "note": 42,
                "channel": 0,
                "velocity": 88,
                "time": 0
            },
            {
                "type": "note_on",
                "note": 54,
                "channel": 0,
                "velocity": 88,
                "time": 0
            },
            {
                "type": "note_off",
                "note": 42,
                "channel": 0,
                "velocity": 88,
                "time": 240
            },
            {
                "type": "note_off",
                "note": 54,
                "channel": 0,
                "velocity": 88,
                "time": 0
            },
            {
                "type": "note_on",
                "note": 61,
                "channel": 0,
                "velocity": 88,
                "time": 0
            },
            {
                "type": "note_on",
                "note": 66,
                "channel": 0,
                "velocity": 88,
                "time": 0
            },
            {
                "type": "note_off",
                "note": 61,
                "channel": 0,
                "velocity": 88,
                "time": 120
            },
            {
                "type": "note_off",
                "note": 66,
                "channel": 0,
                "velocity": 88,
                "time": 0
            },
            {
                "type": "note_on",
                "note": 54,
                "channel": 0,
                "velocity": 88,
                "time": 0
            },
            {
                "type": "note_off",
                "note": 54,
                "channel": 0,
                "velocity": 88,
                "time": 360
            },
            {
                "type": "note_on",
                "note": 61,
                "channel": 0,
                "velocity": 76,
                "time": 0
            },
            {
                "type": "note_on",
                "note": 66,
                "channel": 0,
                "velocity": 76,
                "time": 0
            },
            {
                "type": "note_off",
                "note": 61,
                "channel": 0,
                "velocity": 76,
                "time": 240
            },
            {
                "type": "note_off",
                "note": 66,
                "channel": 0,
                "velocity": 76,
                "time": 0
            },
            {
                "type": "note_on",
                "note": 42,
                "channel": 0,
                "velocity": 82,
                "time": 0
            },
            {
                "type": "note_off",
                "note": 42,
                "channel": 0,
                "velocity": 82,
                "time": 240
            },
            {
                "type": "note_on",
                "note": 61,
                "channel": 0,
                "velocity": 82,
                "time": 0
            },
            {
                "type": "note_on",
                "note": 66,
                "channel": 0,
                "velocity": 82,
                "time": 0
            },
            {
                "type": "note_off",
                "note": 61,
                "channel": 0,
                "velocity": 82,
                "time": 120
            },
            {
                "type": "note_off",
                "note": 66,
                "channel": 0,
                "velocity": 82,
                "time": 0
            },
            {
                "type": "note_on",
                "note": 54,
                "channel": 0,
                "velocity": 82,
                "time": 0
            },
            {
                "type": "note_off",
                "note": 54,
                "channel": 0,
                "velocity": 82,
                "time": 240
            },
            {
                "type": "note_on",
                "note": 54,
                "channel": 0,
                "velocity": 76,
                "time": 0
            },
            {
                "type": "note_off",
                "note": 54,
                "channel": 0,
                "velocity": 76,
                "time": 120
            },
            {
                "type": "note_on",
                "note": 61,
                "channel": 0,
                "velocity": 76,
                "time": 0
            },
            {
                "type": "note_on",
                "note": 66,
                "channel": 0,
                "velocity": 76,
                "time": 0
            },
            {
                "type": "note_off",
                "note": 61,
                "channel": 0,
                "velocity": 76,
                "time": 240
            },
            {
                "type": "note_off",
                "note": 66,
                "channel": 0,
                "velocity": 76,
                "time": 0
            },
            {
                "type": "note_on",
                "note": 38,
                "channel": 0,
                "velocity": 88,
                "time": 0
            },
            {
                "type": "note_on",
                "note": 50,
                "channel": 0,
                "velocity": 88,
                "time": 0
            },
            {
                "type": "note_off",
                "note": 38,
                "channel": 0,
                "velocity": 88,
                "time": 240
            },
            {
                "type": "note_off",
                "note": 50,
                "channel": 0,
                "velocity": 88,
                "time": 0
            },
            {
                "type": "note_on",
                "note": 62,
                "channel": 0,
                "velocity": 88,
                "time": 0
            },
            {
                "type": "note_on",
                "note": 66,
                "channel": 0,
                "velocity": 88,
                "time": 0
            },
            {
                "type": "note_off",
                "note": 62,
                "channel": 0,
                "velocity": 88,
                "time": 120
            },
            {
                "type": "note_off",
                "note": 66,
                "channel": 0,
                "velocity": 88,
                "time": 0
            },
            {
                "type": "note_on",
                "note": 57,
                "channel": 0,
                "velocity": 88,
                "time": 0
            },
            {
                "type": "note_off",
                "note": 57,
                "channel": 0,
                "velocity": 88,
                "time": 360
            },
            {
                "type": "note_on",
                "note": 62,
                "channel": 0,
                "velocity": 76,
                "time": 0
            },
            {
                "type": "note_on",
                "note": 66,
                "channel": 0,
                "velocity": 76,
                "time": 0
            },
            {
                "type": "note_off",
                "note": 62,
                "channel": 0,
                "velocity": 76,
                "time": 240
            },
            {
                "type": "note_off",
                "note": 66,
                "channel": 0,
                "velocity": 76,
                "time": 0
            },
            {
                "type": "note_on",
                "note": 50,
                "channel": 0,
                "velocity": 82,
                "time": 0
            },
            {
                "type": "note_off",
                "note": 50,
                "channel": 0,
                "velocity": 82,
                "time": 240
            },
            {
                "type": "note_on",
                "note": 62,
                "channel": 0,
                "velocity": 82,
                "time": 0
            },
            {
                "type": "note_on",
                "note": 66,
                "channel": 0,
                "velocity": 82,
                "time": 0
            },
            {
                "type": "note_off",
                "note": 62,
                "channel": 0,
                "velocity": 82,
                "time": 120
            },
            {
                "type": "note_off",
                "note": 66,
                "channel": 0,
                "velocity": 82,
                "time": 0
            },
            {
                "type": "note_on",
                "note": 57,
                "channel": 0,
                "velocity": 82,
                "time": 0
            },
            {
                "type": "note_off",
                "note": 57,
                "channel": 0,
                "velocity": 82,
                "time": 360
            },
            {
                "type": "note_on",
                "note": 62,
                "channel": 0,
                "velocity": 76,
                "time": 0
            },
            {
                "type": "note_on",
                "note": 66,
                "channel": 0,
                "velocity": 76,
                "time": 0
            },
            {
                "type": "note_off",
                "note": 62,
                "channel": 0,
                "velocity": 76,
                "time": 240
            },
            {
                "type": "note_off",
                "note": 66,
                "channel": 0,
                "velocity": 76,
                "time": 0
            },
            {
                "type": "note_on",
                "note": 40,
                "channel": 0,
                "velocity": 88,
                "time": 0
            },
            {
                "type": "note_on",
                "note": 52,
                "channel": 0,
                "velocity": 88,
                "time": 0
            },
            {
                "type": "note_off",
                "note": 40,
                "channel": 0,
                "velocity": 88,
                "time": 240
            },
            {
                "type": "note_off",
                "note": 52,
                "channel": 0,
                "velocity": 88,
                "time": 0
            },
            {
                "type": "note_on",
                "note": 59,
                "channel": 0,
                "velocity": 88,
                "time": 0
            },
            {
                "type": "note_on",
                "note": 64,
                "channel": 0,
                "velocity": 88,
                "time": 0
            },
            {
                "type": "note_off",
                "note": 59,
                "channel": 0,
                "velocity": 88,
                "time": 120
            },
            {
                "type": "note_off",
                "note": 64,
                "channel": 0,
                "velocity": 88,
                "time": 0
            },
            {
                "type": "note_on",
                "note": 52,
                "channel": 0,
                "velocity": 88,
                "time": 0
            },
            {
                "type": "note_off",
                "note": 52,
                "channel": 0,
                "velocity": 88,
                "time": 360
            },
            {
                "type": "note_on",
                "note": 59,
                "channel": 0,
                "velocity": 76,
                "time": 0
            },
            {
                "type": "note_on",
                "note": 64,
                "channel": 0,
                "velocity": 76,
                "time": 0
            },
            {
                "type": "note_off",
                "note": 59,
                "channel": 0,
                "velocity": 76,
                "time": 240
            },
            {
                "type": "note_off",
                "note": 64,
                "channel": 0,
                "velocity": 76,
                "time": 0
            },
            {
                "type": "note_on",
                "note": 40,
                "channel": 0,
                "velocity": 82,
                "time": 0
            },
            {
                "type": "note_off",
                "note": 40,
                "channel": 0,
                "velocity": 82,
                "time": 240
            },
            {
                "type": "note_on",
                "note": 59,
                "channel": 0,
                "velocity": 82,
                "time": 0
            },
            {
                "type": "note_on",
                "note": 64,
                "channel": 0,
                "velocity": 82,
                "time": 0
            },
            {
                "type": "note_off",
                "note": 59,
                "channel": 0,
                "velocity": 82,
                "time": 120
            },
            {
                "type": "note_off",
                "note": 64,
                "channel": 0,
                "velocity": 82,
                "time": 0
            },
            {
                "type": "note_on",
                "note": 52,
                "channel": 0,
                "velocity": 82,
                "time": 0
            },
            {
                "type": "note_off",
                "note": 52,
                "channel": 0,
                "velocity": 82,
                "time": 360
            },
            {
                "type": "note_on",
                "note": 59,
                "channel": 0,
                "velocity": 76,
                "time": 0
            },
            {
                "type": "note_on",
                "note": 64,
                "channel": 0,
                "velocity": 76,
                "time": 0
            },
            {
                "type": "note_off",
                "note": 59,
                "channel": 0,
                "velocity": 76,
                "time": 240
            },
            {
                "type": "note_off",
                "note": 64,
                "channel": 0,
                "velocity": 76,
                "time": 0
            },
            {
                "type": "note_on",
                "note": 42,
                "channel": 0,
                "velocity": 88,
                "time": 0
            },
            {
                "type": "note_on",
                "note": 54,
                "channel": 0,
                "velocity": 88,
                "time": 0
            },
            {
                "type": "note_off",
                "note": 42,
                "channel": 0,
                "velocity": 88,
                "time": 240
            },
            {
                "type": "note_off",
                "note": 54,
                "channel": 0,
                "velocity": 88,
                "time": 0
            },
            {
                "type": "note_on",
                "note": 61,
                "channel": 0,
                "velocity": 88,
                "time": 0
            },
            {
                "type": "note_on",
                "note": 66,
                "channel": 0,
                "velocity": 88,
                "time": 0
            },
            {
                "type": "note_off",
                "note": 61,
                "channel": 0,
                "velocity": 88,
                "time": 120
            },
            {
                "type": "note_off",
                "note": 66,
                "channel": 0,
                "velocity": 88,
                "time": 0
            },
            {
                "type": "note_on",
                "note": 54,
                "channel": 0,
                "velocity": 88,
                "time": 0
            },
            {
                "type": "note_off",
                "note": 54,
                "channel": 0,
                "velocity": 88,
                "time": 360
            },
            {
                "type": "note_on",
                "note": 61,
                "channel": 0,
                "velocity": 76,
                "time": 0
            },
            {
                "type": "note_on",
                "note": 66,
                "channel": 0,
                "velocity": 76,
                "time": 0
            },
            {
                "type": "note_off",
                "note": 61,
                "channel": 0,
                "velocity": 76,
                "time": 240
            },
            {
                "type": "note_off",
                "note": 66,
                "channel": 0,
                "velocity": 76,
                "time": 0
            },
            {
                "type": "note_on",
                "note": 42,
                "channel": 0,
                "velocity": 82,
                "time": 0
            },
            {
                "type": "note_off",
                "note": 42,
                "channel": 0,
                "velocity": 82,
                "time": 240
            },
            {
                "type": "note_on",
                "note": 61,
                "channel": 0,
                "velocity": 82,
                "time": 0
            },
            {
                "type": "note_on",
                "note": 66,
                "channel": 0,
                "velocity": 82,
                "time": 0
            },
            {
                "type": "note_off",
                "note": 61,
                "channel": 0,
                "velocity": 82,
                "time": 120
            },
            {
                "type": "note_off",
                "note": 66,
                "channel": 0,
                "velocity": 82,
                "time": 0
            },
            {
                "type": "note_on",
                "note": 54,
                "channel": 0,
                "velocity": 82,
                "time": 0
            },
            {
                "type": "note_off",
                "note": 54,
                "channel": 0,
                "velocity": 82,
                "time": 360
            },
            {
                "type": "note_on",
                "note": 61,
                "channel": 0,
                "velocity": 76,
                "time": 0
            },
            {
                "type": "note_on",
                "note": 66,
                "channel": 0,
                "velocity": 76,
                "time": 0
            },
            {
                "type": "note_off",
                "note": 61,
                "channel": 0,
                "velocity": 76,
                "time": 240
            },
            {
                "type": "note_off",
                "note": 66,
                "channel": 0,
                "velocity": 76,
                "time": 0
            },
            {
                "type": "note_on",
                "note": 42,
                "channel": 0,
                "velocity": 88,
                "time": 0
            },
            {
                "type": "note_on",
                "note": 54,
                "channel": 0,
                "velocity": 88,
                "time": 0
            },
            {
                "type": "note_off",
                "note": 42,
                "channel": 0,
                "velocity": 88,
                "time": 240
            },
            {
                "type": "note_off",
                "note": 54,
                "channel": 0,
                "velocity": 88,
                "time": 0
            },
            {
                "type": "note_on",
                "note": 61,
                "channel": 0,
                "velocity": 88,
                "time": 0
            },
            {
                "type": "note_on",
                "note": 66,
                "channel": 0,
                "velocity": 88,
                "time": 0
            },
            {
                "type": "note_off",
                "note": 61,
                "channel": 0,
                "velocity": 88,
                "time": 120
            },
            {
                "type": "note_off",
                "note": 66,
                "channel": 0,
                "velocity": 88,
                "time": 0
            },
            {
                "type": "note_on",
                "note": 54,
                "channel": 0,
                "velocity": 88,
                "time": 0
            },
            {
                "type": "note_off",
                "note": 54,
                "channel": 0,
                "velocity": 88,
                "time": 360
            },
            {
                "type": "note_on",
                "note": 61,
                "channel": 0,
                "velocity": 76,
                "time": 0
            },
            {
                "type": "note_on",
                "note": 66,
                "channel": 0,
                "velocity": 76,
                "time": 0
            },
            {
                "type": "note_off",
                "note": 61,
                "channel": 0,
                "velocity": 76,
                "time": 240
            },
            {
                "type": "note_off",
                "note": 66,
                "channel": 0,
                "velocity": 76,
                "time": 0
            },
            {
                "type": "note_on",
                "note": 42,
                "channel": 0,
                "velocity": 82,
                "time": 0
            },
            {
                "type": "note_off",
                "note": 42,
                "channel": 0,
                "velocity": 82,
                "time": 240
            },
            {
                "type": "note_on",
                "note": 61,
                "channel": 0,
                "velocity": 82,
                "time": 0
            },
            {
                "type": "note_on",
                "note": 66,
                "channel": 0,
                "velocity": 82,
                "time": 0
            },
            {
                "type": "note_off",
                "note": 61,
                "channel": 0,
                "velocity": 82,
                "time": 120
            },
            {
                "type": "note_off",
                "note": 66,
                "channel": 0,
                "velocity": 82,
                "time": 0
            },
            {
                "type": "note_on",
                "note": 54,
                "channel": 0,
                "velocity": 82,
                "time": 0
            },
            {
                "type": "note_off",
                "note": 54,
                "channel": 0,
                "velocity": 82,
                "time": 240
            },
            {
                "type": "note_on",
                "note": 54,
                "channel": 0,
                "velocity": 76,
                "time": 0
            },
            {
                "type": "note_off",
                "note": 54,
                "channel": 0,
                "velocity": 76,
                "time": 120
            },
            {
                "type": "note_on",
                "note": 61,
                "channel": 0,
                "velocity": 76,
                "time": 0
            },
            {
                "type": "note_on",
                "note": 66,
                "channel": 0,
                "velocity": 76,
                "time": 0
            },
            {
                "type": "note_off",
                "note": 61,
                "channel": 0,
                "velocity": 76,
                "time": 240
            },
            {
                "type": "note_off",
                "note": 66,
                "channel": 0,
                "velocity": 76,
                "time": 0
            },
            {
                "type": "note_on",
                "note": 38,
                "channel": 0,
                "velocity": 88,
                "time": 0
            },
            {
                "type": "note_on",
                "note": 50,
                "channel": 0,
                "velocity": 88,
                "time": 0
            },
            {
                "type": "note_off",
                "note": 38,
                "channel": 0,
                "velocity": 88,
                "time": 240
            },
            {
                "type": "note_off",
                "note": 50,
                "channel": 0,
                "velocity": 88,
                "time": 0
            },
            {
                "type": "note_on",
                "note": 62,
                "channel": 0,
                "velocity": 88,
                "time": 0
            },
            {
                "type": "note_off",
                "note": 62,
                "channel": 0,
                "velocity": 88,
                "time": 120
            },
            {
                "type": "note_on",
                "note": 57,
                "channel": 0,
                "velocity": 88,
                "time": 0
            },
            {
                "type": "note_off",
                "note": 57,
                "channel": 0,
                "velocity": 88,
                "time": 120
            },
            {
                "type": "note_on",
                "note": 66,
                "channel": 0,
                "velocity": 76,
                "time": 0
            },
            {
                "type": "note_off",
                "note": 66,
                "channel": 0,
                "velocity": 76,
                "time": 240
            },
            {
                "type": "note_on",
                "note": 62,
                "channel": 0,
                "velocity": 76,
                "time": 0
            },
            {
                "type": "note_off",
                "note": 62,
                "channel": 0,
                "velocity": 76,
                "time": 240
            },
            {
                "type": "note_on",
                "note": 50,
                "channel": 0,
                "velocity": 82,
                "time": 0
            },
            {
                "type": "note_off",
                "note": 50,
                "channel": 0,
                "velocity": 82,
                "time": 240
            },
            {
                "type": "note_on",
                "note": 62,
                "channel": 0,
                "velocity": 82,
                "time": 0
            },
            {
                "type": "note_on",
                "note": 66,
                "channel": 0,
                "velocity": 82,
                "time": 0
            },
            {
                "type": "note_off",
                "note": 62,
                "channel": 0,
                "velocity": 82,
                "time": 120
            },
            {
                "type": "note_off",
                "note": 66,
                "channel": 0,
                "velocity": 82,
                "time": 0
            },
            {
                "type": "note_on",
                "note": 57,
                "channel": 0,
                "velocity": 82,
                "time": 0
            },
            {
                "type": "note_off",
                "note": 57,
                "channel": 0,
                "velocity": 82,
                "time": 360
            },
            {
                "type": "note_on",
                "note": 62,
                "channel": 0,
                "velocity": 76,
                "time": 0
            },
            {
                "type": "note_on",
                "note": 66,
                "channel": 0,
                "velocity": 76,
                "time": 0
            },
            {
                "type": "note_off",
                "note": 62,
                "channel": 0,
                "velocity": 76,
                "time": 240
            },
            {
                "type": "note_off",
                "note": 66,
                "channel": 0,
                "velocity": 76,
                "time": 0
            },
            {
                "type": "note_on",
                "note": 40,
                "channel": 0,
                "velocity": 88,
                "time": 0
            },
            {
                "type": "note_on",
                "note": 52,
                "channel": 0,
                "velocity": 88,
                "time": 0
            },
            {
                "type": "note_off",
                "note": 40,
                "channel": 0,
                "velocity": 88,
                "time": 240
            },
            {
                "type": "note_off",
                "note": 52,
                "channel": 0,
                "velocity": 88,
                "time": 0
            },
            {
                "type": "note_on",
                "note": 59,
                "channel": 0,
                "velocity": 88,
                "time": 0
            },
            {
                "type": "note_on",
                "note": 64,
                "channel": 0,
                "velocity": 88,
                "time": 0
            },
            {
                "type": "note_off",
                "note": 59,
                "channel": 0,
                "velocity": 88,
                "time": 120
            },
            {
                "type": "note_off",
                "note": 64,
                "channel": 0,
                "velocity": 88,
                "time": 0
            },
            {
                "type": "note_on",
                "note": 52,
                "channel": 0,
                "velocity": 88,
                "time": 0
            },
            {
                "type": "note_off",
                "note": 52,
                "channel": 0,
                "velocity": 88,
                "time": 360
            },
            {
                "type": "note_on",
                "note": 59,
                "channel": 0,
                "velocity": 76,
                "time": 0
            },
            {
                "type": "note_on",
                "note": 64,
                "channel": 0,
                "velocity": 76,
                "time": 0
            },
            {
                "type": "note_off",
                "note": 59,
                "channel": 0,
                "velocity": 76,
                "time": 240
            },
            {
                "type": "note_off",
                "note": 64,
                "channel": 0,
                "velocity": 76,
                "time": 0
            },
            {
                "type": "note_on",
                "note": 40,
                "channel": 0,
                "velocity": 82,
                "time": 0
            },
            {
                "type": "note_off",
                "note": 40,
                "channel": 0,
                "velocity": 82,
                "time": 240
            },
            {
                "type": "note_on",
                "note": 59,
                "channel": 0,
                "velocity": 82,
                "time": 0
            },
            {
                "type": "note_on",
                "note": 64,
                "channel": 0,
                "velocity": 82,
                "time": 0
            },
            {
                "type": "note_off",
                "note": 59,
                "channel": 0,
                "velocity": 82,
                "time": 120
            },
            {
                "type": "note_off",
                "note": 64,
                "channel": 0,
                "velocity": 82,
                "time": 0
            },
            {
                "type": "note_on",
                "note": 52,
                "channel": 0,
                "velocity": 82,
                "time": 0
            },
            {
                "type": "note_off",
                "note": 52,
                "channel": 0,
                "velocity": 82,
                "time": 360
            },
            {
                "type": "note_on",
                "note": 59,
                "channel": 0,
                "velocity": 76,
                "time": 0
            },
            {
                "type": "note_on",
                "note": 64,
                "channel": 0,
                "velocity": 76,
                "time": 0
            },
            {
                "type": "note_off",
                "note": 59,
                "channel": 0,
                "velocity": 76,
                "time": 240
            },
            {
                "type": "note_off",
                "note": 64,
                "channel": 0,
                "velocity": 76,
                "time": 0
            },
            {
                "type": "note_on",
                "note": 42,
                "channel": 0,
                "velocity": 88,
                "time": 0
            },
            {
                "type": "note_on",
                "note": 54,
                "channel": 0,
                "velocity": 88,
                "time": 0
            },
            {
                "type": "note_off",
                "note": 42,
                "channel": 0,
                "velocity": 88,
                "time": 240
            },
            {
                "type": "note_off",
                "note": 54,
                "channel": 0,
                "velocity": 88,
                "time": 0
            },
            {
                "type": "note_on",
                "note": 61,
                "channel": 0,
                "velocity": 88,
                "time": 0
            },
            {
                "type": "note_off",
                "note": 61,
                "channel": 0,
                "velocity": 88,
                "time": 120
            },
            {
                "type": "note_on",
                "note": 54,
                "channel": 0,
                "velocity": 88,
                "time": 0
            },
            {
                "type": "note_off",
                "note": 54,
                "channel": 0,
                "velocity": 88,
                "time": 360
            },
            {
                "type": "note_on",
                "note": 61,
                "channel": 0,
                "velocity": 76,
                "time": 0
            },
            {
                "type": "note_off",
                "note": 61,
                "channel": 0,
                "velocity": 76,
                "time": 240
            },
            {
                "type": "note_on",
                "note": 42,
                "channel": 0,
                "velocity": 82,
                "time": 0
            },
            {
                "type": "note_off",
                "note": 42,
                "channel": 0,
                "velocity": 82,
                "time": 240
            },
            {
                "type": "note_on",
                "note": 61,
                "channel": 0,
                "velocity": 82,
                "time": 0
            },
            {
                "type": "note_on",
                "note": 66,
                "channel": 0,
                "velocity": 82,
                "time": 0
            },
            {
                "type": "note_off",
                "note": 61,
                "channel": 0,
                "velocity": 82,
                "time": 120
            },
            {
                "type": "note_off",
                "note": 66,
                "channel": 0,
                "velocity": 82,
                "time": 0
            },
            {
                "type": "note_on",
                "note": 54,
                "channel": 0,
                "velocity": 82,
                "time": 0
            },
            {
                "type": "note_off",
                "note": 54,
                "channel": 0,
                "velocity": 82,
                "time": 360
            },
            {
                "type": "note_on",
                "note": 61,
                "channel": 0,
                "velocity": 76,
                "time": 0
            },
            {
                "type": "note_on",
                "note": 66,
                "channel": 0,
                "velocity": 76,
                "time": 0
            },
            {
                "type": "note_off",
                "note": 61,
                "channel": 0,
                "velocity": 76,
                "time": 240
            },
            {
                "type": "note_off",
                "note": 66,
                "channel": 0,
                "velocity": 76,
                "time": 0
            },
            {
                "type": "note_on",
                "note": 42,
                "channel": 0,
                "velocity": 88,
                "time": 0
            },
            {
                "type": "note_on",
                "note": 54,
                "channel": 0,
                "velocity": 88,
                "time": 0
            },
            {
                "type": "note_off",
                "note": 42,
                "channel": 0,
                "velocity": 88,
                "time": 240
            },
            {
                "type": "note_off",
                "note": 54,
                "channel": 0,
                "velocity": 88,
                "time": 0
            },
            {
                "type": "note_on",
                "note": 61,
                "channel": 0,
                "velocity": 88,
                "time": 0
            },
            {
                "type": "note_off",
                "note": 61,
                "channel": 0,
                "velocity": 88,
                "time": 120
            },
            {
                "type": "note_on",
                "note": 54,
                "channel": 0,
                "velocity": 88,
                "time": 0
            },
            {
                "type": "note_off",
                "note": 54,
                "channel": 0,
                "velocity": 88,
                "time": 360
            },
            {
                "type": "note_on",
                "note": 61,
                "channel": 0,
                "velocity": 76,
                "time": 0
            },
            {
                "type": "note_off",
                "note": 61,
                "channel": 0,
                "velocity": 76,
                "time": 240
            },
            {
                "type": "note_on",
                "note": 42,
                "channel": 0,
                "velocity": 82,
                "time": 0
            },
            {
                "type": "note_off",
                "note": 42,
                "channel": 0,
                "velocity": 82,
                "time": 240
            },
            {
                "type": "note_on",
                "note": 61,
                "channel": 0,
                "velocity": 82,
                "time": 0
            },
            {
                "type": "note_on",
                "note": 66,
                "channel": 0,
                "velocity": 82,
                "time": 0
            },
            {
                "type": "note_off",
                "note": 61,
                "channel": 0,
                "velocity": 82,
                "time": 120
            },
            {
                "type": "note_off",
                "note": 66,
                "channel": 0,
                "velocity": 82,
                "time": 0
            },
            {
                "type": "note_on",
                "note": 54,
                "channel": 0,
                "velocity": 82,
                "time": 0
            },
            {
                "type": "note_off",
                "note": 54,
                "channel": 0,
                "velocity": 82,
                "time": 240
            },
            {
                "type": "note_on",
                "note": 54,
                "channel": 0,
                "velocity": 76,
                "time": 0
            },
            {
                "type": "note_off",
                "note": 54,
                "channel": 0,
                "velocity": 76,
                "time": 120
            },
            {
                "type": "note_on",
                "note": 61,
                "channel": 0,
                "velocity": 76,
                "time": 0
            },
            {
                "type": "note_on",
                "note": 66,
                "channel": 0,
                "velocity": 76,
                "time": 0
            },
            {
                "type": "note_off",
                "note": 61,
                "channel": 0,
                "velocity": 76,
                "time": 240
            },
            {
                "type": "note_off",
                "note": 66,
                "channel": 0,
                "velocity": 76,
                "time": 0
            },
            {
                "type": "note_on",
                "note": 38,
                "channel": 0,
                "velocity": 88,
                "time": 0
            },
            {
                "type": "note_on",
                "note": 50,
                "channel": 0,
                "velocity": 88,
                "time": 0
            },
            {
                "type": "note_off",
                "note": 38,
                "channel": 0,
                "velocity": 88,
                "time": 240
            },
            {
                "type": "note_off",
                "note": 50,
                "channel": 0,
                "velocity": 88,
                "time": 0
            },
            {
                "type": "note_on",
                "note": 62,
                "channel": 0,
                "velocity": 88,
                "time": 0
            },
            {
                "type": "note_off",
                "note": 62,
                "channel": 0,
                "velocity": 88,
                "time": 120
            },
            {
                "type": "note_on",
                "note": 57,
                "channel": 0,
                "velocity": 88,
                "time": 0
            },
            {
                "type": "note_off",
                "note": 57,
                "channel": 0,
                "velocity": 88,
                "time": 360
            },
            {
                "type": "note_on",
                "note": 62,
                "channel": 0,
                "velocity": 76,
                "time": 0
            },
            {
                "type": "note_off",
                "note": 62,
                "channel": 0,
                "velocity": 76,
                "time": 240
            },
            {
                "type": "note_on",
                "note": 50,
                "channel": 0,
                "velocity": 82,
                "time": 0
            },
            {
                "type": "note_off",
                "note": 50,
                "channel": 0,
                "velocity": 82,
                "time": 240
            },
            {
                "type": "note_on",
                "note": 62,
                "channel": 0,
                "velocity": 82,
                "time": 0
            },
            {
                "type": "note_on",
                "note": 66,
                "channel": 0,
                "velocity": 82,
                "time": 0
            },
            {
                "type": "note_off",
                "note": 62,
                "channel": 0,
                "velocity": 82,
                "time": 120
            },
            {
                "type": "note_off",
                "note": 66,
                "channel": 0,
                "velocity": 82,
                "time": 0
            },
            {
                "type": "note_on",
                "note": 57,
                "channel": 0,
                "velocity": 82,
                "time": 0
            },
            {
                "type": "note_off",
                "note": 57,
                "channel": 0,
                "velocity": 82,
                "time": 360
            },
            {
                "type": "note_on",
                "note": 62,
                "channel": 0,
                "velocity": 76,
                "time": 0
            },
            {
                "type": "note_on",
                "note": 66,
                "channel": 0,
                "velocity": 76,
                "time": 0
            },
            {
                "type": "note_off",
                "note": 62,
                "channel": 0,
                "velocity": 76,
                "time": 240
            },
            {
                "type": "note_off",
                "note": 66,
                "channel": 0,
                "velocity": 76,
                "time": 0
            },
            {
                "type": "note_on",
                "note": 40,
                "channel": 0,
                "velocity": 88,
                "time": 0
            },
            {
                "type": "note_on",
                "note": 52,
                "channel": 0,
                "velocity": 88,
                "time": 0
            },
            {
                "type": "note_off",
                "note": 40,
                "channel": 0,
                "velocity": 88,
                "time": 240
            },
            {
                "type": "note_off",
                "note": 52,
                "channel": 0,
                "velocity": 88,
                "time": 0
            },
            {
                "type": "note_on",
                "note": 59,
                "channel": 0,
                "velocity": 88,
                "time": 0
            },
            {
                "type": "note_on",
                "note": 64,
                "channel": 0,
                "velocity": 88,
                "time": 0
            },
            {
                "type": "note_off",
                "note": 59,
                "channel": 0,
                "velocity": 88,
                "time": 120
            },
            {
                "type": "note_off",
                "note": 64,
                "channel": 0,
                "velocity": 88,
                "time": 0
            },
            {
                "type": "note_on",
                "note": 52,
                "channel": 0,
                "velocity": 88,
                "time": 0
            },
            {
                "type": "note_off",
                "note": 52,
                "channel": 0,
                "velocity": 88,
                "time": 120
            },
            {
                "type": "note_on",
                "note": 52,
                "channel": 0,
                "velocity": 76,
                "time": 0
            },
            {
                "type": "note_off",
                "note": 52,
                "channel": 0,
                "velocity": 76,
                "time": 240
            },
            {
                "type": "note_on",
                "note": 59,
                "channel": 0,
                "velocity": 76,
                "time": 0
            },
            {
                "type": "note_on",
                "note": 64,
                "channel": 0,
                "velocity": 76,
                "time": 0
            },
            {
                "type": "note_off",
                "note": 59,
                "channel": 0,
                "velocity": 76,
                "time": 240
            },
            {
                "type": "note_off",
                "note": 64,
                "channel": 0,
                "velocity": 76,
                "time": 0
            },
            {
                "type": "note_on",
                "note": 40,
                "channel": 0,
                "velocity": 82,
                "time": 0
            },
            {
                "type": "note_off",
                "note": 40,
                "channel": 0,
                "velocity": 82,
                "time": 240
            },
            {
                "type": "note_on",
                "note": 59,
                "channel": 0,
                "velocity": 82,
                "time": 0
            },
            {
                "type": "note_on",
                "note": 64,
                "channel": 0,
                "velocity": 82,
                "time": 0
            },
            {
                "type": "note_off",
                "note": 59,
                "channel": 0,
                "velocity": 82,
                "time": 120
            },
            {
                "type": "note_off",
                "note": 64,
                "channel": 0,
                "velocity": 82,
                "time": 0
            },
            {
                "type": "note_on",
                "note": 52,
                "channel": 0,
                "velocity": 82,
                "time": 0
            },
            {
                "type": "note_off",
                "note": 52,
                "channel": 0,
                "velocity": 82,
                "time": 360
            },
            {
                "type": "note_on",
                "note": 59,
                "channel": 0,
                "velocity": 76,
                "time": 0
            },
            {
                "type": "note_on",
                "note": 64,
                "channel": 0,
                "velocity": 76,
                "time": 0
            },
            {
                "type": "note_off",
                "note": 59,
                "channel": 0,
                "velocity": 76,
                "time": 240
            },
            {
                "type": "note_off",
                "note": 64,
                "channel": 0,
                "velocity": 76,
                "time": 0
            },
            {
                "type": "note_on",
                "note": 42,
                "channel": 0,
                "velocity": 88,
                "time": 0
            },
            {
                "type": "note_on",
                "note": 54,
                "channel": 0,
                "velocity": 88,
                "time": 0
            },
            {
                "type": "note_off",
                "note": 42,
                "channel": 0,
                "velocity": 88,
                "time": 240
            },
            {
                "type": "note_off",
                "note": 54,
                "channel": 0,
                "velocity": 88,
                "time": 0
            },
            {
                "type": "note_on",
                "note": 61,
                "channel": 0,
                "velocity": 88,
                "time": 0
            },
            {
                "type": "note_on",
                "note": 66,
                "channel": 0,
                "velocity": 88,
                "time": 0
            },
            {
                "type": "note_off",
                "note": 61,
                "channel": 0,
                "velocity": 88,
                "time": 120
            },
            {
                "type": "note_off",
                "note": 66,
                "channel": 0,
                "velocity": 88,
                "time": 0
            },
            {
                "type": "note_on",
                "note": 54,
                "channel": 0,
                "velocity": 88,
                "time": 0
            },
            {
                "type": "note_off",
                "note": 54,
                "channel": 0,
                "velocity": 88,
                "time": 120
            },
            {
                "type": "note_on",
                "note": 42,
                "channel": 0,
                "velocity": 76,
                "time": 0
            },
            {
                "type": "note_off",
                "note": 42,
                "channel": 0,
                "velocity": 76,
                "time": 120
            },
            {
                "type": "note_on",
                "note": 54,
                "channel": 0,
                "velocity": 76,
                "time": 0
            },
            {
                "type": "note_off",
                "note": 54,
                "channel": 0,
                "velocity": 76,
                "time": 120
            },
            {
                "type": "note_on",
                "note": 61,
                "channel": 0,
                "velocity": 76,
                "time": 0
            },
            {
                "type": "note_on",
                "note": 66,
                "channel": 0,
                "velocity": 76,
                "time": 0
            },
            {
                "type": "note_off",
                "note": 61,
                "channel": 0,
                "velocity": 76,
                "time": 120
            },
            {
                "type": "note_off",
                "note": 66,
                "channel": 0,
                "velocity": 76,
                "time": 0
            },
            {
                "type": "note_on",
                "note": 54,
                "channel": 0,
                "velocity": 76,
                "time": 0
            },
            {
                "type": "note_off",
                "note": 54,
                "channel": 0,
                "velocity": 76,
                "time": 120
            },
            {
                "type": "note_on",
                "note": 42,
                "channel": 0,
                "velocity": 82,
                "time": 0
            },
            {
                "type": "note_off",
                "note": 42,
                "channel": 0,
                "velocity": 82,
                "time": 120
            },
            {
                "type": "note_on",
                "note": 54,
                "channel": 0,
                "velocity": 82,
                "time": 0
            },
            {
                "type": "note_off",
                "note": 54,
                "channel": 0,
                "velocity": 82,
                "time": 120
            },
            {
                "type": "note_on",
                "note": 61,
                "channel": 0,
                "velocity": 82,
                "time": 0
            },
            {
                "type": "note_on",
                "note": 66,
                "channel": 0,
                "velocity": 82,
                "time": 0
            },
            {
                "type": "note_off",
                "note": 61,
                "channel": 0,
                "velocity": 82,
                "time": 120
            },
            {
                "type": "note_off",
                "note": 66,
                "channel": 0,
                "velocity": 82,
                "time": 0
            },
            {
                "type": "note_on",
                "note": 54,
                "channel": 0,
                "velocity": 82,
                "time": 0
            },
            {
                "type": "note_off",
                "note": 54,
                "channel": 0,
                "velocity": 82,
                "time": 120
            },
            {
                "type": "note_on",
                "note": 42,
                "channel": 0,
                "velocity": 76,
                "time": 0
            },
            {
                "type": "note_off",
                "note": 42,
                "channel": 0,
                "velocity": 76,
                "time": 120
            },
            {
                "type": "note_on",
                "note": 54,
                "channel": 0,
                "velocity": 76,
                "time": 0
            },
            {
                "type": "note_off",
                "note": 54,
                "channel": 0,
                "velocity": 76,
                "time": 120
            },
            {
                "type": "note_on",
                "note": 61,
                "channel": 0,
                "velocity": 76,
                "time": 0
            },
            {
                "type": "note_on",
                "note": 66,
                "channel": 0,
                "velocity": 76,
                "time": 0
            },
            {
                "type": "note_off",
                "note": 61,
                "channel": 0,
                "velocity": 76,
                "time": 120
            },
            {
                "type": "note_off",
                "note": 66,
                "channel": 0,
                "velocity": 76,
                "time": 0
            },
            {
                "type": "note_on",
                "note": 54,
                "channel": 0,
                "velocity": 76,
                "time": 0
            },
            {
                "type": "note_off",
                "note": 54,
                "channel": 0,
                "velocity": 76,
                "time": 120
            },
            {
                "type": "note_on",
                "note": 42,
                "channel": 0,
                "velocity": 88,
                "time": 0
            },
            {
                "type": "note_on",
                "note": 54,
                "channel": 0,
                "velocity": 88,
                "time": 0
            },
            {
                "type": "note_off",
                "note": 42,
                "channel": 0,
                "velocity": 88,
                "time": 240
            },
            {
                "type": "note_off",
                "note": 54,
                "channel": 0,
                "velocity": 88,
                "time": 0
            },
            {
                "type": "note_on",
                "note": 61,
                "channel": 0,
                "velocity": 88,
                "time": 0
            },
            {
                "type": "note_on",
                "note": 66,
                "channel": 0,
                "velocity": 88,
                "time": 0
            },
            {
                "type": "note_off",
                "note": 61,
                "channel": 0,
                "velocity": 88,
                "time": 120
            },
            {
                "type": "note_off",
                "note": 66,
                "channel": 0,
                "velocity": 88,
                "time": 0
            },
            {
                "type": "note_on",
                "note": 54,
                "channel": 0,
                "velocity": 88,
                "time": 0
            },
            {
                "type": "note_off",
                "note": 54,
                "channel": 0,
                "velocity": 88,
                "time": 120
            },
            {
                "type": "note_on",
                "note": 42,
                "channel": 0,
                "velocity": 76,
                "time": 0
            },
            {
                "type": "note_off",
                "note": 42,
                "channel": 0,
                "velocity": 76,
                "time": 120
            },
            {
                "type": "note_on",
                "note": 54,
                "channel": 0,
                "velocity": 76,
                "time": 0
            },
            {
                "type": "note_off",
                "note": 54,
                "channel": 0,
                "velocity": 76,
                "time": 120
            },
            {
                "type": "note_on",
                "note": 61,
                "channel": 0,
                "velocity": 76,
                "time": 0
            },
            {
                "type": "note_on",
                "note": 66,
                "channel": 0,
                "velocity": 76,
                "time": 0
            },
            {
                "type": "note_off",
                "note": 61,
                "channel": 0,
                "velocity": 76,
                "time": 120
            },
            {
                "type": "note_off",
                "note": 66,
                "channel": 0,
                "velocity": 76,
                "time": 0
            },
            {
                "type": "note_on",
                "note": 54,
                "channel": 0,
                "velocity": 76,
                "time": 0
            },
            {
                "type": "note_off",
                "note": 54,
                "channel": 0,
                "velocity": 76,
                "time": 120
            },
            {
                "type": "note_on",
                "note": 30,
                "channel": 0,
                "velocity": 82,
                "time": 0
            },
            {
                "type": "note_on",
                "note": 42,
                "channel": 0,
                "velocity": 82,
                "time": 0
            },
            {
                "type": "note_off",
                "note": 30,
                "channel": 0,
                "velocity": 82,
                "time": 240
            },
            {
                "type": "note_off",
                "note": 42,
                "channel": 0,
                "velocity": 82,
                "time": 0
            }
        ]
    }
}